  0
SECTION
  2
HEADER
  9
$ACADVER
  1
AC1024
  9
$ACADMAINTVER
 70
6
  9
$DWGCODEPAGE
  3
ANSI_1252
  9
$LASTSAVEDBY
  1
ezdxf
  9
$INSBASE
 10
0.0
 20
0.0
 30
0.0
  9
$EXTMIN
 10
1e+20
 20
1e+20
 30
1e+20
  9
$EXTMAX
 10
-1e+20
 20
-1e+20
 30
-1e+20
  9
$LIMMIN
 10
0.0
 20
0.0
  9
$LIMMAX
 10
420.0
 20
297.0
  9
$ORTHOMODE
 70
0
  9
$REGENMODE
 70
1
  9
$FILLMODE
 70
1
  9
$QTEXTMODE
 70
0
  9
$MIRRTEXT
 70
1
  9
$LTSCALE
 40
1.0
  9
$ATTMODE
 70
1
  9
$TEXTSIZE
 40
2.5
  9
$TRACEWID
 40
1.0
  9
$TEXTSTYLE
  7
OpenSans
  9
$CLAYER
  8
0
  9
$CELTYPE
  6
ByLayer
  9
$CECOLOR
 62
256
  9
$CELTSCALE
 40
1.0
  9
$DISPSILH
 70
0
  9
$DIMSCALE
 40
1.0
  9
$DIMASZ
 40
0.175
  9
$DIMEXO
 40
0.125
  9
$DIMDLI
 40
3.75
  9
$DIMRND
 40
0.0
  9
$DIMDLE
 40
0.0
  9
$DIMEXE
 40
0.375
  9
$DIMTP
 40
0.0
  9
$DIMTM
 40
0.0
  9
$DIMTXT
 40
0.25
  9
$DIMCEN
 40
2.5
  9
$DIMTSZ
 40
0.0
  9
$DIMTOL
 70
0
  9
$DIMLIM
 70
0
  9
$DIMTIH
 70
0
  9
$DIMTOH
 70
0
  9
$DIMSE1
 70
0
  9
$DIMSE2
 70
0
  9
$DIMTAD
 70
1
  9
$DIMZIN
 70
12
  9
$DIMBLK
  1
ARCHTICK
  9
$DIMASO
 70
1
  9
$DIMSHO
 70
1
  9
$DIMPOST
  1

  9
$DIMAPOST
  1

  9
$DIMALT
 70
0
  9
$DIMALTD
 70
3
  9
$DIMALTF
 40
0.03937007874
  9
$DIMLFAC
 40
100.0
  9
$DIMTOFL
 70
1
  9
$DIMTVP
 40
0.0
  9
$DIMTIX
 70
0
  9
$DIMSOXD
 70
0
  9
$DIMSAH
 70
0
  9
$DIMBLK1
  1

  9
$DIMBLK2
  1

  9
$DIMSTYLE
  2
EZDXF
  9
$DIMCLRD
 70
0
  9
$DIMCLRE
 70
0
  9
$DIMCLRT
 70
0
  9
$DIMTFAC
 40
0.5
  9
$DIMGAP
 40
0.1
  9
$DIMJUST
 70
0
  9
$DIMSD1
 70
0
  9
$DIMSD2
 70
0
  9
$DIMTOLJ
 70
0
  9
$DIMTZIN
 70
8
  9
$DIMALTZ
 70
0
  9
$DIMALTTZ
 70
0
  9
$DIMUPT
 70
1
  9
$DIMDEC
 70
2
  9
$DIMTDEC
 70
2
  9
$DIMALTU
 70
2
  9
$DIMALTTD
 70
3
  9
$DIMTXSTY
  7
OpenSansCondensed-Light
  9
$DIMAUNIT
 70
0
  9
$DIMADEC
 70
2
  9
$DIMALTRND
 40
0.0
  9
$DIMAZIN
 70
3
  9
$DIMDSEP
 70
46
  9
$DIMATFIT
 70
3
  9
$DIMFRAC
 70
0
  9
$DIMLDRBLK
  1

  9
$DIMLUNIT
 70
2
  9
$DIMLWD
 70
-2
  9
$DIMLWE
 70
-2
  9
$DIMTMOVE
 70
2
  9
$DIMFXL
 40
1.0
  9
$DIMFXLON
 70
0
  9
$DIMJOGANG
 40
0.785398163397
  9
$DIMTFILL
 70
0
  9
$DIMTFILLCLR
 70
0
  9
$DIMARCSYM
 70
0
  9
$DIMLTYPE
  6

  9
$DIMLTEX1
  6

  9
$DIMLTEX2
  6

  9
$DIMTXTDIRECTION
 70
0
  9
$LUNITS
 70
2
  9
$LUPREC
 70
4
  9
$SKETCHINC
 40
1.0
  9
$FILLETRAD
 40
10.0
  9
$AUNITS
 70
0
  9
$AUPREC
 70
2
  9
$MENU
  1
.
  9
$ELEVATION
 40
0.0
  9
$PELEVATION
 40
0.0
  9
$THICKNESS
 40
0.0
  9
$LIMCHECK
 70
0
  9
$CHAMFERA
 40
0.0
  9
$CHAMFERB
 40
0.0
  9
$CHAMFERC
 40
0.0
  9
$CHAMFERD
 40
0.0
  9
$SKPOLY
 70
0
  9
$TDCREATE
 40
2461236.6687037037
  9
$TDUCREATE
 40
2458532.153996898
  9
$TDUPDATE
 40
2461236.6687037037
  9
$TDUUPDATE
 40
2458532.1544311
  9
$TDINDWG
 40
0.0
  9
$TDUSRTIMER
 40
0.0
  9
$USRTIMER
 70
1
  9
$ANGBASE
 50
0.0
  9
$ANGDIR
 70
0
  9
$PDMODE
 70
0
  9
$PDSIZE
 40
0.0
  9
$PLINEWID
 40
0.0
  9
$SPLFRAME
 70
0
  9
$SPLINETYPE
 70
6
  9
$SPLINESEGS
 70
8
  9
$HANDSEED
  5
9C
  9
$SURFTAB1
 70
6
  9
$SURFTAB2
 70
6
  9
$SURFTYPE
 70
6
  9
$SURFU
 70
6
  9
$SURFV
 70
6
  9
$UCSBASE
  2

  9
$UCSNAME
  2

  9
$UCSORG
 10
0.0
 20
0.0
 30
0.0
  9
$UCSXDIR
 10
1.0
 20
0.0
 30
0.0
  9
$UCSYDIR
 10
0.0
 20
1.0
 30
0.0
  9
$UCSORTHOREF
  2

  9
$UCSORTHOVIEW
 70
0
  9
$UCSORGTOP
 10
0.0
 20
0.0
 30
0.0
  9
$UCSORGBOTTOM
 10
0.0
 20
0.0
 30
0.0
  9
$UCSORGLEFT
 10
0.0
 20
0.0
 30
0.0
  9
$UCSORGRIGHT
 10
0.0
 20
0.0
 30
0.0
  9
$UCSORGFRONT
 10
0.0
 20
0.0
 30
0.0
  9
$UCSORGBACK
 10
0.0
 20
0.0
 30
0.0
  9
$PUCSBASE
  2

  9
$PUCSNAME
  2

  9
$PUCSORG
 10
0.0
 20
0.0
 30
0.0
  9
$PUCSXDIR
 10
1.0
 20
0.0
 30
0.0
  9
$PUCSYDIR
 10
0.0
 20
1.0
 30
0.0
  9
$PUCSORTHOREF
  2

  9
$PUCSORTHOVIEW
 70
0
  9
$PUCSORGTOP
 10
0.0
 20
0.0
 30
0.0
  9
$PUCSORGBOTTOM
 10
0.0
 20
0.0
 30
0.0
  9
$PUCSORGLEFT
 10
0.0
 20
0.0
 30
0.0
  9
$PUCSORGRIGHT
 10
0.0
 20
0.0
 30
0.0
  9
$PUCSORGFRONT
 10
0.0
 20
0.0
 30
0.0
  9
$PUCSORGBACK
 10
0.0
 20
0.0
 30
0.0
  9
$USERI1
 70
0
  9
$USERI2
 70
0
  9
$USERI3
 70
0
  9
$USERI4
 70
0
  9
$USERI5
 70
0
  9
$USERR1
 40
0.0
  9
$USERR2
 40
0.0
  9
$USERR3
 40
0.0
  9
$USERR4
 40
0.0
  9
$USERR5
 40
0.0
  9
$WORLDVIEW
 70
1
  9
$SHADEDGE
 70
3
  9
$SHADEDIF
 70
70
  9
$TILEMODE
 70
1
  9
$MAXACTVP
 70
64
  9
$PINSBASE
 10
0.0
 20
0.0
 30
0.0
  9
$PLIMCHECK
 70
0
  9
$PEXTMIN
 10
1e+20
 20
1e+20
 30
1e+20
  9
$PEXTMAX
 10
-1e+20
 20
-1e+20
 30
-1e+20
  9
$PLIMMIN
 10
0.0
 20
0.0
  9
$PLIMMAX
 10
420.0
 20
297.0
  9
$UNITMODE
 70
0
  9
$VISRETAIN
 70
1
  9
$PLINEGEN
 70
0
  9
$PSLTSCALE
 70
1
  9
$TREEDEPTH
 70
3020
  9
$CMLSTYLE
  2
Standard
  9
$CMLJUST
 70
0
  9
$CMLSCALE
 40
20.0
  9
$PROXYGRAPHICS
 70
1
  9
$MEASUREMENT
 70
1
  9
$CELWEIGHT
370
-1
  9
$ENDCAPS
280
0
  9
$JOINSTYLE
280
0
  9
$LWDISPLAY
290
0
  9
$INSUNITS
 70
4
  9
$HYPERLINKBASE
  1

  9
$STYLESHEET
  1

  9
$XEDIT
290
1
  9
$CEPSNTYPE
380
0
  9
$PSTYLEMODE
290
1
  9
$FINGERPRINTGUID
  2
{D6084126-0E12-43E5-9908-88761FCF7E4D}
  9
$VERSIONGUID
  2
{2DEB3C04-1B41-413D-B8C6-DA36572A143B}
  9
$EXTNAMES
290
1
  9
$PSVPSCALE
 40
0.0
  9
$OLESTARTUP
290
0
  9
$SORTENTS
280
127
  9
$INDEXCTL
280
0
  9
$HIDETEXT
280
1
  9
$XCLIPFRAME
280
1
  9
$HALOGAP
280
0
  9
$OBSCOLOR
 70
257
  9
$OBSLTYPE
280
0
  9
$INTERSECTIONDISPLAY
280
0
  9
$INTERSECTIONCOLOR
 70
257
  9
$DIMASSOC
280
2
  9
$PROJECTNAME
  1

  9
$CAMERADISPLAY
290
0
  9
$LENSLENGTH
 40
50.0
  9
$CAMERAHEIGHT
 40
0.0
  9
$STEPSPERSEC
 40
24.0
  9
$STEPSIZE
 40
100.0
  9
$3DDWFPREC
 40
2.0
  9
$PSOLWIDTH
 40
0.005
  9
$PSOLHEIGHT
 40
0.08
  9
$LOFTANG1
 40
1.570796326795
  9
$LOFTANG2
 40
1.570796326795
  9
$LOFTMAG1
 40
0.0
  9
$LOFTMAG2
 40
0.0
  9
$LOFTPARAM
 70
7
  9
$LOFTNORMALS
280
1
  9
$LATITUDE
 40
37.795
  9
$LONGITUDE
 40
-122.394
  9
$NORTHDIRECTION
 40
0.0
  9
$TIMEZONE
 70
-8000
  9
$LIGHTGLYPHDISPLAY
280
1
  9
$TILEMODELIGHTSYNCH
280
1
  9
$CMATERIAL
347
20
  9
$SOLIDHIST
280
0
  9
$SHOWHIST
280
1
  9
$DWFFRAME
280
2
  9
$DGNFRAME
280
2
  9
$REALWORLDSCALE
290
1
  9
$INTERFERECOLOR
 62
256
  9
$CSHADOW
280
0
  9
$SHADOWPLANELOCATION
 40
0.0
  0
ENDSEC
  0
SECTION
  2
CLASSES
  0
CLASS
  1
ACDBDICTIONARYWDFLT
  2
AcDbDictionaryWithDefault
  3
ObjectDBX Classes
 90
0
 91
0
280
0
281
0
  0
CLASS
  1
SUN
  2
AcDbSun
  3
SCENEOE
 90
1153
 91
0
280
0
281
0
  0
CLASS
  1
VISUALSTYLE
  2
AcDbVisualStyle
  3
ObjectDBX Classes
 90
4095
 91
0
280
0
281
0
  0
CLASS
  1
MATERIAL
  2
AcDbMaterial
  3
ObjectDBX Classes
 90
1153
 91
0
280
0
281
0
  0
CLASS
  1
SCALE
  2
AcDbScale
  3
ObjectDBX Classes
 90
1153
 91
0
280
0
281
0
  0
CLASS
  1
TABLESTYLE
  2
AcDbTableStyle
  3
ObjectDBX Classes
 90
4095
 91
0
280
0
281
0
  0
CLASS
  1
MLEADERSTYLE
  2
AcDbMLeaderStyle
  3
ACDB_MLEADERSTYLE_CLASS
 90
4095
 91
0
280
0
281
0
  0
CLASS
  1
DICTIONARYVAR
  2
AcDbDictionaryVar
  3
ObjectDBX Classes
 90
0
 91
0
280
0
281
0
  0
CLASS
  1
CELLSTYLEMAP
  2
AcDbCellStyleMap
  3
ObjectDBX Classes
 90
1152
 91
0
280
0
281
0
  0
CLASS
  1
MENTALRAYRENDERSETTINGS
  2
AcDbMentalRayRenderSettings
  3
SCENEOE
 90
1024
 91
0
280
0
281
0
  0
CLASS
  1
ACDBDETAILVIEWSTYLE
  2
AcDbDetailViewStyle
  3
ObjectDBX Classes
 90
1025
 91
0
280
0
281
0
  0
CLASS
  1
ACDBSECTIONVIEWSTYLE
  2
AcDbSectionViewStyle
  3
ObjectDBX Classes
 90
1025
 91
0
280
0
281
0
  0
CLASS
  1
RASTERVARIABLES
  2
AcDbRasterVariables
  3
ISM
 90
0
 91
0
280
0
281
0
  0
CLASS
  1
ACDBPLACEHOLDER
  2
AcDbPlaceHolder
  3
ObjectDBX Classes
 90
0
 91
0
280
0
281
0
  0
CLASS
  1
LAYOUT
  2
AcDbLayout
  3
ObjectDBX Classes
 90
0
 91
0
280
0
281
0
  0
ENDSEC
  0
SECTION
  2
TABLES
  0
TABLE
  2
VPORT
  5
8
330
0
100
AcDbSymbolTable
 70
1
  0
VPORT
  5
23
330
8
100
AcDbSymbolTableRecord
100
AcDbViewportTableRecord
  2
*Active
 70
0
 10
0.0
 20
0.0
 11
1.0
 21
1.0
 12
0.0
 22
0.0
 13
0.0
 23
0.0
 14
0.5
 24
0.5
 15
0.5
 25
0.5
 16
0.0
 26
0.0
 36
1.0
 17
0.0
 27
0.0
 37
0.0
 40
1000.0
 41
1.34
 42
50.0
 43
0.0
 44
0.0
 50
0.0
 51
0.0
 71
0
 72
1000
 73
1
 74
3
 75
0
 76
0
 77
0
 78
0
281
0
 65
0
146
0.0
  0
ENDTAB
  0
TABLE
  2
LTYPE
  5
2
330
0
100
AcDbSymbolTable
 70
21
  0
LTYPE
  5
24
330
2
100
AcDbSymbolTableRecord
100
AcDbLinetypeTableRecord
  2
ByBlock
 70
0
  3

 72
65
 73
0
 40
0.0
  0
LTYPE
  5
25
330
2
100
AcDbSymbolTableRecord
100
AcDbLinetypeTableRecord
  2
ByLayer
 70
0
  3

 72
65
 73
0
 40
0.0
  0
LTYPE
  5
26
330
2
100
AcDbSymbolTableRecord
100
AcDbLinetypeTableRecord
  2
Continuous
 70
0
  3

 72
65
 73
0
 40
0.0
  0
LTYPE
  5
2F
330
2
100
AcDbSymbolTableRecord
100
AcDbLinetypeTableRecord
  2
CENTER
 70
0
  3
Center ____ _ ____ _ ____ _ ____ _ ____ _ ____
 72
65
 73
4
 40
5.08
 49
3.175
 74
0
 49
-0.635
 74
0
 49
0.635
 74
0
 49
-0.635
 74
0
  0
LTYPE
  5
30
330
2
100
AcDbSymbolTableRecord
100
AcDbLinetypeTableRecord
  2
CENTERX2
 70
0
  3
Center (2x) ________  __  ________  __  ________
 72
65
 73
4
 40
8.89
 49
6.35
 74
0
 49
-0.635
 74
0
 49
1.27
 74
0
 49
-0.635
 74
0
  0
LTYPE
  5
31
330
2
100
AcDbSymbolTableRecord
100
AcDbLinetypeTableRecord
  2
CENTER2
 70
0
  3
Center (.5x) ____ _ ____ _ ____ _ ____ _ ____
 72
65
 73
4
 40
2.54
 49
1.587
 74
0
 49
-0.318
 74
0
 49
0.318
 74
0
 49
-0.318
 74
0
  0
LTYPE
  5
32
330
2
100
AcDbSymbolTableRecord
100
AcDbLinetypeTableRecord
  2
DASHED
 70
0
  3
Dashed __ __ __ __ __ __ __ __ __ __ __ __ __ _
 72
65
 73
2
 40
1.524
 49
1.27
 74
0
 49
-0.254
 74
0
  0
LTYPE
  5
33
330
2
100
AcDbSymbolTableRecord
100
AcDbLinetypeTableRecord
  2
DASHEDX2
 70
0
  3
Dashed (2x) ____  ____  ____  ____  ____  ____
 72
65
 73
2
 40
3.048
 49
2.54
 74
0
 49
-0.508
 74
0
  0
LTYPE
  5
34
330
2
100
AcDbSymbolTableRecord
100
AcDbLinetypeTableRecord
  2
DASHED2
 70
0
  3
Dashed (.5x) _ _ _ _ _ _ _ _ _ _ _ _ _ _
 72
65
 73
2
 40
0.762
 49
0.635
 74
0
 49
-0.127
 74
0
  0
LTYPE
  5
35
330
2
100
AcDbSymbolTableRecord
100
AcDbLinetypeTableRecord
  2
PHANTOM
 70
0
  3
Phantom ______  __  __  ______  __  __  ______
 72
65
 73
6
 40
6.35
 49
3.175
 74
0
 49
-0.635
 74
0
 49
0.635
 74
0
 49
-0.635
 74
0
 49
0.635
 74
0
 49
-0.635
 74
0
  0
LTYPE
  5
36
330
2
100
AcDbSymbolTableRecord
100
AcDbLinetypeTableRecord
  2
PHANTOMX2
 70
0
  3
Phantom (2x)____________    ____    ____    ____________
 72
65
 73
6
 40
10.795
 49
6.35
 74
0
 49
-0.635
 74
0
 49
1.27
 74
0
 49
-0.635
 74
0
 49
1.27
 74
0
 49
-0.635
 74
0
  0
LTYPE
  5
37
330
2
100
AcDbSymbolTableRecord
100
AcDbLinetypeTableRecord
  2
PHANTOM2
 70
0
  3
Phantom (.5x) ___ _ _ ___ _ _ ___ _ _ ___ _ _ ___
 72
65
 73
6
 40
3.175
 49
1.587
 74
0
 49
-0.318
 74
0
 49
0.318
 74
0
 49
-0.318
 74
0
 49
0.318
 74
0
 49
-0.318
 74
0
  0
LTYPE
  5
38
330
2
100
AcDbSymbolTableRecord
100
AcDbLinetypeTableRecord
  2
DASHDOT
 70
0
  3
Dash dot __ . __ . __ . __ . __ . __ . __ . __
 72
65
 73
4
 40
3.556
 49
2.54
 74
0
 49
-0.508
 74
0
 49
0.0
 74
0
 49
-0.508
 74
0
  0
LTYPE
  5
39
330
2
100
AcDbSymbolTableRecord
100
AcDbLinetypeTableRecord
  2
DASHDOTX2
 70
0
  3
Dash dot (2x) ____  .  ____  .  ____  .  ____
 72
65
 73
4
 40
6.096
 49
5.08
 74
0
 49
-0.508
 74
0
 49
0.0
 74
0
 49
-0.508
 74
0
  0
LTYPE
  5
3A
330
2
100
AcDbSymbolTableRecord
100
AcDbLinetypeTableRecord
  2
DASHDOT2
 70
0
  3
Dash dot (.5x) _ . _ . _ . _ . _ . _ . _ . _
 72
65
 73
4
 40
1.778
 49
1.27
 74
0
 49
-0.254
 74
0
 49
0.0
 74
0
 49
-0.254
 74
0
  0
LTYPE
  5
3B
330
2
100
AcDbSymbolTableRecord
100
AcDbLinetypeTableRecord
  2
DOT
 70
0
  3
Dot .  .  .  .  .  .  .  .  .  .  .  .  .  .  .  .
 72
65
 73
2
 40
0.508
 49
0.0
 74
0
 49
-0.508
 74
0
  0
LTYPE
  5
3C
330
2
100
AcDbSymbolTableRecord
100
AcDbLinetypeTableRecord
  2
DOTX2
 70
0
  3
Dot (2x) .    .    .    .    .    .    .    . 
 72
65
 73
2
 40
1.016
 49
0.0
 74
0
 49
-1.016
 74
0
  0
LTYPE
  5
3D
330
2
100
AcDbSymbolTableRecord
100
AcDbLinetypeTableRecord
  2
DOT2
 70
0
  3
Dot (.5) . . . . . . . . . . . . . . . . . . . 
 72
65
 73
2
 40
0.254
 49
0.0
 74
0
 49
-0.254
 74
0
  0
LTYPE
  5
3E
330
2
100
AcDbSymbolTableRecord
100
AcDbLinetypeTableRecord
  2
DIVIDE
 70
0
  3
Divide __ . . __ . . __ . . __ . . __ . . __
 72
65
 73
6
 40
4.064
 49
2.54
 74
0
 49
-0.508
 74
0
 49
0.0
 74
0
 49
-0.508
 74
0
 49
0.0
 74
0
 49
-0.508
 74
0
  0
LTYPE
  5
3F
330
2
100
AcDbSymbolTableRecord
100
AcDbLinetypeTableRecord
  2
DIVIDEX2
 70
0
  3
Divide (2x) ____  . .  ____  . .  ____  . .  ____
 72
65
 73
6
 40
6.604
 49
5.08
 74
0
 49
-0.508
 74
0
 49
0.0
 74
0
 49
-0.508
 74
0
 49
0.0
 74
0
 49
-0.508
 74
0
  0
LTYPE
  5
40
330
2
100
AcDbSymbolTableRecord
100
AcDbLinetypeTableRecord
  2
DIVIDE2
 70
0
  3
Divide(.5x) _ . _ . _ . _ . _ . _ . _ . _
 72
65
 73
6
 40
2.032
 49
1.27
 74
0
 49
-0.254
 74
0
 49
0.0
 74
0
 49
-0.254
 74
0
 49
0.0
 74
0
 49
-0.254
 74
0
  0
ENDTAB
  0
TABLE
  2
LAYER
  5
1
330
0
100
AcDbSymbolTable
 70
4
  0
LAYER
  5
27
330
1
100
AcDbSymbolTableRecord
100
AcDbLayerTableRecord
  2
0
 70
0
 62
7
  6
Continuous
370
-3
390
13
347
21
  0
LAYER
  5
28
330
1
100
AcDbSymbolTableRecord
100
AcDbLayerTableRecord
  2
Defpoints
 70
0
 62
7
  6
Continuous
290
0
370
-3
390
13
347
21
  0
LAYER
  5
8A
330
1
100
AcDbSymbolTableRecord
100
AcDbLayerTableRecord
  2
CUT
 70
0
 62
2
  6
Continuous
370
-3
390
13
347
21
  0
LAYER
  5
8B
330
1
100
AcDbSymbolTableRecord
100
AcDbLayerTableRecord
  2
LABEL
 70
0
 62
3
  6
Continuous
370
-3
390
13
347
21
  0
ENDTAB
  0
TABLE
  2
STYLE
  5
5
330
0
100
AcDbSymbolTable
 70
26
  0
STYLE
  5
29
330
5
100
AcDbSymbolTableRecord
100
AcDbTextStyleTableRecord
  2
Standard
 70
0
 40
0.0
 41
1.0
 50
0.0
 71
0
 42
2.5
  3
txt
  4

  0
STYLE
  5
41
330
5
100
AcDbSymbolTableRecord
100
AcDbTextStyleTableRecord
  2
OpenSans-Light
 70
0
 40
0.0
 41
1.0
 50
0.0
 71
0
 42
2.5
  3
OpenSans-Light.ttf
  4

  0
STYLE
  5
42
330
5
100
AcDbSymbolTableRecord
100
AcDbTextStyleTableRecord
  2
OpenSans-Light-Italic
 70
0
 40
0.0
 41
1.0
 50
0.0
 71
0
 42
2.5
  3
OpenSans-LightItalic.ttf
  4

  0
STYLE
  5
43
330
5
100
AcDbSymbolTableRecord
100
AcDbTextStyleTableRecord
  2
OpenSans
 70
0
 40
0.0
 41
1.0
 50
0.0
 71
0
 42
2.5
  3
OpenSans-Regular.ttf
  4

  0
STYLE
  5
44
330
5
100
AcDbSymbolTableRecord
100
AcDbTextStyleTableRecord
  2
OpenSans-Italic
 70
0
 40
0.0
 41
1.0
 50
0.0
 71
0
 42
2.5
  3
OpenSans-Italic.ttf
  4

  0
STYLE
  5
45
330
5
100
AcDbSymbolTableRecord
100
AcDbTextStyleTableRecord
  2
OpenSans-SemiBold
 70
0
 40
0.0
 41
1.0
 50
0.0
 71
0
 42
2.5
  3
OpenSans-SemiBold.ttf
  4

  0
STYLE
  5
46
330
5
100
AcDbSymbolTableRecord
100
AcDbTextStyleTableRecord
  2
OpenSans-SemiBoldItalic
 70
0
 40
0.0
 41
1.0
 50
0.0
 71
0
 42
2.5
  3
OpenSans-SemiBoldItalic.ttf
  4

  0
STYLE
  5
47
330
5
100
AcDbSymbolTableRecord
100
AcDbTextStyleTableRecord
  2
OpenSans-Bold
 70
0
 40
0.0
 41
1.0
 50
0.0
 71
0
 42
2.5
  3
OpenSans-Bold.ttf
  4

  0
STYLE
  5
48
330
5
100
AcDbSymbolTableRecord
100
AcDbTextStyleTableRecord
  2
OpenSans-BoldItalic
 70
0
 40
0.0
 41
1.0
 50
0.0
 71
0
 42
2.5
  3
OpenSans-BoldItalic.ttf
  4

  0
STYLE
  5
49
330
5
100
AcDbSymbolTableRecord
100
AcDbTextStyleTableRecord
  2
OpenSans-ExtraBold
 70
0
 40
0.0
 41
1.0
 50
0.0
 71
0
 42
2.5
  3
OpenSans-ExtraBold.ttf
  4

  0
STYLE
  5
4A
330
5
100
AcDbSymbolTableRecord
100
AcDbTextStyleTableRecord
  2
OpenSans-ExtraBoldItalic
 70
0
 40
0.0
 41
1.0
 50
0.0
 71
0
 42
2.5
  3
OpenSans-ExtraBoldItalic.ttf
  4

  0
STYLE
  5
4B
330
5
100
AcDbSymbolTableRecord
100
AcDbTextStyleTableRecord
  2
OpenSansCondensed-Bold
 70
0
 40
0.0
 41
1.0
 50
0.0
 71
0
 42
2.5
  3
OpenSansCondensed-Bold.ttf
  4

  0
STYLE
  5
4C
330
5
100
AcDbSymbolTableRecord
100
AcDbTextStyleTableRecord
  2
OpenSansCondensed-Light
 70
0
 40
0.0
 41
1.0
 50
0.0
 71
0
 42
2.5
  3
OpenSansCondensed-Light.ttf
  4

  0
STYLE
  5
4D
330
5
100
AcDbSymbolTableRecord
100
AcDbTextStyleTableRecord
  2
OpenSansCondensed-Italic
 70
0
 40
0.0
 41
1.0
 50
0.0
 71
0
 42
2.5
  3
OpenSansCondensed-LightItalic.ttf
  4

  0
STYLE
  5
4E
330
5
100
AcDbSymbolTableRecord
100
AcDbTextStyleTableRecord
  2
LiberationSans
 70
0
 40
0.0
 41
1.0
 50
0.0
 71
0
 42
2.5
  3
LiberationSans-Regular.ttf
  4

  0
STYLE
  5
4F
330
5
100
AcDbSymbolTableRecord
100
AcDbTextStyleTableRecord
  2
LiberationSans-Bold
 70
0
 40
0.0
 41
1.0
 50
0.0
 71
0
 42
2.5
  3
LiberationSans-Bold.ttf
  4

  0
STYLE
  5
50
330
5
100
AcDbSymbolTableRecord
100
AcDbTextStyleTableRecord
  2
LiberationSans-BoldItalic
 70
0
 40
0.0
 41
1.0
 50
0.0
 71
0
 42
2.5
  3
LiberationSans-BoldItalic.ttf
  4

  0
STYLE
  5
51
330
5
100
AcDbSymbolTableRecord
100
AcDbTextStyleTableRecord
  2
LiberationSans-Italic
 70
0
 40
0.0
 41
1.0
 50
0.0
 71
0
 42
2.5
  3
LiberationSans-Italic.ttf
  4

  0
STYLE
  5
52
330
5
100
AcDbSymbolTableRecord
100
AcDbTextStyleTableRecord
  2
LiberationSerif
 70
0
 40
0.0
 41
1.0
 50
0.0
 71
0
 42
2.5
  3
LiberationSerif-Regular.ttf
  4

  0
STYLE
  5
53
330
5
100
AcDbSymbolTableRecord
100
AcDbTextStyleTableRecord
  2
LiberationSerif-Bold
 70
0
 40
0.0
 41
1.0
 50
0.0
 71
0
 42
2.5
  3
LiberationSerif-Bold.ttf
  4

  0
STYLE
  5
54
330
5
100
AcDbSymbolTableRecord
100
AcDbTextStyleTableRecord
  2
LiberationSerif-BoldItalic
 70
0
 40
0.0
 41
1.0
 50
0.0
 71
0
 42
2.5
  3
LiberationSerif-BoldItalic.ttf
  4

  0
STYLE
  5
55
330
5
100
AcDbSymbolTableRecord
100
AcDbTextStyleTableRecord
  2
LiberationSerif-Italic
 70
0
 40
0.0
 41
1.0
 50
0.0
 71
0
 42
2.5
  3
LiberationSerif-Italic.ttf
  4

  0
STYLE
  5
56
330
5
100
AcDbSymbolTableRecord
100
AcDbTextStyleTableRecord
  2
LiberationMono
 70
0
 40
0.0
 41
1.0
 50
0.0
 71
0
 42
2.5
  3
LiberationMono-Regular.ttf
  4

  0
STYLE
  5
57
330
5
100
AcDbSymbolTableRecord
100
AcDbTextStyleTableRecord
  2
LiberationMono-Bold
 70
0
 40
0.0
 41
1.0
 50
0.0
 71
0
 42
2.5
  3
LiberationMono-Bold.ttf
  4

  0
STYLE
  5
58
330
5
100
AcDbSymbolTableRecord
100
AcDbTextStyleTableRecord
  2
LiberationMono-BoldItalic
 70
0
 40
0.0
 41
1.0
 50
0.0
 71
0
 42
2.5
  3
LiberationMono-BoldItalic.ttf
  4

  0
STYLE
  5
59
330
5
100
AcDbSymbolTableRecord
100
AcDbTextStyleTableRecord
  2
LiberationMono-Italic
 70
0
 40
0.0
 41
1.0
 50
0.0
 71
0
 42
2.5
  3
LiberationMono-Italic.ttf
  4

  0
ENDTAB
  0
TABLE
  2
VIEW
  5
7
330
0
100
AcDbSymbolTable
 70
0
  0
ENDTAB
  0
TABLE
  2
UCS
  5
6
330
0
100
AcDbSymbolTable
 70
0
  0
ENDTAB
  0
TABLE
  2
APPID
  5
3
330
0
100
AcDbSymbolTable
 70
3
  0
APPID
  5
2A
330
3
100
AcDbSymbolTableRecord
100
AcDbRegAppTableRecord
  2
ACAD
 70
0
  0
APPID
  5
99
330
3
100
AcDbSymbolTableRecord
100
AcDbRegAppTableRecord
  2
HATCHBACKGROUNDCOLOR
 70
0
  0
APPID
  5
9A
330
3
100
AcDbSymbolTableRecord
100
AcDbRegAppTableRecord
  2
EZDXF
 70
0
  0
ENDTAB
  0
TABLE
  2
DIMSTYLE
  5
4
330
0
100
AcDbSymbolTable
 70
12
100
AcDbDimStyleTable
  0
DIMSTYLE
105
2B
330
4
100
AcDbSymbolTableRecord
100
AcDbDimStyleTableRecord
  2
Standard
 70
0
 40
1.0
 41
2.5
 42
0.625
 43
3.75
 44
1.25
 45
0.0
 46
0.0
 47
0.0
 48
0.0
 49
2.5
140
2.5
141
2.5
142
0.0
143
0.03937007874
144
1.0
145
0.0
146
1.0
147
0.625
148
0.0
 69
0
 70
0
 71
0
 72
0
 73
0
 74
0
 75
0
 76
0
 77
1
 78
8
 79
3
170
0
171
3
172
1
173
0
174
0
175
0
176
0
177
0
178
0
179
2
271
2
272
2
273
2
274
3
275
0
276
0
277
2
278
44
279
0
280
0
281
0
282
0
283
0
284
8
285
0
286
0
288
0
289
3
290
0
371
-2
372
-2
  0
DIMSTYLE
105
73
330
4
100
AcDbSymbolTableRecord
100
AcDbDimStyleTableRecord
  2
EZDXF
 70
0
 40
1.0
 41
0.175
 42
0.125
 43
3.75
 44
0.375
 45
0.0
 46
0.0
 47
0.0
 48
0.0
 49
2.5
140
0.25
141
2.5
142
0.0
143
0.03937007874
144
100.0
145
0.0
146
0.5
147
0.1
148
0.0
 69
0
 70
0
 71
0
 72
0
 73
0
 74
0
 75
0
 76
0
 77
1
 78
12
 79
3
170
0
171
3
172
1
173
0
174
0
175
0
176
0
177
0
178
0
179
2
271
2
272
2
273
2
274
3
275
0
276
0
277
2
278
46
279
2
280
0
281
0
282
0
283
0
284
8
285
0
286
0
288
1
289
3
290
0
340
4C
342
74
371
-2
372
-2
  0
DIMSTYLE
105
7C
330
4
100
AcDbSymbolTableRecord
100
AcDbDimStyleTableRecord
  2
EZ_M_100_H25_CM
 70
0
 40
1.0
 41
0.25
 42
0.125
 43
3.75
 44
0.375
 45
0.0
 46
0.0
 47
0.0
 48
0.0
 49
2.5
140
0.25
141
2.5
142
0.125
143
0.03937007874
144
100.0
145
0.0
146
0.5
147
0.1
148
0.0
 69
0
 70
0
 71
0
 72
0
 73
0
 74
0
 75
0
 76
0
 77
1
 78
12
 79
3
170
0
171
3
172
1
173
0
174
0
175
0
176
0
177
0
178
0
179
2
271
2
272
2
273
2
274
3
275
0
276
0
277
2
278
46
279
2
280
0
281
0
282
0
283
0
284
8
285
0
286
0
288
1
289
3
290
0
340
4C
371
-2
372
-2
  0
DIMSTYLE
105
7D
330
4
100
AcDbSymbolTableRecord
100
AcDbDimStyleTableRecord
  2
EZ_M_50_H25_CM
 70
0
 40
1.0
 41
0.125
 42
0.0625
 43
3.75
 44
0.1875
 45
0.0
 46
0.0
 47
0.0
 48
0.0
 49
2.5
140
0.125
141
2.5
142
0.0625
143
0.03937007874
144
100.0
145
0.0
146
0.5
147
0.05
148
0.0
 69
0
 70
0
 71
0
 72
0
 73
0
 74
0
 75
0
 76
0
 77
1
 78
12
 79
3
170
0
171
3
172
1
173
0
174
0
175
0
176
0
177
0
178
0
179
2
271
2
272
2
273
2
274
3
275
0
276
0
277
2
278
46
279
2
280
0
281
0
282
0
283
0
284
8
285
0
286
0
288
1
289
3
290
0
340
4C
371
-2
372
-2
  0
DIMSTYLE
105
7E
330
4
100
AcDbSymbolTableRecord
100
AcDbDimStyleTableRecord
  2
EZ_M_25_H25_CM
 70
0
 40
1.0
 41
0.0625
 42
0.03125
 43
3.75
 44
0.09375
 45
0.0
 46
0.0
 47
0.0
 48
0.0
 49
2.5
140
0.0625
141
2.5
142
0.03125
143
0.03937007874
144
100.0
145
0.0
146
0.5
147
0.025
148
0.0
 69
0
 70
0
 71
0
 72
0
 73
0
 74
0
 75
0
 76
0
 77
1
 78
12
 79
3
170
0
171
3
172
1
173
0
174
0
175
0
176
0
177
0
178
0
179
2
271
2
272
2
273
2
274
3
275
0
276
0
277
2
278
46
279
2
280
0
281
0
282
0
283
0
284
8
285
0
286
0
288
1
289
3
290
0
340
4C
371
-2
372
-2
  0
DIMSTYLE
105
7F
330
4
100
AcDbSymbolTableRecord
100
AcDbDimStyleTableRecord
  2
EZ_M_20_H25_CM
 70
0
 40
1.0
 41
0.05
 42
0.025
 43
3.75
 44
0.07500000000000001
 45
0.0
 46
0.0
 47
0.0
 48
0.0
 49
2.5
140
0.05
141
2.5
142
0.025
143
0.03937007874
144
100.0
145
0.0
146
0.5
147
0.020000000000000004
148
0.0
 69
0
 70
0
 71
0
 72
0
 73
0
 74
0
 75
0
 76
0
 77
1
 78
12
 79
3
170
0
171
3
172
1
173
0
174
0
175
0
176
0
177
0
178
0
179
2
271
2
272
2
273
2
274
3
275
0
276
0
277
2
278
46
279
2
280
0
281
0
282
0
283
0
284
8
285
0
286
0
288
1
289
3
290
0
340
4C
371
-2
372
-2
  0
DIMSTYLE
105
80
330
4
100
AcDbSymbolTableRecord
100
AcDbDimStyleTableRecord
  2
EZ_M_10_H25_CM
 70
0
 40
1.0
 41
0.025
 42
0.0125
 43
3.75
 44
0.037500000000000006
 45
0.0
 46
0.0
 47
0.0
 48
0.0
 49
2.5
140
0.025
141
2.5
142
0.0125
143
0.03937007874
144
100.0
145
0.0
146
0.5
147
0.010000000000000002
148
0.0
 69
0
 70
0
 71
0
 72
0
 73
0
 74
0
 75
0
 76
0
 77
1
 78
12
 79
3
170
0
171
3
172
1
173
0
174
0
175
0
176
0
177
0
178
0
179
2
271
2
272
2
273
2
274
3
275
0
276
0
277
2
278
46
279
2
280
0
281
0
282
0
283
0
284
8
285
0
286
0
288
1
289
3
290
0
340
4C
371
-2
372
-2
  0
DIMSTYLE
105
81
330
4
100
AcDbSymbolTableRecord
100
AcDbDimStyleTableRecord
  2
EZ_M_5_H25_CM
 70
0
 40
1.0
 41
0.0125
 42
0.00625
 43
3.75
 44
0.018750000000000003
 45
0.0
 46
0.0
 47
0.0
 48
0.0
 49
2.5
140
0.0125
141
2.5
142
0.00625
143
0.03937007874
144
100.0
145
0.0
146
0.5
147
0.005000000000000001
148
0.0
 69
0
 70
0
 71
0
 72
0
 73
0
 74
0
 75
0
 76
0
 77
1
 78
12
 79
3
170
0
171
3
172
1
173
0
174
0
175
0
176
0
177
0
178
0
179
2
271
2
272
2
273
2
274
3
275
0
276
0
277
2
278
46
279
2
280
0
281
0
282
0
283
0
284
8
285
0
286
0
288
1
289
3
290
0
340
4C
371
-2
372
-2
  0
DIMSTYLE
105
82
330
4
100
AcDbSymbolTableRecord
100
AcDbDimStyleTableRecord
  2
EZ_M_1_H25_CM
 70
0
 40
1.0
 41
0.0025
 42
0.00125
 43
3.75
 44
0.00375
 45
0.0
 46
0.0
 47
0.0
 48
0.0
 49
2.5
140
0.0025
141
2.5
142
0.00125
143
0.03937007874
144
100.0
145
0.0
146
0.5
147
0.001
148
0.0
 69
0
 70
0
 71
0
 72
0
 73
0
 74
0
 75
0
 76
0
 77
1
 78
12
 79
3
170
0
171
3
172
1
173
0
174
0
175
0
176
0
177
0
178
0
179
2
271
2
272
2
273
2
274
3
275
0
276
0
277
2
278
46
279
2
280
0
281
0
282
0
283
0
284
8
285
0
286
0
288
1
289
3
290
0
340
4C
371
-2
372
-2
  0
DIMSTYLE
105
83
330
4
100
AcDbSymbolTableRecord
100
AcDbDimStyleTableRecord
  2
EZ_RADIUS
 70
0
 40
1.0
 41
0.25
 42
0.125
 43
3.75
 44
0.375
 45
0.0
 46
0.0
 47
0.0
 48
0.0
 49
2.5
140
0.25
141
0.0
142
0.0
143
0.03937007874
144
100.0
145
0.0
146
0.5
147
0.1
148
0.0
 69
0
 70
0
 71
0
 72
0
 73
0
 74
0
 75
0
 76
0
 77
1
 78
12
 79
3
170
0
171
3
172
0
173
0
174
0
175
0
176
0
177
0
178
0
179
2
271
2
272
2
273
2
274
3
275
0
276
0
277
2
278
46
279
1
280
0
281
0
282
0
283
0
284
8
285
0
286
0
288
1
289
3
290
0
340
4C
342
84
371
-2
372
-2
  0
DIMSTYLE
105
88
330
4
100
AcDbSymbolTableRecord
100
AcDbDimStyleTableRecord
  2
EZ_RADIUS_INSIDE
 70
0
 40
1.0
 41
0.25
 42
0.125
 43
3.75
 44
0.375
 45
0.0
 46
0.0
 47
0.0
 48
0.0
 49
2.5
140
0.25
141
0.0
142
0.0
143
0.03937007874
144
100.0
145
0.0
146
0.5
147
0.1
148
0.0
 69
0
 70
0
 71
0
 72
0
 73
0
 74
0
 75
0
 76
0
 77
0
 78
12
 79
3
170
0
171
3
172
0
173
0
174
1
175
0
176
0
177
0
178
0
179
2
271
2
272
2
273
2
274
3
275
0
276
0
277
2
278
46
279
0
280
0
281
0
282
0
283
0
284
8
285
0
286
0
288
1
289
0
290
0
340
4C
342
84
371
-2
372
-2
  0
DIMSTYLE
105
89
330
4
100
AcDbSymbolTableRecord
100
AcDbDimStyleTableRecord
  2
EZ_CURVED
 70
0
 40
1.0
 41
0.25
 42
0.125
 43
3.75
 44
0.375
 45
0.0
 46
0.0
 47
0.0
 48
0.0
 49
2.5
140
0.25
141
2.5
142
0.0
143
0.03937007874
144
100.0
145
0.0
146
0.5
147
0.1
148
0.0
 69
0
 70
0
 71
0
 72
0
 73
0
 74
0
 75
0
 76
0
 77
1
 78
12
 79
2
 90
2
170
0
171
3
172
1
173
0
174
0
175
0
176
0
177
0
178
0
179
2
271
2
272
2
273
2
274
3
275
0
276
0
277
2
278
46
279
2
280
0
281
0
282
0
283
0
284
8
285
0
286
0
288
1
289
3
290
0
340
4C
371
-2
372
-2
  0
ENDTAB
  0
TABLE
  2
BLOCK_RECORD
  5
9
330
0
100
AcDbSymbolTable
 70
5
  0
BLOCK_RECORD
  5
17
330
9
100
AcDbSymbolTableRecord
100
AcDbBlockTableRecord
  2
*Model_Space
340
1A
 70
0
280
1
281
0
  0
BLOCK_RECORD
  5
1B
330
9
100
AcDbSymbolTableRecord
100
AcDbBlockTableRecord
  2
*Paper_Space
340
1E
 70
0
280
1
281
0
  0
BLOCK_RECORD
  5
74
330
9
100
AcDbSymbolTableRecord
100
AcDbBlockTableRecord
  2
_ARCHTICK
340
0
 70
0
280
1
281
0
  0
BLOCK_RECORD
  5
78
330
9
100
AcDbSymbolTableRecord
100
AcDbBlockTableRecord
  2
_CLOSEDFILLED
340
0
 70
0
280
1
281
0
  0
BLOCK_RECORD
  5
84
330
9
100
AcDbSymbolTableRecord
100
AcDbBlockTableRecord
  2
_CLOSEDBLANK
340
0
 70
0
280
1
281
0
  0
ENDTAB
  0
ENDSEC
  0
SECTION
  2
BLOCKS
  0
BLOCK
  5
18
330
17
100
AcDbEntity
  8
0
100
AcDbBlockBegin
  2
*Model_Space
 70
0
 10
0.0
 20
0.0
 30
0.0
  3
*Model_Space
  1

  0
ENDBLK
  5
19
330
17
100
AcDbEntity
  8
0
100
AcDbBlockEnd
  0
BLOCK
  5
1C
330
1B
100
AcDbEntity
  8
0
100
AcDbBlockBegin
  2
*Paper_Space
 70
0
 10
0.0
 20
0.0
 30
0.0
  3
*Paper_Space
  1

  0
ENDBLK
  5
1D
330
1B
100
AcDbEntity
  8
0
100
AcDbBlockEnd
  0
BLOCK
  5
75
330
74
100
AcDbEntity
  8
0
100
AcDbBlockBegin
  2
_ARCHTICK
 70
0
 10
0.0
 20
0.0
 30
0.0
  3
_ARCHTICK
  1

  0
LWPOLYLINE
  5
77
330
74
100
AcDbEntity
  8
0
  6
BYBLOCK
 62
0
100
AcDbPolyline
 90
2
 70
0
 43
0.15
 10
-0.5
 20
-0.5
 10
0.5
 20
0.5
  0
ENDBLK
  5
76
330
74
100
AcDbEntity
  8
0
100
AcDbBlockEnd
  0
BLOCK
  5
79
330
78
100
AcDbEntity
  8
0
100
AcDbBlockBegin
  2
_CLOSEDFILLED
 70
0
 10
0.0
 20
0.0
 30
0.0
  3
_CLOSEDFILLED
  1

  0
SOLID
  5
7B
330
78
100
AcDbEntity
  8
0
  6
BYBLOCK
 62
0
100
AcDbTrace
 10
-1.0
 20
0.16439898372402537
 30
0.0
 11
0.0
 21
0.0
 31
0.0
 12
-1.0
 22
-0.16439898372402537
 32
0.0
 13
-1.0
 23
-0.16439898372402537
 33
0.0
  0
ENDBLK
  5
7A
330
78
100
AcDbEntity
  8
0
100
AcDbBlockEnd
  0
BLOCK
  5
85
330
84
100
AcDbEntity
  8
0
100
AcDbBlockBegin
  2
_CLOSEDBLANK
 70
0
 10
0.0
 20
0.0
 30
0.0
  3
_CLOSEDBLANK
  1

  0
LWPOLYLINE
  5
87
330
84
100
AcDbEntity
  8
0
  6
BYBLOCK
 62
0
100
AcDbPolyline
 90
3
 70
1
 10
-1.0
 20
0.16439898372402537
 10
0.0
 20
0.0
 10
-1.0
 20
-0.16439898372402537
  0
ENDBLK
  5
86
330
84
100
AcDbEntity
  8
0
100
AcDbBlockEnd
  0
ENDSEC
  0
SECTION
  2
ENTITIES
  0
LWPOLYLINE
  5
8C
330
17
100
AcDbEntity
  8
CUT
100
AcDbPolyline
 90
125
 70
1
 10
550.3534624551039
 20
84.74035782618911
 10
540.7673458427042
 20
79.60860662616227
 10
531.2396361317176
 20
74.60776744654426
 10
521.7683192910611
 20
69.74086133395993
 10
512.3513812896513
 20
65.01090933503407
 10
502.9868080964049
 20
60.42093249639153
 10
493.67258568023897
 20
55.97395186465712
 10
484.40670001007015
 20
51.672988486455644
 10
475.18713705481525
 20
47.52106340841195
 10
466.011882783391
 20
43.521197677150816
 10
456.87892316471414
 20
39.6764123392971
 10
447.7862441677017
 20
35.98972844147561
 10
438.7318317612702
 20
32.464167030311174
 10
429.7136719143365
 20
29.102749152428586
 10
420.72975059581756
 20
25.90849585445268
 10
411.77805377462994
 20
22.884428183008282
 10
402.8565674196905
 20
20.033567184720226
 10
393.9632774999161
 20
17.358933906213295
 10
385.0961699842234
 20
14.863549394112326
 10
376.25323084152933
 20
12.550434695042128
 10
367.43244604075056
 20
10.42261085562754
 10
358.6318015508039
 20
8.483098922493355
 10
349.84928334060623
 20
6.73491994226444
 10
341.0828773790742
 20
5.181094961565577
 10
332.33056963512473
 20
3.8246450270215746
 10
323.5903460776745
 20
2.6685911852572985
 10
314.8601926756403
 20
1.7159544828975157
 10
306.13809539793897
 20
0.9697559665670781
 10
297.4220402134873
 20
0.4330166828908091
 10
288.71001309120203
 20
0.10875767849350382
 10
280.0
 20
0.0
 10
271.28998690879797
 20
0.1087576784934896
 10
262.5779597865127
 20
0.43301668289079487
 10
253.86190460206103
 20
0.9697559665670781
 10
245.1398073243597
 20
1.71595448289753
 10
236.40965392232553
 20
2.6685911852572843
 10
227.66943036487532
 20
3.824645027021589
 10
218.9171226209258
 20
5.181094961565577
 10
210.15071665939377
 20
6.73491994226444
 10
201.3681984491961
 20
8.483098922493369
 10
192.56755395924944
 20
10.42261085562751
 10
183.74676915847067
 20
12.550434695042128
 10
174.90383001577658
 20
14.863549394112312
 10
166.03672250008393
 20
17.358933906213295
 10
157.1434325803095
 20
20.033567184720226
 10
148.22194622537006
 20
22.884428183008296
 10
139.27024940418247
 20
25.90849585445268
 10
130.28632808566346
 20
29.102749152428586
 10
121.26816823872986
 20
32.46416703031116
 10
112.21375583229838
 20
35.98972844147562
 10
103.12107683528583
 20
39.6764123392971
 10
93.98811721660906
 20
43.52119767715081
 10
84.81286294518478
 20
47.52106340841194
 10
75.59329998992985
 20
51.67298848645564
 10
66.327414319761
 20
55.97395186465711
 10
57.01319190359507
 20
60.42093249639152
 10
47.648618710348785
 20
65.01090933503406
 10
38.23168070893894
 20
69.74086133395993
 10
28.760363868282383
 20
74.60776744654426
 10
19.232654157295826
 20
79.60860662616226
 10
9.646537544896091
 20
84.74035782618913
 10
0.0
 20
90.0
 10
9.646537544896091
 20
95.25964217381087
 10
19.232654157295826
 20
100.39139337383774
 10
28.760363868282383
 20
105.39223255345574
 10
38.23168070893894
 20
110.25913866604007
 10
47.648618710348785
 20
114.98909066496594
 10
57.01319190359507
 20
119.57906750360848
 10
66.327414319761
 20
124.02604813534289
 10
75.59329998992985
 20
128.32701151354436
 10
84.81286294518478
 20
132.47893659158805
 10
93.98811721660906
 20
136.4788023228492
 10
103.12107683528583
 20
140.3235876607029
 10
112.21375583229838
 20
144.01027155852438
 10
121.26816823872986
 20
147.53583296968884
 10
130.28632808566346
 20
150.8972508475714
 10
139.27024940418247
 20
154.09150414554733
 10
148.22194622537006
 20
157.1155718169917
 10
157.1434325803095
 20
159.96643281527977
 10
166.03672250008393
 20
162.64106609378672
 10
174.90383001577658
 20
165.1364506058877
 10
183.74676915847067
 20
167.44956530495787
 10
192.56755395924944
 20
169.5773891443725
 10
201.3681984491961
 20
171.51690107750665
 10
210.15071665939377
 20
173.26508005773556
 10
218.9171226209258
 20
174.81890503843442
 10
227.66943036487532
 20
176.17535497297843
 10
236.40965392232553
 20
177.3314088147427
 10
245.1398073243597
 20
178.28404551710247
 10
253.86190460206103
 20
179.03024403343292
 10
262.5779597865127
 20
179.5669833171092
 10
271.28998690879797
 20
179.89124232150652
 10
280.0
 20
180.0
 10
288.71001309120203
 20
179.8912423215065
 10
297.4220402134873
 20
179.5669833171092
 10
306.13809539793897
 20
179.03024403343292
 10
314.8601926756403
 20
178.28404551710247
 10
323.5903460776745
 20
177.3314088147427
 10
332.33056963512473
 20
176.17535497297843
 10
341.0828773790742
 20
174.81890503843442
 10
349.84928334060623
 20
173.26508005773556
 10
358.6318015508039
 20
171.51690107750665
 10
367.43244604075056
 20
169.57738914437246
 10
376.25323084152933
 20
167.44956530495787
 10
385.0961699842234
 20
165.13645060588766
 10
393.9632774999161
 20
162.64106609378672
 10
402.8565674196905
 20
159.96643281527977
 10
411.77805377462994
 20
157.11557181699172
 10
420.72975059581756
 20
154.09150414554733
 10
429.7136719143365
 20
150.8972508475714
 10
438.7318317612702
 20
147.53583296968884
 10
447.7862441677017
 20
144.01027155852438
 10
456.87892316471414
 20
140.3235876607029
 10
466.011882783391
 20
136.4788023228492
 10
475.18713705481525
 20
132.47893659158805
 10
484.40670001007015
 20
128.32701151354436
 10
493.67258568023897
 20
124.02604813534288
 10
502.9868080964049
 20
119.57906750360847
 10
512.3513812896513
 20
114.98909066496593
 10
521.7683192910611
 20
110.25913866604007
 10
531.2396361317176
 20
105.39223255345574
 10
540.7673458427042
 20
100.39139337383773
 10
550.3534624551039
 20
95.25964217381089
 10
560.0
 20
90.0
 10
550.3534624551039
 20
84.74035782618911
  0
LWPOLYLINE
  5
8D
330
17
100
AcDbEntity
  8
CUT
100
AcDbPolyline
 90
97
 70
1
 10
164.3864010831744
 20
80.80562993850388
 10
164.43246539092831
 20
81.00318898007171
 10
164.46551009193712
 20
81.20333778243955
 10
164.48539368371797
 20
81.40521927770826
 10
164.49203102167832
 20
81.60796897832171
 10
164.48539368371797
 20
81.81071867893515
 10
164.46551009193712
 20
82.01260017420387
 10
164.43246539092831
 20
82.2127489765717
 10
164.3864010831744
 20
82.41030801813952
 10
164.32751442311314
 20
82.6044313207615
 10
164.2560575724633
 20
82.79428761865348
 10
164.17233652042964
 20
82.9790639180006
 10
164.07670977341007
 20
83.1579689783217
 10
163.9695868198162
 20
83.33023670068248
 10
163.85142637658112
 20
83.49512940824874
 10
163.72273442486312
 20
83.65194100513192
 10
163.5840620433566
 20
83.8
 10
163.43600304848852
 20
83.93867238150654
 10
163.27919145160536
 20
84.06736433322453
 10
163.11429874403908
 20
84.18552477645959
 10
162.9420310216783
 20
84.29264773005346
 10
162.76312596135722
 20
84.38827447707304
 10
162.57834966201008
 20
84.47199552910669
 10
162.38849336411812
 20
84.54345237975653
 10
162.1943700614961
 20
84.60233903981782
 10
161.99681101992832
 20
84.64840334757172
 10
161.79666221756048
 20
84.68144804858052
 10
161.59478072229174
 20
84.70133164036137
 10
161.3920310216783
 20
84.7079689783217
 10
161.18928132106487
 20
84.70133164036137
 10
160.98739982579616
 20
84.68144804858052
 10
160.78725102342833
 20
84.64840334757172
 10
160.58969198186048
 20
84.60233903981782
 10
160.39556867923852
 20
84.54345237975653
 10
160.20571238134653
 20
84.47199552910669
 10
160.02093608199942
 20
84.38827447707304
 10
159.8420310216783
 20
84.29264773005346
 10
159.66976329931754
 20
84.18552477645959
 10
159.50487059175128
 20
84.06736433322453
 10
159.3480589948681
 20
83.93867238150654
 10
159.2
 20
83.8
 10
159.06132761849346
 20
83.65194100513192
 10
158.93263566677547
 20
83.49512940824873
 10
158.8144752235404
 20
83.33023670068246
 10
158.70735226994654
 20
83.1579689783217
 10
158.61172552292697
 20
82.9790639180006
 10
158.52800447089334
 20
82.79428761865348
 10
158.4565476202435
 20
82.6044313207615
 10
158.39766096018218
 20
82.41030801813952
 10
158.3515966524283
 20
82.2127489765717
 10
158.3185519514195
 20
82.01260017420387
 10
158.29866835963864
 20
81.81071867893515
 10
158.29203102167833
 20
81.60796897832171
 10
158.29866835963864
 20
81.40521927770826
 10
158.3185519514195
 20
81.20333778243955
 10
158.3515966524283
 20
81.0031889800717
 10
158.39766096018218
 20
80.80562993850388
 10
158.4565476202435
 20
80.6115066358819
 10
158.52800447089334
 20
80.42165033798992
 10
158.61172552292697
 20
80.2368740386428
 10
158.70735226994654
 20
80.0579689783217
 10
158.8144752235404
 20
79.88570125596094
 10
158.93263566677547
 20
79.72080854839467
 10
159.06132761849346
 20
79.56399695151148
 10
159.2
 20
79.4159379566434
 10
159.3480589948681
 20
79.27726557513687
 10
159.50487059175128
 20
79.14857362341887
 10
159.66976329931754
 20
79.03041318018381
 10
159.8420310216783
 20
78.92329022658994
 10
160.02093608199942
 20
78.82766347957036
 10
160.20571238134653
 20
78.74394242753671
 10
160.39556867923852
 20
78.67248557688687
 10
160.58969198186048
 20
78.6135989168256
 10
160.78725102342833
 20
78.56753460907169
 10
160.98739982579616
 20
78.5344899080629
 10
161.18928132106487
 20
78.51460631628203
 10
161.3920310216783
 20
78.5079689783217
 10
161.59478072229174
 20
78.51460631628203
 10
161.79666221756048
 20
78.5344899080629
 10
161.99681101992832
 20
78.56753460907169
 10
162.1943700614961
 20
78.6135989168256
 10
162.38849336411812
 20
78.67248557688687
 10
162.57834966201008
 20
78.74394242753671
 10
162.76312596135722
 20
78.82766347957036
 10
162.9420310216783
 20
78.92329022658994
 10
163.11429874403908
 20
79.03041318018381
 10
163.27919145160536
 20
79.14857362341887
 10
163.43600304848852
 20
79.27726557513688
 10
163.5840620433566
 20
79.4159379566434
 10
163.72273442486312
 20
79.56399695151148
 10
163.85142637658112
 20
79.72080854839467
 10
163.9695868198162
 20
79.88570125596094
 10
164.07670977341007
 20
80.0579689783217
 10
164.17233652042964
 20
80.2368740386428
 10
164.2560575724633
 20
80.42165033798992
 10
164.32751442311314
 20
80.61150663588191
 10
164.3864010831744
 20
80.80562993850388
  0
LWPOLYLINE
  5
8E
330
17
100
AcDbEntity
  8
CUT
100
AcDbPolyline
 90
101
 70
1
 10
120.80000000000001
 20
96.2
 10
120.80000000000001
 20
83.8
 10
120.65194100513193
 20
83.93867238150654
 10
120.49512940824874
 20
84.06736433322453
 10
120.33023670068246
 20
84.18552477645959
 10
120.15796897832172
 20
84.29264773005346
 10
119.9790639180006
 20
84.38827447707304
 10
119.79428761865347
 20
84.47199552910669
 10
119.6044313207615
 20
84.54345237975653
 10
119.41030801813952
 20
84.60233903981782
 10
119.2127489765717
 20
84.64840334757172
 10
119.01260017420387
 20
84.68144804858052
 10
118.81071867893516
 20
84.70133164036137
 10
118.60796897832171
 20
84.7079689783217
 10
118.40521927770826
 20
84.70133164036137
 10
118.20333778243955
 20
84.68144804858052
 10
118.00318898007171
 20
84.64840334757172
 10
117.8056299385039
 20
84.60233903981782
 10
117.61150663588191
 20
84.54345237975653
 10
117.42165033798992
 20
84.47199552910669
 10
117.23687403864281
 20
84.38827447707304
 10
117.0579689783217
 20
84.29264773005346
 10
116.88570125596092
 20
84.18552477645959
 10
116.72080854839467
 20
84.06736433322453
 10
116.56399695151148
 20
83.93867238150654
 10
116.4159379566434
 20
83.8
 10
116.27726557513688
 20
83.65194100513192
 10
116.14857362341888
 20
83.49512940824873
 10
116.03041318018381
 20
83.33023670068246
 10
115.92329022658996
 20
83.1579689783217
 10
115.82766347957036
 20
82.9790639180006
 10
115.74394242753672
 20
82.79428761865348
 10
115.67248557688688
 20
82.6044313207615
 10
115.6135989168256
 20
82.41030801813952
 10
115.56753460907169
 20
82.2127489765717
 10
115.53448990806291
 20
82.01260017420387
 10
115.51460631628203
 20
81.81071867893515
 10
115.50796897832171
 20
81.60796897832171
 10
115.51460631628203
 20
81.40521927770826
 10
115.53448990806291
 20
81.20333778243955
 10
115.56753460907169
 20
81.0031889800717
 10
115.6135989168256
 20
80.80562993850388
 10
115.67248557688688
 20
80.6115066358819
 10
115.74394242753672
 20
80.42165033798992
 10
115.82766347957036
 20
80.2368740386428
 10
115.92329022658996
 20
80.0579689783217
 10
116.03041318018381
 20
79.88570125596094
 10
116.14857362341888
 20
79.72080854839467
 10
116.27726557513688
 20
79.56399695151148
 10
116.4159379566434
 20
79.4159379566434
 10
116.56399695151148
 20
79.27726557513687
 10
116.72080854839467
 20
79.14857362341887
 10
116.88570125596095
 20
79.03041318018381
 10
117.0579689783217
 20
78.92329022658994
 10
117.23687403864281
 20
78.82766347957036
 10
117.42165033798992
 20
78.74394242753671
 10
117.61150663588191
 20
78.67248557688687
 10
117.8056299385039
 20
78.6135989168256
 10
118.00318898007171
 20
78.56753460907169
 10
118.20333778243955
 20
78.5344899080629
 10
118.40521927770826
 20
78.51460631628203
 10
118.60796897832171
 20
78.5079689783217
 10
118.81071867893516
 20
78.51460631628203
 10
119.01260017420387
 20
78.5344899080629
 10
119.2127489765717
 20
78.56753460907169
 10
119.41030801813952
 20
78.6135989168256
 10
119.6044313207615
 20
78.67248557688687
 10
119.7942876186535
 20
78.74394242753671
 10
119.9790639180006
 20
78.82766347957036
 10
120.15796897832172
 20
78.92329022658994
 10
120.33023670068246
 20
79.03041318018381
 10
120.49512940824874
 20
79.14857362341887
 10
120.65194100513193
 20
79.27726557513688
 10
120.80000000000001
 20
79.4159379566434
 10
120.93867238150654
 20
79.56399695151148
 10
121.06736433322453
 20
79.72080854839467
 10
121.1855247764596
 20
79.88570125596094
 10
121.29264773005346
 20
80.0579689783217
 10
121.38827447707305
 20
80.2368740386428
 10
121.47199552910669
 20
80.42165033798992
 10
121.54345237975653
 20
80.61150663588191
 10
121.60233903981782
 20
80.80562993850388
 10
121.64840334757173
 20
81.00318898007171
 10
121.6814480485805
 20
81.20333778243955
 10
121.70133164036139
 20
81.40521927770826
 10
121.7079689783217
 20
81.60796897832171
 10
121.70133164036139
 20
81.81071867893515
 10
121.6814480485805
 20
82.01260017420387
 10
121.64840334757173
 20
82.2127489765717
 10
121.60233903981782
 20
82.41030801813952
 10
121.54345237975653
 20
82.6044313207615
 10
121.47199552910669
 20
82.79428761865348
 10
121.38827447707305
 20
82.9790639180006
 10
121.29264773005346
 20
83.1579689783217
 10
121.1855247764596
 20
83.33023670068248
 10
121.06736433322453
 20
83.49512940824874
 10
120.93867238150654
 20
83.65194100513192
 10
120.80000000000001
 20
83.8
 10
159.2
 20
83.8
 10
159.2
 20
96.2
 10
120.80000000000001
 20
96.2
  0
LWPOLYLINE
  5
8F
330
17
100
AcDbEntity
  8
CUT
100
AcDbPolyline
 90
97
 70
1
 10
159.3480589948681
 20
96.06132761849346
 10
159.50487059175128
 20
95.93263566677547
 10
159.66976329931754
 20
95.81447522354041
 10
159.8420310216783
 20
95.70735226994654
 10
160.02093608199942
 20
95.61172552292696
 10
160.20571238134653
 20
95.52800447089331
 10
160.39556867923852
 20
95.45654762024347
 10
160.58969198186048
 20
95.39766096018218
 10
160.78725102342833
 20
95.35159665242828
 10
160.98739982579616
 20
95.31855195141948
 10
161.18928132106487
 20
95.29866835963863
 10
161.3920310216783
 20
95.2920310216783
 10
161.59478072229174
 20
95.29866835963863
 10
161.79666221756048
 20
95.31855195141948
 10
161.99681101992832
 20
95.35159665242828
 10
162.1943700614961
 20
95.39766096018218
 10
162.38849336411812
 20
95.45654762024347
 10
162.57834966201008
 20
95.52800447089331
 10
162.76312596135722
 20
95.61172552292696
 10
162.9420310216783
 20
95.70735226994654
 10
163.11429874403908
 20
95.81447522354041
 10
163.27919145160536
 20
95.93263566677547
 10
163.43600304848852
 20
96.06132761849346
 10
163.5840620433566
 20
96.2
 10
163.72273442486312
 20
96.34805899486808
 10
163.85142637658112
 20
96.50487059175126
 10
163.9695868198162
 20
96.66976329931754
 10
164.07670977341007
 20
96.8420310216783
 10
164.17233652042964
 20
97.0209360819994
 10
164.2560575724633
 20
97.20571238134652
 10
164.32751442311314
 20
97.3955686792385
 10
164.3864010831744
 20
97.58969198186048
 10
164.43246539092831
 20
97.7872510234283
 10
164.46551009193712
 20
97.98739982579613
 10
164.48539368371797
 20
98.18928132106485
 10
164.49203102167832
 20
98.39203102167829
 10
164.48539368371797
 20
98.59478072229174
 10
164.46551009193712
 20
98.79666221756045
 10
164.43246539092831
 20
98.9968110199283
 10
164.3864010831744
 20
99.19437006149612
 10
164.32751442311314
 20
99.3884933641181
 10
164.2560575724633
 20
99.57834966201008
 10
164.17233652042964
 20
99.7631259613572
 10
164.07670977341007
 20
99.9420310216783
 10
163.9695868198162
 20
100.11429874403906
 10
163.85142637658112
 20
100.27919145160533
 10
163.72273442486312
 20
100.43600304848852
 10
163.5840620433566
 20
100.5840620433566
 10
163.43600304848852
 20
100.72273442486313
 10
163.27919145160536
 20
100.85142637658113
 10
163.11429874403908
 20
100.96958681981619
 10
162.9420310216783
 20
101.07670977341006
 10
162.76312596135722
 20
101.17233652042964
 10
162.57834966201008
 20
101.25605757246329
 10
162.38849336411812
 20
101.32751442311313
 10
162.1943700614961
 20
101.3864010831744
 10
161.99681101992832
 20
101.43246539092831
 10
161.79666221756048
 20
101.4655100919371
 10
161.59478072229174
 20
101.48539368371797
 10
161.3920310216783
 20
101.4920310216783
 10
161.18928132106487
 20
101.48539368371797
 10
160.98739982579616
 20
101.4655100919371
 10
160.78725102342833
 20
101.43246539092831
 10
160.58969198186048
 20
101.3864010831744
 10
160.39556867923852
 20
101.32751442311313
 10
160.20571238134653
 20
101.25605757246329
 10
160.02093608199942
 20
101.17233652042964
 10
159.8420310216783
 20
101.07670977341006
 10
159.66976329931754
 20
100.96958681981619
 10
159.50487059175128
 20
100.85142637658113
 10
159.3480589948681
 20
100.72273442486312
 10
159.2
 20
100.5840620433566
 10
159.06132761849346
 20
100.43600304848852
 10
158.93263566677547
 20
100.27919145160533
 10
158.8144752235404
 20
100.11429874403906
 10
158.70735226994654
 20
99.9420310216783
 10
158.61172552292697
 20
99.7631259613572
 10
158.52800447089334
 20
99.57834966201007
 10
158.4565476202435
 20
99.38849336411809
 10
158.39766096018218
 20
99.19437006149612
 10
158.3515966524283
 20
98.99681101992829
 10
158.3185519514195
 20
98.79666221756045
 10
158.29866835963864
 20
98.59478072229174
 10
158.29203102167833
 20
98.39203102167829
 10
158.29866835963864
 20
98.18928132106485
 10
158.3185519514195
 20
97.98739982579613
 10
158.3515966524283
 20
97.7872510234283
 10
158.39766096018218
 20
97.58969198186048
 10
158.4565476202435
 20
97.3955686792385
 10
158.52800447089334
 20
97.20571238134652
 10
158.61172552292697
 20
97.0209360819994
 10
158.70735226994654
 20
96.8420310216783
 10
158.8144752235404
 20
96.66976329931752
 10
158.93263566677547
 20
96.50487059175126
 10
159.06132761849346
 20
96.34805899486808
 10
159.2
 20
96.2
 10
159.3480589948681
 20
96.06132761849346
  0
LWPOLYLINE
  5
90
330
17
100
AcDbEntity
  8
CUT
100
AcDbPolyline
 90
198
 70
1
 10
260.8
 20
96.2
 10
260.8
 20
83.8
 10
260.6519410051319
 20
83.93867238150654
 10
260.4951294082487
 20
84.06736433322453
 10
260.33023670068246
 20
84.18552477645959
 10
260.1579689783217
 20
84.29264773005346
 10
259.97906391800063
 20
84.38827447707304
 10
259.79428761865347
 20
84.47199552910669
 10
259.6044313207615
 20
84.54345237975653
 10
259.4103080181395
 20
84.60233903981782
 10
259.2127489765717
 20
84.64840334757172
 10
259.01260017420384
 20
84.68144804858052
 10
258.81071867893513
 20
84.70133164036137
 10
258.6079689783217
 20
84.7079689783217
 10
258.4052192777083
 20
84.70133164036137
 10
258.2033377824395
 20
84.68144804858052
 10
258.0031889800717
 20
84.64840334757172
 10
257.8056299385039
 20
84.60233903981782
 10
257.6115066358819
 20
84.54345237975653
 10
257.42165033798995
 20
84.47199552910669
 10
257.2368740386428
 20
84.38827447707304
 10
257.0579689783217
 20
84.29264773005346
 10
256.88570125596095
 20
84.18552477645959
 10
256.72080854839464
 20
84.06736433322453
 10
256.5639969515115
 20
83.93867238150654
 10
256.4159379566434
 20
83.8
 10
256.2772655751369
 20
83.65194100513192
 10
256.1485736234189
 20
83.49512940824873
 10
256.0304131801838
 20
83.33023670068246
 10
255.92329022658996
 20
83.1579689783217
 10
255.82766347957036
 20
82.9790639180006
 10
255.74394242753672
 20
82.79428761865348
 10
255.67248557688688
 20
82.6044313207615
 10
255.6135989168256
 20
82.41030801813952
 10
255.56753460907169
 20
82.2127489765717
 10
255.53448990806288
 20
82.01260017420387
 10
255.51460631628203
 20
81.81071867893515
 10
255.5079689783217
 20
81.60796897832171
 10
255.51460631628203
 20
81.40521927770826
 10
255.53448990806288
 20
81.20333778243955
 10
255.56753460907169
 20
81.0031889800717
 10
255.6135989168256
 20
80.80562993850388
 10
255.67248557688688
 20
80.6115066358819
 10
255.74394242753672
 20
80.42165033798992
 10
255.82766347957036
 20
80.2368740386428
 10
255.92329022658996
 20
80.0579689783217
 10
256.0304131801838
 20
79.88570125596094
 10
256.1485736234189
 20
79.72080854839467
 10
256.2772655751369
 20
79.56399695151148
 10
256.4159379566434
 20
79.4159379566434
 10
256.5639969515115
 20
79.27726557513687
 10
256.72080854839464
 20
79.14857362341887
 10
256.88570125596095
 20
79.03041318018381
 10
257.0579689783217
 20
78.92329022658994
 10
257.2368740386428
 20
78.82766347957036
 10
257.42165033798995
 20
78.74394242753671
 10
257.6115066358819
 20
78.67248557688687
 10
257.8056299385039
 20
78.6135989168256
 10
258.0031889800717
 20
78.56753460907169
 10
258.2033377824395
 20
78.5344899080629
 10
258.4052192777083
 20
78.51460631628203
 10
258.6079689783217
 20
78.5079689783217
 10
258.81071867893513
 20
78.51460631628203
 10
259.01260017420384
 20
78.5344899080629
 10
259.2127489765717
 20
78.56753460907169
 10
259.4103080181395
 20
78.6135989168256
 10
259.6044313207615
 20
78.67248557688687
 10
259.79428761865347
 20
78.74394242753671
 10
259.97906391800063
 20
78.82766347957036
 10
260.1579689783217
 20
78.92329022658994
 10
260.33023670068246
 20
79.03041318018381
 10
260.4951294082487
 20
79.14857362341887
 10
260.6519410051319
 20
79.27726557513688
 10
260.8
 20
79.4159379566434
 10
260.93867238150654
 20
79.56399695151148
 10
261.06736433322453
 20
79.72080854839467
 10
261.1855247764596
 20
79.88570125596094
 10
261.2926477300535
 20
80.0579689783217
 10
261.388274477073
 20
80.2368740386428
 10
261.4719955291067
 20
80.42165033798992
 10
261.54345237975656
 20
80.61150663588191
 10
261.6023390398178
 20
80.80562993850388
 10
261.64840334757173
 20
81.00318898007171
 10
261.68144804858053
 20
81.20333778243955
 10
261.7013316403614
 20
81.40521927770826
 10
261.70796897832173
 20
81.60796897832171
 10
261.7013316403614
 20
81.81071867893515
 10
261.68144804858053
 20
82.01260017420387
 10
261.64840334757173
 20
82.2127489765717
 10
261.6023390398178
 20
82.41030801813952
 10
261.54345237975656
 20
82.6044313207615
 10
261.4719955291067
 20
82.79428761865348
 10
261.388274477073
 20
82.9790639180006
 10
261.2926477300535
 20
83.1579689783217
 10
261.1855247764596
 20
83.33023670068248
 10
261.06736433322453
 20
83.49512940824874
 10
260.93867238150654
 20
83.65194100513192
 10
260.8
 20
83.8
 10
299.2
 20
83.8
 10
299.2
 20
83.8
 10
299.06132761849346
 20
83.65194100513192
 10
298.93263566677547
 20
83.49512940824873
 10
298.8144752235404
 20
83.33023670068246
 10
298.7073522699465
 20
83.1579689783217
 10
298.611725522927
 20
82.9790639180006
 10
298.5280044708933
 20
82.79428761865348
 10
298.45654762024344
 20
82.6044313207615
 10
298.3976609601822
 20
82.41030801813952
 10
298.35159665242827
 20
82.2127489765717
 10
298.31855195141947
 20
82.01260017420387
 10
298.2986683596386
 20
81.81071867893515
 10
298.29203102167827
 20
81.60796897832171
 10
298.2986683596386
 20
81.40521927770826
 10
298.31855195141947
 20
81.20333778243955
 10
298.35159665242827
 20
81.0031889800717
 10
298.3976609601822
 20
80.80562993850388
 10
298.45654762024344
 20
80.6115066358819
 10
298.5280044708933
 20
80.42165033798992
 10
298.611725522927
 20
80.2368740386428
 10
298.7073522699465
 20
80.0579689783217
 10
298.8144752235404
 20
79.88570125596094
 10
298.93263566677547
 20
79.72080854839467
 10
299.06132761849346
 20
79.56399695151148
 10
299.2
 20
79.4159379566434
 10
299.3480589948681
 20
79.27726557513687
 10
299.5048705917513
 20
79.14857362341887
 10
299.66976329931754
 20
79.03041318018381
 10
299.8420310216783
 20
78.92329022658994
 10
300.02093608199937
 20
78.82766347957036
 10
300.20571238134653
 20
78.74394242753671
 10
300.3955686792385
 20
78.67248557688687
 10
300.5896919818605
 20
78.6135989168256
 10
300.7872510234283
 20
78.56753460907169
 10
300.98739982579616
 20
78.5344899080629
 10
301.18928132106487
 20
78.51460631628203
 10
301.3920310216783
 20
78.5079689783217
 10
301.5947807222917
 20
78.51460631628203
 10
301.7966622175605
 20
78.5344899080629
 10
301.9968110199283
 20
78.56753460907169
 10
302.1943700614961
 20
78.6135989168256
 10
302.3884933641181
 20
78.67248557688687
 10
302.57834966201005
 20
78.74394242753671
 10
302.7631259613572
 20
78.82766347957036
 10
302.9420310216783
 20
78.92329022658994
 10
303.11429874403905
 20
79.03041318018381
 10
303.27919145160536
 20
79.14857362341887
 10
303.4360030484885
 20
79.27726557513688
 10
303.5840620433566
 20
79.4159379566434
 10
303.7227344248631
 20
79.56399695151148
 10
303.8514263765811
 20
79.72080854839467
 10
303.9695868198162
 20
79.88570125596094
 10
304.0767097734101
 20
80.0579689783217
 10
304.1723365204296
 20
80.2368740386428
 10
304.2560575724633
 20
80.42165033798992
 10
304.32751442311314
 20
80.61150663588191
 10
304.3864010831744
 20
80.80562993850388
 10
304.4324653909283
 20
81.00318898007171
 10
304.4655100919371
 20
81.20333778243955
 10
304.485393683718
 20
81.40521927770826
 10
304.4920310216783
 20
81.60796897832171
 10
304.485393683718
 20
81.81071867893515
 10
304.4655100919371
 20
82.01260017420387
 10
304.4324653909283
 20
82.2127489765717
 10
304.3864010831744
 20
82.41030801813952
 10
304.32751442311314
 20
82.6044313207615
 10
304.2560575724633
 20
82.79428761865348
 10
304.1723365204296
 20
82.9790639180006
 10
304.0767097734101
 20
83.1579689783217
 10
303.9695868198162
 20
83.33023670068248
 10
303.8514263765811
 20
83.49512940824874
 10
303.7227344248631
 20
83.65194100513192
 10
303.5840620433566
 20
83.8
 10
303.4360030484885
 20
83.93867238150654
 10
303.27919145160536
 20
84.06736433322453
 10
303.11429874403905
 20
84.18552477645959
 10
302.9420310216783
 20
84.29264773005346
 10
302.7631259613572
 20
84.38827447707304
 10
302.57834966201005
 20
84.47199552910669
 10
302.3884933641181
 20
84.54345237975653
 10
302.1943700614961
 20
84.60233903981782
 10
301.9968110199283
 20
84.64840334757172
 10
301.7966622175605
 20
84.68144804858052
 10
301.5947807222917
 20
84.70133164036137
 10
301.3920310216783
 20
84.7079689783217
 10
301.18928132106487
 20
84.70133164036137
 10
300.98739982579616
 20
84.68144804858052
 10
300.7872510234283
 20
84.64840334757172
 10
300.5896919818605
 20
84.60233903981782
 10
300.3955686792385
 20
84.54345237975653
 10
300.20571238134653
 20
84.47199552910669
 10
300.02093608199937
 20
84.38827447707304
 10
299.8420310216783
 20
84.29264773005346
 10
299.66976329931754
 20
84.18552477645959
 10
299.5048705917513
 20
84.06736433322453
 10
299.3480589948681
 20
83.93867238150654
 10
299.2
 20
83.8
 10
299.2
 20
96.2
 10
260.8
 20
96.2
  0
LWPOLYLINE
  5
91
330
17
100
AcDbEntity
  8
CUT
100
AcDbPolyline
 90
97
 70
1
 10
299.3480589948681
 20
96.06132761849346
 10
299.5048705917513
 20
95.93263566677547
 10
299.66976329931754
 20
95.81447522354041
 10
299.8420310216783
 20
95.70735226994654
 10
300.02093608199937
 20
95.61172552292696
 10
300.20571238134653
 20
95.52800447089331
 10
300.3955686792385
 20
95.45654762024347
 10
300.5896919818605
 20
95.39766096018218
 10
300.7872510234283
 20
95.35159665242828
 10
300.98739982579616
 20
95.31855195141948
 10
301.18928132106487
 20
95.29866835963863
 10
301.3920310216783
 20
95.2920310216783
 10
301.5947807222917
 20
95.29866835963863
 10
301.7966622175605
 20
95.31855195141948
 10
301.9968110199283
 20
95.35159665242828
 10
302.1943700614961
 20
95.39766096018218
 10
302.3884933641181
 20
95.45654762024347
 10
302.57834966201005
 20
95.52800447089331
 10
302.7631259613572
 20
95.61172552292696
 10
302.9420310216783
 20
95.70735226994654
 10
303.11429874403905
 20
95.81447522354041
 10
303.27919145160536
 20
95.93263566677547
 10
303.4360030484885
 20
96.06132761849346
 10
303.5840620433566
 20
96.2
 10
303.7227344248631
 20
96.34805899486808
 10
303.8514263765811
 20
96.50487059175126
 10
303.9695868198162
 20
96.66976329931754
 10
304.0767097734101
 20
96.8420310216783
 10
304.1723365204296
 20
97.0209360819994
 10
304.2560575724633
 20
97.20571238134652
 10
304.32751442311314
 20
97.3955686792385
 10
304.3864010831744
 20
97.58969198186048
 10
304.4324653909283
 20
97.7872510234283
 10
304.4655100919371
 20
97.98739982579613
 10
304.485393683718
 20
98.18928132106485
 10
304.4920310216783
 20
98.39203102167829
 10
304.485393683718
 20
98.59478072229174
 10
304.4655100919371
 20
98.79666221756045
 10
304.4324653909283
 20
98.9968110199283
 10
304.3864010831744
 20
99.19437006149612
 10
304.32751442311314
 20
99.3884933641181
 10
304.2560575724633
 20
99.57834966201008
 10
304.1723365204296
 20
99.7631259613572
 10
304.0767097734101
 20
99.9420310216783
 10
303.9695868198162
 20
100.11429874403906
 10
303.8514263765811
 20
100.27919145160533
 10
303.7227344248631
 20
100.43600304848852
 10
303.5840620433566
 20
100.5840620433566
 10
303.4360030484885
 20
100.72273442486313
 10
303.27919145160536
 20
100.85142637658113
 10
303.11429874403905
 20
100.96958681981619
 10
302.9420310216783
 20
101.07670977341006
 10
302.7631259613572
 20
101.17233652042964
 10
302.57834966201005
 20
101.25605757246329
 10
302.3884933641181
 20
101.32751442311313
 10
302.1943700614961
 20
101.3864010831744
 10
301.9968110199283
 20
101.43246539092831
 10
301.7966622175605
 20
101.4655100919371
 10
301.5947807222917
 20
101.48539368371797
 10
301.3920310216783
 20
101.4920310216783
 10
301.18928132106487
 20
101.48539368371797
 10
300.98739982579616
 20
101.4655100919371
 10
300.7872510234283
 20
101.43246539092831
 10
300.5896919818605
 20
101.3864010831744
 10
300.3955686792385
 20
101.32751442311313
 10
300.20571238134653
 20
101.25605757246329
 10
300.02093608199937
 20
101.17233652042964
 10
299.8420310216783
 20
101.07670977341006
 10
299.66976329931754
 20
100.96958681981619
 10
299.5048705917513
 20
100.85142637658113
 10
299.3480589948681
 20
100.72273442486312
 10
299.2
 20
100.5840620433566
 10
299.06132761849346
 20
100.43600304848852
 10
298.93263566677547
 20
100.27919145160533
 10
298.8144752235404
 20
100.11429874403906
 10
298.7073522699465
 20
99.9420310216783
 10
298.611725522927
 20
99.7631259613572
 10
298.5280044708933
 20
99.57834966201007
 10
298.45654762024344
 20
99.38849336411809
 10
298.3976609601822
 20
99.19437006149612
 10
298.35159665242827
 20
98.99681101992829
 10
298.31855195141947
 20
98.79666221756045
 10
298.2986683596386
 20
98.59478072229174
 10
298.29203102167827
 20
98.39203102167829
 10
298.2986683596386
 20
98.18928132106485
 10
298.31855195141947
 20
97.98739982579613
 10
298.35159665242827
 20
97.7872510234283
 10
298.3976609601822
 20
97.58969198186048
 10
298.45654762024344
 20
97.3955686792385
 10
298.5280044708933
 20
97.20571238134652
 10
298.611725522927
 20
97.0209360819994
 10
298.7073522699465
 20
96.8420310216783
 10
298.8144752235404
 20
96.66976329931752
 10
298.93263566677547
 20
96.50487059175126
 10
299.06132761849346
 20
96.34805899486808
 10
299.2
 20
96.2
 10
299.3480589948681
 20
96.06132761849346
  0
LWPOLYLINE
  5
92
330
17
100
AcDbEntity
  8
CUT
100
AcDbPolyline
 90
97
 70
1
 10
121.47199552910669
 20
97.20571238134652
 10
121.54345237975653
 20
97.3955686792385
 10
121.60233903981782
 20
97.58969198186048
 10
121.64840334757173
 20
97.7872510234283
 10
121.6814480485805
 20
97.98739982579613
 10
121.70133164036139
 20
98.18928132106485
 10
121.7079689783217
 20
98.39203102167829
 10
121.70133164036139
 20
98.59478072229174
 10
121.6814480485805
 20
98.79666221756045
 10
121.64840334757173
 20
98.9968110199283
 10
121.60233903981782
 20
99.19437006149612
 10
121.54345237975653
 20
99.3884933641181
 10
121.47199552910669
 20
99.57834966201008
 10
121.38827447707305
 20
99.7631259613572
 10
121.29264773005346
 20
99.9420310216783
 10
121.1855247764596
 20
100.11429874403906
 10
121.06736433322453
 20
100.27919145160533
 10
120.93867238150654
 20
100.43600304848852
 10
120.80000000000001
 20
100.5840620433566
 10
120.65194100513193
 20
100.72273442486313
 10
120.49512940824874
 20
100.85142637658113
 10
120.33023670068246
 20
100.96958681981619
 10
120.15796897832172
 20
101.07670977341006
 10
119.9790639180006
 20
101.17233652042964
 10
119.79428761865347
 20
101.25605757246329
 10
119.6044313207615
 20
101.32751442311313
 10
119.41030801813952
 20
101.3864010831744
 10
119.2127489765717
 20
101.43246539092831
 10
119.01260017420387
 20
101.4655100919371
 10
118.81071867893516
 20
101.48539368371797
 10
118.60796897832171
 20
101.4920310216783
 10
118.40521927770826
 20
101.48539368371797
 10
118.20333778243955
 20
101.4655100919371
 10
118.00318898007171
 20
101.43246539092831
 10
117.8056299385039
 20
101.3864010831744
 10
117.61150663588191
 20
101.32751442311313
 10
117.42165033798992
 20
101.25605757246329
 10
117.23687403864281
 20
101.17233652042964
 10
117.0579689783217
 20
101.07670977341006
 10
116.88570125596092
 20
100.96958681981619
 10
116.72080854839467
 20
100.85142637658113
 10
116.56399695151148
 20
100.72273442486312
 10
116.4159379566434
 20
100.5840620433566
 10
116.27726557513688
 20
100.43600304848852
 10
116.14857362341888
 20
100.27919145160533
 10
116.03041318018381
 20
100.11429874403906
 10
115.92329022658996
 20
99.9420310216783
 10
115.82766347957036
 20
99.7631259613572
 10
115.74394242753672
 20
99.57834966201007
 10
115.67248557688688
 20
99.38849336411809
 10
115.6135989168256
 20
99.19437006149612
 10
115.56753460907169
 20
98.99681101992829
 10
115.53448990806291
 20
98.79666221756045
 10
115.51460631628203
 20
98.59478072229174
 10
115.50796897832171
 20
98.39203102167829
 10
115.51460631628203
 20
98.18928132106485
 10
115.53448990806291
 20
97.98739982579613
 10
115.56753460907169
 20
97.7872510234283
 10
115.6135989168256
 20
97.58969198186048
 10
115.67248557688688
 20
97.3955686792385
 10
115.74394242753672
 20
97.20571238134652
 10
115.82766347957036
 20
97.0209360819994
 10
115.92329022658996
 20
96.8420310216783
 10
116.03041318018381
 20
96.66976329931752
 10
116.14857362341888
 20
96.50487059175126
 10
116.27726557513688
 20
96.34805899486808
 10
116.4159379566434
 20
96.2
 10
116.56399695151148
 20
96.06132761849346
 10
116.72080854839467
 20
95.93263566677547
 10
116.88570125596095
 20
95.81447522354041
 10
117.0579689783217
 20
95.70735226994654
 10
117.23687403864281
 20
95.61172552292696
 10
117.42165033798992
 20
95.52800447089331
 10
117.61150663588191
 20
95.45654762024347
 10
117.8056299385039
 20
95.39766096018218
 10
118.00318898007171
 20
95.35159665242828
 10
118.20333778243955
 20
95.31855195141948
 10
118.40521927770826
 20
95.29866835963863
 10
118.60796897832171
 20
95.2920310216783
 10
118.81071867893516
 20
95.29866835963863
 10
119.01260017420387
 20
95.31855195141948
 10
119.2127489765717
 20
95.35159665242828
 10
119.41030801813952
 20
95.39766096018218
 10
119.6044313207615
 20
95.45654762024347
 10
119.7942876186535
 20
95.52800447089331
 10
119.9790639180006
 20
95.61172552292696
 10
120.15796897832172
 20
95.70735226994654
 10
120.33023670068246
 20
95.81447522354041
 10
120.49512940824874
 20
95.93263566677547
 10
120.65194100513193
 20
96.06132761849346
 10
120.80000000000001
 20
96.2
 10
120.93867238150654
 20
96.34805899486808
 10
121.06736433322453
 20
96.50487059175126
 10
121.1855247764596
 20
96.66976329931754
 10
121.29264773005346
 20
96.8420310216783
 10
121.38827447707305
 20
97.0209360819994
 10
121.47199552910669
 20
97.20571238134652
  0
LWPOLYLINE
  5
93
330
17
100
AcDbEntity
  8
CUT
100
AcDbPolyline
 90
97
 70
1
 10
261.54345237975656
 20
97.3955686792385
 10
261.6023390398178
 20
97.58969198186048
 10
261.64840334757173
 20
97.7872510234283
 10
261.68144804858053
 20
97.98739982579613
 10
261.7013316403614
 20
98.18928132106485
 10
261.70796897832173
 20
98.39203102167829
 10
261.7013316403614
 20
98.59478072229174
 10
261.68144804858053
 20
98.79666221756045
 10
261.64840334757173
 20
98.9968110199283
 10
261.6023390398178
 20
99.19437006149612
 10
261.54345237975656
 20
99.3884933641181
 10
261.4719955291067
 20
99.57834966201008
 10
261.388274477073
 20
99.7631259613572
 10
261.2926477300535
 20
99.9420310216783
 10
261.1855247764596
 20
100.11429874403906
 10
261.06736433322453
 20
100.27919145160533
 10
260.93867238150654
 20
100.43600304848852
 10
260.8
 20
100.5840620433566
 10
260.6519410051319
 20
100.72273442486313
 10
260.4951294082487
 20
100.85142637658113
 10
260.33023670068246
 20
100.96958681981619
 10
260.1579689783217
 20
101.07670977341006
 10
259.97906391800063
 20
101.17233652042964
 10
259.79428761865347
 20
101.25605757246329
 10
259.6044313207615
 20
101.32751442311313
 10
259.4103080181395
 20
101.3864010831744
 10
259.2127489765717
 20
101.43246539092831
 10
259.01260017420384
 20
101.4655100919371
 10
258.81071867893513
 20
101.48539368371797
 10
258.6079689783217
 20
101.4920310216783
 10
258.4052192777083
 20
101.48539368371797
 10
258.2033377824395
 20
101.4655100919371
 10
258.0031889800717
 20
101.43246539092831
 10
257.8056299385039
 20
101.3864010831744
 10
257.6115066358819
 20
101.32751442311313
 10
257.42165033798995
 20
101.25605757246329
 10
257.2368740386428
 20
101.17233652042964
 10
257.0579689783217
 20
101.07670977341006
 10
256.88570125596095
 20
100.96958681981619
 10
256.72080854839464
 20
100.85142637658113
 10
256.5639969515115
 20
100.72273442486312
 10
256.4159379566434
 20
100.5840620433566
 10
256.2772655751369
 20
100.43600304848852
 10
256.1485736234189
 20
100.27919145160533
 10
256.0304131801838
 20
100.11429874403906
 10
255.92329022658996
 20
99.9420310216783
 10
255.82766347957036
 20
99.7631259613572
 10
255.74394242753672
 20
99.57834966201007
 10
255.67248557688688
 20
99.38849336411809
 10
255.6135989168256
 20
99.19437006149612
 10
255.56753460907169
 20
98.99681101992829
 10
255.53448990806288
 20
98.79666221756045
 10
255.51460631628203
 20
98.59478072229174
 10
255.5079689783217
 20
98.39203102167829
 10
255.51460631628203
 20
98.18928132106485
 10
255.53448990806288
 20
97.98739982579613
 10
255.56753460907169
 20
97.7872510234283
 10
255.6135989168256
 20
97.58969198186048
 10
255.67248557688688
 20
97.3955686792385
 10
255.74394242753672
 20
97.20571238134652
 10
255.82766347957036
 20
97.0209360819994
 10
255.92329022658996
 20
96.8420310216783
 10
256.0304131801838
 20
96.66976329931752
 10
256.1485736234189
 20
96.50487059175126
 10
256.2772655751369
 20
96.34805899486808
 10
256.4159379566434
 20
96.2
 10
256.5639969515115
 20
96.06132761849346
 10
256.72080854839464
 20
95.93263566677547
 10
256.88570125596095
 20
95.81447522354041
 10
257.0579689783217
 20
95.70735226994654
 10
257.2368740386428
 20
95.61172552292696
 10
257.42165033798995
 20
95.52800447089331
 10
257.6115066358819
 20
95.45654762024347
 10
257.8056299385039
 20
95.39766096018218
 10
258.0031889800717
 20
95.35159665242828
 10
258.2033377824395
 20
95.31855195141948
 10
258.4052192777083
 20
95.29866835963863
 10
258.6079689783217
 20
95.2920310216783
 10
258.81071867893513
 20
95.29866835963863
 10
259.01260017420384
 20
95.31855195141948
 10
259.2127489765717
 20
95.35159665242828
 10
259.4103080181395
 20
95.39766096018218
 10
259.6044313207615
 20
95.45654762024347
 10
259.79428761865347
 20
95.52800447089331
 10
259.97906391800063
 20
95.61172552292696
 10
260.1579689783217
 20
95.70735226994654
 10
260.33023670068246
 20
95.81447522354041
 10
260.4951294082487
 20
95.93263566677547
 10
260.6519410051319
 20
96.06132761849346
 10
260.8
 20
96.2
 10
260.93867238150654
 20
96.34805899486808
 10
261.06736433322453
 20
96.50487059175126
 10
261.1855247764596
 20
96.66976329931754
 10
261.2926477300535
 20
96.8420310216783
 10
261.388274477073
 20
97.0209360819994
 10
261.4719955291067
 20
97.20571238134652
 10
261.54345237975656
 20
97.3955686792385
  0
LWPOLYLINE
  5
94
330
17
100
AcDbEntity
  8
CUT
100
AcDbPolyline
 90
97
 70
1
 10
444.32751442311314
 20
80.61150663588191
 10
444.3864010831744
 20
80.80562993850388
 10
444.4324653909283
 20
81.00318898007171
 10
444.46551009193706
 20
81.20333778243955
 10
444.485393683718
 20
81.40521927770826
 10
444.49203102167826
 20
81.60796897832171
 10
444.485393683718
 20
81.81071867893515
 10
444.46551009193706
 20
82.01260017420387
 10
444.4324653909283
 20
82.2127489765717
 10
444.3864010831744
 20
82.41030801813952
 10
444.32751442311314
 20
82.6044313207615
 10
444.2560575724633
 20
82.79428761865348
 10
444.17233652042967
 20
82.9790639180006
 10
444.07670977341
 20
83.1579689783217
 10
443.9695868198162
 20
83.33023670068248
 10
443.8514263765811
 20
83.49512940824874
 10
443.7227344248631
 20
83.65194100513192
 10
443.5840620433566
 20
83.8
 10
443.4360030484885
 20
83.93867238150654
 10
443.27919145160536
 20
84.06736433322453
 10
443.11429874403905
 20
84.18552477645959
 10
442.9420310216783
 20
84.29264773005346
 10
442.7631259613572
 20
84.38827447707304
 10
442.57834966201005
 20
84.47199552910669
 10
442.38849336411806
 20
84.54345237975653
 10
442.1943700614961
 20
84.60233903981782
 10
441.99681101992826
 20
84.64840334757172
 10
441.7966622175604
 20
84.68144804858052
 10
441.5947807222917
 20
84.70133164036137
 10
441.3920310216783
 20
84.7079689783217
 10
441.18928132106487
 20
84.70133164036137
 10
440.98739982579616
 20
84.68144804858052
 10
440.7872510234283
 20
84.64840334757172
 10
440.5896919818605
 20
84.60233903981782
 10
440.3955686792385
 20
84.54345237975653
 10
440.20571238134653
 20
84.47199552910669
 10
440.02093608199937
 20
84.38827447707304
 10
439.8420310216783
 20
84.29264773005346
 10
439.66976329931754
 20
84.18552477645959
 10
439.5048705917512
 20
84.06736433322453
 10
439.3480589948681
 20
83.93867238150654
 10
439.2
 20
83.8
 10
439.06132761849346
 20
83.65194100513192
 10
438.93263566677547
 20
83.49512940824873
 10
438.8144752235404
 20
83.33023670068246
 10
438.70735226994657
 20
83.1579689783217
 10
438.6117255229269
 20
82.9790639180006
 10
438.5280044708933
 20
82.79428761865348
 10
438.45654762024344
 20
82.6044313207615
 10
438.3976609601822
 20
82.41030801813952
 10
438.35159665242827
 20
82.2127489765717
 10
438.3185519514195
 20
82.01260017420387
 10
438.2986683596386
 20
81.81071867893515
 10
438.2920310216783
 20
81.60796897832171
 10
438.2986683596386
 20
81.40521927770826
 10
438.3185519514195
 20
81.20333778243955
 10
438.35159665242827
 20
81.0031889800717
 10
438.3976609601822
 20
80.80562993850388
 10
438.45654762024344
 20
80.6115066358819
 10
438.5280044708933
 20
80.42165033798992
 10
438.6117255229269
 20
80.2368740386428
 10
438.70735226994657
 20
80.0579689783217
 10
438.8144752235404
 20
79.88570125596094
 10
438.93263566677547
 20
79.72080854839467
 10
439.06132761849346
 20
79.56399695151148
 10
439.2
 20
79.4159379566434
 10
439.3480589948681
 20
79.27726557513687
 10
439.5048705917512
 20
79.14857362341887
 10
439.66976329931754
 20
79.03041318018381
 10
439.8420310216783
 20
78.92329022658994
 10
440.02093608199937
 20
78.82766347957036
 10
440.20571238134653
 20
78.74394242753671
 10
440.3955686792385
 20
78.67248557688687
 10
440.5896919818605
 20
78.6135989168256
 10
440.7872510234283
 20
78.56753460907169
 10
440.98739982579616
 20
78.5344899080629
 10
441.18928132106487
 20
78.51460631628203
 10
441.3920310216783
 20
78.5079689783217
 10
441.5947807222917
 20
78.51460631628203
 10
441.7966622175604
 20
78.5344899080629
 10
441.99681101992826
 20
78.56753460907169
 10
442.1943700614961
 20
78.6135989168256
 10
442.38849336411806
 20
78.67248557688687
 10
442.57834966201005
 20
78.74394242753671
 10
442.7631259613572
 20
78.82766347957036
 10
442.9420310216783
 20
78.92329022658994
 10
443.11429874403905
 20
79.03041318018381
 10
443.27919145160536
 20
79.14857362341887
 10
443.4360030484885
 20
79.27726557513688
 10
443.5840620433566
 20
79.4159379566434
 10
443.7227344248631
 20
79.56399695151148
 10
443.8514263765811
 20
79.72080854839467
 10
443.9695868198162
 20
79.88570125596094
 10
444.07670977341
 20
80.0579689783217
 10
444.17233652042967
 20
80.2368740386428
 10
444.2560575724633
 20
80.42165033798992
 10
444.32751442311314
 20
80.61150663588191
  0
LWPOLYLINE
  5
95
330
17
100
AcDbEntity
  8
CUT
100
AcDbPolyline
 90
101
 70
1
 10
400.8
 20
96.2
 10
400.8
 20
83.8
 10
400.6519410051319
 20
83.93867238150654
 10
400.4951294082487
 20
84.06736433322453
 10
400.33023670068246
 20
84.18552477645959
 10
400.1579689783217
 20
84.29264773005346
 10
399.9790639180006
 20
84.38827447707304
 10
399.79428761865347
 20
84.47199552910669
 10
399.6044313207615
 20
84.54345237975653
 10
399.4103080181395
 20
84.60233903981782
 10
399.2127489765717
 20
84.64840334757172
 10
399.01260017420384
 20
84.68144804858052
 10
398.81071867893513
 20
84.70133164036137
 10
398.6079689783217
 20
84.7079689783217
 10
398.4052192777083
 20
84.70133164036137
 10
398.2033377824395
 20
84.68144804858052
 10
398.0031889800717
 20
84.64840334757172
 10
397.8056299385039
 20
84.60233903981782
 10
397.6115066358819
 20
84.54345237975653
 10
397.42165033798995
 20
84.47199552910669
 10
397.2368740386428
 20
84.38827447707304
 10
397.0579689783217
 20
84.29264773005346
 10
396.88570125596095
 20
84.18552477645959
 10
396.72080854839464
 20
84.06736433322453
 10
396.5639969515115
 20
83.93867238150654
 10
396.4159379566434
 20
83.8
 10
396.2772655751369
 20
83.65194100513192
 10
396.1485736234189
 20
83.49512940824873
 10
396.0304131801838
 20
83.33023670068246
 10
395.9232902265899
 20
83.1579689783217
 10
395.82766347957033
 20
82.9790639180006
 10
395.7439424275367
 20
82.79428761865348
 10
395.67248557688686
 20
82.6044313207615
 10
395.6135989168256
 20
82.41030801813952
 10
395.5675346090717
 20
82.2127489765717
 10
395.5344899080629
 20
82.01260017420387
 10
395.514606316282
 20
81.81071867893515
 10
395.5079689783217
 20
81.60796897832171
 10
395.514606316282
 20
81.40521927770826
 10
395.5344899080629
 20
81.20333778243955
 10
395.5675346090717
 20
81.0031889800717
 10
395.6135989168256
 20
80.80562993850388
 10
395.67248557688686
 20
80.6115066358819
 10
395.7439424275367
 20
80.42165033798992
 10
395.82766347957033
 20
80.2368740386428
 10
395.9232902265899
 20
80.0579689783217
 10
396.0304131801838
 20
79.88570125596094
 10
396.1485736234189
 20
79.72080854839467
 10
396.2772655751369
 20
79.56399695151148
 10
396.4159379566434
 20
79.4159379566434
 10
396.5639969515115
 20
79.27726557513687
 10
396.72080854839464
 20
79.14857362341887
 10
396.88570125596095
 20
79.03041318018381
 10
397.0579689783217
 20
78.92329022658994
 10
397.2368740386428
 20
78.82766347957036
 10
397.42165033798995
 20
78.74394242753671
 10
397.6115066358819
 20
78.67248557688687
 10
397.8056299385039
 20
78.6135989168256
 10
398.0031889800717
 20
78.56753460907169
 10
398.2033377824395
 20
78.5344899080629
 10
398.4052192777083
 20
78.51460631628203
 10
398.6079689783217
 20
78.5079689783217
 10
398.81071867893513
 20
78.51460631628203
 10
399.01260017420384
 20
78.5344899080629
 10
399.2127489765717
 20
78.56753460907169
 10
399.4103080181395
 20
78.6135989168256
 10
399.6044313207615
 20
78.67248557688687
 10
399.79428761865347
 20
78.74394242753671
 10
399.9790639180006
 20
78.82766347957036
 10
400.1579689783217
 20
78.92329022658994
 10
400.33023670068246
 20
79.03041318018381
 10
400.4951294082487
 20
79.14857362341887
 10
400.6519410051319
 20
79.27726557513688
 10
400.8
 20
79.4159379566434
 10
400.93867238150654
 20
79.56399695151148
 10
401.06736433322453
 20
79.72080854839467
 10
401.1855247764596
 20
79.88570125596094
 10
401.29264773005343
 20
80.0579689783217
 10
401.388274477073
 20
80.2368740386428
 10
401.47199552910666
 20
80.42165033798992
 10
401.5434523797565
 20
80.61150663588191
 10
401.6023390398178
 20
80.80562993850388
 10
401.64840334757173
 20
81.00318898007171
 10
401.6814480485805
 20
81.20333778243955
 10
401.70133164036133
 20
81.40521927770826
 10
401.7079689783217
 20
81.60796897832171
 10
401.70133164036133
 20
81.81071867893515
 10
401.6814480485805
 20
82.01260017420387
 10
401.64840334757173
 20
82.2127489765717
 10
401.6023390398178
 20
82.41030801813952
 10
401.5434523797565
 20
82.6044313207615
 10
401.47199552910666
 20
82.79428761865348
 10
401.388274477073
 20
82.9790639180006
 10
401.29264773005343
 20
83.1579689783217
 10
401.1855247764596
 20
83.33023670068248
 10
401.06736433322453
 20
83.49512940824874
 10
400.93867238150654
 20
83.65194100513192
 10
400.8
 20
83.8
 10
439.2
 20
83.8
 10
439.2
 20
96.2
 10
400.8
 20
96.2
  0
LWPOLYLINE
  5
96
330
17
100
AcDbEntity
  8
CUT
100
AcDbPolyline
 90
97
 70
1
 10
439.3480589948681
 20
96.06132761849346
 10
439.5048705917512
 20
95.93263566677547
 10
439.66976329931754
 20
95.81447522354041
 10
439.8420310216783
 20
95.70735226994654
 10
440.02093608199937
 20
95.61172552292696
 10
440.20571238134653
 20
95.52800447089331
 10
440.3955686792385
 20
95.45654762024347
 10
440.5896919818605
 20
95.39766096018218
 10
440.7872510234283
 20
95.35159665242828
 10
440.98739982579616
 20
95.31855195141948
 10
441.18928132106487
 20
95.29866835963863
 10
441.3920310216783
 20
95.2920310216783
 10
441.5947807222917
 20
95.29866835963863
 10
441.7966622175604
 20
95.31855195141948
 10
441.99681101992826
 20
95.35159665242828
 10
442.1943700614961
 20
95.39766096018218
 10
442.38849336411806
 20
95.45654762024347
 10
442.57834966201005
 20
95.52800447089331
 10
442.7631259613572
 20
95.61172552292696
 10
442.9420310216783
 20
95.70735226994654
 10
443.11429874403905
 20
95.81447522354041
 10
443.27919145160536
 20
95.93263566677547
 10
443.4360030484885
 20
96.06132761849346
 10
443.5840620433566
 20
96.2
 10
443.7227344248631
 20
96.34805899486808
 10
443.8514263765811
 20
96.50487059175126
 10
443.9695868198162
 20
96.66976329931754
 10
444.07670977341
 20
96.8420310216783
 10
444.17233652042967
 20
97.0209360819994
 10
444.2560575724633
 20
97.20571238134652
 10
444.32751442311314
 20
97.3955686792385
 10
444.3864010831744
 20
97.58969198186048
 10
444.4324653909283
 20
97.7872510234283
 10
444.46551009193706
 20
97.98739982579613
 10
444.485393683718
 20
98.18928132106485
 10
444.49203102167826
 20
98.39203102167829
 10
444.485393683718
 20
98.59478072229174
 10
444.46551009193706
 20
98.79666221756045
 10
444.4324653909283
 20
98.9968110199283
 10
444.3864010831744
 20
99.19437006149612
 10
444.32751442311314
 20
99.3884933641181
 10
444.2560575724633
 20
99.57834966201008
 10
444.17233652042967
 20
99.7631259613572
 10
444.07670977341
 20
99.9420310216783
 10
443.9695868198162
 20
100.11429874403906
 10
443.8514263765811
 20
100.27919145160533
 10
443.7227344248631
 20
100.43600304848852
 10
443.5840620433566
 20
100.5840620433566
 10
443.4360030484885
 20
100.72273442486313
 10
443.27919145160536
 20
100.85142637658113
 10
443.11429874403905
 20
100.96958681981619
 10
442.9420310216783
 20
101.07670977341006
 10
442.7631259613572
 20
101.17233652042964
 10
442.57834966201005
 20
101.25605757246329
 10
442.38849336411806
 20
101.32751442311313
 10
442.1943700614961
 20
101.3864010831744
 10
441.99681101992826
 20
101.43246539092831
 10
441.7966622175604
 20
101.4655100919371
 10
441.5947807222917
 20
101.48539368371797
 10
441.3920310216783
 20
101.4920310216783
 10
441.18928132106487
 20
101.48539368371797
 10
440.98739982579616
 20
101.4655100919371
 10
440.7872510234283
 20
101.43246539092831
 10
440.5896919818605
 20
101.3864010831744
 10
440.3955686792385
 20
101.32751442311313
 10
440.20571238134653
 20
101.25605757246329
 10
440.02093608199937
 20
101.17233652042964
 10
439.8420310216783
 20
101.07670977341006
 10
439.66976329931754
 20
100.96958681981619
 10
439.5048705917512
 20
100.85142637658113
 10
439.3480589948681
 20
100.72273442486312
 10
439.2
 20
100.5840620433566
 10
439.06132761849346
 20
100.43600304848852
 10
438.93263566677547
 20
100.27919145160533
 10
438.8144752235404
 20
100.11429874403906
 10
438.70735226994657
 20
99.9420310216783
 10
438.6117255229269
 20
99.7631259613572
 10
438.5280044708933
 20
99.57834966201007
 10
438.45654762024344
 20
99.38849336411809
 10
438.3976609601822
 20
99.19437006149612
 10
438.35159665242827
 20
98.99681101992829
 10
438.3185519514195
 20
98.79666221756045
 10
438.2986683596386
 20
98.59478072229174
 10
438.2920310216783
 20
98.39203102167829
 10
438.2986683596386
 20
98.18928132106485
 10
438.3185519514195
 20
97.98739982579613
 10
438.35159665242827
 20
97.7872510234283
 10
438.3976609601822
 20
97.58969198186048
 10
438.45654762024344
 20
97.3955686792385
 10
438.5280044708933
 20
97.20571238134652
 10
438.6117255229269
 20
97.0209360819994
 10
438.70735226994657
 20
96.8420310216783
 10
438.8144752235404
 20
96.66976329931752
 10
438.93263566677547
 20
96.50487059175126
 10
439.06132761849346
 20
96.34805899486808
 10
439.2
 20
96.2
 10
439.3480589948681
 20
96.06132761849346
  0
LWPOLYLINE
  5
97
330
17
100
AcDbEntity
  8
CUT
100
AcDbPolyline
 90
97
 70
1
 10
401.47199552910666
 20
97.20571238134652
 10
401.5434523797565
 20
97.3955686792385
 10
401.6023390398178
 20
97.58969198186048
 10
401.64840334757173
 20
97.7872510234283
 10
401.6814480485805
 20
97.98739982579613
 10
401.70133164036133
 20
98.18928132106485
 10
401.7079689783217
 20
98.39203102167829
 10
401.70133164036133
 20
98.59478072229174
 10
401.6814480485805
 20
98.79666221756045
 10
401.64840334757173
 20
98.9968110199283
 10
401.6023390398178
 20
99.19437006149612
 10
401.5434523797565
 20
99.3884933641181
 10
401.47199552910666
 20
99.57834966201008
 10
401.388274477073
 20
99.7631259613572
 10
401.29264773005343
 20
99.9420310216783
 10
401.1855247764596
 20
100.11429874403906
 10
401.06736433322453
 20
100.27919145160533
 10
400.93867238150654
 20
100.43600304848852
 10
400.8
 20
100.5840620433566
 10
400.6519410051319
 20
100.72273442486313
 10
400.4951294082487
 20
100.85142637658113
 10
400.33023670068246
 20
100.96958681981619
 10
400.1579689783217
 20
101.07670977341006
 10
399.9790639180006
 20
101.17233652042964
 10
399.79428761865347
 20
101.25605757246329
 10
399.6044313207615
 20
101.32751442311313
 10
399.4103080181395
 20
101.3864010831744
 10
399.2127489765717
 20
101.43246539092831
 10
399.01260017420384
 20
101.4655100919371
 10
398.81071867893513
 20
101.48539368371797
 10
398.6079689783217
 20
101.4920310216783
 10
398.4052192777083
 20
101.48539368371797
 10
398.2033377824395
 20
101.4655100919371
 10
398.0031889800717
 20
101.43246539092831
 10
397.8056299385039
 20
101.3864010831744
 10
397.6115066358819
 20
101.32751442311313
 10
397.42165033798995
 20
101.25605757246329
 10
397.2368740386428
 20
101.17233652042964
 10
397.0579689783217
 20
101.07670977341006
 10
396.88570125596095
 20
100.96958681981619
 10
396.72080854839464
 20
100.85142637658113
 10
396.5639969515115
 20
100.72273442486312
 10
396.4159379566434
 20
100.5840620433566
 10
396.2772655751369
 20
100.43600304848852
 10
396.1485736234189
 20
100.27919145160533
 10
396.0304131801838
 20
100.11429874403906
 10
395.9232902265899
 20
99.9420310216783
 10
395.82766347957033
 20
99.7631259613572
 10
395.7439424275367
 20
99.57834966201007
 10
395.67248557688686
 20
99.38849336411809
 10
395.6135989168256
 20
99.19437006149612
 10
395.5675346090717
 20
98.99681101992829
 10
395.5344899080629
 20
98.79666221756045
 10
395.514606316282
 20
98.59478072229174
 10
395.5079689783217
 20
98.39203102167829
 10
395.514606316282
 20
98.18928132106485
 10
395.5344899080629
 20
97.98739982579613
 10
395.5675346090717
 20
97.7872510234283
 10
395.6135989168256
 20
97.58969198186048
 10
395.67248557688686
 20
97.3955686792385
 10
395.7439424275367
 20
97.20571238134652
 10
395.82766347957033
 20
97.0209360819994
 10
395.9232902265899
 20
96.8420310216783
 10
396.0304131801838
 20
96.66976329931752
 10
396.1485736234189
 20
96.50487059175126
 10
396.2772655751369
 20
96.34805899486808
 10
396.4159379566434
 20
96.2
 10
396.5639969515115
 20
96.06132761849346
 10
396.72080854839464
 20
95.93263566677547
 10
396.88570125596095
 20
95.81447522354041
 10
397.0579689783217
 20
95.70735226994654
 10
397.2368740386428
 20
95.61172552292696
 10
397.42165033798995
 20
95.52800447089331
 10
397.6115066358819
 20
95.45654762024347
 10
397.8056299385039
 20
95.39766096018218
 10
398.0031889800717
 20
95.35159665242828
 10
398.2033377824395
 20
95.31855195141948
 10
398.4052192777083
 20
95.29866835963863
 10
398.6079689783217
 20
95.2920310216783
 10
398.81071867893513
 20
95.29866835963863
 10
399.01260017420384
 20
95.31855195141948
 10
399.2127489765717
 20
95.35159665242828
 10
399.4103080181395
 20
95.39766096018218
 10
399.6044313207615
 20
95.45654762024347
 10
399.79428761865347
 20
95.52800447089331
 10
399.9790639180006
 20
95.61172552292696
 10
400.1579689783217
 20
95.70735226994654
 10
400.33023670068246
 20
95.81447522354041
 10
400.4951294082487
 20
95.93263566677547
 10
400.6519410051319
 20
96.06132761849346
 10
400.8
 20
96.2
 10
400.93867238150654
 20
96.34805899486808
 10
401.06736433322453
 20
96.50487059175126
 10
401.1855247764596
 20
96.66976329931754
 10
401.29264773005343
 20
96.8420310216783
 10
401.388274477073
 20
97.0209360819994
 10
401.47199552910666
 20
97.20571238134652
  0
TEXT
  5
98
330
17
100
AcDbEntity
  8
LABEL
100
AcDbText
 10
2.0
 20
-14.0
 30
0.0
 40
8.0
  1
P1_bottom_plate  qty 1  t12
 11
2.0
 21
-14.0
 31
0.0
100
AcDbText
  0
ENDSEC
  0
SECTION
  2
OBJECTS
  0
DICTIONARY
  5
A
330
0
100
AcDbDictionary
281
1
  3
ACAD_COLOR
350
B
  3
ACAD_GROUP
350
C
  3
ACAD_LAYOUT
350
D
  3
ACAD_MATERIAL
350
E
  3
ACAD_MLEADERSTYLE
350
F
  3
ACAD_MLINESTYLE
350
10
  3
ACAD_PLOTSETTINGS
350
11
  3
ACAD_PLOTSTYLENAME
350
12
  3
ACAD_SCALELIST
350
14
  3
ACAD_TABLESTYLE
350
15
  3
ACAD_VISUALSTYLE
350
16
  3
EZDXF_META
350
2D
  0
DICTIONARY
  5
B
330
A
100
AcDbDictionary
281
1
  0
DICTIONARY
  5
C
330
A
100
AcDbDictionary
281
1
  0
DICTIONARY
  5
D
330
A
100
AcDbDictionary
281
1
  3
Model
350
1A
  3
Layout1
350
1E
  0
DICTIONARY
  5
E
330
A
100
AcDbDictionary
281
1
  3
ByBlock
350
1F
  3
ByLayer
350
20
  3
Global
350
21
  0
DICTIONARY
  5
F
330
A
100
AcDbDictionary
281
1
  3
Standard
350
2C
  0
DICTIONARY
  5
10
330
A
100
AcDbDictionary
281
1
  3
Standard
350
22
  0
DICTIONARY
  5
11
330
A
100
AcDbDictionary
281
1
  0
ACDBDICTIONARYWDFLT
  5
12
330
A
100
AcDbDictionary
281
1
  3
Normal
350
13
100
AcDbDictionaryWithDefault
340
13
  0
ACDBPLACEHOLDER
  5
13
330
12
  0
DICTIONARY
  5
14
330
A
100
AcDbDictionary
281
1
  0
DICTIONARY
  5
15
330
A
100
AcDbDictionary
281
1
  0
DICTIONARY
  5
16
330
A
100
AcDbDictionary
281
1
  3
2dWireframe
350
5A
  3
Basic
350
5B
  3
Brighten
350
5C
  3
ColorChange
350
5D
  3
Conceptual
350
5E
  3
Dim
350
5F
  3
EdgeColorOff
350
60
  3
Facepattern
350
61
  3
Flat
350
62
  3
FlatWithEdges
350
63
  3
Gouraud
350
64
  3
GouraudWithEdges
350
65
  3
Hidden
350
66
  3
JitterOff
350
67
  3
Linepattern
350
68
  3
Modeling
350
69
  3
OverhangOff
350
6A
  3
Realistic
350
6B
  3
Shaded
350
6C
  3
Shaded with edges
350
6D
  3
Shades of Gray
350
6E
  3
Sketchy
350
6F
  3
Thicken
350
70
  3
Wireframe
350
71
  3
X-Ray
350
72
  0
LAYOUT
  5
1A
330
D
100
AcDbPlotSettings
  1

  4
A3
  6

 40
7.5
 41
20.0
 42
7.5
 43
20.0
 44
420.0
 45
297.0
 46
0.0
 47
0.0
 48
0.0
 49
0.0
140
0.0
141
0.0
142
1.0
143
1.0
 70
1024
 72
1
 73
0
 74
5
  7

 75
16
 76
0
 77
2
 78
300
147
1.0
148
0.0
149
0.0
100
AcDbLayout
  1
Model
 70
1
 71
0
 10
0.0
 20
0.0
 11
420.0
 21
297.0
 12
0.0
 22
0.0
 32
0.0
 14
1e+20
 24
1e+20
 34
1e+20
 15
-1e+20
 25
-1e+20
 35
-1e+20
146
0.0
 13
0.0
 23
0.0
 33
0.0
 16
1.0
 26
0.0
 36
0.0
 17
0.0
 27
1.0
 37
0.0
 76
1
330
17
  0
LAYOUT
  5
1E
330
D
100
AcDbPlotSettings
  1

  4
A3
  6

 40
7.5
 41
20.0
 42
7.5
 43
20.0
 44
420.0
 45
297.0
 46
0.0
 47
0.0
 48
0.0
 49
0.0
140
0.0
141
0.0
142
1.0
143
1.0
 70
0
 72
1
 73
0
 74
5
  7

 75
16
 76
0
 77
2
 78
300
147
1.0
148
0.0
149
0.0
100
AcDbLayout
  1
Layout1
 70
1
 71
1
 10
0.0
 20
0.0
 11
420.0
 21
297.0
 12
0.0
 22
0.0
 32
0.0
 14
1e+20
 24
1e+20
 34
1e+20
 15
-1e+20
 25
-1e+20
 35
-1e+20
146
0.0
 13
0.0
 23
0.0
 33
0.0
 16
1.0
 26
0.0
 36
0.0
 17
0.0
 27
1.0
 37
0.0
 76
1
330
1B
  0
MATERIAL
  5
1F
102
{ACAD_REACTORS
330
E
102
}
330
E
100
AcDbMaterial
  1
ByBlock
  2

 70
0
 40
1.0
 71
1
 41
1.0
 91
-1023410177
 42
1.0
 72
1
  3

 73
1
 74
1
 75
1
 44
0.5
 73
0
 45
1.0
 46
1.0
 77
1
  4

 78
1
 79
1
170
1
 48
1.0
171
1
  6

172
1
173
1
174
1
140
1.0
141
1.0
175
1
  7

176
1
177
1
178
1
143
1.0
179
1
  8

270
1
271
1
272
1
145
1.0
146
1.0
273
1
  9

274
1
275
1
276
1
 42
1.0
 72
1
  3

 73
1
 74
1
 75
1
 94
63
  0
MATERIAL
  5
20
102
{ACAD_REACTORS
330
E
102
}
330
E
100
AcDbMaterial
  1
ByLayer
  2

 70
0
 40
1.0
 71
1
 41
1.0
 91
-1023410177
 42
1.0
 72
1
  3

 73
1
 74
1
 75
1
 44
0.5
 73
0
 45
1.0
 46
1.0
 77
1
  4

 78
1
 79
1
170
1
 48
1.0
171
1
  6

172
1
173
1
174
1
140
1.0
141
1.0
175
1
  7

176
1
177
1
178
1
143
1.0
179
1
  8

270
1
271
1
272
1
145
1.0
146
1.0
273
1
  9

274
1
275
1
276
1
 42
1.0
 72
1
  3

 73
1
 74
1
 75
1
 94
63
  0
MATERIAL
  5
21
102
{ACAD_REACTORS
330
E
102
}
330
E
100
AcDbMaterial
  1
Global
  2

 70
0
 40
1.0
 71
1
 41
1.0
 91
-1023410177
 42
1.0
 72
1
  3

 73
1
 74
1
 75
1
 44
0.5
 73
0
 45
1.0
 46
1.0
 77
1
  4

 78
1
 79
1
170
1
 48
1.0
171
1
  6

172
1
173
1
174
1
140
1.0
141
1.0
175
1
  7

176
1
177
1
178
1
143
1.0
179
1
  8

270
1
271
1
272
1
145
1.0
146
1.0
273
1
  9

274
1
275
1
276
1
 42
1.0
 72
1
  3

 73
1
 74
1
 75
1
 94
63
  0
MLINESTYLE
  5
22
102
{ACAD_REACTORS
330
10
102
}
330
10
100
AcDbMlineStyle
  2
Standard
 70
0
  3

 62
256
 51
90.0
 52
90.0
 71
2
 49
0.5
 62
256
  6
BYLAYER
 49
-0.5
 62
256
  6
BYLAYER
  0
MLEADERSTYLE
  5
2C
102
{ACAD_REACTORS
330
F
102
}
330
F
100
AcDbMLeaderStyle
179
2
170
2
171
1
172
0
 90
2
 40
0.0
 41
0.0
173
1
 91
-1056964608
 92
-2
290
1
 42
2.0
291
1
 43
8.0
  3
Standard
 44
4.0
300

342
29
174
1
175
1
176
0
178
1
 93
-1056964608
 45
4.0
292
0
297
0
 46
4.0
 94
-1056964608
 47
1.0
 49
1.0
140
1.0
294
1
141
0.0
177
0
142
1.0
295
0
296
0
143
3.75
271
0
272
9
273
9
  0
DICTIONARY
  5
2D
330
A
100
AcDbDictionary
280
1
281
1
  3
CREATED_BY_EZDXF
350
2E
  3
WRITTEN_BY_EZDXF
350
9B
  0
DICTIONARYVAR
  5
2E
330
2D
100
DictionaryVariables
280
0
  1
1.4.4 @ 2026-07-14T16:02:56.760048+00:00
  0
VISUALSTYLE
  5
5A
102
{ACAD_REACTORS
330
16
102
}
330
16
100
AcDbVisualStyle
  2
2dWireframe
 70
4
 90
0
 40
0.6
 62
7
290
0
291
0
  0
VISUALSTYLE
  5
5B
102
{ACAD_REACTORS
330
16
102
}
330
16
100
AcDbVisualStyle
  2
Basic
 70
7
 90
1
 40
0.6
 62
7
290
0
291
1
  0
VISUALSTYLE
  5
5C
102
{ACAD_REACTORS
330
16
102
}
330
16
100
AcDbVisualStyle
  2
Brighten
 70
12
 90
2
 40
0.6
 62
7
290
0
291
1
  0
VISUALSTYLE
  5
5D
102
{ACAD_REACTORS
330
16
102
}
330
16
100
AcDbVisualStyle
  2
ColorChange
 70
16
 90
2
 40
0.6
 62
8
290
0
291
1
  0
VISUALSTYLE
  5
5E
102
{ACAD_REACTORS
330
16
102
}
330
16
100
AcDbVisualStyle
  2
Conceptual
 70
9
 90
3
 40
0.6
 62
7
290
0
291
0
  0
VISUALSTYLE
  5
5F
102
{ACAD_REACTORS
330
16
102
}
330
16
100
AcDbVisualStyle
  2
Dim
 70
11
 90
2
 40
0.6
 62
7
290
0
291
1
  0
VISUALSTYLE
  5
60
102
{ACAD_REACTORS
330
16
102
}
330
16
100
AcDbVisualStyle
  2
EdgeColorOff
 70
22
 90
2
 40
0.6
 62
7
290
0
291
1
  0
VISUALSTYLE
  5
61
102
{ACAD_REACTORS
330
16
102
}
330
16
100
AcDbVisualStyle
  2
Facepattern
 70
15
 90
2
 40
0.6
 62
7
290
0
291
1
  0
VISUALSTYLE
  5
62
102
{ACAD_REACTORS
330
16
102
}
330
16
100
AcDbVisualStyle
  2
Flat
 70
0
 90
2
 40
0.6
 62
7
290
0
291
1
  0
VISUALSTYLE
  5
63
102
{ACAD_REACTORS
330
16
102
}
330
16
100
AcDbVisualStyle
  2
FlatWithEdges
 70
1
 90
2
 40
0.6
 62
7
290
0
291
1
  0
VISUALSTYLE
  5
64
102
{ACAD_REACTORS
330
16
102
}
330
16
100
AcDbVisualStyle
  2
Gouraud
 70
2
 90
2
 40
0.6
 62
7
290
0
291
1
  0
VISUALSTYLE
  5
65
102
{ACAD_REACTORS
330
16
102
}
330
16
100
AcDbVisualStyle
  2
GouraudWithEdges
 70
3
 90
2
 40
0.6
 62
7
290
0
291
1
  0
VISUALSTYLE
  5
66
102
{ACAD_REACTORS
330
16
102
}
330
16
100
AcDbVisualStyle
  2
Hidden
 70
6
 90
1
 40
0.6
 62
7
290
0
291
0
  0
VISUALSTYLE
  5
67
102
{ACAD_REACTORS
330
16
102
}
330
16
100
AcDbVisualStyle
  2
JitterOff
 70
20
 90
2
 40
0.6
 62
7
290
0
291
1
  0
VISUALSTYLE
  5
68
102
{ACAD_REACTORS
330
16
102
}
330
16
100
AcDbVisualStyle
  2
Linepattern
 70
14
 90
2
 40
0.6
 62
7
290
0
291
1
  0
VISUALSTYLE
  5
69
102
{ACAD_REACTORS
330
16
102
}
330
16
100
AcDbVisualStyle
  2
Modeling
 70
10
 90
2
 40
0.6
 62
7
290
0
291
0
  0
VISUALSTYLE
  5
6A
102
{ACAD_REACTORS
330
16
102
}
330
16
100
AcDbVisualStyle
  2
OverhangOff
 70
21
 90
2
 40
0.6
 62
7
290
0
291
1
  0
VISUALSTYLE
  5
6B
102
{ACAD_REACTORS
330
16
102
}
330
16
100
AcDbVisualStyle
  2
Realistic
 70
8
 90
2
 40
0.6
 62
7
290
0
291
0
  0
VISUALSTYLE
  5
6C
102
{ACAD_REACTORS
330
16
102
}
330
16
100
AcDbVisualStyle
  2
Shaded
 70
27
 90
2
 40
0.6
 62
7
290
0
291
0
  0
VISUALSTYLE
  5
6D
102
{ACAD_REACTORS
330
16
102
}
330
16
100
AcDbVisualStyle
  2
Shaded with edges
 70
26
 90
2
 40
0.6
 62
7
290
0
291
0
  0
VISUALSTYLE
  5
6E
102
{ACAD_REACTORS
330
16
102
}
330
16
100
AcDbVisualStyle
  2
Shades of Gray
 70
23
 90
2
 40
0.6
 62
7
290
0
291
0
  0
VISUALSTYLE
  5
6F
102
{ACAD_REACTORS
330
16
102
}
330
16
100
AcDbVisualStyle
  2
Sketchy
 70
24
 90
1
 40
0.6
 62
7
290
0
291
0
  0
VISUALSTYLE
  5
70
102
{ACAD_REACTORS
330
16
102
}
330
16
100
AcDbVisualStyle
  2
Thicken
 70
13
 90
2
 40
0.6
 62
7
290
0
291
1
  0
VISUALSTYLE
  5
71
102
{ACAD_REACTORS
330
16
102
}
330
16
100
AcDbVisualStyle
  2
Wireframe
 70
5
 90
0
 40
0.6
 62
7
290
0
291
0
  0
VISUALSTYLE
  5
72
102
{ACAD_REACTORS
330
16
102
}
330
16
100
AcDbVisualStyle
  2
X-Ray
 70
25
 90
2
 40
0.5
 62
7
290
0
291
0
  0
DICTIONARYVAR
  5
9B
330
2D
100
DictionaryVariables
280
0
  1
1.4.4 @ 2026-07-14T16:02:56.774840+00:00
  0
ENDSEC
  0
EOF
