  0
SECTION
  2
HEADER
  9
$ACADVER
  1
AC1024
  9
$ACADMAINTVER
 70
6
  9
$DWGCODEPAGE
  3
ANSI_1252
  9
$LASTSAVEDBY
  1
ezdxf
  9
$INSBASE
 10
0.0
 20
0.0
 30
0.0
  9
$EXTMIN
 10
1e+20
 20
1e+20
 30
1e+20
  9
$EXTMAX
 10
-1e+20
 20
-1e+20
 30
-1e+20
  9
$LIMMIN
 10
0.0
 20
0.0
  9
$LIMMAX
 10
420.0
 20
297.0
  9
$ORTHOMODE
 70
0
  9
$REGENMODE
 70
1
  9
$FILLMODE
 70
1
  9
$QTEXTMODE
 70
0
  9
$MIRRTEXT
 70
1
  9
$LTSCALE
 40
1.0
  9
$ATTMODE
 70
1
  9
$TEXTSIZE
 40
2.5
  9
$TRACEWID
 40
1.0
  9
$TEXTSTYLE
  7
OpenSans
  9
$CLAYER
  8
0
  9
$CELTYPE
  6
ByLayer
  9
$CECOLOR
 62
256
  9
$CELTSCALE
 40
1.0
  9
$DISPSILH
 70
0
  9
$DIMSCALE
 40
1.0
  9
$DIMASZ
 40
0.175
  9
$DIMEXO
 40
0.125
  9
$DIMDLI
 40
3.75
  9
$DIMRND
 40
0.0
  9
$DIMDLE
 40
0.0
  9
$DIMEXE
 40
0.375
  9
$DIMTP
 40
0.0
  9
$DIMTM
 40
0.0
  9
$DIMTXT
 40
0.25
  9
$DIMCEN
 40
2.5
  9
$DIMTSZ
 40
0.0
  9
$DIMTOL
 70
0
  9
$DIMLIM
 70
0
  9
$DIMTIH
 70
0
  9
$DIMTOH
 70
0
  9
$DIMSE1
 70
0
  9
$DIMSE2
 70
0
  9
$DIMTAD
 70
1
  9
$DIMZIN
 70
12
  9
$DIMBLK
  1
ARCHTICK
  9
$DIMASO
 70
1
  9
$DIMSHO
 70
1
  9
$DIMPOST
  1

  9
$DIMAPOST
  1

  9
$DIMALT
 70
0
  9
$DIMALTD
 70
3
  9
$DIMALTF
 40
0.03937007874
  9
$DIMLFAC
 40
100.0
  9
$DIMTOFL
 70
1
  9
$DIMTVP
 40
0.0
  9
$DIMTIX
 70
0
  9
$DIMSOXD
 70
0
  9
$DIMSAH
 70
0
  9
$DIMBLK1
  1

  9
$DIMBLK2
  1

  9
$DIMSTYLE
  2
EZDXF
  9
$DIMCLRD
 70
0
  9
$DIMCLRE
 70
0
  9
$DIMCLRT
 70
0
  9
$DIMTFAC
 40
0.5
  9
$DIMGAP
 40
0.1
  9
$DIMJUST
 70
0
  9
$DIMSD1
 70
0
  9
$DIMSD2
 70
0
  9
$DIMTOLJ
 70
0
  9
$DIMTZIN
 70
8
  9
$DIMALTZ
 70
0
  9
$DIMALTTZ
 70
0
  9
$DIMUPT
 70
1
  9
$DIMDEC
 70
2
  9
$DIMTDEC
 70
2
  9
$DIMALTU
 70
2
  9
$DIMALTTD
 70
3
  9
$DIMTXSTY
  7
OpenSansCondensed-Light
  9
$DIMAUNIT
 70
0
  9
$DIMADEC
 70
2
  9
$DIMALTRND
 40
0.0
  9
$DIMAZIN
 70
3
  9
$DIMDSEP
 70
46
  9
$DIMATFIT
 70
3
  9
$DIMFRAC
 70
0
  9
$DIMLDRBLK
  1

  9
$DIMLUNIT
 70
2
  9
$DIMLWD
 70
-2
  9
$DIMLWE
 70
-2
  9
$DIMTMOVE
 70
2
  9
$DIMFXL
 40
1.0
  9
$DIMFXLON
 70
0
  9
$DIMJOGANG
 40
0.785398163397
  9
$DIMTFILL
 70
0
  9
$DIMTFILLCLR
 70
0
  9
$DIMARCSYM
 70
0
  9
$DIMLTYPE
  6

  9
$DIMLTEX1
  6

  9
$DIMLTEX2
  6

  9
$DIMTXTDIRECTION
 70
0
  9
$LUNITS
 70
2
  9
$LUPREC
 70
4
  9
$SKETCHINC
 40
1.0
  9
$FILLETRAD
 40
10.0
  9
$AUNITS
 70
0
  9
$AUPREC
 70
2
  9
$MENU
  1
.
  9
$ELEVATION
 40
0.0
  9
$PELEVATION
 40
0.0
  9
$THICKNESS
 40
0.0
  9
$LIMCHECK
 70
0
  9
$CHAMFERA
 40
0.0
  9
$CHAMFERB
 40
0.0
  9
$CHAMFERC
 40
0.0
  9
$CHAMFERD
 40
0.0
  9
$SKPOLY
 70
0
  9
$TDCREATE
 40
2461236.6687037037
  9
$TDUCREATE
 40
2458532.153996898
  9
$TDUPDATE
 40
2461236.6687037037
  9
$TDUUPDATE
 40
2458532.1544311
  9
$TDINDWG
 40
0.0
  9
$TDUSRTIMER
 40
0.0
  9
$USRTIMER
 70
1
  9
$ANGBASE
 50
0.0
  9
$ANGDIR
 70
0
  9
$PDMODE
 70
0
  9
$PDSIZE
 40
0.0
  9
$PLINEWID
 40
0.0
  9
$SPLFRAME
 70
0
  9
$SPLINETYPE
 70
6
  9
$SPLINESEGS
 70
8
  9
$HANDSEED
  5
9C
  9
$SURFTAB1
 70
6
  9
$SURFTAB2
 70
6
  9
$SURFTYPE
 70
6
  9
$SURFU
 70
6
  9
$SURFV
 70
6
  9
$UCSBASE
  2

  9
$UCSNAME
  2

  9
$UCSORG
 10
0.0
 20
0.0
 30
0.0
  9
$UCSXDIR
 10
1.0
 20
0.0
 30
0.0
  9
$UCSYDIR
 10
0.0
 20
1.0
 30
0.0
  9
$UCSORTHOREF
  2

  9
$UCSORTHOVIEW
 70
0
  9
$UCSORGTOP
 10
0.0
 20
0.0
 30
0.0
  9
$UCSORGBOTTOM
 10
0.0
 20
0.0
 30
0.0
  9
$UCSORGLEFT
 10
0.0
 20
0.0
 30
0.0
  9
$UCSORGRIGHT
 10
0.0
 20
0.0
 30
0.0
  9
$UCSORGFRONT
 10
0.0
 20
0.0
 30
0.0
  9
$UCSORGBACK
 10
0.0
 20
0.0
 30
0.0
  9
$PUCSBASE
  2

  9
$PUCSNAME
  2

  9
$PUCSORG
 10
0.0
 20
0.0
 30
0.0
  9
$PUCSXDIR
 10
1.0
 20
0.0
 30
0.0
  9
$PUCSYDIR
 10
0.0
 20
1.0
 30
0.0
  9
$PUCSORTHOREF
  2

  9
$PUCSORTHOVIEW
 70
0
  9
$PUCSORGTOP
 10
0.0
 20
0.0
 30
0.0
  9
$PUCSORGBOTTOM
 10
0.0
 20
0.0
 30
0.0
  9
$PUCSORGLEFT
 10
0.0
 20
0.0
 30
0.0
  9
$PUCSORGRIGHT
 10
0.0
 20
0.0
 30
0.0
  9
$PUCSORGFRONT
 10
0.0
 20
0.0
 30
0.0
  9
$PUCSORGBACK
 10
0.0
 20
0.0
 30
0.0
  9
$USERI1
 70
0
  9
$USERI2
 70
0
  9
$USERI3
 70
0
  9
$USERI4
 70
0
  9
$USERI5
 70
0
  9
$USERR1
 40
0.0
  9
$USERR2
 40
0.0
  9
$USERR3
 40
0.0
  9
$USERR4
 40
0.0
  9
$USERR5
 40
0.0
  9
$WORLDVIEW
 70
1
  9
$SHADEDGE
 70
3
  9
$SHADEDIF
 70
70
  9
$TILEMODE
 70
1
  9
$MAXACTVP
 70
64
  9
$PINSBASE
 10
0.0
 20
0.0
 30
0.0
  9
$PLIMCHECK
 70
0
  9
$PEXTMIN
 10
1e+20
 20
1e+20
 30
1e+20
  9
$PEXTMAX
 10
-1e+20
 20
-1e+20
 30
-1e+20
  9
$PLIMMIN
 10
0.0
 20
0.0
  9
$PLIMMAX
 10
420.0
 20
297.0
  9
$UNITMODE
 70
0
  9
$VISRETAIN
 70
1
  9
$PLINEGEN
 70
0
  9
$PSLTSCALE
 70
1
  9
$TREEDEPTH
 70
3020
  9
$CMLSTYLE
  2
Standard
  9
$CMLJUST
 70
0
  9
$CMLSCALE
 40
20.0
  9
$PROXYGRAPHICS
 70
1
  9
$MEASUREMENT
 70
1
  9
$CELWEIGHT
370
-1
  9
$ENDCAPS
280
0
  9
$JOINSTYLE
280
0
  9
$LWDISPLAY
290
0
  9
$INSUNITS
 70
4
  9
$HYPERLINKBASE
  1

  9
$STYLESHEET
  1

  9
$XEDIT
290
1
  9
$CEPSNTYPE
380
0
  9
$PSTYLEMODE
290
1
  9
$FINGERPRINTGUID
  2
{9840589E-8597-42B3-A664-16F196765680}
  9
$VERSIONGUID
  2
{BC69AD77-7239-41DA-9B57-54A00CC16419}
  9
$EXTNAMES
290
1
  9
$PSVPSCALE
 40
0.0
  9
$OLESTARTUP
290
0
  9
$SORTENTS
280
127
  9
$INDEXCTL
280
0
  9
$HIDETEXT
280
1
  9
$XCLIPFRAME
280
1
  9
$HALOGAP
280
0
  9
$OBSCOLOR
 70
257
  9
$OBSLTYPE
280
0
  9
$INTERSECTIONDISPLAY
280
0
  9
$INTERSECTIONCOLOR
 70
257
  9
$DIMASSOC
280
2
  9
$PROJECTNAME
  1

  9
$CAMERADISPLAY
290
0
  9
$LENSLENGTH
 40
50.0
  9
$CAMERAHEIGHT
 40
0.0
  9
$STEPSPERSEC
 40
24.0
  9
$STEPSIZE
 40
100.0
  9
$3DDWFPREC
 40
2.0
  9
$PSOLWIDTH
 40
0.005
  9
$PSOLHEIGHT
 40
0.08
  9
$LOFTANG1
 40
1.570796326795
  9
$LOFTANG2
 40
1.570796326795
  9
$LOFTMAG1
 40
0.0
  9
$LOFTMAG2
 40
0.0
  9
$LOFTPARAM
 70
7
  9
$LOFTNORMALS
280
1
  9
$LATITUDE
 40
37.795
  9
$LONGITUDE
 40
-122.394
  9
$NORTHDIRECTION
 40
0.0
  9
$TIMEZONE
 70
-8000
  9
$LIGHTGLYPHDISPLAY
280
1
  9
$TILEMODELIGHTSYNCH
280
1
  9
$CMATERIAL
347
20
  9
$SOLIDHIST
280
0
  9
$SHOWHIST
280
1
  9
$DWFFRAME
280
2
  9
$DGNFRAME
280
2
  9
$REALWORLDSCALE
290
1
  9
$INTERFERECOLOR
 62
256
  9
$CSHADOW
280
0
  9
$SHADOWPLANELOCATION
 40
0.0
  0
ENDSEC
  0
SECTION
  2
CLASSES
  0
CLASS
  1
ACDBDICTIONARYWDFLT
  2
AcDbDictionaryWithDefault
  3
ObjectDBX Classes
 90
0
 91
0
280
0
281
0
  0
CLASS
  1
SUN
  2
AcDbSun
  3
SCENEOE
 90
1153
 91
0
280
0
281
0
  0
CLASS
  1
VISUALSTYLE
  2
AcDbVisualStyle
  3
ObjectDBX Classes
 90
4095
 91
0
280
0
281
0
  0
CLASS
  1
MATERIAL
  2
AcDbMaterial
  3
ObjectDBX Classes
 90
1153
 91
0
280
0
281
0
  0
CLASS
  1
SCALE
  2
AcDbScale
  3
ObjectDBX Classes
 90
1153
 91
0
280
0
281
0
  0
CLASS
  1
TABLESTYLE
  2
AcDbTableStyle
  3
ObjectDBX Classes
 90
4095
 91
0
280
0
281
0
  0
CLASS
  1
MLEADERSTYLE
  2
AcDbMLeaderStyle
  3
ACDB_MLEADERSTYLE_CLASS
 90
4095
 91
0
280
0
281
0
  0
CLASS
  1
DICTIONARYVAR
  2
AcDbDictionaryVar
  3
ObjectDBX Classes
 90
0
 91
0
280
0
281
0
  0
CLASS
  1
CELLSTYLEMAP
  2
AcDbCellStyleMap
  3
ObjectDBX Classes
 90
1152
 91
0
280
0
281
0
  0
CLASS
  1
MENTALRAYRENDERSETTINGS
  2
AcDbMentalRayRenderSettings
  3
SCENEOE
 90
1024
 91
0
280
0
281
0
  0
CLASS
  1
ACDBDETAILVIEWSTYLE
  2
AcDbDetailViewStyle
  3
ObjectDBX Classes
 90
1025
 91
0
280
0
281
0
  0
CLASS
  1
ACDBSECTIONVIEWSTYLE
  2
AcDbSectionViewStyle
  3
ObjectDBX Classes
 90
1025
 91
0
280
0
281
0
  0
CLASS
  1
RASTERVARIABLES
  2
AcDbRasterVariables
  3
ISM
 90
0
 91
0
280
0
281
0
  0
CLASS
  1
ACDBPLACEHOLDER
  2
AcDbPlaceHolder
  3
ObjectDBX Classes
 90
0
 91
0
280
0
281
0
  0
CLASS
  1
LAYOUT
  2
AcDbLayout
  3
ObjectDBX Classes
 90
0
 91
0
280
0
281
0
  0
ENDSEC
  0
SECTION
  2
TABLES
  0
TABLE
  2
VPORT
  5
8
330
0
100
AcDbSymbolTable
 70
1
  0
VPORT
  5
23
330
8
100
AcDbSymbolTableRecord
100
AcDbViewportTableRecord
  2
*Active
 70
0
 10
0.0
 20
0.0
 11
1.0
 21
1.0
 12
0.0
 22
0.0
 13
0.0
 23
0.0
 14
0.5
 24
0.5
 15
0.5
 25
0.5
 16
0.0
 26
0.0
 36
1.0
 17
0.0
 27
0.0
 37
0.0
 40
1000.0
 41
1.34
 42
50.0
 43
0.0
 44
0.0
 50
0.0
 51
0.0
 71
0
 72
1000
 73
1
 74
3
 75
0
 76
0
 77
0
 78
0
281
0
 65
0
146
0.0
  0
ENDTAB
  0
TABLE
  2
LTYPE
  5
2
330
0
100
AcDbSymbolTable
 70
21
  0
LTYPE
  5
24
330
2
100
AcDbSymbolTableRecord
100
AcDbLinetypeTableRecord
  2
ByBlock
 70
0
  3

 72
65
 73
0
 40
0.0
  0
LTYPE
  5
25
330
2
100
AcDbSymbolTableRecord
100
AcDbLinetypeTableRecord
  2
ByLayer
 70
0
  3

 72
65
 73
0
 40
0.0
  0
LTYPE
  5
26
330
2
100
AcDbSymbolTableRecord
100
AcDbLinetypeTableRecord
  2
Continuous
 70
0
  3

 72
65
 73
0
 40
0.0
  0
LTYPE
  5
2F
330
2
100
AcDbSymbolTableRecord
100
AcDbLinetypeTableRecord
  2
CENTER
 70
0
  3
Center ____ _ ____ _ ____ _ ____ _ ____ _ ____
 72
65
 73
4
 40
5.08
 49
3.175
 74
0
 49
-0.635
 74
0
 49
0.635
 74
0
 49
-0.635
 74
0
  0
LTYPE
  5
30
330
2
100
AcDbSymbolTableRecord
100
AcDbLinetypeTableRecord
  2
CENTERX2
 70
0
  3
Center (2x) ________  __  ________  __  ________
 72
65
 73
4
 40
8.89
 49
6.35
 74
0
 49
-0.635
 74
0
 49
1.27
 74
0
 49
-0.635
 74
0
  0
LTYPE
  5
31
330
2
100
AcDbSymbolTableRecord
100
AcDbLinetypeTableRecord
  2
CENTER2
 70
0
  3
Center (.5x) ____ _ ____ _ ____ _ ____ _ ____
 72
65
 73
4
 40
2.54
 49
1.587
 74
0
 49
-0.318
 74
0
 49
0.318
 74
0
 49
-0.318
 74
0
  0
LTYPE
  5
32
330
2
100
AcDbSymbolTableRecord
100
AcDbLinetypeTableRecord
  2
DASHED
 70
0
  3
Dashed __ __ __ __ __ __ __ __ __ __ __ __ __ _
 72
65
 73
2
 40
1.524
 49
1.27
 74
0
 49
-0.254
 74
0
  0
LTYPE
  5
33
330
2
100
AcDbSymbolTableRecord
100
AcDbLinetypeTableRecord
  2
DASHEDX2
 70
0
  3
Dashed (2x) ____  ____  ____  ____  ____  ____
 72
65
 73
2
 40
3.048
 49
2.54
 74
0
 49
-0.508
 74
0
  0
LTYPE
  5
34
330
2
100
AcDbSymbolTableRecord
100
AcDbLinetypeTableRecord
  2
DASHED2
 70
0
  3
Dashed (.5x) _ _ _ _ _ _ _ _ _ _ _ _ _ _
 72
65
 73
2
 40
0.762
 49
0.635
 74
0
 49
-0.127
 74
0
  0
LTYPE
  5
35
330
2
100
AcDbSymbolTableRecord
100
AcDbLinetypeTableRecord
  2
PHANTOM
 70
0
  3
Phantom ______  __  __  ______  __  __  ______
 72
65
 73
6
 40
6.35
 49
3.175
 74
0
 49
-0.635
 74
0
 49
0.635
 74
0
 49
-0.635
 74
0
 49
0.635
 74
0
 49
-0.635
 74
0
  0
LTYPE
  5
36
330
2
100
AcDbSymbolTableRecord
100
AcDbLinetypeTableRecord
  2
PHANTOMX2
 70
0
  3
Phantom (2x)____________    ____    ____    ____________
 72
65
 73
6
 40
10.795
 49
6.35
 74
0
 49
-0.635
 74
0
 49
1.27
 74
0
 49
-0.635
 74
0
 49
1.27
 74
0
 49
-0.635
 74
0
  0
LTYPE
  5
37
330
2
100
AcDbSymbolTableRecord
100
AcDbLinetypeTableRecord
  2
PHANTOM2
 70
0
  3
Phantom (.5x) ___ _ _ ___ _ _ ___ _ _ ___ _ _ ___
 72
65
 73
6
 40
3.175
 49
1.587
 74
0
 49
-0.318
 74
0
 49
0.318
 74
0
 49
-0.318
 74
0
 49
0.318
 74
0
 49
-0.318
 74
0
  0
LTYPE
  5
38
330
2
100
AcDbSymbolTableRecord
100
AcDbLinetypeTableRecord
  2
DASHDOT
 70
0
  3
Dash dot __ . __ . __ . __ . __ . __ . __ . __
 72
65
 73
4
 40
3.556
 49
2.54
 74
0
 49
-0.508
 74
0
 49
0.0
 74
0
 49
-0.508
 74
0
  0
LTYPE
  5
39
330
2
100
AcDbSymbolTableRecord
100
AcDbLinetypeTableRecord
  2
DASHDOTX2
 70
0
  3
Dash dot (2x) ____  .  ____  .  ____  .  ____
 72
65
 73
4
 40
6.096
 49
5.08
 74
0
 49
-0.508
 74
0
 49
0.0
 74
0
 49
-0.508
 74
0
  0
LTYPE
  5
3A
330
2
100
AcDbSymbolTableRecord
100
AcDbLinetypeTableRecord
  2
DASHDOT2
 70
0
  3
Dash dot (.5x) _ . _ . _ . _ . _ . _ . _ . _
 72
65
 73
4
 40
1.778
 49
1.27
 74
0
 49
-0.254
 74
0
 49
0.0
 74
0
 49
-0.254
 74
0
  0
LTYPE
  5
3B
330
2
100
AcDbSymbolTableRecord
100
AcDbLinetypeTableRecord
  2
DOT
 70
0
  3
Dot .  .  .  .  .  .  .  .  .  .  .  .  .  .  .  .
 72
65
 73
2
 40
0.508
 49
0.0
 74
0
 49
-0.508
 74
0
  0
LTYPE
  5
3C
330
2
100
AcDbSymbolTableRecord
100
AcDbLinetypeTableRecord
  2
DOTX2
 70
0
  3
Dot (2x) .    .    .    .    .    .    .    . 
 72
65
 73
2
 40
1.016
 49
0.0
 74
0
 49
-1.016
 74
0
  0
LTYPE
  5
3D
330
2
100
AcDbSymbolTableRecord
100
AcDbLinetypeTableRecord
  2
DOT2
 70
0
  3
Dot (.5) . . . . . . . . . . . . . . . . . . . 
 72
65
 73
2
 40
0.254
 49
0.0
 74
0
 49
-0.254
 74
0
  0
LTYPE
  5
3E
330
2
100
AcDbSymbolTableRecord
100
AcDbLinetypeTableRecord
  2
DIVIDE
 70
0
  3
Divide __ . . __ . . __ . . __ . . __ . . __
 72
65
 73
6
 40
4.064
 49
2.54
 74
0
 49
-0.508
 74
0
 49
0.0
 74
0
 49
-0.508
 74
0
 49
0.0
 74
0
 49
-0.508
 74
0
  0
LTYPE
  5
3F
330
2
100
AcDbSymbolTableRecord
100
AcDbLinetypeTableRecord
  2
DIVIDEX2
 70
0
  3
Divide (2x) ____  . .  ____  . .  ____  . .  ____
 72
65
 73
6
 40
6.604
 49
5.08
 74
0
 49
-0.508
 74
0
 49
0.0
 74
0
 49
-0.508
 74
0
 49
0.0
 74
0
 49
-0.508
 74
0
  0
LTYPE
  5
40
330
2
100
AcDbSymbolTableRecord
100
AcDbLinetypeTableRecord
  2
DIVIDE2
 70
0
  3
Divide(.5x) _ . _ . _ . _ . _ . _ . _ . _
 72
65
 73
6
 40
2.032
 49
1.27
 74
0
 49
-0.254
 74
0
 49
0.0
 74
0
 49
-0.254
 74
0
 49
0.0
 74
0
 49
-0.254
 74
0
  0
ENDTAB
  0
TABLE
  2
LAYER
  5
1
330
0
100
AcDbSymbolTable
 70
4
  0
LAYER
  5
27
330
1
100
AcDbSymbolTableRecord
100
AcDbLayerTableRecord
  2
0
 70
0
 62
7
  6
Continuous
370
-3
390
13
347
21
  0
LAYER
  5
28
330
1
100
AcDbSymbolTableRecord
100
AcDbLayerTableRecord
  2
Defpoints
 70
0
 62
7
  6
Continuous
290
0
370
-3
390
13
347
21
  0
LAYER
  5
8A
330
1
100
AcDbSymbolTableRecord
100
AcDbLayerTableRecord
  2
CUT
 70
0
 62
2
  6
Continuous
370
-3
390
13
347
21
  0
LAYER
  5
8B
330
1
100
AcDbSymbolTableRecord
100
AcDbLayerTableRecord
  2
LABEL
 70
0
 62
3
  6
Continuous
370
-3
390
13
347
21
  0
ENDTAB
  0
TABLE
  2
STYLE
  5
5
330
0
100
AcDbSymbolTable
 70
26
  0
STYLE
  5
29
330
5
100
AcDbSymbolTableRecord
100
AcDbTextStyleTableRecord
  2
Standard
 70
0
 40
0.0
 41
1.0
 50
0.0
 71
0
 42
2.5
  3
txt
  4

  0
STYLE
  5
41
330
5
100
AcDbSymbolTableRecord
100
AcDbTextStyleTableRecord
  2
OpenSans-Light
 70
0
 40
0.0
 41
1.0
 50
0.0
 71
0
 42
2.5
  3
OpenSans-Light.ttf
  4

  0
STYLE
  5
42
330
5
100
AcDbSymbolTableRecord
100
AcDbTextStyleTableRecord
  2
OpenSans-Light-Italic
 70
0
 40
0.0
 41
1.0
 50
0.0
 71
0
 42
2.5
  3
OpenSans-LightItalic.ttf
  4

  0
STYLE
  5
43
330
5
100
AcDbSymbolTableRecord
100
AcDbTextStyleTableRecord
  2
OpenSans
 70
0
 40
0.0
 41
1.0
 50
0.0
 71
0
 42
2.5
  3
OpenSans-Regular.ttf
  4

  0
STYLE
  5
44
330
5
100
AcDbSymbolTableRecord
100
AcDbTextStyleTableRecord
  2
OpenSans-Italic
 70
0
 40
0.0
 41
1.0
 50
0.0
 71
0
 42
2.5
  3
OpenSans-Italic.ttf
  4

  0
STYLE
  5
45
330
5
100
AcDbSymbolTableRecord
100
AcDbTextStyleTableRecord
  2
OpenSans-SemiBold
 70
0
 40
0.0
 41
1.0
 50
0.0
 71
0
 42
2.5
  3
OpenSans-SemiBold.ttf
  4

  0
STYLE
  5
46
330
5
100
AcDbSymbolTableRecord
100
AcDbTextStyleTableRecord
  2
OpenSans-SemiBoldItalic
 70
0
 40
0.0
 41
1.0
 50
0.0
 71
0
 42
2.5
  3
OpenSans-SemiBoldItalic.ttf
  4

  0
STYLE
  5
47
330
5
100
AcDbSymbolTableRecord
100
AcDbTextStyleTableRecord
  2
OpenSans-Bold
 70
0
 40
0.0
 41
1.0
 50
0.0
 71
0
 42
2.5
  3
OpenSans-Bold.ttf
  4

  0
STYLE
  5
48
330
5
100
AcDbSymbolTableRecord
100
AcDbTextStyleTableRecord
  2
OpenSans-BoldItalic
 70
0
 40
0.0
 41
1.0
 50
0.0
 71
0
 42
2.5
  3
OpenSans-BoldItalic.ttf
  4

  0
STYLE
  5
49
330
5
100
AcDbSymbolTableRecord
100
AcDbTextStyleTableRecord
  2
OpenSans-ExtraBold
 70
0
 40
0.0
 41
1.0
 50
0.0
 71
0
 42
2.5
  3
OpenSans-ExtraBold.ttf
  4

  0
STYLE
  5
4A
330
5
100
AcDbSymbolTableRecord
100
AcDbTextStyleTableRecord
  2
OpenSans-ExtraBoldItalic
 70
0
 40
0.0
 41
1.0
 50
0.0
 71
0
 42
2.5
  3
OpenSans-ExtraBoldItalic.ttf
  4

  0
STYLE
  5
4B
330
5
100
AcDbSymbolTableRecord
100
AcDbTextStyleTableRecord
  2
OpenSansCondensed-Bold
 70
0
 40
0.0
 41
1.0
 50
0.0
 71
0
 42
2.5
  3
OpenSansCondensed-Bold.ttf
  4

  0
STYLE
  5
4C
330
5
100
AcDbSymbolTableRecord
100
AcDbTextStyleTableRecord
  2
OpenSansCondensed-Light
 70
0
 40
0.0
 41
1.0
 50
0.0
 71
0
 42
2.5
  3
OpenSansCondensed-Light.ttf
  4

  0
STYLE
  5
4D
330
5
100
AcDbSymbolTableRecord
100
AcDbTextStyleTableRecord
  2
OpenSansCondensed-Italic
 70
0
 40
0.0
 41
1.0
 50
0.0
 71
0
 42
2.5
  3
OpenSansCondensed-LightItalic.ttf
  4

  0
STYLE
  5
4E
330
5
100
AcDbSymbolTableRecord
100
AcDbTextStyleTableRecord
  2
LiberationSans
 70
0
 40
0.0
 41
1.0
 50
0.0
 71
0
 42
2.5
  3
LiberationSans-Regular.ttf
  4

  0
STYLE
  5
4F
330
5
100
AcDbSymbolTableRecord
100
AcDbTextStyleTableRecord
  2
LiberationSans-Bold
 70
0
 40
0.0
 41
1.0
 50
0.0
 71
0
 42
2.5
  3
LiberationSans-Bold.ttf
  4

  0
STYLE
  5
50
330
5
100
AcDbSymbolTableRecord
100
AcDbTextStyleTableRecord
  2
LiberationSans-BoldItalic
 70
0
 40
0.0
 41
1.0
 50
0.0
 71
0
 42
2.5
  3
LiberationSans-BoldItalic.ttf
  4

  0
STYLE
  5
51
330
5
100
AcDbSymbolTableRecord
100
AcDbTextStyleTableRecord
  2
LiberationSans-Italic
 70
0
 40
0.0
 41
1.0
 50
0.0
 71
0
 42
2.5
  3
LiberationSans-Italic.ttf
  4

  0
STYLE
  5
52
330
5
100
AcDbSymbolTableRecord
100
AcDbTextStyleTableRecord
  2
LiberationSerif
 70
0
 40
0.0
 41
1.0
 50
0.0
 71
0
 42
2.5
  3
LiberationSerif-Regular.ttf
  4

  0
STYLE
  5
53
330
5
100
AcDbSymbolTableRecord
100
AcDbTextStyleTableRecord
  2
LiberationSerif-Bold
 70
0
 40
0.0
 41
1.0
 50
0.0
 71
0
 42
2.5
  3
LiberationSerif-Bold.ttf
  4

  0
STYLE
  5
54
330
5
100
AcDbSymbolTableRecord
100
AcDbTextStyleTableRecord
  2
LiberationSerif-BoldItalic
 70
0
 40
0.0
 41
1.0
 50
0.0
 71
0
 42
2.5
  3
LiberationSerif-BoldItalic.ttf
  4

  0
STYLE
  5
55
330
5
100
AcDbSymbolTableRecord
100
AcDbTextStyleTableRecord
  2
LiberationSerif-Italic
 70
0
 40
0.0
 41
1.0
 50
0.0
 71
0
 42
2.5
  3
LiberationSerif-Italic.ttf
  4

  0
STYLE
  5
56
330
5
100
AcDbSymbolTableRecord
100
AcDbTextStyleTableRecord
  2
LiberationMono
 70
0
 40
0.0
 41
1.0
 50
0.0
 71
0
 42
2.5
  3
LiberationMono-Regular.ttf
  4

  0
STYLE
  5
57
330
5
100
AcDbSymbolTableRecord
100
AcDbTextStyleTableRecord
  2
LiberationMono-Bold
 70
0
 40
0.0
 41
1.0
 50
0.0
 71
0
 42
2.5
  3
LiberationMono-Bold.ttf
  4

  0
STYLE
  5
58
330
5
100
AcDbSymbolTableRecord
100
AcDbTextStyleTableRecord
  2
LiberationMono-BoldItalic
 70
0
 40
0.0
 41
1.0
 50
0.0
 71
0
 42
2.5
  3
LiberationMono-BoldItalic.ttf
  4

  0
STYLE
  5
59
330
5
100
AcDbSymbolTableRecord
100
AcDbTextStyleTableRecord
  2
LiberationMono-Italic
 70
0
 40
0.0
 41
1.0
 50
0.0
 71
0
 42
2.5
  3
LiberationMono-Italic.ttf
  4

  0
ENDTAB
  0
TABLE
  2
VIEW
  5
7
330
0
100
AcDbSymbolTable
 70
0
  0
ENDTAB
  0
TABLE
  2
UCS
  5
6
330
0
100
AcDbSymbolTable
 70
0
  0
ENDTAB
  0
TABLE
  2
APPID
  5
3
330
0
100
AcDbSymbolTable
 70
3
  0
APPID
  5
2A
330
3
100
AcDbSymbolTableRecord
100
AcDbRegAppTableRecord
  2
ACAD
 70
0
  0
APPID
  5
99
330
3
100
AcDbSymbolTableRecord
100
AcDbRegAppTableRecord
  2
HATCHBACKGROUNDCOLOR
 70
0
  0
APPID
  5
9A
330
3
100
AcDbSymbolTableRecord
100
AcDbRegAppTableRecord
  2
EZDXF
 70
0
  0
ENDTAB
  0
TABLE
  2
DIMSTYLE
  5
4
330
0
100
AcDbSymbolTable
 70
12
100
AcDbDimStyleTable
  0
DIMSTYLE
105
2B
330
4
100
AcDbSymbolTableRecord
100
AcDbDimStyleTableRecord
  2
Standard
 70
0
 40
1.0
 41
2.5
 42
0.625
 43
3.75
 44
1.25
 45
0.0
 46
0.0
 47
0.0
 48
0.0
 49
2.5
140
2.5
141
2.5
142
0.0
143
0.03937007874
144
1.0
145
0.0
146
1.0
147
0.625
148
0.0
 69
0
 70
0
 71
0
 72
0
 73
0
 74
0
 75
0
 76
0
 77
1
 78
8
 79
3
170
0
171
3
172
1
173
0
174
0
175
0
176
0
177
0
178
0
179
2
271
2
272
2
273
2
274
3
275
0
276
0
277
2
278
44
279
0
280
0
281
0
282
0
283
0
284
8
285
0
286
0
288
0
289
3
290
0
371
-2
372
-2
  0
DIMSTYLE
105
73
330
4
100
AcDbSymbolTableRecord
100
AcDbDimStyleTableRecord
  2
EZDXF
 70
0
 40
1.0
 41
0.175
 42
0.125
 43
3.75
 44
0.375
 45
0.0
 46
0.0
 47
0.0
 48
0.0
 49
2.5
140
0.25
141
2.5
142
0.0
143
0.03937007874
144
100.0
145
0.0
146
0.5
147
0.1
148
0.0
 69
0
 70
0
 71
0
 72
0
 73
0
 74
0
 75
0
 76
0
 77
1
 78
12
 79
3
170
0
171
3
172
1
173
0
174
0
175
0
176
0
177
0
178
0
179
2
271
2
272
2
273
2
274
3
275
0
276
0
277
2
278
46
279
2
280
0
281
0
282
0
283
0
284
8
285
0
286
0
288
1
289
3
290
0
340
4C
342
74
371
-2
372
-2
  0
DIMSTYLE
105
7C
330
4
100
AcDbSymbolTableRecord
100
AcDbDimStyleTableRecord
  2
EZ_M_100_H25_CM
 70
0
 40
1.0
 41
0.25
 42
0.125
 43
3.75
 44
0.375
 45
0.0
 46
0.0
 47
0.0
 48
0.0
 49
2.5
140
0.25
141
2.5
142
0.125
143
0.03937007874
144
100.0
145
0.0
146
0.5
147
0.1
148
0.0
 69
0
 70
0
 71
0
 72
0
 73
0
 74
0
 75
0
 76
0
 77
1
 78
12
 79
3
170
0
171
3
172
1
173
0
174
0
175
0
176
0
177
0
178
0
179
2
271
2
272
2
273
2
274
3
275
0
276
0
277
2
278
46
279
2
280
0
281
0
282
0
283
0
284
8
285
0
286
0
288
1
289
3
290
0
340
4C
371
-2
372
-2
  0
DIMSTYLE
105
7D
330
4
100
AcDbSymbolTableRecord
100
AcDbDimStyleTableRecord
  2
EZ_M_50_H25_CM
 70
0
 40
1.0
 41
0.125
 42
0.0625
 43
3.75
 44
0.1875
 45
0.0
 46
0.0
 47
0.0
 48
0.0
 49
2.5
140
0.125
141
2.5
142
0.0625
143
0.03937007874
144
100.0
145
0.0
146
0.5
147
0.05
148
0.0
 69
0
 70
0
 71
0
 72
0
 73
0
 74
0
 75
0
 76
0
 77
1
 78
12
 79
3
170
0
171
3
172
1
173
0
174
0
175
0
176
0
177
0
178
0
179
2
271
2
272
2
273
2
274
3
275
0
276
0
277
2
278
46
279
2
280
0
281
0
282
0
283
0
284
8
285
0
286
0
288
1
289
3
290
0
340
4C
371
-2
372
-2
  0
DIMSTYLE
105
7E
330
4
100
AcDbSymbolTableRecord
100
AcDbDimStyleTableRecord
  2
EZ_M_25_H25_CM
 70
0
 40
1.0
 41
0.0625
 42
0.03125
 43
3.75
 44
0.09375
 45
0.0
 46
0.0
 47
0.0
 48
0.0
 49
2.5
140
0.0625
141
2.5
142
0.03125
143
0.03937007874
144
100.0
145
0.0
146
0.5
147
0.025
148
0.0
 69
0
 70
0
 71
0
 72
0
 73
0
 74
0
 75
0
 76
0
 77
1
 78
12
 79
3
170
0
171
3
172
1
173
0
174
0
175
0
176
0
177
0
178
0
179
2
271
2
272
2
273
2
274
3
275
0
276
0
277
2
278
46
279
2
280
0
281
0
282
0
283
0
284
8
285
0
286
0
288
1
289
3
290
0
340
4C
371
-2
372
-2
  0
DIMSTYLE
105
7F
330
4
100
AcDbSymbolTableRecord
100
AcDbDimStyleTableRecord
  2
EZ_M_20_H25_CM
 70
0
 40
1.0
 41
0.05
 42
0.025
 43
3.75
 44
0.07500000000000001
 45
0.0
 46
0.0
 47
0.0
 48
0.0
 49
2.5
140
0.05
141
2.5
142
0.025
143
0.03937007874
144
100.0
145
0.0
146
0.5
147
0.020000000000000004
148
0.0
 69
0
 70
0
 71
0
 72
0
 73
0
 74
0
 75
0
 76
0
 77
1
 78
12
 79
3
170
0
171
3
172
1
173
0
174
0
175
0
176
0
177
0
178
0
179
2
271
2
272
2
273
2
274
3
275
0
276
0
277
2
278
46
279
2
280
0
281
0
282
0
283
0
284
8
285
0
286
0
288
1
289
3
290
0
340
4C
371
-2
372
-2
  0
DIMSTYLE
105
80
330
4
100
AcDbSymbolTableRecord
100
AcDbDimStyleTableRecord
  2
EZ_M_10_H25_CM
 70
0
 40
1.0
 41
0.025
 42
0.0125
 43
3.75
 44
0.037500000000000006
 45
0.0
 46
0.0
 47
0.0
 48
0.0
 49
2.5
140
0.025
141
2.5
142
0.0125
143
0.03937007874
144
100.0
145
0.0
146
0.5
147
0.010000000000000002
148
0.0
 69
0
 70
0
 71
0
 72
0
 73
0
 74
0
 75
0
 76
0
 77
1
 78
12
 79
3
170
0
171
3
172
1
173
0
174
0
175
0
176
0
177
0
178
0
179
2
271
2
272
2
273
2
274
3
275
0
276
0
277
2
278
46
279
2
280
0
281
0
282
0
283
0
284
8
285
0
286
0
288
1
289
3
290
0
340
4C
371
-2
372
-2
  0
DIMSTYLE
105
81
330
4
100
AcDbSymbolTableRecord
100
AcDbDimStyleTableRecord
  2
EZ_M_5_H25_CM
 70
0
 40
1.0
 41
0.0125
 42
0.00625
 43
3.75
 44
0.018750000000000003
 45
0.0
 46
0.0
 47
0.0
 48
0.0
 49
2.5
140
0.0125
141
2.5
142
0.00625
143
0.03937007874
144
100.0
145
0.0
146
0.5
147
0.005000000000000001
148
0.0
 69
0
 70
0
 71
0
 72
0
 73
0
 74
0
 75
0
 76
0
 77
1
 78
12
 79
3
170
0
171
3
172
1
173
0
174
0
175
0
176
0
177
0
178
0
179
2
271
2
272
2
273
2
274
3
275
0
276
0
277
2
278
46
279
2
280
0
281
0
282
0
283
0
284
8
285
0
286
0
288
1
289
3
290
0
340
4C
371
-2
372
-2
  0
DIMSTYLE
105
82
330
4
100
AcDbSymbolTableRecord
100
AcDbDimStyleTableRecord
  2
EZ_M_1_H25_CM
 70
0
 40
1.0
 41
0.0025
 42
0.00125
 43
3.75
 44
0.00375
 45
0.0
 46
0.0
 47
0.0
 48
0.0
 49
2.5
140
0.0025
141
2.5
142
0.00125
143
0.03937007874
144
100.0
145
0.0
146
0.5
147
0.001
148
0.0
 69
0
 70
0
 71
0
 72
0
 73
0
 74
0
 75
0
 76
0
 77
1
 78
12
 79
3
170
0
171
3
172
1
173
0
174
0
175
0
176
0
177
0
178
0
179
2
271
2
272
2
273
2
274
3
275
0
276
0
277
2
278
46
279
2
280
0
281
0
282
0
283
0
284
8
285
0
286
0
288
1
289
3
290
0
340
4C
371
-2
372
-2
  0
DIMSTYLE
105
83
330
4
100
AcDbSymbolTableRecord
100
AcDbDimStyleTableRecord
  2
EZ_RADIUS
 70
0
 40
1.0
 41
0.25
 42
0.125
 43
3.75
 44
0.375
 45
0.0
 46
0.0
 47
0.0
 48
0.0
 49
2.5
140
0.25
141
0.0
142
0.0
143
0.03937007874
144
100.0
145
0.0
146
0.5
147
0.1
148
0.0
 69
0
 70
0
 71
0
 72
0
 73
0
 74
0
 75
0
 76
0
 77
1
 78
12
 79
3
170
0
171
3
172
0
173
0
174
0
175
0
176
0
177
0
178
0
179
2
271
2
272
2
273
2
274
3
275
0
276
0
277
2
278
46
279
1
280
0
281
0
282
0
283
0
284
8
285
0
286
0
288
1
289
3
290
0
340
4C
342
84
371
-2
372
-2
  0
DIMSTYLE
105
88
330
4
100
AcDbSymbolTableRecord
100
AcDbDimStyleTableRecord
  2
EZ_RADIUS_INSIDE
 70
0
 40
1.0
 41
0.25
 42
0.125
 43
3.75
 44
0.375
 45
0.0
 46
0.0
 47
0.0
 48
0.0
 49
2.5
140
0.25
141
0.0
142
0.0
143
0.03937007874
144
100.0
145
0.0
146
0.5
147
0.1
148
0.0
 69
0
 70
0
 71
0
 72
0
 73
0
 74
0
 75
0
 76
0
 77
0
 78
12
 79
3
170
0
171
3
172
0
173
0
174
1
175
0
176
0
177
0
178
0
179
2
271
2
272
2
273
2
274
3
275
0
276
0
277
2
278
46
279
0
280
0
281
0
282
0
283
0
284
8
285
0
286
0
288
1
289
0
290
0
340
4C
342
84
371
-2
372
-2
  0
DIMSTYLE
105
89
330
4
100
AcDbSymbolTableRecord
100
AcDbDimStyleTableRecord
  2
EZ_CURVED
 70
0
 40
1.0
 41
0.25
 42
0.125
 43
3.75
 44
0.375
 45
0.0
 46
0.0
 47
0.0
 48
0.0
 49
2.5
140
0.25
141
2.5
142
0.0
143
0.03937007874
144
100.0
145
0.0
146
0.5
147
0.1
148
0.0
 69
0
 70
0
 71
0
 72
0
 73
0
 74
0
 75
0
 76
0
 77
1
 78
12
 79
2
 90
2
170
0
171
3
172
1
173
0
174
0
175
0
176
0
177
0
178
0
179
2
271
2
272
2
273
2
274
3
275
0
276
0
277
2
278
46
279
2
280
0
281
0
282
0
283
0
284
8
285
0
286
0
288
1
289
3
290
0
340
4C
371
-2
372
-2
  0
ENDTAB
  0
TABLE
  2
BLOCK_RECORD
  5
9
330
0
100
AcDbSymbolTable
 70
5
  0
BLOCK_RECORD
  5
17
330
9
100
AcDbSymbolTableRecord
100
AcDbBlockTableRecord
  2
*Model_Space
340
1A
 70
0
280
1
281
0
  0
BLOCK_RECORD
  5
1B
330
9
100
AcDbSymbolTableRecord
100
AcDbBlockTableRecord
  2
*Paper_Space
340
1E
 70
0
280
1
281
0
  0
BLOCK_RECORD
  5
74
330
9
100
AcDbSymbolTableRecord
100
AcDbBlockTableRecord
  2
_ARCHTICK
340
0
 70
0
280
1
281
0
  0
BLOCK_RECORD
  5
78
330
9
100
AcDbSymbolTableRecord
100
AcDbBlockTableRecord
  2
_CLOSEDFILLED
340
0
 70
0
280
1
281
0
  0
BLOCK_RECORD
  5
84
330
9
100
AcDbSymbolTableRecord
100
AcDbBlockTableRecord
  2
_CLOSEDBLANK
340
0
 70
0
280
1
281
0
  0
ENDTAB
  0
ENDSEC
  0
SECTION
  2
BLOCKS
  0
BLOCK
  5
18
330
17
100
AcDbEntity
  8
0
100
AcDbBlockBegin
  2
*Model_Space
 70
0
 10
0.0
 20
0.0
 30
0.0
  3
*Model_Space
  1

  0
ENDBLK
  5
19
330
17
100
AcDbEntity
  8
0
100
AcDbBlockEnd
  0
BLOCK
  5
1C
330
1B
100
AcDbEntity
  8
0
100
AcDbBlockBegin
  2
*Paper_Space
 70
0
 10
0.0
 20
0.0
 30
0.0
  3
*Paper_Space
  1

  0
ENDBLK
  5
1D
330
1B
100
AcDbEntity
  8
0
100
AcDbBlockEnd
  0
BLOCK
  5
75
330
74
100
AcDbEntity
  8
0
100
AcDbBlockBegin
  2
_ARCHTICK
 70
0
 10
0.0
 20
0.0
 30
0.0
  3
_ARCHTICK
  1

  0
LWPOLYLINE
  5
77
330
74
100
AcDbEntity
  8
0
  6
BYBLOCK
 62
0
100
AcDbPolyline
 90
2
 70
0
 43
0.15
 10
-0.5
 20
-0.5
 10
0.5
 20
0.5
  0
ENDBLK
  5
76
330
74
100
AcDbEntity
  8
0
100
AcDbBlockEnd
  0
BLOCK
  5
79
330
78
100
AcDbEntity
  8
0
100
AcDbBlockBegin
  2
_CLOSEDFILLED
 70
0
 10
0.0
 20
0.0
 30
0.0
  3
_CLOSEDFILLED
  1

  0
SOLID
  5
7B
330
78
100
AcDbEntity
  8
0
  6
BYBLOCK
 62
0
100
AcDbTrace
 10
-1.0
 20
0.16439898372402537
 30
0.0
 11
0.0
 21
0.0
 31
0.0
 12
-1.0
 22
-0.16439898372402537
 32
0.0
 13
-1.0
 23
-0.16439898372402537
 33
0.0
  0
ENDBLK
  5
7A
330
78
100
AcDbEntity
  8
0
100
AcDbBlockEnd
  0
BLOCK
  5
85
330
84
100
AcDbEntity
  8
0
100
AcDbBlockBegin
  2
_CLOSEDBLANK
 70
0
 10
0.0
 20
0.0
 30
0.0
  3
_CLOSEDBLANK
  1

  0
LWPOLYLINE
  5
87
330
84
100
AcDbEntity
  8
0
  6
BYBLOCK
 62
0
100
AcDbPolyline
 90
3
 70
1
 10
-1.0
 20
0.16439898372402537
 10
0.0
 20
0.0
 10
-1.0
 20
-0.16439898372402537
  0
ENDBLK
  5
86
330
84
100
AcDbEntity
  8
0
100
AcDbBlockEnd
  0
ENDSEC
  0
SECTION
  2
ENTITIES
  0
LWPOLYLINE
  5
8C
330
17
100
AcDbEntity
  8
CUT
100
AcDbPolyline
 90
995
 70
1
 10
51.66706058880959
 20
16.0
 10
49.84114000876866
 20
19.50206438186029
 10
48.0420060421344
 20
23.038367292135213
 10
46.27147131688184
 20
26.605686281091607
 10
44.531348460985726
 20
30.20079889899634
 10
42.82345010242108
 20
33.82048269611629
 10
41.1495888691627
 20
37.461515222718276
 10
39.51157738918556
 20
41.120674029069185
 10
37.911228290464464
 20
44.79473666543588
 10
36.35035420097432
 20
48.480480682085194
 10
34.83076774869011
 20
52.17468362928402
 10
33.35428156158662
 20
55.874123057299194
 10
31.922708267638768
 20
59.57557651639756
 10
30.537860494821473
 20
63.27582155684603
 10
29.20155087110959
 20
66.97163572891142
 10
27.915592024478087
 20
70.65979658286061
 10
26.681796582901768
 20
74.33708166896042
 10
25.501977174355602
 20
78.00026853747775
 10
24.37794642681439
 20
81.64613473867948
 10
23.311516968253102
 20
85.2714578228324
 10
22.30450142664654
 20
88.87301534020341
 10
21.358712429969557
 20
92.44758484105941
 10
20.475962606197356
 20
95.99194387566715
 10
19.658064583304565
 20
99.50286999429358
 10
18.906830989266155
 20
102.97714074720552
 10
18.224074452056925
 20
106.41153368466985
 10
17.611607599651734
 20
109.80282635695346
 10
17.071243060025722
 20
113.14779631432312
 10
16.604793461153633
 20
116.44322110704573
 10
16.214071431010154
 20
119.68587828538823
 10
15.900889597570597
 20
122.87254539961735
 10
15.66706058880959
 20
126.0
 10
15.673337652352245
 20
126.77120606894701
 10
15.692303111719184
 20
127.53697425396932
 10
15.7241583700187
 20
128.29811016750023
 10
15.769104830359026
 20
129.05541942197306
 10
15.827343895848628
 20
129.8097076298211
 10
15.89907696959574
 20
130.56178040347757
 10
15.98450545470871
 20
131.3124433553758
 10
16.083830754295775
 20
132.06250209794905
 10
16.197254271465454
 20
132.81276224363063
 10
16.32497740932581
 20
133.5640294048538
 10
16.467201570985424
 20
134.3171091940519
 10
16.62412815955247
 20
135.07280722365815
 10
16.79595857813524
 20
135.83192910610586
 10
16.98289422984209
 20
136.59528045382834
 10
17.185136517781416
 20
137.36366687925883
 10
17.40288684506146
 20
138.13789399483065
 10
17.636346614790625
 20
138.91876741297708
 10
17.885717230077148
 20
139.70709274613137
 10
18.15120009402932
 20
140.50367560672686
 10
18.43299660975555
 20
141.3093216071968
 10
18.731308180364067
 20
142.12483635997452
 10
19.04633620896334
 20
142.95102547749318
 10
19.378282098661543
 20
143.78869457218622
 10
19.7273472525672
 20
144.63864925648684
 10
20.093733073788314
 20
145.50169514282834
 10
20.477640965433352
 20
146.37863784364407
 10
20.87927233061083
 20
147.2702829713672
 10
21.298828572428874
 20
148.17743613843103
 10
21.73651109399566
 20
149.100902957269
 10
22.19252129841982
 20
150.04148904031422
 10
22.66706058880959
 20
151.0
 10
27.66706058880959
 20
156.0
 10
27.66706058880959
 20
174.0
 10
29.477388322018385
 20
174.3757341081094
 10
31.247800479125488
 20
174.8766646649367
 10
32.97318578427229
 20
175.46783078941172
 10
34.649615932477616
 20
176.1409165726749
 10
36.273648531315075
 20
176.89038263765653
 10
37.842181233594374
 20
177.711573361712
 10
39.352395517701325
 20
178.60019127624957
 10
40.801729589030515
 20
179.55209839098376
 10
42.18786338559363
 20
180.56322890509625
 10
43.50870932782135
 20
181.6295482416972
 10
44.76240599830777
 20
182.7470340410978
 10
45.94731335614256
 20
183.91166856792145
 10
47.06200873535727
 20
185.11943745907791
 10
48.105283199151415
 20
186.36633216443218
 10
49.076137994767976
 20
187.64835460385257
 10
49.97378095271671
 20
188.96152317130867
 10
50.797622733281855
 20
190.30187954952592
 10
51.54727286027071
 20
191.66549599019774
 10
52.22253550594775
 20
193.04848282957988
 10
52.82340500713474
 20
194.44699608069982
 10
53.35006110347831
 20
195.85724498930637
 10
53.80286389665014
 20
197.27549947108187
 10
54.18234853482272
 20
198.69809736836015
 10
54.489219630850926
 20
200.1214514791139
 10
54.72434542562263
 20
201.54205632142785
 10
54.88875171031907
 20
202.95649460440794
 10
54.98361552304726
 20
204.36144338235235
 10
55.010258636606636
 20
205.7536798735976
 10
54.970140855132286
 20
207.1300869291283
 10
54.86485313808072
 20
208.48765813905985
 10
54.696110570547376
 20
209.823502567646
 10
54.46574519925662
 20
211.13484910964968
 10
54.17569875378274
 20
212.41905046283256
 10
53.82801527265616
 20
213.67358671302824
 10
53.42483365400261
 20
214.89606852980967
 10
52.968380150271
 20
216.08423997217332
 10
52.46096082642953
 20
217.23598090496841
 10
51.90495400076787
 20
218.34930902800974
 10
51.30280268713523
 20
219.42238152094478
 10
50.657007057078374
 20
220.45349630800786
 10
49.9701169399284
 20
221.44109294778823
 10
49.244724378420756
 20
222.3837531540787
 10
48.483456256922864
 20
223.28020095475063
 10
47.68896701880101
 20
224.1293024964302
 10
46.863931488869696
 20
224.930065503527
 10
46.011037816256476
 20
225.68163840089287
 10
45.132980552366064
 20
226.3833091100659
 10
44.23245387795811
 20
227.03450352968574
 10
43.31214499265832
 20
227.63478371124626
 10
42.37472767950567
 20
228.18384574188875
 10
41.422856056406374
 20
228.68151734642538
 10
40.45915852561632
 20
229.127755221227
 10
39.486231931612224
 20
229.52264211300354
 10
38.506635936938835
 20
229.86638365585844
 10
37.522887624843634
 20
230.15930498030374
 10
36.53745633672264
 20
230.40184710818434
 10
35.552758751615045
 20
230.594563147679
 10
34.5711542141957
 20
230.73811430271877
 10
33.594940316928216
 20
230.83326571129885
 10
32.626348741257516
 20
230.88088212724767
 10
31.667541361943677
 20
230.88192346006966
 10
30.720606617869294
 20
230.83744018748675
 10
29.787556151890954
 20
230.7485686552756
 10
28.870321721558184
 20
230.6165262789311
 10
27.97075238178695
 20
230.44260666158357
 10
27.09061193985275
 20
230.22817464245733
 10
26.231576682365073
 20
229.97466128998764
 10
25.395233373198266
 20
229.68355885350442
 10
24.58307752068589
 20
229.35641568715616
 10
23.796511911740083
 20
228.9948311594781
 10
23.036845409931573
 20
228.60045056171407
 10
22.30529201396581
 20
228.1749600276762
 10
21.602970172412313
 20
227.7200814775796
 10
20.930902349992664
 20
227.23756759791453
 10
20.290014840206084
 20
226.72919686902333
 10
19.681137818571415
 20
226.19676865163376
 10
19.105005630294784
 20
225.64209834316316
 10
18.56225730572436
 20
225.06701261415608
 10
18.053437296542484
 20
224.4733447347481
 10
17.57899642525655
 20
223.86293000056506
 10
17.139293040193877
 20
223.2376012669713
 10
16.73459436787931
 20
222.59918460007347
 10
16.365078054375147
 20
221.94949505236949
 10
16.030833886897028
 20
221.2903325704098
 10
15.731865686780395
 20
220.6234780413061
 10
15.468093364664128
 20
219.9506894843906
 10
15.2393551285802
 20
219.27369839378895
 10
15.045409835487021
 20
218.59420623713325
 10
14.885939476666238
 20
217.9138811151027
 10
14.760551787308259
 20
217.23435458594068
 10
14.668782970550126
 20
216.55721865856626
 10
14.610100526191616
 20
215.884022957365
 10
14.583906174307458
 20
215.21627206122335
 10
14.589538863989105
 20
214.55542301885166
 10
14.626277857493392
 20
213.90288304193388
 10
14.693345880141749
 20
213.26000737714244
 10
14.789912326405272
 20
212.62809735756812
 10
14.915096512725086
 20
212.00839863363788
 10
15.067970967755002
 20
211.40209958313014
 10
15.24756475086889
 20
210.81032989944552
 10
15.452866789955578
 20
210.23415935685543
 10
15.682829229720028
 20
209.67459675103007
 10
15.936370781924666
 20
209.13258901274273
 10
16.212380069238122
 20
208.60902049225936
 10
16.509718954605262
 20
208.10471241155213
 10
16.82722584831754
 20
207.62042248112218
 10
17.16371898523829
 20
207.15684467788475
 10
17.517999664927288
 20
206.71460918025264
 10
17.888855447710455
 20
206.29428245625903
 10
18.275063300049794
 20
205.8963675002852
 10
18.675392682893175
 20
205.52130421370086
 10
19.088608577005743
 20
205.16946992448905
 10
19.513474439625327
 20
204.84118004071206
 10
19.948755087123118
 20
204.5366888324774
 10
20.393219498693725
 20
204.25619033688776
 10
20.845643536452258
 20
203.99981938030317
 10
21.304812577663483
 20
203.76765271210724
 10
21.76952405518216
 20
203.55971024405403
 10
22.238589902537
 20
203.37595638917512
 10
22.710838900440876
 20
203.21630149415
 10
23.185118921862284
 20
203.08060335898406
 10
23.660299073139697
 20
202.96866883780004
 10
24.13527172896397
 20
202.88025551452603
 10
24.608954459394965
 20
202.8150734472612
 10
25.08029184741133
 20
202.77278697511255
 10
25.548257195820838
 20
202.75301658132764
 10
26.01185412268103
 20
202.75534080659332
 10
26.470118044690423
 20
202.77929820643354
 10
26.922117548319022
 20
202.824389346715
 10
27.3669556487406
 20
202.89007883136162
 10
27.803770936917317
 20
202.97579735648162
 10
28.231738615461722
 20
203.08094378522938
 10
28.650071424168857
 20
203.20488723785294
 10
29.058020456365114
 20
203.34696919151818
 10
29.454875867462874
 20
203.50650558465315
 10
29.839967477341872
 20
203.6827889207141
 10
30.212665268397984
 20
203.87509036644752
 10
30.57237978130371
 20
204.08266183989832
 10
30.918562410722757
 20
204.30473808359997
 10
31.250705603398103
 20
204.5405387185751
 10
31.568342961202518
 20
204.78927027497173
 10
31.871049251895897
 20
205.05012819536327
 10
32.158440330472956
 20
205.32229880694803
 10
32.43017297411592
 20
205.60496125909285
 10
32.685944633880354
 20
205.89728942288045
 10
32.925493106344845
 20
206.1984537495334
 10
33.14859612854411
 20
206.50762308480466
 10
33.35507089958253
 20
206.8239664366419
 10
33.54477353238798
 20
207.14665469364792
 10
33.71759843911707
 20
207.47486229207664
 10
33.87347765376336
 20
207.80776882931784
 10
34.01238009554669
 20
208.1445606220352
 10
34.13431077667758
 20
208.48443220733256
 10
34.23930995809678
 20
208.82658778552917
 10
34.32745225678224
 20
209.17024260332528
 10
34.398845708201804
 20
209.51462427634002
 10
34.43333523516014
 20
209.73140703852638
 10
34.477876838667214
 20
209.07506823616475
 10
34.662327186875984
 20
208.3603383017414
 10
34.97496819821191
 20
207.69167066520887
 10
35.4051532580055
 20
207.09183600095085
 10
35.93823292999559
 20
206.58126095903626
 10
36.556053825311096
 20
206.1773325601502
 10
37.23757679435664
 20
205.8938061014581
 10
37.95959338981805
 20
205.74033673645812
 10
38.69751620250031
 20
205.72215068030917
 10
39.42621615605839
 20
205.83986723734162
 10
40.12087824755315
 20
206.0894777113912
 10
40.7578465926141
 20
206.4624819171389
 10
41.31542999820948
 20
206.9461776437272
 10
41.774640630209376
 20
207.52409321331623
 10
42.11984062130341
 20
208.17654840431697
 10
42.33927459981669
 20
208.88132463773363
 10
42.32555123864938
 20
208.13945101763355
 10
42.275145906635146
 20
207.39144386236995
 10
42.18743246921366
 20
206.63907728336258
 10
42.06186868470644
 20
205.88417127494898
 10
41.89799914343621
 20
205.12858784030982
 10
41.69545803250878
 20
204.37422694295597
 10
41.45397171642384
 20
203.62302229139627
 10
41.17336112399727
 20
202.87693696513836
 10
40.853543932431876
 20
202.13795889069667
 10
40.49453653974814
 20
201.4080961767878
 10
40.09645581719144
 20
200.68937231838373
 10
39.65952063366399
 20
199.98382127976663
 10
39.184053144684356
 20
199.29348246718482
 10
38.670479838860615
 20
198.62039560214228
 10
38.119332335366664
 20
197.96659550676898
 10
37.531247926442404
 20
197.33410681310954
 10
36.90696985948523
 20
196.7249386085343
 10
36.24734735387693
 20
196.14107902981965
 10
35.55333534827747
 20
195.58448981875952
 10
34.82599397473075
 20
195.05710085245798
 10
34.06648775655407
 20
194.56080466171449
 10
33.27608452762837
 20
194.09745095114152
 10
32.45615407136546
 20
193.668841134857
 10
31.608166478301428
 20
193.2767229017614
 10
30.733690221951008
 20
192.92278482454705
 10
29.834389953253265
 20
192.60865102669143
 10
28.912024014643407
 20
192.33587592175647
 10
27.968441675498752
 20
192.10593903935307
 10
27.00558009142503
 20
191.9202399521314
 10
26.025460990570366
 20
191.78009331812484
 10
25.030187090882066
 20
191.68672405270584
 10
24.02193825294387
 20
191.64126264430826
 10
23.00296737375959
 20
191.64474062792908
 10
21.975596027569168
 20
191.69808623024616
 10
20.942209860502032
 20
191.8021201999746
 10
19.90525374658432
 20
191.9575518368353
 10
18.867226713320235
 20
192.16497523222247
 10
17.83067664576157
 20
192.4248657343363
 10
16.79819477866181
 20
192.7375766501878
 10
15.772409986980506
 20
193.10333619649074
 10
14.755982885656522
 20
193.5222447110271
 10
13.751599750206424
 20
193.99427213561023
 10
12.761966270321977
 20
194.5192557812734
 10
11.789801149237292
 20
195.0968983857823
 10
10.837829562214097
 20
195.72676647300835
 10
9.908776488041724
 20
196.40828902310653
 10
9.00535992797711
 20
197.1407564618183
 10
8.130284027047992
 20
197.92331997656746
 10
7.286232113111453
 20
198.7549911663347
 10
6.475859669502427
 20
199.63464203159074
 10
5.701787257512137
 20
200.5610053098319
 10
4.966593405312949
 20
201.53267516150555
 10
4.272807480286929
 20
202.54810821033115
 10
3.622902562018055
 20
203.60562494122107
 10
3.019288333478528
 20
204.70341145818244
 10
2.4643040081657546
 20
205.83952160374278
 10
1.9602113111390054
 20
207.01187944058373
 10
1.5091875320533745
 20
208.21828209519893
 10
1.1133186683969711
 20
209.45640296250602
 10
0.7745926772038843
 20
210.7237952694504
 10
0.49489285353774903
 20
212.01789599473418
 10
0.27599135402243746
 20
213.33603014089422
 10
0.11954288362852594
 20
214.6754153540389
 10
0.027078563819031842
 20
216.03316688563547
 10
0.0
 20
217.406302889822
 10
0.03957356602359141
 20
218.79175004880338
 10
0.1469249232465586
 20
220.1863495179761
 10
0.3230337913532253
 20
221.58686318152277
 10
0.5687289878197817
 20
222.98998020831803
 10
0.8846837525094884
 20
224.39232389710116
 10
1.271411373465753
 20
225.79045879899522
 10
1.7292611294931248
 20
227.18089810459406
 10
2.258414564602276
 20
228.56011128199586
 10
2.8588821088322334
 20
229.92453195133953
 10
3.5305000593596674
 20
231.27056598059912
 10
4.27292793515727
 20
232.59459978661496
 10
5.08564621777424
 20
233.89300882458966
 10
5.967954490084878
 20
235.1621662485544
 10
6.918969984078046
 20
236.39845172461938
 10
7.937626547957393
 20
237.59826037816285
 10
9.022674041974767
 20
238.75801185548946
 10
10.172678171540099
 20
239.87415947989834
 10
11.386020765237163
 20
240.94319948155487
 10
12.660900504427275
 20
241.96168028004803
 10
13.995334110146075
 20
242.92621179805028
 10
15.387157991991273
 20
243.8334747840735
 10
16.834030362667193
 20
244.6802301219363
 10
18.333433820791413
 20
245.4633281042291
 10
19.882678403489706
 20
246.1797176467818
 10
21.478905109201094
 20
246.82645542090583
 10
23.119089889995394
 20
247.4007148800055
 10
24.800048111569424
 20
247.89979515702294
 10
26.51843947793435
 20
248.32112980910975
 10
28.27077341664983
 20
248.66229538589863
 10
30.053414919283796
 20
248.9210197977845
 10
31.862590830606337
 20
249.0951904607186
 10
33.6943965788397
 20
249.18286219416862
 10
35.544803338110796
 20
249.18226484910494
 10
37.409665613068455
 20
249.09181064313964
 10
39.28472923445753
 20
248.91010118026725
 10
41.16563975327114
 20
248.6359341330388
 10
43.0479512199484
 20
248.26830956544072
 10
44.92713533393959
 20
247.80643587524744
 10
46.79859094783342
 20
247.24973533517417
 10
48.65765390913333
 20
246.59784921276713
 10
50.49960722168021
 20
245.850642449641
 10
52.319691507658945
 20
245.0082078813968
 10
54.11311575008807
 20
244.07086998033594
 10
55.875068294688276
 20
243.03918810392005
 10
57.60072808905227
 20
241.9139592328134
 10
59.28527613610021
 20
240.69622018328428
 10
60.923907137907975
 20
239.38724927972868
 10
62.51184130513377
 20
237.98856747411602
 10
64.04433630645684
 20
236.50193890023863
 10
65.51669933166852
 20
234.92937085177138
 10
66.92429924133478
 20
233.2731131743147
 10
68.2625787752778
 20
231.53565706279807
 10
69.52706679150151
 20
229.7197332568629
 10
70.71339050661979
 20
227.82830962811283
 10
71.8172877083332
 20
225.86458815442404
 10
72.83461891004612
 20
223.8320012778294
 10
73.76137941731622
 20
221.73420764383764
 10
74.59371127549133
 20
219.57508722140696
 10
75.32791506760674
 20
217.35873580416018
 10
75.96046153139554
 20
215.08945889479955
 10
76.48800296410252
 20
212.77176497604165
 10
76.90738438368601
 20
210.4103581727415
 10
77.21565441494215
 20
208.01013031119507
 10
77.41007586909024
 20
205.57615238288898
 10
77.48813598540679
 20
203.11366542118543
 10
77.44755630359171
 20
200.62807080057036
 10
77.28630213567644
 20
198.12491996912004
 10
77.00259160643671
 20
195.60990362572412
 10
76.59490423143512
 20
193.0888403542847
 10
76.06198900196887
 20
190.56766472753077
 10
75.40287194631583
 20
188.05241489314653
 10
74.61686313671353
 20
185.54921965448736
 10
73.70356311143155
 20
183.06428505705884
 10
72.66286868102713
 20
180.6038804899079
 10
71.49497808732426
 20
178.1743243077271
 10
70.20039548267678
 20
175.78196897423615
 10
68.77993469547607
 20
173.4331857194048
 10
67.23472224534345
 20
171.1343486909662
 10
65.56619956755873
 20
168.8918185623005
 10
63.776124400342326
 20
166.7119255306579
 10
61.866571279532764
 20
164.6009515960189
 10
59.83993107124195
 20
162.56511194162547
 10
57.69890945127912
 20
160.61053512445503
 10
55.44652420543042
 20
158.74324159438834
 10
53.08610116787287
 20
156.9691197298638
 10
50.621268518719376
 20
155.29389797260325
 10
48.05594899113635
 20
153.7231104738052
 10
45.394349219094465
 20
152.2620512409527
 10
43.36390509316249
 20
151.26921554823502
 10
43.53020717670523
 20
151.11214796415027
 10
44.09259178950771
 20
150.56825887012855
 10
44.66706058880959
 20
150.0
 10
46.358813131523846
 20
146.31123493672584
 10
48.14280829784923
 20
142.6043435937028
 10
50.01763626602758
 20
138.88617367661374
 10
51.981887214300514
 20
135.16357289114163
 10
54.03415132090987
 20
131.44338894296934
 10
56.173018764097435
 20
127.73246953777988
 10
58.39707972210488
 20
124.03766238125608
 10
60.70492437317398
 20
120.36581517908094
 10
63.09514289554653
 20
116.72377563693735
 10
65.56632546746425
 20
113.11839146050819
 10
68.11706226716882
 20
109.55651035547649
 10
70.74594347290213
 20
106.04498002752509
 10
73.45155926290582
 20
102.59064818233693
 10
76.23249981542165
 20
99.20036252559498
 10
79.08735530869143
 20
95.8809707629821
 10
82.01471592095692
 20
92.63932060018128
 10
85.01317183045981
 20
89.48225974287534
 10
88.08131321544178
 20
86.41663589674734
 10
91.21773025414475
 20
83.4492967674801
 10
94.4210131248104
 20
80.58709006075661
 10
97.68975200568045
 20
77.83686348225976
 10
101.02253707499665
 20
75.20546473767246
 10
104.41795851100082
 20
72.69974153267765
 10
107.87460649193471
 20
70.32654157295828
 10
111.39107119604003
 20
68.09271256419724
 10
114.96594280155838
 20
66.00510221207749
 10
118.59781148673176
 20
64.0705582222819
 10
122.28526742980185
 20
62.29592830049343
 10
126.02690080901027
 20
60.688060152395025
 10
129.82130180259895
 20
59.25380148366956
 10
133.6670605888096
 20
58.0
 10
137.4670605888096
 20
58.0
 10
137.4670605888096
 20
30.0
 10
149.86706058880958
 20
30.0
 10
149.86706058880958
 20
58.0
 10
227.4670605888096
 20
58.0
 10
227.4670605888096
 20
30.0
 10
239.86706058880958
 20
30.0
 10
239.86706058880958
 20
58.0
 10
317.4670605888096
 20
58.0
 10
317.4670605888096
 20
30.0
 10
329.8670605888096
 20
30.0
 10
329.72838820730306
 20
29.851941005131916
 10
329.59969625558506
 20
29.695129408248736
 10
329.48153581235
 20
29.53023670068247
 10
329.3744128587561
 20
29.357968978321704
 10
329.27878611173657
 20
29.179063918000608
 10
329.19506505970287
 20
28.99428761865348
 10
329.12360820905303
 20
28.804431320761502
 10
329.06472154899177
 20
28.610308018139516
 10
329.01865724123786
 20
28.4127489765717
 10
328.98561254022906
 20
28.212600174203864
 10
328.9657289484482
 20
28.010718678935145
 10
328.9590916104879
 20
27.807968978321703
 10
328.9657289484482
 20
27.605219277708258
 10
328.98561254022906
 20
27.403337782439543
 10
329.01865724123786
 20
27.203188980071705
 10
329.06472154899177
 20
27.005629938503887
 10
329.1236082090531
 20
26.8115066358819
 10
329.1950650597029
 20
26.621650337989927
 10
329.27878611173657
 20
26.4368740386428
 10
329.3744128587561
 20
26.257968978321703
 10
329.48153581235
 20
26.085701255960934
 10
329.59969625558506
 20
25.920808548394668
 10
329.72838820730306
 20
25.76399695151149
 10
329.8670605888096
 20
25.615937956643407
 10
330.0151195836777
 20
25.477265575136872
 10
330.1719311805609
 20
25.348573623418872
 10
330.3368238881271
 20
25.230413180183813
 10
330.50909161048787
 20
25.123290226589944
 10
330.68799667080896
 20
25.02766347957037
 10
330.8727729701561
 20
24.943942427536715
 10
331.0626292680481
 20
24.872485576886877
 10
331.2567525706701
 20
24.81359891682559
 10
331.4543116122379
 20
24.76753460907169
 10
331.65446041460575
 20
24.73448990806289
 10
331.85634190987446
 20
24.714606316282033
 10
332.0590916104879
 20
24.707968978321702
 10
332.2618413111013
 20
24.714606316282033
 10
332.4637228063701
 20
24.73448990806289
 10
332.6638716087379
 20
24.76753460907169
 10
332.8614306503057
 20
24.81359891682559
 10
333.0555539529277
 20
24.872485576886877
 10
333.24541025081965
 20
24.943942427536715
 10
333.4301865501668
 20
25.02766347957037
 10
333.6090916104879
 20
25.123290226589944
 10
333.78135933284864
 20
25.230413180183813
 10
333.94625204041495
 20
25.348573623418876
 10
334.1030636372981
 20
25.477265575136872
 10
334.2511226321662
 20
25.615937956643407
 10
334.3897950136727
 20
25.76399695151149
 10
334.5184869653907
 20
25.92080854839467
 10
334.6366474086258
 20
26.085701255960938
 10
334.74377036221966
 20
26.257968978321703
 10
334.8393971092392
 20
26.4368740386428
 10
334.9231181612729
 20
26.621650337989927
 10
334.99457501192273
 20
26.8115066358819
 10
335.053461671984
 20
27.00562993850389
 10
335.0995259797379
 20
27.203188980071705
 10
335.1325706807467
 20
27.403337782439543
 10
335.15245427252756
 20
27.60521927770826
 10
335.1590916104879
 20
27.807968978321703
 10
335.15245427252756
 20
28.01071867893515
 10
335.1325706807467
 20
28.212600174203867
 10
335.0995259797379
 20
28.412748976571702
 10
335.053461671984
 20
28.61030801813952
 10
334.99457501192273
 20
28.804431320761505
 10
334.9231181612729
 20
28.994287618653484
 10
334.8393971092392
 20
29.17906391800061
 10
334.74377036221966
 20
29.357968978321704
 10
334.6366474086258
 20
29.530236700682472
 10
334.5184869653907
 20
29.69512940824874
 10
334.3897950136727
 20
29.85194100513192
 10
334.2511226321662
 20
30.0
 10
334.1030636372981
 20
30.138672381506534
 10
333.94625204041495
 20
30.267364333224535
 10
333.78135933284864
 20
30.385524776459594
 10
333.6090916104879
 20
30.492647730053463
 10
333.4301865501668
 20
30.58827447707304
 10
333.24541025081965
 20
30.67199552910669
 10
333.0555539529277
 20
30.74345237975653
 10
332.8614306503057
 20
30.802339039817817
 10
332.6638716087379
 20
30.84840334757172
 10
332.4637228063701
 20
30.881448048580516
 10
332.2618413111013
 20
30.901331640361374
 10
332.0590916104879
 20
30.907968978321705
 10
331.85634190987446
 20
30.901331640361374
 10
331.65446041460575
 20
30.881448048580516
 10
331.4543116122379
 20
30.84840334757172
 10
331.2567525706701
 20
30.802339039817817
 10
331.0626292680481
 20
30.74345237975653
 10
330.8727729701561
 20
30.67199552910669
 10
330.68799667080896
 20
30.588274477073035
 10
330.50909161048787
 20
30.492647730053463
 10
330.3368238881271
 20
30.385524776459594
 10
330.1719311805609
 20
30.26736433322453
 10
330.0151195836777
 20
30.138672381506534
 10
329.8670605888096
 20
30.0
 10
329.8670605888096
 20
58.0
 10
407.4670605888096
 20
58.0
 10
407.4670605888096
 20
30.0
 10
419.8670605888096
 20
30.0
 10
419.8670605888096
 20
58.0
 10
497.4670605888096
 20
58.0
 10
497.4670605888096
 20
30.0
 10
509.8670605888096
 20
30.0
 10
509.8670605888096
 20
58.0
 10
518.6670605888096
 20
58.0
 10
523.6998221610966
 20
58.83018361250042
 10
528.5420563929115
 20
59.771541740794206
 10
533.1967843308794
 20
60.822865966231404
 10
537.6670270216249
 20
61.98294787016213
 10
541.955805511773
 20
63.250579033936425
 10
546.0661408479482
 20
64.62455103890436
 10
550.0010540767757
 20
66.10365546641603
 10
553.7635662448802
 20
67.68668389782148
 10
557.3566983988865
 20
69.3724279144708
 10
560.7834715854193
 20
71.15967909771409
 10
564.0469068511036
 20
73.04722902890136
 10
567.1500252425641
 20
75.0338692893827
 10
570.0958478064257
 20
77.1183914605082
 10
572.8873955893131
 20
79.29958712362793
 10
575.5276896378513
 20
81.57624786009197
 10
578.0197509986649
 20
83.94716525125037
 10
580.366600718379
 20
86.41113087845322
 10
582.571259843618
 20
88.96693632305058
 10
584.6367494210073
 20
91.61337316639253
 10
586.5660904971712
 20
94.34923298982913
 10
588.3623041187348
 20
97.17330737471048
 10
590.0284113323228
 20
100.08438790238662
 10
591.5674331845601
 20
103.08126615420764
 10
592.9823907220713
 20
106.16273371152363
 10
594.2763049914815
 20
109.3275821556846
 10
595.4521970394155
 20
112.57460306804067
 10
596.5130879124979
 20
115.90258802994194
 10
597.4619986573538
 20
119.31032862273841
 10
598.3019503206078
 20
122.79661642778021
 10
599.0359639488847
 20
126.36024302641738
 10
599.6670605888096
 20
130.0
 10
600.6670605888096
 20
142.0
 10
599.6654219907214
 20
144.49039599453803
 10
598.6947802064701
 20
146.66222121074193
 10
597.7257770203071
 20
148.56258534365043
 10
596.7290542164836
 20
150.2385980883022
 10
595.6752535792511
 20
151.73736913973605
 10
594.5350168928605
 20
153.10600819299046
 10
593.2789859415634
 20
154.39162494310426
 10
591.8778025096108
 20
155.64132908511607
 10
590.3021083812539
 20
156.90223031406464
 10
588.522545340744
 20
158.2214383249886
 10
586.5097551723326
 20
159.64606281292674
 10
584.2343796602706
 20
161.22321347291762
 10
581.6670605888096
 20
163.0
 10
584.7179481627741
 20
163.22539827036871
 10
587.4120310030108
 20
163.5570323167956
 10
589.7883623639575
 20
163.96267637687754
 10
591.8859955000522
 20
164.4101046882112
 10
593.7439836657327
 20
164.8670914883933
 10
595.4013801154368
 20
165.30141101502048
 10
596.8972381036025
 20
165.6808375056896
 10
598.2706108846676
 20
165.97314519799727
 10
599.5605517130699
 20
166.14610832954025
 10
600.8061138432474
 20
166.16750113791534
 10
602.046350529638
 20
166.00509786071916
 10
603.3203150266794
 20
165.62667273554848
 10
604.6670605888096
 20
165.0
 10
606.6670605888096
 20
178.0
 10
605.5437105660512
 20
180.85553026854802
 10
604.4613254955005
 20
183.36258534365044
 10
603.389864412205
 20
185.57032316795627
 10
602.2992863512129
 20
187.52790168411468
 10
601.1595503475716
 20
189.2844788347747
 10
599.9406154363289
 20
190.88921256258536
 10
598.6124406525328
 20
192.39126081019572
 10
597.144985031231
 20
193.8397815202549
 10
595.5082076074714
 20
195.28393263541193
 10
593.6720674163016
 20
196.77287209831587
 10
591.6065234927696
 20
198.35575785161586
 10
589.281534871923
 20
200.08174783796085
 10
586.6670605888096
 20
202.0
 10
589.7179481627741
 20
202.0655439235321
 10
592.4120310030107
 20
202.24032771961765
 10
594.7883623639575
 20
202.49157942649063
 10
596.8859955000521
 20
202.78652708238508
 10
598.7439836657327
 20
203.09239872553485
 10
600.4013801154368
 20
203.3764223941739
 10
601.8972381036025
 20
203.60582612653616
 10
603.2706108846676
 20
203.74783796085572
 10
604.5605517130699
 20
203.7696859353664
 10
605.8061138432474
 20
203.63859808830222
 10
607.046350529638
 20
203.32180245789715
 10
608.3203150266794
 20
202.78652708238508
 10
609.6670605888096
 20
202.0
 10
611.6670605888096
 20
214.0
 10
610.5437105660512
 20
217.09895311788804
 10
609.4613254955005
 20
219.82949476558943
 10
608.389864412205
 20
222.24214838416017
 10
607.2992863512129
 20
224.38743741465632
 10
606.1595503475716
 20
226.31588529813385
 10
604.9406154363289
 20
228.0780154756486
 10
603.6124406525329
 20
229.72435138825674
 10
602.144985031231
 20
231.30541647701415
 10
600.5082076074714
 20
232.87173418297678
 10
598.6720674163016
 20
234.4738279472007
 10
596.6065234927696
 20
236.1622212107419
 10
594.281534871923
 20
237.98743741465634
 10
591.6670605888096
 20
240.0
 10
594.7978753361924
 20
239.82576240327725
 10
597.5703833015998
 20
239.76527082385073
 10
600.023910839151
 20
239.78493400091028
 10
602.1977843029651
 20
239.85116067364586
 10
604.1313300471619
 20
239.9303595812472
 10
605.8638744258601
 20
239.98893946290397
 10
607.4347437931792
 20
239.9933090578061
 10
608.8832645032384
 20
239.90987710514338
 10
610.2487629101569
 20
239.70505234410558
 10
611.570565368054
 20
239.34524351388256
 10
612.887998231049
 20
238.79685935366408
 10
614.2403878532612
 20
238.02630860263997
 10
615.6670605888096
 20
237.0
 10
618.6670605888096
 20
249.0
 10
618.136336874654
 20
254.5908056440601
 10
617.6307383311855
 20
259.5086936731907
 10
617.1185853953639
 20
263.8334091943559
 10
616.5681985041488
 20
267.64469731451976
 10
615.9478980944991
 20
271.02230314064633
 10
615.2260046033749
 20
274.0459717796996
 10
614.3708384677354
 20
276.7954483386436
 10
613.3507201245402
 20
279.35047792444243
 10
612.1339700107486
 20
281.7908056440601
 10
610.6889085633203
 20
284.19617660446056
 10
608.9838562192147
 20
286.6463359126081
 10
606.9871334153913
 20
289.2210286754665
 10
604.6670605888096
 20
292.0
 10
608.2774383767023
 20
290.3071461083296
 10
611.5204970931337
 20
288.75657715066
 10
614.4372016903116
 20
287.3095129722348
 10
617.0685171204436
 20
285.9271734182977
 10
619.4554083357373
 20
284.570778334092
 10
621.6388402883999
 20
283.2015475648612
 10
623.6597779306394
 20
281.7807009558489
 10
625.559186214663
 20
280.2694583522986
 10
627.3780300926785
 20
278.6290395994538
 10
629.1572745168933
 20
276.820664542558
 10
630.9378844395151
 20
274.8055530268548
 10
632.7608248127513
 20
272.5449248975876
 10
634.6670605888096
 20
270.0
 10
638.6670605888096
 20
279.0
 10
639.5304197148907
 20
281.73145197997275
 10
640.2626909939074
 20
284.1829767865271
 10
640.8463960462515
 20
286.3941738734638
 10
641.2640564923144
 20
288.4046426945835
 10
641.4981939524873
 20
290.25398270368686
 10
641.5313300471619
 20
291.98179335457445
 10
641.3459863967295
 20
293.62767410104686
 10
640.9246846215816
 20
295.23122439690485
 10
640.2499463421095
 20
296.832043695949
 10
639.3042931787049
 20
298.46973145197995
 10
638.0702467517591
 20
300.18388711879834
 10
636.5303286816635
 20
302.01411015020483
 10
634.6670605888096
 20
304.0
 10
637.2383851222644
 20
302.78670914883935
 10
639.4619172114769
 20
301.7066909421939
 10
641.3750715127968
 20
300.72280382339545
 10
643.0152626825737
 20
299.79790623577605
 10
644.4199053771574
 20
298.8948566226673
 10
645.626414252897
 20
297.976513427401
 10
646.6722039661422
 20
297.00573509330906
 10
647.594689173243
 20
295.9453800637233
 10
648.4312845305483
 20
294.7583067819754
 10
649.2194046944081
 20
293.4073736913973
 10
649.996464321172
 20
291.8554392353209
 10
650.7998780671892
 20
290.06536185707785
 10
651.6670605888096
 20
288.0
 10
653.2030278272373
 20
287.8876506327415
 10
654.7144238864498
 20
287.74428518680145
 10
656.2016515726636
 20
287.57010506528815
 10
657.6651136920958
 20
287.3653116713101
 10
659.1052130509627
 20
287.13010640797563
 10
660.5223524554807
 20
286.8646906783928
 10
661.9169347118668
 20
286.5692658856702
 10
663.2893626263377
 20
286.244033432916
 10
664.6400390051099
 20
285.8891947232386
 10
665.9693666543999
 20
285.50495115974627
 10
667.2777483804246
 20
285.0915041455473
 10
668.5655869894003
 20
284.6490550837501
 10
669.8332852875442
 20
284.17780537746296
 10
671.0812460810723
 20
283.67795642979416
 10
672.3098721762017
 20
283.1497096438522
 10
673.519566379149
 20
282.5932664227451
 10
674.7107314961306
 20
282.0088281695814
 10
675.8837703333633
 20
281.3965962874693
 10
677.0390856970637
 20
280.75677217951727
 10
678.1770803934486
 20
280.08955724883356
 10
679.2981572287345
 20
279.39515289852636
 10
680.4027190091379
 20
278.6737605317042
 10
681.4911685408756
 20
277.92558155147526
 10
682.5639086301644
 20
277.15081736094794
 10
683.6213420832207
 20
276.34966936323053
 10
684.6638717062611
 20
275.5223389614313
 10
685.6919003055025
 20
274.6690275586586
 10
686.7058306871614
 20
273.7899365580208
 10
687.7060656574545
 20
272.88526736262634
 10
688.6930080225984
 20
271.9552213755832
 10
689.6670605888096
 20
271.0
 10
691.3902655836067
 20
270.0322244973314
 10
693.0760096002559
 20
269.06424759155453
 10
694.7242926387576
 20
268.0958678795609
 10
696.3351146991114
 20
267.12688395824244
 10
697.9084757813175
 20
266.15709442449065
 10
699.4443758853756
 20
265.1862978751971
 10
700.9428150112863
 20
264.2142929072539
 10
702.403793159049
 20
263.24087811755226
 10
703.827310328664
 20
262.2658521029841
 10
705.2133665201312
 20
261.28901346044114
 10
706.5619617334506
 20
260.3101607868148
 10
707.8730959686222
 20
259.32909267899703
 10
709.1467692256463
 20
258.3456077338793
 10
710.3829815045224
 20
257.35950454835347
 10
711.5817328052508
 20
256.3705817193112
 10
712.7430231278315
 20
255.37863784364404
 10
713.8668524722643
 20
254.3834715182438
 10
714.9532208385494
 20
253.38488134000204
 10
716.0021282266868
 20
252.38266590581046
 10
717.0135746366764
 20
251.37662381256084
 10
717.9875600685182
 20
250.36655365714478
 10
718.9240845222123
 20
249.35225403645396
 10
719.8231479977586
 20
248.33352354738008
 10
720.6847504951571
 20
247.31016078681483
 10
721.5088920144079
 20
246.28196435164983
 10
722.295572555511
 20
245.24873283877685
 10
723.0447921184661
 20
244.21026484508744
 10
723.7565507032737
 20
243.1663589674734
 10
724.4308483099335
 20
242.11681380282636
 10
725.0676849384454
 20
241.061427948038
 10
725.6670605888096
 20
240.0
 10
726.2074922628051
 20
239.03571548454232
 10
726.6689739183387
 20
238.07968849652582
 10
727.0537209896017
 20
237.13393306703367
 10
727.363948910786
 20
236.20046322714913
 10
727.601873116083
 20
235.28129300795544
 10
727.7697090396839
 20
234.37843644053572
 10
727.8696721157808
 20
233.49390755597327
 10
727.9039777785649
 20
232.62972038535128
 10
727.8748414622278
 20
231.78788895975293
 10
727.7844786009609
 20
230.97042731026153
 10
727.635104628956
 20
230.17934946796012
 10
727.4289349804044
 20
229.41666946393207
 10
727.1681850894977
 20
228.6844013292605
 10
726.8550703904275
 20
227.9845590950287
 10
726.4918063173853
 20
227.31915679231983
 10
726.0806083045627
 20
226.6902084522171
 10
725.6236917861511
 20
226.09972810580376
 10
725.1232721963421
 20
225.54972978416302
 10
724.5815649693271
 20
225.042227518378
 10
724.000785539298
 20
224.57923533953206
 10
723.3831493404459
 20
224.16276727870832
 10
722.7308718069628
 20
223.79483736699
 10
722.0461683730398
 20
223.47745963546038
 10
721.3312544728685
 20
223.21264811520257
 10
720.5883455406407
 20
223.00241683729985
 10
719.8196570105476
 20
222.84877983283542
 10
719.027404316781
 20
222.7537511328925
 10
718.2138028935325
 20
222.71934476855424
 10
717.3810681749933
 20
222.74757477090395
 10
716.5314155953552
 20
222.84045517102481
 10
715.6670605888096
 20
223.0
 10
714.6993857876951
 20
223.2872008324662
 10
713.7321137927975
 20
223.56815816857443
 10
712.7656474103328
 20
223.8428720083246
 10
711.8003894465182
 20
224.111342351717
 10
710.8367427075704
 20
224.3735691987513
 10
709.8751099997055
 20
224.62955254942764
 10
708.9158941291405
 20
224.87929240374606
 10
707.9594979020922
 20
225.12278876170657
 10
707.0063241247768
 20
225.36004162330903
 10
706.0567756034113
 20
225.59105098855366
 10
705.1112551442122
 20
225.81581685744015
 10
704.1701655533961
 20
226.0343392299688
 10
703.23390963718
 20
226.24661810613944
 10
702.3028902017799
 20
226.4526534859521
 10
701.3775100534131
 20
226.65244536940685
 10
700.4581719982957
 20
226.84599375650365
 10
699.5452788426446
 20
227.03329864724245
 10
698.6392333926765
 20
227.2143600416233
 10
697.740438454608
 20
227.38917793964617
 10
696.8492968346557
 20
227.55775234131113
 10
695.9662113390361
 20
227.72008324661812
 10
695.0915847739661
 20
227.87617065556714
 10
694.2258199456624
 20
228.0260145681582
 10
693.3693196603413
 20
228.16961498439127
 10
692.5224867242196
 20
228.3069719042664
 10
691.6857239435141
 20
228.43808532778354
 10
690.8594341244411
 20
228.56295525494278
 10
690.0440200732177
 20
228.681581685744
 10
689.2398845960602
 20
228.79396462018732
 10
688.4474304991852
 20
228.90010405827266
 10
687.6670605888096
 20
229.0
 10
684.3259097079155
 20
222.31769823821173
 10
685.2326340841605
 20
221.6040414890403
 10
686.5934477527181
 20
220.51169816387502
 10
687.9365379477434
 20
219.41210432681007
 10
689.2615018630199
 20
218.3056627840623
 10
690.5679366923307
 20
217.19277634184823
 10
691.8554396294594
 20
216.07384780638446
 10
693.1236078681893
 20
214.94927998388772
 10
694.3720386023035
 20
213.81947568057464
 10
695.6003290255858
 20
212.68483770266187
 10
696.8080763318192
 20
211.545768856366
 10
697.9948777147872
 20
210.40267194790374
 10
699.1603303682732
 20
209.25594978349167
 10
700.3040314860605
 20
208.10600516934645
 10
701.4255782619323
 20
206.95324091168476
 10
702.5245678896722
 20
205.79805981672317
 10
703.6005975630635
 20
204.6408646906784
 10
704.6532644758895
 20
203.48205833976704
 10
705.6821658219337
 20
202.32204357020578
 10
706.6868987949792
 20
201.1612231882112
 10
707.6670605888096
 20
200.0
 10
708.3041657547993
 20
199.12641401765637
 10
708.8617166930021
 20
198.24960558557956
 10
709.3413246282846
 20
197.3725957503944
 10
709.7446007855133
 20
196.4984055587258
 10
710.0731563895548
 20
195.63005605719852
 10
710.3286026652755
 20
194.7705682924373
 10
710.5125508375424
 20
193.92296331106706
 10
710.6266121312217
 20
193.0902621597127
 10
710.6723977711802
 20
192.27548588499883
 10
710.6515189822842
 20
191.48165553355042
 10
710.5655869894003
 20
190.71179215199223
 10
710.4162130173954
 20
189.96891678694908
 10
710.2050082911358
 20
189.25605048504582
 10
709.9335840354881
 20
188.5762142929072
 10
709.6035514753189
 20
187.9324292571582
 10
709.2165218354949
 20
187.32771642442347
 10
708.7741063408823
 20
186.7650968413279
 10
708.2779162163481
 20
186.24759155449632
 10
707.7295626867585
 20
185.77822161055352
 10
707.1306569769806
 20
185.36000805612434
 10
706.4828103118803
 20
184.99597193783356
 10
705.7876339163246
 20
184.68913430230606
 10
705.04673901518
 20
184.44251619616665
 10
704.261736833313
 20
184.2591386660401
 10
703.4342385955902
 20
184.14202275855126
 10
702.5658555268782
 20
184.09418952032493
 10
701.6581988520435
 20
184.11865999798596
 10
700.7128797959526
 20
184.21845523815915
 10
699.7315095834724
 20
184.39659628746938
 10
698.7156994394692
 20
184.6561041925414
 10
697.6670605888096
 20
185.0
 10
688.6670605888096
 20
175.0
 10
684.6670605888096
 20
186.0
 10
683.4214494982118
 20
186.3808868450203
 10
682.2006109899374
 20
186.74948810043307
 10
681.0043436608782
 20
187.10600516934642
 10
679.8324461079262
 20
187.4506394548689
 10
678.6847169279724
 20
187.78359236010877
 10
677.560954717909
 20
188.10506528817425
 10
676.4609580746273
 20
188.4152596421738
 10
675.3845255950196
 20
188.71437682521568
 10
674.3314558759769
 20
189.00261824040814
 10
673.3015475143912
 20
189.2801852908597
 10
672.294599107154
 20
189.5472793796784
 10
671.3104092511574
 20
189.80410190997281
 10
670.3487765432925
 20
190.0508542848511
 10
669.4094995804513
 20
190.28773790742167
 10
668.4923769595256
 20
190.51495418079287
 10
667.5972072774068
 20
190.7327045080729
 10
666.7237891309867
 20
190.94119029237018
 10
665.8719211171571
 20
191.14061293679296
 10
665.0414018328095
 20
191.33117384444964
 10
664.2320298748356
 20
191.51307441844853
 10
663.4436038401271
 20
191.6865160618979
 10
662.6759223255758
 20
191.85170017790608
 10
661.9287839280731
 20
192.00882816958142
 10
661.201987244511
 20
192.15810144003223
 10
660.495330871781
 20
192.29972139236685
 10
659.8086134067747
 20
192.43388942969352
 10
659.141633446384
 20
192.56080695512068
 10
658.4941895875004
 20
192.68067537175656
 10
657.8660804270157
 20
192.79369608270954
 10
657.2571045618215
 20
192.90007049108792
 10
656.6670605888096
 20
193.0
 10
654.9408345473878
 20
191.3453056292169
 10
653.2464301970806
 20
189.67087375381828
 10
651.584451747213
 20
187.97569735826252
 10
649.9555034071104
 20
186.25876942700816
 10
648.3601893860973
 20
184.51908294451349
 10
646.7991138934989
 20
182.75563089523678
 10
645.2728811386401
 20
180.96740626363666
 10
643.7820953308458
 20
179.1534020341714
 10
642.327360679441
 20
177.31261119129937
 10
640.9092813937507
 20
175.44402671947907
 10
639.5284616830997
 20
173.54664160316875
 10
638.1855057568134
 20
171.6194488268269
 10
636.8810178242162
 20
169.66144137491187
 10
635.6156020946335
 20
167.67161223188205
 10
634.3898627773901
 20
165.64895438219597
 10
633.2044040818109
 20
163.59246081031185
 10
632.0598302172209
 20
161.50112450068812
 10
630.9567453929451
 20
159.3739384377832
 10
629.8957538183084
 20
157.2098956060555
 10
628.8774597026359
 20
155.0079889899634
 10
627.9024672552525
 20
152.7672115739653
 10
626.9713806854832
 20
150.48655634251958
 10
626.0848042026528
 20
148.1650162800846
 10
625.2433420160863
 20
145.8015843711188
 10
624.4475983351089
 20
143.39525360008057
 10
623.6981773690452
 20
140.9450169514283
 10
622.9956833272206
 20
138.44986740962037
 10
622.3407204189596
 20
135.90879795911516
 10
621.7338928535876
 20
133.32080158437114
 10
621.1758048404292
 20
130.6848712698466
 10
620.6670605888096
 20
128.0
 10
619.7994159981614
 20
122.6489879493807
 10
618.9392233225211
 20
117.4333187875533
 10
618.0876909805386
 20
112.35097848343457
 10
617.2460273908639
 20
107.3999530059414
 10
616.4154409721468
 20
102.57822832399047
 10
615.5971401430372
 20
97.88379040649859
 10
614.7923333221854
 20
93.31462522238259
 10
614.002228928241
 20
88.86871874055923
 10
613.2280353798538
 20
84.5440569299453
 10
612.470961095674
 20
80.33862575945757
 10
611.7322144943515
 20
76.25041119801283
 10
611.0130039945362
 20
72.27739921452788
 10
610.3145380148778
 20
68.41757577791951
 10
609.6380249740266
 20
64.6689268571045
 10
608.9846732906324
 20
61.02943842099963
 10
608.3556913833448
 20
57.497096438521694
 10
607.7522876708142
 20
54.06988687858749
 10
607.1756705716903
 20
50.7457957101138
 10
606.6270485046231
 20
47.522808902017374
 10
606.1076298882624
 20
44.39891242321507
 10
605.6186231412582
 20
41.372092242623616
 10
605.1612366822606
 20
38.44033432915981
 10
604.7366789299193
 20
35.60162465174046
 10
604.3461583028843
 20
32.85394917928234
 10
603.9908832198055
 20
30.19529388070223
 10
603.672062099333
 20
27.62364472491693
 10
603.3909033601165
 20
25.136987680843205
 10
603.1486154208058
 20
22.733308717397872
 10
602.9464067000513
 20
20.410593803497704
 10
602.7854856165025
 20
18.16682890805948
 10
602.6670605888096
 20
16.0
 10
603.6670605888096
 20
12.0
 10
482.6670605888096
 20
12.0
 10
482.6670605888096
 20
0.0
 10
444.6670605888096
 20
0.0
 10
444.6670605888096
 20
12.0
 10
342.6670605888096
 20
12.0
 10
342.6670605888096
 20
0.0
 10
304.6670605888096
 20
0.0
 10
304.6670605888096
 20
12.0
 10
202.6670605888096
 20
12.0
 10
202.6670605888096
 20
0.0
 10
164.6670605888096
 20
0.0
 10
164.6670605888096
 20
12.0
 10
43.66706058880959
 20
12.0
 10
51.66706058880959
 20
16.0
  0
LWPOLYLINE
  5
8D
330
17
100
AcDbEntity
  8
CUT
100
AcDbPolyline
 90
97
 70
1
 10
137.31900159394152
 20
30.138672381506534
 10
137.16218999705833
 20
30.267364333224535
 10
136.99729728949205
 20
30.385524776459594
 10
136.8250295671313
 20
30.492647730053463
 10
136.6461245068102
 20
30.58827447707304
 10
136.46134820746306
 20
30.67199552910669
 10
136.2714919095711
 20
30.74345237975653
 10
136.0773686069491
 20
30.802339039817817
 10
135.8798095653813
 20
30.84840334757172
 10
135.67966076301346
 20
30.881448048580516
 10
135.47777926774475
 20
30.901331640361374
 10
135.2750295671313
 20
30.907968978321705
 10
135.07227986651785
 20
30.901331640361374
 10
134.87039837124914
 20
30.881448048580516
 10
134.6702495688813
 20
30.84840334757172
 10
134.4726905273135
 20
30.802339039817817
 10
134.2785672246915
 20
30.74345237975653
 10
134.0887109267995
 20
30.67199552910669
 10
133.9039346274524
 20
30.588274477073035
 10
133.7250295671313
 20
30.492647730053463
 10
133.55276184477052
 20
30.385524776459594
 10
133.38786913720426
 20
30.26736433322453
 10
133.23105754032107
 20
30.138672381506534
 10
133.082998545453
 20
30.0
 10
132.94432616394647
 20
29.851941005131916
 10
132.81563421222847
 20
29.695129408248736
 10
132.6974737689934
 20
29.53023670068247
 10
132.59035081539955
 20
29.357968978321704
 10
132.49472406837995
 20
29.179063918000608
 10
132.4110030163463
 20
28.99428761865348
 10
132.33954616569648
 20
28.804431320761502
 10
132.28065950563519
 20
28.610308018139516
 10
132.23459519788128
 20
28.4127489765717
 10
132.2015504968725
 20
28.212600174203864
 10
132.18166690509162
 20
28.010718678935145
 10
132.1750295671313
 20
27.807968978321703
 10
132.18166690509162
 20
27.605219277708258
 10
132.2015504968725
 20
27.403337782439543
 10
132.23459519788128
 20
27.203188980071705
 10
132.28065950563519
 20
27.005629938503887
 10
132.33954616569648
 20
26.8115066358819
 10
132.4110030163463
 20
26.621650337989927
 10
132.49472406837995
 20
26.4368740386428
 10
132.59035081539955
 20
26.257968978321703
 10
132.6974737689934
 20
26.085701255960934
 10
132.81563421222847
 20
25.920808548394668
 10
132.94432616394647
 20
25.76399695151149
 10
133.082998545453
 20
25.615937956643407
 10
133.23105754032107
 20
25.477265575136872
 10
133.38786913720426
 20
25.348573623418872
 10
133.55276184477054
 20
25.230413180183813
 10
133.7250295671313
 20
25.123290226589944
 10
133.9039346274524
 20
25.02766347957037
 10
134.0887109267995
 20
24.943942427536715
 10
134.2785672246915
 20
24.872485576886877
 10
134.4726905273135
 20
24.81359891682559
 10
134.6702495688813
 20
24.76753460907169
 10
134.87039837124914
 20
24.73448990806289
 10
135.07227986651785
 20
24.714606316282033
 10
135.2750295671313
 20
24.707968978321702
 10
135.47777926774475
 20
24.714606316282033
 10
135.67966076301346
 20
24.73448990806289
 10
135.8798095653813
 20
24.76753460907169
 10
136.0773686069491
 20
24.81359891682559
 10
136.2714919095711
 20
24.872485576886877
 10
136.4613482074631
 20
24.943942427536715
 10
136.6461245068102
 20
25.02766347957037
 10
136.8250295671313
 20
25.123290226589944
 10
136.99729728949205
 20
25.230413180183813
 10
137.16218999705833
 20
25.348573623418876
 10
137.31900159394152
 20
25.477265575136872
 10
137.4670605888096
 20
25.615937956643407
 10
137.60573297031613
 20
25.76399695151149
 10
137.73442492203412
 20
25.92080854839467
 10
137.8525853652692
 20
26.085701255960938
 10
137.95970831886305
 20
26.257968978321703
 10
138.05533506588264
 20
26.4368740386428
 10
138.13905611791628
 20
26.621650337989927
 10
138.21051296856612
 20
26.8115066358819
 10
138.2693996286274
 20
27.00562993850389
 10
138.31546393638132
 20
27.203188980071705
 10
138.3485086373901
 20
27.403337782439543
 10
138.36839222917098
 20
27.60521927770826
 10
138.3750295671313
 20
27.807968978321703
 10
138.36839222917098
 20
28.01071867893515
 10
138.3485086373901
 20
28.212600174203867
 10
138.31546393638132
 20
28.412748976571702
 10
138.2693996286274
 20
28.61030801813952
 10
138.21051296856612
 20
28.804431320761505
 10
138.13905611791628
 20
28.994287618653484
 10
138.05533506588264
 20
29.17906391800061
 10
137.95970831886305
 20
29.357968978321704
 10
137.8525853652692
 20
29.530236700682472
 10
137.73442492203412
 20
29.69512940824874
 10
137.60573297031613
 20
29.85194100513192
 10
137.4670605888096
 20
30.0
 10
137.31900159394152
 20
30.138672381506534
  0
LWPOLYLINE
  5
8E
330
17
100
AcDbEntity
  8
CUT
100
AcDbPolyline
 90
97
 70
1
 10
149.72838820730306
 20
29.851941005131916
 10
149.59969625558506
 20
29.695129408248736
 10
149.48153581235
 20
29.53023670068247
 10
149.37441285875613
 20
29.357968978321704
 10
149.27878611173654
 20
29.179063918000608
 10
149.1950650597029
 20
28.99428761865348
 10
149.12360820905306
 20
28.804431320761502
 10
149.06472154899177
 20
28.610308018139516
 10
149.01865724123786
 20
28.4127489765717
 10
148.98561254022908
 20
28.212600174203864
 10
148.9657289484482
 20
28.010718678935145
 10
148.9590916104879
 20
27.807968978321703
 10
148.9657289484482
 20
27.605219277708258
 10
148.98561254022908
 20
27.403337782439543
 10
149.01865724123786
 20
27.203188980071705
 10
149.06472154899177
 20
27.005629938503887
 10
149.12360820905306
 20
26.8115066358819
 10
149.1950650597029
 20
26.621650337989927
 10
149.27878611173654
 20
26.4368740386428
 10
149.37441285875613
 20
26.257968978321703
 10
149.48153581235
 20
26.085701255960934
 10
149.59969625558506
 20
25.920808548394668
 10
149.72838820730306
 20
25.76399695151149
 10
149.86706058880958
 20
25.615937956643407
 10
150.01511958367766
 20
25.477265575136872
 10
150.17193118056085
 20
25.348573623418872
 10
150.33682388812713
 20
25.230413180183813
 10
150.50909161048787
 20
25.123290226589944
 10
150.68799667080899
 20
25.02766347957037
 10
150.8727729701561
 20
24.943942427536715
 10
151.06262926804808
 20
24.872485576886877
 10
151.25675257067007
 20
24.81359891682559
 10
151.4543116122379
 20
24.76753460907169
 10
151.65446041460572
 20
24.73448990806289
 10
151.85634190987443
 20
24.714606316282033
 10
152.05909161048788
 20
24.707968978321702
 10
152.26184131110134
 20
24.714606316282033
 10
152.46372280637004
 20
24.73448990806289
 10
152.66387160873788
 20
24.76753460907169
 10
152.8614306503057
 20
24.81359891682559
 10
153.05555395292768
 20
24.872485576886877
 10
153.24541025081967
 20
24.943942427536715
 10
153.43018655016678
 20
25.02766347957037
 10
153.6090916104879
 20
25.123290226589944
 10
153.78135933284864
 20
25.230413180183813
 10
153.94625204041492
 20
25.348573623418876
 10
154.1030636372981
 20
25.477265575136872
 10
154.2511226321662
 20
25.615937956643407
 10
154.3897950136727
 20
25.76399695151149
 10
154.5184869653907
 20
25.92080854839467
 10
154.63664740862578
 20
26.085701255960938
 10
154.74377036221964
 20
26.257968978321703
 10
154.83939710923923
 20
26.4368740386428
 10
154.92311816127287
 20
26.621650337989927
 10
154.9945750119227
 20
26.8115066358819
 10
155.053461671984
 20
27.00562993850389
 10
155.0995259797379
 20
27.203188980071705
 10
155.13257068074668
 20
27.403337782439543
 10
155.15245427252756
 20
27.60521927770826
 10
155.15909161048788
 20
27.807968978321703
 10
155.15245427252756
 20
28.01071867893515
 10
155.13257068074668
 20
28.212600174203867
 10
155.0995259797379
 20
28.412748976571702
 10
155.053461671984
 20
28.61030801813952
 10
154.9945750119227
 20
28.804431320761505
 10
154.92311816127287
 20
28.994287618653484
 10
154.83939710923923
 20
29.17906391800061
 10
154.74377036221964
 20
29.357968978321704
 10
154.63664740862578
 20
29.530236700682472
 10
154.5184869653907
 20
29.69512940824874
 10
154.3897950136727
 20
29.85194100513192
 10
154.2511226321662
 20
30.0
 10
154.1030636372981
 20
30.138672381506534
 10
153.94625204041492
 20
30.267364333224535
 10
153.78135933284864
 20
30.385524776459594
 10
153.6090916104879
 20
30.492647730053463
 10
153.43018655016678
 20
30.58827447707304
 10
153.24541025081965
 20
30.67199552910669
 10
153.05555395292768
 20
30.74345237975653
 10
152.8614306503057
 20
30.802339039817817
 10
152.66387160873788
 20
30.84840334757172
 10
152.46372280637004
 20
30.881448048580516
 10
152.26184131110134
 20
30.901331640361374
 10
152.05909161048788
 20
30.907968978321705
 10
151.85634190987443
 20
30.901331640361374
 10
151.65446041460572
 20
30.881448048580516
 10
151.4543116122379
 20
30.84840334757172
 10
151.25675257067007
 20
30.802339039817817
 10
151.06262926804808
 20
30.74345237975653
 10
150.8727729701561
 20
30.67199552910669
 10
150.68799667080899
 20
30.588274477073035
 10
150.50909161048787
 20
30.492647730053463
 10
150.3368238881271
 20
30.385524776459594
 10
150.17193118056085
 20
30.26736433322453
 10
150.01511958367766
 20
30.138672381506534
 10
149.86706058880958
 20
30.0
 10
149.72838820730306
 20
29.851941005131916
  0
LWPOLYLINE
  5
8F
330
17
100
AcDbEntity
  8
CUT
100
AcDbPolyline
 90
97
 70
1
 10
227.3190015939415
 20
30.138672381506534
 10
227.1621899970583
 20
30.267364333224535
 10
226.99729728949205
 20
30.385524776459594
 10
226.82502956713128
 20
30.492647730053463
 10
226.64612450681017
 20
30.58827447707304
 10
226.46134820746306
 20
30.67199552910669
 10
226.27149190957107
 20
30.74345237975653
 10
226.0773686069491
 20
30.802339039817817
 10
225.87980956538127
 20
30.84840334757172
 10
225.67966076301343
 20
30.881448048580516
 10
225.47777926774472
 20
30.901331640361374
 10
225.2750295671313
 20
30.907968978321705
 10
225.07227986651785
 20
30.901331640361374
 10
224.8703983712491
 20
30.881448048580516
 10
224.67024956888127
 20
30.84840334757172
 10
224.47269052731346
 20
30.802339039817817
 10
224.27856722469147
 20
30.74345237975653
 10
224.0887109267995
 20
30.67199552910669
 10
223.90393462745237
 20
30.588274477073035
 10
223.7250295671313
 20
30.492647730053463
 10
223.55276184477052
 20
30.385524776459594
 10
223.38786913720423
 20
30.26736433322453
 10
223.23105754032107
 20
30.138672381506534
 10
223.082998545453
 20
30.0
 10
222.94432616394647
 20
29.851941005131916
 10
222.81563421222847
 20
29.695129408248736
 10
222.6974737689934
 20
29.53023670068247
 10
222.59035081539952
 20
29.357968978321704
 10
222.49472406837995
 20
29.179063918000608
 10
222.41100301634629
 20
28.99428761865348
 10
222.33954616569645
 20
28.804431320761502
 10
222.28065950563519
 20
28.610308018139516
 10
222.23459519788128
 20
28.4127489765717
 10
222.20155049687247
 20
28.212600174203864
 10
222.18166690509162
 20
28.010718678935145
 10
222.17502956713128
 20
27.807968978321703
 10
222.18166690509162
 20
27.605219277708258
 10
222.20155049687247
 20
27.403337782439543
 10
222.23459519788128
 20
27.203188980071705
 10
222.28065950563519
 20
27.005629938503887
 10
222.33954616569645
 20
26.8115066358819
 10
222.41100301634629
 20
26.621650337989927
 10
222.49472406837995
 20
26.4368740386428
 10
222.59035081539952
 20
26.257968978321703
 10
222.6974737689934
 20
26.085701255960934
 10
222.81563421222847
 20
25.920808548394668
 10
222.94432616394647
 20
25.76399695151149
 10
223.082998545453
 20
25.615937956643407
 10
223.23105754032107
 20
25.477265575136872
 10
223.38786913720423
 20
25.348573623418872
 10
223.55276184477052
 20
25.230413180183813
 10
223.7250295671313
 20
25.123290226589944
 10
223.90393462745237
 20
25.02766347957037
 10
224.0887109267995
 20
24.943942427536715
 10
224.27856722469147
 20
24.872485576886877
 10
224.4726905273135
 20
24.81359891682559
 10
224.67024956888127
 20
24.76753460907169
 10
224.8703983712491
 20
24.73448990806289
 10
225.07227986651785
 20
24.714606316282033
 10
225.2750295671313
 20
24.707968978321702
 10
225.47777926774472
 20
24.714606316282033
 10
225.67966076301343
 20
24.73448990806289
 10
225.87980956538127
 20
24.76753460907169
 10
226.0773686069491
 20
24.81359891682559
 10
226.27149190957107
 20
24.872485576886877
 10
226.46134820746306
 20
24.943942427536715
 10
226.64612450681017
 20
25.02766347957037
 10
226.82502956713128
 20
25.123290226589944
 10
226.99729728949205
 20
25.230413180183813
 10
227.1621899970583
 20
25.348573623418876
 10
227.3190015939415
 20
25.477265575136872
 10
227.4670605888096
 20
25.615937956643407
 10
227.60573297031613
 20
25.76399695151149
 10
227.73442492203412
 20
25.92080854839467
 10
227.8525853652692
 20
26.085701255960938
 10
227.95970831886305
 20
26.257968978321703
 10
228.05533506588262
 20
26.4368740386428
 10
228.13905611791625
 20
26.621650337989927
 10
228.2105129685661
 20
26.8115066358819
 10
228.2693996286274
 20
27.00562993850389
 10
228.3154639363813
 20
27.203188980071705
 10
228.3485086373901
 20
27.403337782439543
 10
228.36839222917095
 20
27.60521927770826
 10
228.37502956713126
 20
27.807968978321703
 10
228.36839222917095
 20
28.01071867893515
 10
228.3485086373901
 20
28.212600174203867
 10
228.3154639363813
 20
28.412748976571702
 10
228.2693996286274
 20
28.61030801813952
 10
228.2105129685661
 20
28.804431320761505
 10
228.13905611791625
 20
28.994287618653484
 10
228.05533506588262
 20
29.17906391800061
 10
227.95970831886302
 20
29.357968978321704
 10
227.8525853652692
 20
29.530236700682472
 10
227.73442492203412
 20
29.69512940824874
 10
227.60573297031613
 20
29.85194100513192
 10
227.4670605888096
 20
30.0
 10
227.3190015939415
 20
30.138672381506534
  0
LWPOLYLINE
  5
90
330
17
100
AcDbEntity
  8
CUT
100
AcDbPolyline
 90
97
 70
1
 10
239.72838820730306
 20
29.851941005131916
 10
239.59969625558506
 20
29.695129408248736
 10
239.48153581235
 20
29.53023670068247
 10
239.37441285875613
 20
29.357968978321704
 10
239.27878611173657
 20
29.179063918000608
 10
239.19506505970293
 20
28.99428761865348
 10
239.1236082090531
 20
28.804431320761502
 10
239.06472154899177
 20
28.610308018139516
 10
239.0186572412379
 20
28.4127489765717
 10
238.98561254022908
 20
28.212600174203864
 10
238.96572894844823
 20
28.010718678935145
 10
238.95909161048792
 20
27.807968978321703
 10
238.96572894844823
 20
27.605219277708258
 10
238.98561254022908
 20
27.403337782439543
 10
239.0186572412379
 20
27.203188980071705
 10
239.06472154899177
 20
27.005629938503887
 10
239.1236082090531
 20
26.8115066358819
 10
239.19506505970293
 20
26.621650337989927
 10
239.27878611173657
 20
26.4368740386428
 10
239.37441285875613
 20
26.257968978321703
 10
239.48153581235
 20
26.085701255960934
 10
239.59969625558506
 20
25.920808548394668
 10
239.72838820730306
 20
25.76399695151149
 10
239.86706058880958
 20
25.615937956643407
 10
240.0151195836777
 20
25.477265575136872
 10
240.17193118056088
 20
25.348573623418872
 10
240.33682388812713
 20
25.230413180183813
 10
240.5090916104879
 20
25.123290226589944
 10
240.687996670809
 20
25.02766347957037
 10
240.87277297015612
 20
24.943942427536715
 10
241.0626292680481
 20
24.872485576886877
 10
241.25675257067007
 20
24.81359891682559
 10
241.45431161223792
 20
24.76753460907169
 10
241.65446041460575
 20
24.73448990806289
 10
241.85634190987446
 20
24.714606316282033
 10
242.05909161048788
 20
24.707968978321702
 10
242.26184131110134
 20
24.714606316282033
 10
242.46372280637007
 20
24.73448990806289
 10
242.6638716087379
 20
24.76753460907169
 10
242.8614306503057
 20
24.81359891682559
 10
243.0555539529277
 20
24.872485576886877
 10
243.24541025081967
 20
24.943942427536715
 10
243.4301865501668
 20
25.02766347957037
 10
243.6090916104879
 20
25.123290226589944
 10
243.78135933284867
 20
25.230413180183813
 10
243.94625204041495
 20
25.348573623418876
 10
244.1030636372981
 20
25.477265575136872
 10
244.2511226321662
 20
25.615937956643407
 10
244.3897950136727
 20
25.76399695151149
 10
244.5184869653907
 20
25.92080854839467
 10
244.63664740862578
 20
26.085701255960938
 10
244.74377036221966
 20
26.257968978321703
 10
244.83939710923923
 20
26.4368740386428
 10
244.9231181612729
 20
26.621650337989927
 10
244.99457501192273
 20
26.8115066358819
 10
245.053461671984
 20
27.00562993850389
 10
245.0995259797379
 20
27.203188980071705
 10
245.1325706807467
 20
27.403337782439543
 10
245.15245427252756
 20
27.60521927770826
 10
245.1590916104879
 20
27.807968978321703
 10
245.15245427252756
 20
28.01071867893515
 10
245.1325706807467
 20
28.212600174203867
 10
245.0995259797379
 20
28.412748976571702
 10
245.053461671984
 20
28.61030801813952
 10
244.99457501192273
 20
28.804431320761505
 10
244.9231181612729
 20
28.994287618653484
 10
244.83939710923923
 20
29.17906391800061
 10
244.74377036221966
 20
29.357968978321704
 10
244.63664740862578
 20
29.530236700682472
 10
244.5184869653907
 20
29.69512940824874
 10
244.3897950136727
 20
29.85194100513192
 10
244.2511226321662
 20
30.0
 10
244.1030636372981
 20
30.138672381506534
 10
243.94625204041495
 20
30.267364333224535
 10
243.78135933284867
 20
30.385524776459594
 10
243.6090916104879
 20
30.492647730053463
 10
243.4301865501668
 20
30.58827447707304
 10
243.24541025081967
 20
30.67199552910669
 10
243.0555539529277
 20
30.74345237975653
 10
242.8614306503057
 20
30.802339039817817
 10
242.6638716087379
 20
30.84840334757172
 10
242.46372280637007
 20
30.881448048580516
 10
242.26184131110134
 20
30.901331640361374
 10
242.05909161048788
 20
30.907968978321705
 10
241.85634190987446
 20
30.901331640361374
 10
241.65446041460575
 20
30.881448048580516
 10
241.45431161223792
 20
30.84840334757172
 10
241.25675257067007
 20
30.802339039817817
 10
241.0626292680481
 20
30.74345237975653
 10
240.87277297015612
 20
30.67199552910669
 10
240.687996670809
 20
30.588274477073035
 10
240.5090916104879
 20
30.492647730053463
 10
240.33682388812713
 20
30.385524776459594
 10
240.17193118056088
 20
30.26736433322453
 10
240.0151195836777
 20
30.138672381506534
 10
239.86706058880958
 20
30.0
 10
239.72838820730306
 20
29.851941005131916
  0
LWPOLYLINE
  5
91
330
17
100
AcDbEntity
  8
CUT
100
AcDbPolyline
 90
97
 70
1
 10
407.3190015939415
 20
30.138672381506534
 10
407.1621899970583
 20
30.267364333224535
 10
406.99729728949205
 20
30.385524776459594
 10
406.8250295671313
 20
30.492647730053463
 10
406.64612450681017
 20
30.58827447707304
 10
406.46134820746306
 20
30.67199552910669
 10
406.27149190957107
 20
30.74345237975653
 10
406.0773686069491
 20
30.802339039817817
 10
405.87980956538127
 20
30.84840334757172
 10
405.67966076301343
 20
30.881448048580516
 10
405.4777792677447
 20
30.901331640361374
 10
405.2750295671313
 20
30.907968978321705
 10
405.0722798665179
 20
30.901331640361374
 10
404.8703983712491
 20
30.881448048580516
 10
404.6702495688813
 20
30.84840334757172
 10
404.4726905273135
 20
30.802339039817817
 10
404.27856722469147
 20
30.74345237975653
 10
404.08871092679954
 20
30.67199552910669
 10
403.9039346274524
 20
30.588274477073035
 10
403.7250295671313
 20
30.492647730053463
 10
403.55276184477054
 20
30.385524776459594
 10
403.38786913720423
 20
30.26736433322453
 10
403.2310575403211
 20
30.138672381506534
 10
403.082998545453
 20
30.0
 10
402.94432616394647
 20
29.851941005131916
 10
402.8156342122285
 20
29.695129408248736
 10
402.6974737689934
 20
29.53023670068247
 10
402.5903508153995
 20
29.357968978321704
 10
402.4947240683799
 20
29.179063918000608
 10
402.4110030163463
 20
28.99428761865348
 10
402.33954616569645
 20
28.804431320761502
 10
402.2806595056352
 20
28.610308018139516
 10
402.2345951978813
 20
28.4127489765717
 10
402.20155049687247
 20
28.212600174203864
 10
402.1816669050916
 20
28.010718678935145
 10
402.1750295671313
 20
27.807968978321703
 10
402.1816669050916
 20
27.605219277708258
 10
402.20155049687247
 20
27.403337782439543
 10
402.2345951978813
 20
27.203188980071705
 10
402.2806595056352
 20
27.005629938503887
 10
402.33954616569645
 20
26.8115066358819
 10
402.4110030163463
 20
26.621650337989927
 10
402.4947240683799
 20
26.4368740386428
 10
402.5903508153995
 20
26.257968978321703
 10
402.6974737689934
 20
26.085701255960934
 10
402.8156342122285
 20
25.920808548394668
 10
402.94432616394647
 20
25.76399695151149
 10
403.082998545453
 20
25.615937956643407
 10
403.2310575403211
 20
25.477265575136872
 10
403.38786913720423
 20
25.348573623418872
 10
403.55276184477054
 20
25.230413180183813
 10
403.7250295671313
 20
25.123290226589944
 10
403.9039346274524
 20
25.02766347957037
 10
404.08871092679954
 20
24.943942427536715
 10
404.27856722469147
 20
24.872485576886877
 10
404.4726905273135
 20
24.81359891682559
 10
404.6702495688813
 20
24.76753460907169
 10
404.8703983712491
 20
24.73448990806289
 10
405.0722798665179
 20
24.714606316282033
 10
405.2750295671313
 20
24.707968978321702
 10
405.4777792677447
 20
24.714606316282033
 10
405.67966076301343
 20
24.73448990806289
 10
405.87980956538127
 20
24.76753460907169
 10
406.0773686069491
 20
24.81359891682559
 10
406.27149190957107
 20
24.872485576886877
 10
406.46134820746306
 20
24.943942427536715
 10
406.64612450681017
 20
25.02766347957037
 10
406.8250295671313
 20
25.123290226589944
 10
406.99729728949205
 20
25.230413180183813
 10
407.1621899970583
 20
25.348573623418876
 10
407.3190015939415
 20
25.477265575136872
 10
407.4670605888096
 20
25.615937956643407
 10
407.6057329703161
 20
25.76399695151149
 10
407.7344249220341
 20
25.92080854839467
 10
407.8525853652692
 20
26.085701255960938
 10
407.959708318863
 20
26.257968978321703
 10
408.0553350658826
 20
26.4368740386428
 10
408.13905611791625
 20
26.621650337989927
 10
408.2105129685661
 20
26.8115066358819
 10
408.2693996286274
 20
27.00562993850389
 10
408.3154639363813
 20
27.203188980071705
 10
408.34850863739007
 20
27.403337782439543
 10
408.3683922291709
 20
27.60521927770826
 10
408.37502956713126
 20
27.807968978321703
 10
408.3683922291709
 20
28.01071867893515
 10
408.34850863739007
 20
28.212600174203867
 10
408.3154639363813
 20
28.412748976571702
 10
408.2693996286274
 20
28.61030801813952
 10
408.2105129685661
 20
28.804431320761505
 10
408.13905611791625
 20
28.994287618653484
 10
408.0553350658826
 20
29.17906391800061
 10
407.959708318863
 20
29.357968978321704
 10
407.8525853652692
 20
29.530236700682472
 10
407.7344249220341
 20
29.69512940824874
 10
407.6057329703161
 20
29.85194100513192
 10
407.4670605888096
 20
30.0
 10
407.3190015939415
 20
30.138672381506534
  0
LWPOLYLINE
  5
92
330
17
100
AcDbEntity
  8
CUT
100
AcDbPolyline
 90
97
 70
1
 10
419.72838820730306
 20
29.851941005131916
 10
419.59969625558506
 20
29.695129408248736
 10
419.48153581235
 20
29.53023670068247
 10
419.37441285875616
 20
29.357968978321704
 10
419.27878611173657
 20
29.179063918000608
 10
419.1950650597029
 20
28.99428761865348
 10
419.1236082090531
 20
28.804431320761502
 10
419.06472154899177
 20
28.610308018139516
 10
419.01865724123786
 20
28.4127489765717
 10
418.9856125402291
 20
28.212600174203864
 10
418.96572894844826
 20
28.010718678935145
 10
418.9590916104879
 20
27.807968978321703
 10
418.96572894844826
 20
27.605219277708258
 10
418.9856125402291
 20
27.403337782439543
 10
419.01865724123786
 20
27.203188980071705
 10
419.06472154899177
 20
27.005629938503887
 10
419.1236082090531
 20
26.8115066358819
 10
419.1950650597029
 20
26.621650337989927
 10
419.27878611173657
 20
26.4368740386428
 10
419.37441285875616
 20
26.257968978321703
 10
419.48153581235
 20
26.085701255960934
 10
419.59969625558506
 20
25.920808548394668
 10
419.72838820730306
 20
25.76399695151149
 10
419.8670605888096
 20
25.615937956643407
 10
420.0151195836777
 20
25.477265575136872
 10
420.1719311805609
 20
25.348573623418872
 10
420.3368238881271
 20
25.230413180183813
 10
420.50909161048787
 20
25.123290226589944
 10
420.687996670809
 20
25.02766347957037
 10
420.8727729701561
 20
24.943942427536715
 10
421.0626292680481
 20
24.872485576886877
 10
421.2567525706701
 20
24.81359891682559
 10
421.4543116122379
 20
24.76753460907169
 10
421.65446041460575
 20
24.73448990806289
 10
421.85634190987446
 20
24.714606316282033
 10
422.0590916104879
 20
24.707968978321702
 10
422.2618413111013
 20
24.714606316282033
 10
422.4637228063701
 20
24.73448990806289
 10
422.6638716087379
 20
24.76753460907169
 10
422.8614306503057
 20
24.81359891682559
 10
423.0555539529277
 20
24.872485576886877
 10
423.24541025081965
 20
24.943942427536715
 10
423.4301865501668
 20
25.02766347957037
 10
423.6090916104879
 20
25.123290226589944
 10
423.78135933284864
 20
25.230413180183813
 10
423.94625204041495
 20
25.348573623418876
 10
424.1030636372981
 20
25.477265575136872
 10
424.2511226321662
 20
25.615937956643407
 10
424.3897950136727
 20
25.76399695151149
 10
424.5184869653907
 20
25.92080854839467
 10
424.6366474086258
 20
26.085701255960938
 10
424.74377036221966
 20
26.257968978321703
 10
424.83939710923926
 20
26.4368740386428
 10
424.9231181612729
 20
26.621650337989927
 10
424.99457501192273
 20
26.8115066358819
 10
425.053461671984
 20
27.00562993850389
 10
425.0995259797379
 20
27.203188980071705
 10
425.1325706807467
 20
27.403337782439543
 10
425.15245427252756
 20
27.60521927770826
 10
425.1590916104879
 20
27.807968978321703
 10
425.15245427252756
 20
28.01071867893515
 10
425.1325706807467
 20
28.212600174203867
 10
425.0995259797379
 20
28.412748976571702
 10
425.053461671984
 20
28.61030801813952
 10
424.99457501192273
 20
28.804431320761505
 10
424.9231181612729
 20
28.994287618653484
 10
424.83939710923926
 20
29.17906391800061
 10
424.74377036221966
 20
29.357968978321704
 10
424.6366474086258
 20
29.530236700682472
 10
424.5184869653907
 20
29.69512940824874
 10
424.3897950136727
 20
29.85194100513192
 10
424.2511226321662
 20
30.0
 10
424.1030636372981
 20
30.138672381506534
 10
423.94625204041495
 20
30.267364333224535
 10
423.78135933284864
 20
30.385524776459594
 10
423.6090916104879
 20
30.492647730053463
 10
423.4301865501668
 20
30.58827447707304
 10
423.24541025081965
 20
30.67199552910669
 10
423.0555539529277
 20
30.74345237975653
 10
422.8614306503057
 20
30.802339039817817
 10
422.6638716087379
 20
30.84840334757172
 10
422.4637228063701
 20
30.881448048580516
 10
422.2618413111013
 20
30.901331640361374
 10
422.0590916104879
 20
30.907968978321705
 10
421.85634190987446
 20
30.901331640361374
 10
421.65446041460575
 20
30.881448048580516
 10
421.4543116122379
 20
30.84840334757172
 10
421.2567525706701
 20
30.802339039817817
 10
421.0626292680481
 20
30.74345237975653
 10
420.8727729701561
 20
30.67199552910669
 10
420.687996670809
 20
30.588274477073035
 10
420.50909161048787
 20
30.492647730053463
 10
420.3368238881271
 20
30.385524776459594
 10
420.1719311805609
 20
30.26736433322453
 10
420.0151195836777
 20
30.138672381506534
 10
419.8670605888096
 20
30.0
 10
419.72838820730306
 20
29.851941005131916
  0
LWPOLYLINE
  5
93
330
17
100
AcDbEntity
  8
CUT
100
AcDbPolyline
 90
97
 70
1
 10
497.3190015939415
 20
30.138672381506534
 10
497.16218999705836
 20
30.267364333224535
 10
496.99729728949205
 20
30.385524776459594
 10
496.8250295671313
 20
30.492647730053463
 10
496.6461245068102
 20
30.58827447707304
 10
496.46134820746306
 20
30.67199552910669
 10
496.27149190957107
 20
30.74345237975653
 10
496.0773686069491
 20
30.802339039817817
 10
495.87980956538127
 20
30.84840334757172
 10
495.67966076301343
 20
30.881448048580516
 10
495.4777792677447
 20
30.901331640361374
 10
495.2750295671313
 20
30.907968978321705
 10
495.0722798665179
 20
30.901331640361374
 10
494.87039837124917
 20
30.881448048580516
 10
494.67024956888133
 20
30.84840334757172
 10
494.4726905273135
 20
30.802339039817817
 10
494.2785672246915
 20
30.74345237975653
 10
494.08871092679954
 20
30.67199552910669
 10
493.9039346274524
 20
30.588274477073035
 10
493.7250295671313
 20
30.492647730053463
 10
493.55276184477054
 20
30.385524776459594
 10
493.38786913720423
 20
30.26736433322453
 10
493.2310575403211
 20
30.138672381506534
 10
493.082998545453
 20
30.0
 10
492.94432616394647
 20
29.851941005131916
 10
492.8156342122285
 20
29.695129408248736
 10
492.6974737689934
 20
29.53023670068247
 10
492.5903508153996
 20
29.357968978321704
 10
492.4947240683799
 20
29.179063918000608
 10
492.4110030163463
 20
28.99428761865348
 10
492.33954616569645
 20
28.804431320761502
 10
492.2806595056352
 20
28.610308018139516
 10
492.2345951978813
 20
28.4127489765717
 10
492.2015504968725
 20
28.212600174203864
 10
492.1816669050916
 20
28.010718678935145
 10
492.17502956713133
 20
27.807968978321703
 10
492.1816669050916
 20
27.605219277708258
 10
492.2015504968725
 20
27.403337782439543
 10
492.2345951978813
 20
27.203188980071705
 10
492.2806595056352
 20
27.005629938503887
 10
492.33954616569645
 20
26.8115066358819
 10
492.4110030163463
 20
26.621650337989927
 10
492.4947240683799
 20
26.4368740386428
 10
492.5903508153996
 20
26.257968978321703
 10
492.6974737689934
 20
26.085701255960934
 10
492.8156342122285
 20
25.920808548394668
 10
492.94432616394647
 20
25.76399695151149
 10
493.082998545453
 20
25.615937956643407
 10
493.2310575403211
 20
25.477265575136872
 10
493.38786913720423
 20
25.348573623418872
 10
493.55276184477054
 20
25.230413180183813
 10
493.7250295671313
 20
25.123290226589944
 10
493.9039346274524
 20
25.02766347957037
 10
494.08871092679954
 20
24.943942427536715
 10
494.2785672246915
 20
24.872485576886877
 10
494.4726905273135
 20
24.81359891682559
 10
494.67024956888133
 20
24.76753460907169
 10
494.87039837124917
 20
24.73448990806289
 10
495.0722798665179
 20
24.714606316282033
 10
495.2750295671313
 20
24.707968978321702
 10
495.4777792677447
 20
24.714606316282033
 10
495.67966076301343
 20
24.73448990806289
 10
495.87980956538127
 20
24.76753460907169
 10
496.0773686069491
 20
24.81359891682559
 10
496.27149190957107
 20
24.872485576886877
 10
496.46134820746306
 20
24.943942427536715
 10
496.6461245068102
 20
25.02766347957037
 10
496.8250295671313
 20
25.123290226589944
 10
496.99729728949205
 20
25.230413180183813
 10
497.16218999705836
 20
25.348573623418876
 10
497.3190015939415
 20
25.477265575136872
 10
497.4670605888096
 20
25.615937956643407
 10
497.6057329703161
 20
25.76399695151149
 10
497.7344249220341
 20
25.92080854839467
 10
497.8525853652692
 20
26.085701255960938
 10
497.959708318863
 20
26.257968978321703
 10
498.0553350658827
 20
26.4368740386428
 10
498.1390561179163
 20
26.621650337989927
 10
498.21051296856615
 20
26.8115066358819
 10
498.2693996286274
 20
27.00562993850389
 10
498.3154639363813
 20
27.203188980071705
 10
498.34850863739007
 20
27.403337782439543
 10
498.368392229171
 20
27.60521927770826
 10
498.37502956713126
 20
27.807968978321703
 10
498.368392229171
 20
28.01071867893515
 10
498.34850863739007
 20
28.212600174203867
 10
498.3154639363813
 20
28.412748976571702
 10
498.2693996286274
 20
28.61030801813952
 10
498.21051296856615
 20
28.804431320761505
 10
498.1390561179163
 20
28.994287618653484
 10
498.0553350658827
 20
29.17906391800061
 10
497.959708318863
 20
29.357968978321704
 10
497.8525853652692
 20
29.530236700682472
 10
497.7344249220341
 20
29.69512940824874
 10
497.6057329703161
 20
29.85194100513192
 10
497.4670605888096
 20
30.0
 10
497.3190015939415
 20
30.138672381506534
  0
LWPOLYLINE
  5
94
330
17
100
AcDbEntity
  8
CUT
100
AcDbPolyline
 90
97
 70
1
 10
509.72838820730306
 20
29.851941005131916
 10
509.59969625558506
 20
29.695129408248736
 10
509.48153581235
 20
29.53023670068247
 10
509.37441285875616
 20
29.357968978321704
 10
509.2787861117365
 20
29.179063918000608
 10
509.19506505970287
 20
28.99428761865348
 10
509.12360820905303
 20
28.804431320761502
 10
509.06472154899177
 20
28.610308018139516
 10
509.01865724123786
 20
28.4127489765717
 10
508.9856125402291
 20
28.212600174203864
 10
508.9657289484482
 20
28.010718678935145
 10
508.9590916104879
 20
27.807968978321703
 10
508.9657289484482
 20
27.605219277708258
 10
508.9856125402291
 20
27.403337782439543
 10
509.01865724123786
 20
27.203188980071705
 10
509.06472154899177
 20
27.005629938503887
 10
509.12360820905303
 20
26.8115066358819
 10
509.19506505970287
 20
26.621650337989927
 10
509.2787861117365
 20
26.4368740386428
 10
509.37441285875616
 20
26.257968978321703
 10
509.48153581235
 20
26.085701255960934
 10
509.59969625558506
 20
25.920808548394668
 10
509.72838820730306
 20
25.76399695151149
 10
509.8670605888096
 20
25.615937956643407
 10
510.0151195836777
 20
25.477265575136872
 10
510.1719311805608
 20
25.348573623418872
 10
510.3368238881271
 20
25.230413180183813
 10
510.50909161048787
 20
25.123290226589944
 10
510.68799667080896
 20
25.02766347957037
 10
510.8727729701561
 20
24.943942427536715
 10
511.0626292680481
 20
24.872485576886877
 10
511.2567525706701
 20
24.81359891682559
 10
511.4543116122379
 20
24.76753460907169
 10
511.65446041460575
 20
24.73448990806289
 10
511.85634190987446
 20
24.714606316282033
 10
512.0590916104879
 20
24.707968978321702
 10
512.2618413111013
 20
24.714606316282033
 10
512.46372280637
 20
24.73448990806289
 10
512.6638716087378
 20
24.76753460907169
 10
512.8614306503057
 20
24.81359891682559
 10
513.0555539529277
 20
24.872485576886877
 10
513.2454102508196
 20
24.943942427536715
 10
513.4301865501668
 20
25.02766347957037
 10
513.6090916104879
 20
25.123290226589944
 10
513.7813593328486
 20
25.230413180183813
 10
513.946252040415
 20
25.348573623418876
 10
514.1030636372981
 20
25.477265575136872
 10
514.2511226321662
 20
25.615937956643407
 10
514.3897950136727
 20
25.76399695151149
 10
514.5184869653907
 20
25.92080854839467
 10
514.6366474086258
 20
26.085701255960938
 10
514.7437703622196
 20
26.257968978321703
 10
514.8393971092393
 20
26.4368740386428
 10
514.9231181612729
 20
26.621650337989927
 10
514.9945750119227
 20
26.8115066358819
 10
515.053461671984
 20
27.00562993850389
 10
515.0995259797379
 20
27.203188980071705
 10
515.1325706807467
 20
27.403337782439543
 10
515.1524542725276
 20
27.60521927770826
 10
515.1590916104878
 20
27.807968978321703
 10
515.1524542725276
 20
28.01071867893515
 10
515.1325706807467
 20
28.212600174203867
 10
515.0995259797379
 20
28.412748976571702
 10
515.053461671984
 20
28.61030801813952
 10
514.9945750119227
 20
28.804431320761505
 10
514.9231181612729
 20
28.994287618653484
 10
514.8393971092393
 20
29.17906391800061
 10
514.7437703622196
 20
29.357968978321704
 10
514.6366474086258
 20
29.530236700682472
 10
514.5184869653907
 20
29.69512940824874
 10
514.3897950136727
 20
29.85194100513192
 10
514.2511226321662
 20
30.0
 10
514.1030636372981
 20
30.138672381506534
 10
513.946252040415
 20
30.267364333224535
 10
513.7813593328486
 20
30.385524776459594
 10
513.6090916104879
 20
30.492647730053463
 10
513.4301865501668
 20
30.58827447707304
 10
513.2454102508196
 20
30.67199552910669
 10
513.0555539529277
 20
30.74345237975653
 10
512.8614306503057
 20
30.802339039817817
 10
512.6638716087378
 20
30.84840334757172
 10
512.46372280637
 20
30.881448048580516
 10
512.2618413111013
 20
30.901331640361374
 10
512.0590916104879
 20
30.907968978321705
 10
511.85634190987446
 20
30.901331640361374
 10
511.65446041460575
 20
30.881448048580516
 10
511.4543116122379
 20
30.84840334757172
 10
511.2567525706701
 20
30.802339039817817
 10
511.0626292680481
 20
30.74345237975653
 10
510.8727729701561
 20
30.67199552910669
 10
510.68799667080896
 20
30.588274477073035
 10
510.50909161048787
 20
30.492647730053463
 10
510.3368238881271
 20
30.385524776459594
 10
510.1719311805608
 20
30.26736433322453
 10
510.0151195836777
 20
30.138672381506534
 10
509.8670605888096
 20
30.0
 10
509.72838820730306
 20
29.851941005131916
  0
LWPOLYLINE
  5
95
330
17
100
AcDbEntity
  8
CUT
100
AcDbPolyline
 90
10
 70
1
 10
672.2542177839357
 20
231.04239535430165
 10
673.7564164345348
 20
230.03343291598134
 10
675.2445168675515
 20
229.0135947098117
 10
676.718116276769
 20
227.9832835420093
 10
677.6952350664158
 20
227.28637587065643
 10
676.6670605888096
 20
229.0
 10
667.6670605888096
 20
234.0
 10
669.2091370548565
 20
233.02608170252765
 10
670.7383237219707
 20
232.04007921855597
 10
672.2542177839357
 20
231.04239535430165
  0
LWPOLYLINE
  5
96
330
17
100
AcDbEntity
  8
CUT
100
AcDbPolyline
 90
97
 70
1
 10
318.3154639363813
 20
27.203188980071705
 10
318.3485086373901
 20
27.403337782439543
 10
318.368392229171
 20
27.60521927770826
 10
318.37502956713126
 20
27.807968978321703
 10
318.368392229171
 20
28.01071867893515
 10
318.3485086373901
 20
28.212600174203867
 10
318.3154639363813
 20
28.412748976571702
 10
318.2693996286274
 20
28.61030801813952
 10
318.2105129685661
 20
28.804431320761505
 10
318.13905611791625
 20
28.994287618653484
 10
318.0553350658826
 20
29.17906391800061
 10
317.9597083188631
 20
29.357968978321704
 10
317.8525853652692
 20
29.530236700682472
 10
317.7344249220341
 20
29.69512940824874
 10
317.6057329703161
 20
29.85194100513192
 10
317.4670605888096
 20
30.0
 10
317.3190015939415
 20
30.138672381506534
 10
317.1621899970583
 20
30.267364333224535
 10
316.99729728949205
 20
30.385524776459594
 10
316.8250295671313
 20
30.492647730053463
 10
316.6461245068102
 20
30.58827447707304
 10
316.46134820746306
 20
30.67199552910669
 10
316.27149190957107
 20
30.74345237975653
 10
316.0773686069491
 20
30.802339039817817
 10
315.87980956538127
 20
30.84840334757172
 10
315.67966076301343
 20
30.881448048580516
 10
315.4777792677447
 20
30.901331640361374
 10
315.2750295671313
 20
30.907968978321705
 10
315.0722798665179
 20
30.901331640361374
 10
314.8703983712491
 20
30.881448048580516
 10
314.6702495688813
 20
30.84840334757172
 10
314.4726905273135
 20
30.802339039817817
 10
314.27856722469147
 20
30.74345237975653
 10
314.08871092679954
 20
30.67199552910669
 10
313.9039346274524
 20
30.588274477073035
 10
313.7250295671313
 20
30.492647730053463
 10
313.55276184477054
 20
30.385524776459594
 10
313.38786913720423
 20
30.26736433322453
 10
313.2310575403211
 20
30.138672381506534
 10
313.082998545453
 20
30.0
 10
312.94432616394647
 20
29.851941005131916
 10
312.8156342122285
 20
29.695129408248736
 10
312.6974737689934
 20
29.53023670068247
 10
312.5903508153995
 20
29.357968978321704
 10
312.49472406838
 20
29.179063918000608
 10
312.4110030163463
 20
28.99428761865348
 10
312.33954616569645
 20
28.804431320761502
 10
312.2806595056352
 20
28.610308018139516
 10
312.2345951978813
 20
28.4127489765717
 10
312.20155049687247
 20
28.212600174203864
 10
312.1816669050916
 20
28.010718678935145
 10
312.1750295671313
 20
27.807968978321703
 10
312.1816669050916
 20
27.605219277708258
 10
312.20155049687247
 20
27.403337782439543
 10
312.2345951978813
 20
27.203188980071705
 10
312.2806595056352
 20
27.005629938503887
 10
312.33954616569645
 20
26.8115066358819
 10
312.4110030163463
 20
26.621650337989927
 10
312.49472406838
 20
26.4368740386428
 10
312.5903508153995
 20
26.257968978321703
 10
312.6974737689934
 20
26.085701255960934
 10
312.8156342122285
 20
25.920808548394668
 10
312.94432616394647
 20
25.76399695151149
 10
313.082998545453
 20
25.615937956643407
 10
313.2310575403211
 20
25.477265575136872
 10
313.38786913720423
 20
25.348573623418872
 10
313.55276184477054
 20
25.230413180183813
 10
313.7250295671313
 20
25.123290226589944
 10
313.9039346274524
 20
25.02766347957037
 10
314.08871092679954
 20
24.943942427536715
 10
314.27856722469147
 20
24.872485576886877
 10
314.4726905273135
 20
24.81359891682559
 10
314.6702495688813
 20
24.76753460907169
 10
314.8703983712491
 20
24.73448990806289
 10
315.0722798665179
 20
24.714606316282033
 10
315.2750295671313
 20
24.707968978321702
 10
315.4777792677447
 20
24.714606316282033
 10
315.67966076301343
 20
24.73448990806289
 10
315.87980956538127
 20
24.76753460907169
 10
316.0773686069491
 20
24.81359891682559
 10
316.27149190957107
 20
24.872485576886877
 10
316.46134820746306
 20
24.943942427536715
 10
316.6461245068102
 20
25.02766347957037
 10
316.8250295671313
 20
25.123290226589944
 10
316.99729728949205
 20
25.230413180183813
 10
317.1621899970583
 20
25.348573623418876
 10
317.3190015939415
 20
25.477265575136872
 10
317.4670605888096
 20
25.615937956643407
 10
317.6057329703161
 20
25.76399695151149
 10
317.7344249220341
 20
25.92080854839467
 10
317.8525853652692
 20
26.085701255960938
 10
317.9597083188631
 20
26.257968978321703
 10
318.0553350658826
 20
26.4368740386428
 10
318.13905611791625
 20
26.621650337989927
 10
318.21051296856615
 20
26.8115066358819
 10
318.2693996286274
 20
27.00562993850389
 10
318.3154639363813
 20
27.203188980071705
  0
LWPOLYLINE
  5
97
330
17
100
AcDbEntity
  8
CUT
100
AcDbPolyline
 90
40
 70
1
 10
683.8281449665303
 20
266.89768520440447
 10
683.0479553571308
 20
267.46260655644676
 10
682.0666722730082
 20
267.8301196743493
 10
680.9156174525938
 20
267.979596668803
 10
679.6282581724901
 20
267.90029105314477
 10
678.2389642061958
 20
267.59232370706746
 10
676.7820118719701
 20
267.06687871369985
 10
675.2908718534459
 20
266.3455835187968
 10
673.7977811682583
 20
265.45912344995594
 10
672.3335652017585
 20
264.44521142908565
 10
670.9276467965074
 20
263.3460926334799
 10
669.6081590535576
 20
262.20580503797487
 10
668.4020688795315
 20
261.06743613777223
 10
667.3352203673016
 20
259.9706118643806
 10
666.4322205344349
 20
258.9494263282293
 10
665.7161132452237
 20
258.030973459001
 10
665.2078177274561
 20
257.23457882079816
 10
664.9253425885258
 20
256.57175833890994
 10
664.882820820902
 20
256.04685773798764
 10
665.089442107321
 20
255.65825961631577
 10
665.5483822980405
 20
255.39999106826406
 10
666.2558434744815
 20
255.26352906200302
 10
667.2003197985348
 20
255.2395869141485
 10
668.3621938499966
 20
255.31967443624038
 10
669.7137461263901
 20
255.49725552075503
 10
671.2196287766394
 20
255.76837667158298
 10
672.8378164325968
 20
256.13170293121493
 10
674.521005874863
 20
256.587967115324
 10
676.218396248197
 20
257.13890686664973
 10
677.8777465863789
 20
257.7858245103988
 10
679.4475810054129
 20
258.5279506079453
 10
680.8793967393308
 20
259.3608185549449
 10
682.1297277871377
 20
260.2748616699844
 10
683.1619276149424
 20
261.25442541293916
 10
683.9475571236889
 20
262.277347488041
 10
684.4672967661356
 20
263.31520165676585
 10
684.7113411199248
 20
264.33423293027977
 10
684.679276586481
 20
265.2969394412701
 10
684.3794841102579
 20
266.1641871906448
 10
683.8281449665303
 20
266.89768520440447
  0
TEXT
  5
98
330
17
100
AcDbEntity
  8
LABEL
100
AcDbText
 10
2.0
 20
-14.0
 30
0.0
 40
8.0
  1
P2_keel_spine  qty 1  t12
 11
2.0
 21
-14.0
 31
0.0
100
AcDbText
  0
ENDSEC
  0
SECTION
  2
OBJECTS
  0
DICTIONARY
  5
A
330
0
100
AcDbDictionary
281
1
  3
ACAD_COLOR
350
B
  3
ACAD_GROUP
350
C
  3
ACAD_LAYOUT
350
D
  3
ACAD_MATERIAL
350
E
  3
ACAD_MLEADERSTYLE
350
F
  3
ACAD_MLINESTYLE
350
10
  3
ACAD_PLOTSETTINGS
350
11
  3
ACAD_PLOTSTYLENAME
350
12
  3
ACAD_SCALELIST
350
14
  3
ACAD_TABLESTYLE
350
15
  3
ACAD_VISUALSTYLE
350
16
  3
EZDXF_META
350
2D
  0
DICTIONARY
  5
B
330
A
100
AcDbDictionary
281
1
  0
DICTIONARY
  5
C
330
A
100
AcDbDictionary
281
1
  0
DICTIONARY
  5
D
330
A
100
AcDbDictionary
281
1
  3
Model
350
1A
  3
Layout1
350
1E
  0
DICTIONARY
  5
E
330
A
100
AcDbDictionary
281
1
  3
ByBlock
350
1F
  3
ByLayer
350
20
  3
Global
350
21
  0
DICTIONARY
  5
F
330
A
100
AcDbDictionary
281
1
  3
Standard
350
2C
  0
DICTIONARY
  5
10
330
A
100
AcDbDictionary
281
1
  3
Standard
350
22
  0
DICTIONARY
  5
11
330
A
100
AcDbDictionary
281
1
  0
ACDBDICTIONARYWDFLT
  5
12
330
A
100
AcDbDictionary
281
1
  3
Normal
350
13
100
AcDbDictionaryWithDefault
340
13
  0
ACDBPLACEHOLDER
  5
13
330
12
  0
DICTIONARY
  5
14
330
A
100
AcDbDictionary
281
1
  0
DICTIONARY
  5
15
330
A
100
AcDbDictionary
281
1
  0
DICTIONARY
  5
16
330
A
100
AcDbDictionary
281
1
  3
2dWireframe
350
5A
  3
Basic
350
5B
  3
Brighten
350
5C
  3
ColorChange
350
5D
  3
Conceptual
350
5E
  3
Dim
350
5F
  3
EdgeColorOff
350
60
  3
Facepattern
350
61
  3
Flat
350
62
  3
FlatWithEdges
350
63
  3
Gouraud
350
64
  3
GouraudWithEdges
350
65
  3
Hidden
350
66
  3
JitterOff
350
67
  3
Linepattern
350
68
  3
Modeling
350
69
  3
OverhangOff
350
6A
  3
Realistic
350
6B
  3
Shaded
350
6C
  3
Shaded with edges
350
6D
  3
Shades of Gray
350
6E
  3
Sketchy
350
6F
  3
Thicken
350
70
  3
Wireframe
350
71
  3
X-Ray
350
72
  0
LAYOUT
  5
1A
330
D
100
AcDbPlotSettings
  1

  4
A3
  6

 40
7.5
 41
20.0
 42
7.5
 43
20.0
 44
420.0
 45
297.0
 46
0.0
 47
0.0
 48
0.0
 49
0.0
140
0.0
141
0.0
142
1.0
143
1.0
 70
1024
 72
1
 73
0
 74
5
  7

 75
16
 76
0
 77
2
 78
300
147
1.0
148
0.0
149
0.0
100
AcDbLayout
  1
Model
 70
1
 71
0
 10
0.0
 20
0.0
 11
420.0
 21
297.0
 12
0.0
 22
0.0
 32
0.0
 14
1e+20
 24
1e+20
 34
1e+20
 15
-1e+20
 25
-1e+20
 35
-1e+20
146
0.0
 13
0.0
 23
0.0
 33
0.0
 16
1.0
 26
0.0
 36
0.0
 17
0.0
 27
1.0
 37
0.0
 76
1
330
17
  0
LAYOUT
  5
1E
330
D
100
AcDbPlotSettings
  1

  4
A3
  6

 40
7.5
 41
20.0
 42
7.5
 43
20.0
 44
420.0
 45
297.0
 46
0.0
 47
0.0
 48
0.0
 49
0.0
140
0.0
141
0.0
142
1.0
143
1.0
 70
0
 72
1
 73
0
 74
5
  7

 75
16
 76
0
 77
2
 78
300
147
1.0
148
0.0
149
0.0
100
AcDbLayout
  1
Layout1
 70
1
 71
1
 10
0.0
 20
0.0
 11
420.0
 21
297.0
 12
0.0
 22
0.0
 32
0.0
 14
1e+20
 24
1e+20
 34
1e+20
 15
-1e+20
 25
-1e+20
 35
-1e+20
146
0.0
 13
0.0
 23
0.0
 33
0.0
 16
1.0
 26
0.0
 36
0.0
 17
0.0
 27
1.0
 37
0.0
 76
1
330
1B
  0
MATERIAL
  5
1F
102
{ACAD_REACTORS
330
E
102
}
330
E
100
AcDbMaterial
  1
ByBlock
  2

 70
0
 40
1.0
 71
1
 41
1.0
 91
-1023410177
 42
1.0
 72
1
  3

 73
1
 74
1
 75
1
 44
0.5
 73
0
 45
1.0
 46
1.0
 77
1
  4

 78
1
 79
1
170
1
 48
1.0
171
1
  6

172
1
173
1
174
1
140
1.0
141
1.0
175
1
  7

176
1
177
1
178
1
143
1.0
179
1
  8

270
1
271
1
272
1
145
1.0
146
1.0
273
1
  9

274
1
275
1
276
1
 42
1.0
 72
1
  3

 73
1
 74
1
 75
1
 94
63
  0
MATERIAL
  5
20
102
{ACAD_REACTORS
330
E
102
}
330
E
100
AcDbMaterial
  1
ByLayer
  2

 70
0
 40
1.0
 71
1
 41
1.0
 91
-1023410177
 42
1.0
 72
1
  3

 73
1
 74
1
 75
1
 44
0.5
 73
0
 45
1.0
 46
1.0
 77
1
  4

 78
1
 79
1
170
1
 48
1.0
171
1
  6

172
1
173
1
174
1
140
1.0
141
1.0
175
1
  7

176
1
177
1
178
1
143
1.0
179
1
  8

270
1
271
1
272
1
145
1.0
146
1.0
273
1
  9

274
1
275
1
276
1
 42
1.0
 72
1
  3

 73
1
 74
1
 75
1
 94
63
  0
MATERIAL
  5
21
102
{ACAD_REACTORS
330
E
102
}
330
E
100
AcDbMaterial
  1
Global
  2

 70
0
 40
1.0
 71
1
 41
1.0
 91
-1023410177
 42
1.0
 72
1
  3

 73
1
 74
1
 75
1
 44
0.5
 73
0
 45
1.0
 46
1.0
 77
1
  4

 78
1
 79
1
170
1
 48
1.0
171
1
  6

172
1
173
1
174
1
140
1.0
141
1.0
175
1
  7

176
1
177
1
178
1
143
1.0
179
1
  8

270
1
271
1
272
1
145
1.0
146
1.0
273
1
  9

274
1
275
1
276
1
 42
1.0
 72
1
  3

 73
1
 74
1
 75
1
 94
63
  0
MLINESTYLE
  5
22
102
{ACAD_REACTORS
330
10
102
}
330
10
100
AcDbMlineStyle
  2
Standard
 70
0
  3

 62
256
 51
90.0
 52
90.0
 71
2
 49
0.5
 62
256
  6
BYLAYER
 49
-0.5
 62
256
  6
BYLAYER
  0
MLEADERSTYLE
  5
2C
102
{ACAD_REACTORS
330
F
102
}
330
F
100
AcDbMLeaderStyle
179
2
170
2
171
1
172
0
 90
2
 40
0.0
 41
0.0
173
1
 91
-1056964608
 92
-2
290
1
 42
2.0
291
1
 43
8.0
  3
Standard
 44
4.0
300

342
29
174
1
175
1
176
0
178
1
 93
-1056964608
 45
4.0
292
0
297
0
 46
4.0
 94
-1056964608
 47
1.0
 49
1.0
140
1.0
294
1
141
0.0
177
0
142
1.0
295
0
296
0
143
3.75
271
0
272
9
273
9
  0
DICTIONARY
  5
2D
330
A
100
AcDbDictionary
280
1
281
1
  3
CREATED_BY_EZDXF
350
2E
  3
WRITTEN_BY_EZDXF
350
9B
  0
DICTIONARYVAR
  5
2E
330
2D
100
DictionaryVariables
280
0
  1
1.4.4 @ 2026-07-14T16:02:56.793854+00:00
  0
VISUALSTYLE
  5
5A
102
{ACAD_REACTORS
330
16
102
}
330
16
100
AcDbVisualStyle
  2
2dWireframe
 70
4
 90
0
 40
0.6
 62
7
290
0
291
0
  0
VISUALSTYLE
  5
5B
102
{ACAD_REACTORS
330
16
102
}
330
16
100
AcDbVisualStyle
  2
Basic
 70
7
 90
1
 40
0.6
 62
7
290
0
291
1
  0
VISUALSTYLE
  5
5C
102
{ACAD_REACTORS
330
16
102
}
330
16
100
AcDbVisualStyle
  2
Brighten
 70
12
 90
2
 40
0.6
 62
7
290
0
291
1
  0
VISUALSTYLE
  5
5D
102
{ACAD_REACTORS
330
16
102
}
330
16
100
AcDbVisualStyle
  2
ColorChange
 70
16
 90
2
 40
0.6
 62
8
290
0
291
1
  0
VISUALSTYLE
  5
5E
102
{ACAD_REACTORS
330
16
102
}
330
16
100
AcDbVisualStyle
  2
Conceptual
 70
9
 90
3
 40
0.6
 62
7
290
0
291
0
  0
VISUALSTYLE
  5
5F
102
{ACAD_REACTORS
330
16
102
}
330
16
100
AcDbVisualStyle
  2
Dim
 70
11
 90
2
 40
0.6
 62
7
290
0
291
1
  0
VISUALSTYLE
  5
60
102
{ACAD_REACTORS
330
16
102
}
330
16
100
AcDbVisualStyle
  2
EdgeColorOff
 70
22
 90
2
 40
0.6
 62
7
290
0
291
1
  0
VISUALSTYLE
  5
61
102
{ACAD_REACTORS
330
16
102
}
330
16
100
AcDbVisualStyle
  2
Facepattern
 70
15
 90
2
 40
0.6
 62
7
290
0
291
1
  0
VISUALSTYLE
  5
62
102
{ACAD_REACTORS
330
16
102
}
330
16
100
AcDbVisualStyle
  2
Flat
 70
0
 90
2
 40
0.6
 62
7
290
0
291
1
  0
VISUALSTYLE
  5
63
102
{ACAD_REACTORS
330
16
102
}
330
16
100
AcDbVisualStyle
  2
FlatWithEdges
 70
1
 90
2
 40
0.6
 62
7
290
0
291
1
  0
VISUALSTYLE
  5
64
102
{ACAD_REACTORS
330
16
102
}
330
16
100
AcDbVisualStyle
  2
Gouraud
 70
2
 90
2
 40
0.6
 62
7
290
0
291
1
  0
VISUALSTYLE
  5
65
102
{ACAD_REACTORS
330
16
102
}
330
16
100
AcDbVisualStyle
  2
GouraudWithEdges
 70
3
 90
2
 40
0.6
 62
7
290
0
291
1
  0
VISUALSTYLE
  5
66
102
{ACAD_REACTORS
330
16
102
}
330
16
100
AcDbVisualStyle
  2
Hidden
 70
6
 90
1
 40
0.6
 62
7
290
0
291
0
  0
VISUALSTYLE
  5
67
102
{ACAD_REACTORS
330
16
102
}
330
16
100
AcDbVisualStyle
  2
JitterOff
 70
20
 90
2
 40
0.6
 62
7
290
0
291
1
  0
VISUALSTYLE
  5
68
102
{ACAD_REACTORS
330
16
102
}
330
16
100
AcDbVisualStyle
  2
Linepattern
 70
14
 90
2
 40
0.6
 62
7
290
0
291
1
  0
VISUALSTYLE
  5
69
102
{ACAD_REACTORS
330
16
102
}
330
16
100
AcDbVisualStyle
  2
Modeling
 70
10
 90
2
 40
0.6
 62
7
290
0
291
0
  0
VISUALSTYLE
  5
6A
102
{ACAD_REACTORS
330
16
102
}
330
16
100
AcDbVisualStyle
  2
OverhangOff
 70
21
 90
2
 40
0.6
 62
7
290
0
291
1
  0
VISUALSTYLE
  5
6B
102
{ACAD_REACTORS
330
16
102
}
330
16
100
AcDbVisualStyle
  2
Realistic
 70
8
 90
2
 40
0.6
 62
7
290
0
291
0
  0
VISUALSTYLE
  5
6C
102
{ACAD_REACTORS
330
16
102
}
330
16
100
AcDbVisualStyle
  2
Shaded
 70
27
 90
2
 40
0.6
 62
7
290
0
291
0
  0
VISUALSTYLE
  5
6D
102
{ACAD_REACTORS
330
16
102
}
330
16
100
AcDbVisualStyle
  2
Shaded with edges
 70
26
 90
2
 40
0.6
 62
7
290
0
291
0
  0
VISUALSTYLE
  5
6E
102
{ACAD_REACTORS
330
16
102
}
330
16
100
AcDbVisualStyle
  2
Shades of Gray
 70
23
 90
2
 40
0.6
 62
7
290
0
291
0
  0
VISUALSTYLE
  5
6F
102
{ACAD_REACTORS
330
16
102
}
330
16
100
AcDbVisualStyle
  2
Sketchy
 70
24
 90
1
 40
0.6
 62
7
290
0
291
0
  0
VISUALSTYLE
  5
70
102
{ACAD_REACTORS
330
16
102
}
330
16
100
AcDbVisualStyle
  2
Thicken
 70
13
 90
2
 40
0.6
 62
7
290
0
291
1
  0
VISUALSTYLE
  5
71
102
{ACAD_REACTORS
330
16
102
}
330
16
100
AcDbVisualStyle
  2
Wireframe
 70
5
 90
0
 40
0.6
 62
7
290
0
291
0
  0
VISUALSTYLE
  5
72
102
{ACAD_REACTORS
330
16
102
}
330
16
100
AcDbVisualStyle
  2
X-Ray
 70
25
 90
2
 40
0.5
 62
7
290
0
291
0
  0
DICTIONARYVAR
  5
9B
330
2D
100
DictionaryVariables
280
0
  1
1.4.4 @ 2026-07-14T16:02:56.812088+00:00
  0
ENDSEC
  0
EOF
