  0
SECTION
  2
HEADER
  9
$ACADVER
  1
AC1024
  9
$ACADMAINTVER
 70
6
  9
$DWGCODEPAGE
  3
ANSI_1252
  9
$LASTSAVEDBY
  1
ezdxf
  9
$INSBASE
 10
0.0
 20
0.0
 30
0.0
  9
$EXTMIN
 10
1e+20
 20
1e+20
 30
1e+20
  9
$EXTMAX
 10
-1e+20
 20
-1e+20
 30
-1e+20
  9
$LIMMIN
 10
0.0
 20
0.0
  9
$LIMMAX
 10
420.0
 20
297.0
  9
$ORTHOMODE
 70
0
  9
$REGENMODE
 70
1
  9
$FILLMODE
 70
1
  9
$QTEXTMODE
 70
0
  9
$MIRRTEXT
 70
1
  9
$LTSCALE
 40
1.0
  9
$ATTMODE
 70
1
  9
$TEXTSIZE
 40
2.5
  9
$TRACEWID
 40
1.0
  9
$TEXTSTYLE
  7
OpenSans
  9
$CLAYER
  8
0
  9
$CELTYPE
  6
ByLayer
  9
$CECOLOR
 62
256
  9
$CELTSCALE
 40
1.0
  9
$DISPSILH
 70
0
  9
$DIMSCALE
 40
1.0
  9
$DIMASZ
 40
0.175
  9
$DIMEXO
 40
0.125
  9
$DIMDLI
 40
3.75
  9
$DIMRND
 40
0.0
  9
$DIMDLE
 40
0.0
  9
$DIMEXE
 40
0.375
  9
$DIMTP
 40
0.0
  9
$DIMTM
 40
0.0
  9
$DIMTXT
 40
0.25
  9
$DIMCEN
 40
2.5
  9
$DIMTSZ
 40
0.0
  9
$DIMTOL
 70
0
  9
$DIMLIM
 70
0
  9
$DIMTIH
 70
0
  9
$DIMTOH
 70
0
  9
$DIMSE1
 70
0
  9
$DIMSE2
 70
0
  9
$DIMTAD
 70
1
  9
$DIMZIN
 70
12
  9
$DIMBLK
  1
ARCHTICK
  9
$DIMASO
 70
1
  9
$DIMSHO
 70
1
  9
$DIMPOST
  1

  9
$DIMAPOST
  1

  9
$DIMALT
 70
0
  9
$DIMALTD
 70
3
  9
$DIMALTF
 40
0.03937007874
  9
$DIMLFAC
 40
100.0
  9
$DIMTOFL
 70
1
  9
$DIMTVP
 40
0.0
  9
$DIMTIX
 70
0
  9
$DIMSOXD
 70
0
  9
$DIMSAH
 70
0
  9
$DIMBLK1
  1

  9
$DIMBLK2
  1

  9
$DIMSTYLE
  2
EZDXF
  9
$DIMCLRD
 70
0
  9
$DIMCLRE
 70
0
  9
$DIMCLRT
 70
0
  9
$DIMTFAC
 40
0.5
  9
$DIMGAP
 40
0.1
  9
$DIMJUST
 70
0
  9
$DIMSD1
 70
0
  9
$DIMSD2
 70
0
  9
$DIMTOLJ
 70
0
  9
$DIMTZIN
 70
8
  9
$DIMALTZ
 70
0
  9
$DIMALTTZ
 70
0
  9
$DIMUPT
 70
1
  9
$DIMDEC
 70
2
  9
$DIMTDEC
 70
2
  9
$DIMALTU
 70
2
  9
$DIMALTTD
 70
3
  9
$DIMTXSTY
  7
OpenSansCondensed-Light
  9
$DIMAUNIT
 70
0
  9
$DIMADEC
 70
2
  9
$DIMALTRND
 40
0.0
  9
$DIMAZIN
 70
3
  9
$DIMDSEP
 70
46
  9
$DIMATFIT
 70
3
  9
$DIMFRAC
 70
0
  9
$DIMLDRBLK
  1

  9
$DIMLUNIT
 70
2
  9
$DIMLWD
 70
-2
  9
$DIMLWE
 70
-2
  9
$DIMTMOVE
 70
2
  9
$DIMFXL
 40
1.0
  9
$DIMFXLON
 70
0
  9
$DIMJOGANG
 40
0.785398163397
  9
$DIMTFILL
 70
0
  9
$DIMTFILLCLR
 70
0
  9
$DIMARCSYM
 70
0
  9
$DIMLTYPE
  6

  9
$DIMLTEX1
  6

  9
$DIMLTEX2
  6

  9
$DIMTXTDIRECTION
 70
0
  9
$LUNITS
 70
2
  9
$LUPREC
 70
4
  9
$SKETCHINC
 40
1.0
  9
$FILLETRAD
 40
10.0
  9
$AUNITS
 70
0
  9
$AUPREC
 70
2
  9
$MENU
  1
.
  9
$ELEVATION
 40
0.0
  9
$PELEVATION
 40
0.0
  9
$THICKNESS
 40
0.0
  9
$LIMCHECK
 70
0
  9
$CHAMFERA
 40
0.0
  9
$CHAMFERB
 40
0.0
  9
$CHAMFERC
 40
0.0
  9
$CHAMFERD
 40
0.0
  9
$SKPOLY
 70
0
  9
$TDCREATE
 40
2461236.6687037037
  9
$TDUCREATE
 40
2458532.153996898
  9
$TDUPDATE
 40
2461236.6687037037
  9
$TDUUPDATE
 40
2458532.1544311
  9
$TDINDWG
 40
0.0
  9
$TDUSRTIMER
 40
0.0
  9
$USRTIMER
 70
1
  9
$ANGBASE
 50
0.0
  9
$ANGDIR
 70
0
  9
$PDMODE
 70
0
  9
$PDSIZE
 40
0.0
  9
$PLINEWID
 40
0.0
  9
$SPLFRAME
 70
0
  9
$SPLINETYPE
 70
6
  9
$SPLINESEGS
 70
8
  9
$HANDSEED
  5
93
  9
$SURFTAB1
 70
6
  9
$SURFTAB2
 70
6
  9
$SURFTYPE
 70
6
  9
$SURFU
 70
6
  9
$SURFV
 70
6
  9
$UCSBASE
  2

  9
$UCSNAME
  2

  9
$UCSORG
 10
0.0
 20
0.0
 30
0.0
  9
$UCSXDIR
 10
1.0
 20
0.0
 30
0.0
  9
$UCSYDIR
 10
0.0
 20
1.0
 30
0.0
  9
$UCSORTHOREF
  2

  9
$UCSORTHOVIEW
 70
0
  9
$UCSORGTOP
 10
0.0
 20
0.0
 30
0.0
  9
$UCSORGBOTTOM
 10
0.0
 20
0.0
 30
0.0
  9
$UCSORGLEFT
 10
0.0
 20
0.0
 30
0.0
  9
$UCSORGRIGHT
 10
0.0
 20
0.0
 30
0.0
  9
$UCSORGFRONT
 10
0.0
 20
0.0
 30
0.0
  9
$UCSORGBACK
 10
0.0
 20
0.0
 30
0.0
  9
$PUCSBASE
  2

  9
$PUCSNAME
  2

  9
$PUCSORG
 10
0.0
 20
0.0
 30
0.0
  9
$PUCSXDIR
 10
1.0
 20
0.0
 30
0.0
  9
$PUCSYDIR
 10
0.0
 20
1.0
 30
0.0
  9
$PUCSORTHOREF
  2

  9
$PUCSORTHOVIEW
 70
0
  9
$PUCSORGTOP
 10
0.0
 20
0.0
 30
0.0
  9
$PUCSORGBOTTOM
 10
0.0
 20
0.0
 30
0.0
  9
$PUCSORGLEFT
 10
0.0
 20
0.0
 30
0.0
  9
$PUCSORGRIGHT
 10
0.0
 20
0.0
 30
0.0
  9
$PUCSORGFRONT
 10
0.0
 20
0.0
 30
0.0
  9
$PUCSORGBACK
 10
0.0
 20
0.0
 30
0.0
  9
$USERI1
 70
0
  9
$USERI2
 70
0
  9
$USERI3
 70
0
  9
$USERI4
 70
0
  9
$USERI5
 70
0
  9
$USERR1
 40
0.0
  9
$USERR2
 40
0.0
  9
$USERR3
 40
0.0
  9
$USERR4
 40
0.0
  9
$USERR5
 40
0.0
  9
$WORLDVIEW
 70
1
  9
$SHADEDGE
 70
3
  9
$SHADEDIF
 70
70
  9
$TILEMODE
 70
1
  9
$MAXACTVP
 70
64
  9
$PINSBASE
 10
0.0
 20
0.0
 30
0.0
  9
$PLIMCHECK
 70
0
  9
$PEXTMIN
 10
1e+20
 20
1e+20
 30
1e+20
  9
$PEXTMAX
 10
-1e+20
 20
-1e+20
 30
-1e+20
  9
$PLIMMIN
 10
0.0
 20
0.0
  9
$PLIMMAX
 10
420.0
 20
297.0
  9
$UNITMODE
 70
0
  9
$VISRETAIN
 70
1
  9
$PLINEGEN
 70
0
  9
$PSLTSCALE
 70
1
  9
$TREEDEPTH
 70
3020
  9
$CMLSTYLE
  2
Standard
  9
$CMLJUST
 70
0
  9
$CMLSCALE
 40
20.0
  9
$PROXYGRAPHICS
 70
1
  9
$MEASUREMENT
 70
1
  9
$CELWEIGHT
370
-1
  9
$ENDCAPS
280
0
  9
$JOINSTYLE
280
0
  9
$LWDISPLAY
290
0
  9
$INSUNITS
 70
4
  9
$HYPERLINKBASE
  1

  9
$STYLESHEET
  1

  9
$XEDIT
290
1
  9
$CEPSNTYPE
380
0
  9
$PSTYLEMODE
290
1
  9
$FINGERPRINTGUID
  2
{18920B9F-8338-462A-BE05-29844F58148F}
  9
$VERSIONGUID
  2
{15260896-E88E-4482-8F33-170C5DE14C7D}
  9
$EXTNAMES
290
1
  9
$PSVPSCALE
 40
0.0
  9
$OLESTARTUP
290
0
  9
$SORTENTS
280
127
  9
$INDEXCTL
280
0
  9
$HIDETEXT
280
1
  9
$XCLIPFRAME
280
1
  9
$HALOGAP
280
0
  9
$OBSCOLOR
 70
257
  9
$OBSLTYPE
280
0
  9
$INTERSECTIONDISPLAY
280
0
  9
$INTERSECTIONCOLOR
 70
257
  9
$DIMASSOC
280
2
  9
$PROJECTNAME
  1

  9
$CAMERADISPLAY
290
0
  9
$LENSLENGTH
 40
50.0
  9
$CAMERAHEIGHT
 40
0.0
  9
$STEPSPERSEC
 40
24.0
  9
$STEPSIZE
 40
100.0
  9
$3DDWFPREC
 40
2.0
  9
$PSOLWIDTH
 40
0.005
  9
$PSOLHEIGHT
 40
0.08
  9
$LOFTANG1
 40
1.570796326795
  9
$LOFTANG2
 40
1.570796326795
  9
$LOFTMAG1
 40
0.0
  9
$LOFTMAG2
 40
0.0
  9
$LOFTPARAM
 70
7
  9
$LOFTNORMALS
280
1
  9
$LATITUDE
 40
37.795
  9
$LONGITUDE
 40
-122.394
  9
$NORTHDIRECTION
 40
0.0
  9
$TIMEZONE
 70
-8000
  9
$LIGHTGLYPHDISPLAY
280
1
  9
$TILEMODELIGHTSYNCH
280
1
  9
$CMATERIAL
347
20
  9
$SOLIDHIST
280
0
  9
$SHOWHIST
280
1
  9
$DWFFRAME
280
2
  9
$DGNFRAME
280
2
  9
$REALWORLDSCALE
290
1
  9
$INTERFERECOLOR
 62
256
  9
$CSHADOW
280
0
  9
$SHADOWPLANELOCATION
 40
0.0
  0
ENDSEC
  0
SECTION
  2
CLASSES
  0
CLASS
  1
ACDBDICTIONARYWDFLT
  2
AcDbDictionaryWithDefault
  3
ObjectDBX Classes
 90
0
 91
0
280
0
281
0
  0
CLASS
  1
SUN
  2
AcDbSun
  3
SCENEOE
 90
1153
 91
0
280
0
281
0
  0
CLASS
  1
VISUALSTYLE
  2
AcDbVisualStyle
  3
ObjectDBX Classes
 90
4095
 91
0
280
0
281
0
  0
CLASS
  1
MATERIAL
  2
AcDbMaterial
  3
ObjectDBX Classes
 90
1153
 91
0
280
0
281
0
  0
CLASS
  1
SCALE
  2
AcDbScale
  3
ObjectDBX Classes
 90
1153
 91
0
280
0
281
0
  0
CLASS
  1
TABLESTYLE
  2
AcDbTableStyle
  3
ObjectDBX Classes
 90
4095
 91
0
280
0
281
0
  0
CLASS
  1
MLEADERSTYLE
  2
AcDbMLeaderStyle
  3
ACDB_MLEADERSTYLE_CLASS
 90
4095
 91
0
280
0
281
0
  0
CLASS
  1
DICTIONARYVAR
  2
AcDbDictionaryVar
  3
ObjectDBX Classes
 90
0
 91
0
280
0
281
0
  0
CLASS
  1
CELLSTYLEMAP
  2
AcDbCellStyleMap
  3
ObjectDBX Classes
 90
1152
 91
0
280
0
281
0
  0
CLASS
  1
MENTALRAYRENDERSETTINGS
  2
AcDbMentalRayRenderSettings
  3
SCENEOE
 90
1024
 91
0
280
0
281
0
  0
CLASS
  1
ACDBDETAILVIEWSTYLE
  2
AcDbDetailViewStyle
  3
ObjectDBX Classes
 90
1025
 91
0
280
0
281
0
  0
CLASS
  1
ACDBSECTIONVIEWSTYLE
  2
AcDbSectionViewStyle
  3
ObjectDBX Classes
 90
1025
 91
0
280
0
281
0
  0
CLASS
  1
RASTERVARIABLES
  2
AcDbRasterVariables
  3
ISM
 90
0
 91
0
280
0
281
0
  0
CLASS
  1
ACDBPLACEHOLDER
  2
AcDbPlaceHolder
  3
ObjectDBX Classes
 90
0
 91
0
280
0
281
0
  0
CLASS
  1
LAYOUT
  2
AcDbLayout
  3
ObjectDBX Classes
 90
0
 91
0
280
0
281
0
  0
ENDSEC
  0
SECTION
  2
TABLES
  0
TABLE
  2
VPORT
  5
8
330
0
100
AcDbSymbolTable
 70
1
  0
VPORT
  5
23
330
8
100
AcDbSymbolTableRecord
100
AcDbViewportTableRecord
  2
*Active
 70
0
 10
0.0
 20
0.0
 11
1.0
 21
1.0
 12
0.0
 22
0.0
 13
0.0
 23
0.0
 14
0.5
 24
0.5
 15
0.5
 25
0.5
 16
0.0
 26
0.0
 36
1.0
 17
0.0
 27
0.0
 37
0.0
 40
1000.0
 41
1.34
 42
50.0
 43
0.0
 44
0.0
 50
0.0
 51
0.0
 71
0
 72
1000
 73
1
 74
3
 75
0
 76
0
 77
0
 78
0
281
0
 65
0
146
0.0
  0
ENDTAB
  0
TABLE
  2
LTYPE
  5
2
330
0
100
AcDbSymbolTable
 70
21
  0
LTYPE
  5
24
330
2
100
AcDbSymbolTableRecord
100
AcDbLinetypeTableRecord
  2
ByBlock
 70
0
  3

 72
65
 73
0
 40
0.0
  0
LTYPE
  5
25
330
2
100
AcDbSymbolTableRecord
100
AcDbLinetypeTableRecord
  2
ByLayer
 70
0
  3

 72
65
 73
0
 40
0.0
  0
LTYPE
  5
26
330
2
100
AcDbSymbolTableRecord
100
AcDbLinetypeTableRecord
  2
Continuous
 70
0
  3

 72
65
 73
0
 40
0.0
  0
LTYPE
  5
2F
330
2
100
AcDbSymbolTableRecord
100
AcDbLinetypeTableRecord
  2
CENTER
 70
0
  3
Center ____ _ ____ _ ____ _ ____ _ ____ _ ____
 72
65
 73
4
 40
5.08
 49
3.175
 74
0
 49
-0.635
 74
0
 49
0.635
 74
0
 49
-0.635
 74
0
  0
LTYPE
  5
30
330
2
100
AcDbSymbolTableRecord
100
AcDbLinetypeTableRecord
  2
CENTERX2
 70
0
  3
Center (2x) ________  __  ________  __  ________
 72
65
 73
4
 40
8.89
 49
6.35
 74
0
 49
-0.635
 74
0
 49
1.27
 74
0
 49
-0.635
 74
0
  0
LTYPE
  5
31
330
2
100
AcDbSymbolTableRecord
100
AcDbLinetypeTableRecord
  2
CENTER2
 70
0
  3
Center (.5x) ____ _ ____ _ ____ _ ____ _ ____
 72
65
 73
4
 40
2.54
 49
1.587
 74
0
 49
-0.318
 74
0
 49
0.318
 74
0
 49
-0.318
 74
0
  0
LTYPE
  5
32
330
2
100
AcDbSymbolTableRecord
100
AcDbLinetypeTableRecord
  2
DASHED
 70
0
  3
Dashed __ __ __ __ __ __ __ __ __ __ __ __ __ _
 72
65
 73
2
 40
1.524
 49
1.27
 74
0
 49
-0.254
 74
0
  0
LTYPE
  5
33
330
2
100
AcDbSymbolTableRecord
100
AcDbLinetypeTableRecord
  2
DASHEDX2
 70
0
  3
Dashed (2x) ____  ____  ____  ____  ____  ____
 72
65
 73
2
 40
3.048
 49
2.54
 74
0
 49
-0.508
 74
0
  0
LTYPE
  5
34
330
2
100
AcDbSymbolTableRecord
100
AcDbLinetypeTableRecord
  2
DASHED2
 70
0
  3
Dashed (.5x) _ _ _ _ _ _ _ _ _ _ _ _ _ _
 72
65
 73
2
 40
0.762
 49
0.635
 74
0
 49
-0.127
 74
0
  0
LTYPE
  5
35
330
2
100
AcDbSymbolTableRecord
100
AcDbLinetypeTableRecord
  2
PHANTOM
 70
0
  3
Phantom ______  __  __  ______  __  __  ______
 72
65
 73
6
 40
6.35
 49
3.175
 74
0
 49
-0.635
 74
0
 49
0.635
 74
0
 49
-0.635
 74
0
 49
0.635
 74
0
 49
-0.635
 74
0
  0
LTYPE
  5
36
330
2
100
AcDbSymbolTableRecord
100
AcDbLinetypeTableRecord
  2
PHANTOMX2
 70
0
  3
Phantom (2x)____________    ____    ____    ____________
 72
65
 73
6
 40
10.795
 49
6.35
 74
0
 49
-0.635
 74
0
 49
1.27
 74
0
 49
-0.635
 74
0
 49
1.27
 74
0
 49
-0.635
 74
0
  0
LTYPE
  5
37
330
2
100
AcDbSymbolTableRecord
100
AcDbLinetypeTableRecord
  2
PHANTOM2
 70
0
  3
Phantom (.5x) ___ _ _ ___ _ _ ___ _ _ ___ _ _ ___
 72
65
 73
6
 40
3.175
 49
1.587
 74
0
 49
-0.318
 74
0
 49
0.318
 74
0
 49
-0.318
 74
0
 49
0.318
 74
0
 49
-0.318
 74
0
  0
LTYPE
  5
38
330
2
100
AcDbSymbolTableRecord
100
AcDbLinetypeTableRecord
  2
DASHDOT
 70
0
  3
Dash dot __ . __ . __ . __ . __ . __ . __ . __
 72
65
 73
4
 40
3.556
 49
2.54
 74
0
 49
-0.508
 74
0
 49
0.0
 74
0
 49
-0.508
 74
0
  0
LTYPE
  5
39
330
2
100
AcDbSymbolTableRecord
100
AcDbLinetypeTableRecord
  2
DASHDOTX2
 70
0
  3
Dash dot (2x) ____  .  ____  .  ____  .  ____
 72
65
 73
4
 40
6.096
 49
5.08
 74
0
 49
-0.508
 74
0
 49
0.0
 74
0
 49
-0.508
 74
0
  0
LTYPE
  5
3A
330
2
100
AcDbSymbolTableRecord
100
AcDbLinetypeTableRecord
  2
DASHDOT2
 70
0
  3
Dash dot (.5x) _ . _ . _ . _ . _ . _ . _ . _
 72
65
 73
4
 40
1.778
 49
1.27
 74
0
 49
-0.254
 74
0
 49
0.0
 74
0
 49
-0.254
 74
0
  0
LTYPE
  5
3B
330
2
100
AcDbSymbolTableRecord
100
AcDbLinetypeTableRecord
  2
DOT
 70
0
  3
Dot .  .  .  .  .  .  .  .  .  .  .  .  .  .  .  .
 72
65
 73
2
 40
0.508
 49
0.0
 74
0
 49
-0.508
 74
0
  0
LTYPE
  5
3C
330
2
100
AcDbSymbolTableRecord
100
AcDbLinetypeTableRecord
  2
DOTX2
 70
0
  3
Dot (2x) .    .    .    .    .    .    .    . 
 72
65
 73
2
 40
1.016
 49
0.0
 74
0
 49
-1.016
 74
0
  0
LTYPE
  5
3D
330
2
100
AcDbSymbolTableRecord
100
AcDbLinetypeTableRecord
  2
DOT2
 70
0
  3
Dot (.5) . . . . . . . . . . . . . . . . . . . 
 72
65
 73
2
 40
0.254
 49
0.0
 74
0
 49
-0.254
 74
0
  0
LTYPE
  5
3E
330
2
100
AcDbSymbolTableRecord
100
AcDbLinetypeTableRecord
  2
DIVIDE
 70
0
  3
Divide __ . . __ . . __ . . __ . . __ . . __
 72
65
 73
6
 40
4.064
 49
2.54
 74
0
 49
-0.508
 74
0
 49
0.0
 74
0
 49
-0.508
 74
0
 49
0.0
 74
0
 49
-0.508
 74
0
  0
LTYPE
  5
3F
330
2
100
AcDbSymbolTableRecord
100
AcDbLinetypeTableRecord
  2
DIVIDEX2
 70
0
  3
Divide (2x) ____  . .  ____  . .  ____  . .  ____
 72
65
 73
6
 40
6.604
 49
5.08
 74
0
 49
-0.508
 74
0
 49
0.0
 74
0
 49
-0.508
 74
0
 49
0.0
 74
0
 49
-0.508
 74
0
  0
LTYPE
  5
40
330
2
100
AcDbSymbolTableRecord
100
AcDbLinetypeTableRecord
  2
DIVIDE2
 70
0
  3
Divide(.5x) _ . _ . _ . _ . _ . _ . _ . _
 72
65
 73
6
 40
2.032
 49
1.27
 74
0
 49
-0.254
 74
0
 49
0.0
 74
0
 49
-0.254
 74
0
 49
0.0
 74
0
 49
-0.254
 74
0
  0
ENDTAB
  0
TABLE
  2
LAYER
  5
1
330
0
100
AcDbSymbolTable
 70
4
  0
LAYER
  5
27
330
1
100
AcDbSymbolTableRecord
100
AcDbLayerTableRecord
  2
0
 70
0
 62
7
  6
Continuous
370
-3
390
13
347
21
  0
LAYER
  5
28
330
1
100
AcDbSymbolTableRecord
100
AcDbLayerTableRecord
  2
Defpoints
 70
0
 62
7
  6
Continuous
290
0
370
-3
390
13
347
21
  0
LAYER
  5
8A
330
1
100
AcDbSymbolTableRecord
100
AcDbLayerTableRecord
  2
CUT
 70
0
 62
2
  6
Continuous
370
-3
390
13
347
21
  0
LAYER
  5
8B
330
1
100
AcDbSymbolTableRecord
100
AcDbLayerTableRecord
  2
LABEL
 70
0
 62
3
  6
Continuous
370
-3
390
13
347
21
  0
ENDTAB
  0
TABLE
  2
STYLE
  5
5
330
0
100
AcDbSymbolTable
 70
26
  0
STYLE
  5
29
330
5
100
AcDbSymbolTableRecord
100
AcDbTextStyleTableRecord
  2
Standard
 70
0
 40
0.0
 41
1.0
 50
0.0
 71
0
 42
2.5
  3
txt
  4

  0
STYLE
  5
41
330
5
100
AcDbSymbolTableRecord
100
AcDbTextStyleTableRecord
  2
OpenSans-Light
 70
0
 40
0.0
 41
1.0
 50
0.0
 71
0
 42
2.5
  3
OpenSans-Light.ttf
  4

  0
STYLE
  5
42
330
5
100
AcDbSymbolTableRecord
100
AcDbTextStyleTableRecord
  2
OpenSans-Light-Italic
 70
0
 40
0.0
 41
1.0
 50
0.0
 71
0
 42
2.5
  3
OpenSans-LightItalic.ttf
  4

  0
STYLE
  5
43
330
5
100
AcDbSymbolTableRecord
100
AcDbTextStyleTableRecord
  2
OpenSans
 70
0
 40
0.0
 41
1.0
 50
0.0
 71
0
 42
2.5
  3
OpenSans-Regular.ttf
  4

  0
STYLE
  5
44
330
5
100
AcDbSymbolTableRecord
100
AcDbTextStyleTableRecord
  2
OpenSans-Italic
 70
0
 40
0.0
 41
1.0
 50
0.0
 71
0
 42
2.5
  3
OpenSans-Italic.ttf
  4

  0
STYLE
  5
45
330
5
100
AcDbSymbolTableRecord
100
AcDbTextStyleTableRecord
  2
OpenSans-SemiBold
 70
0
 40
0.0
 41
1.0
 50
0.0
 71
0
 42
2.5
  3
OpenSans-SemiBold.ttf
  4

  0
STYLE
  5
46
330
5
100
AcDbSymbolTableRecord
100
AcDbTextStyleTableRecord
  2
OpenSans-SemiBoldItalic
 70
0
 40
0.0
 41
1.0
 50
0.0
 71
0
 42
2.5
  3
OpenSans-SemiBoldItalic.ttf
  4

  0
STYLE
  5
47
330
5
100
AcDbSymbolTableRecord
100
AcDbTextStyleTableRecord
  2
OpenSans-Bold
 70
0
 40
0.0
 41
1.0
 50
0.0
 71
0
 42
2.5
  3
OpenSans-Bold.ttf
  4

  0
STYLE
  5
48
330
5
100
AcDbSymbolTableRecord
100
AcDbTextStyleTableRecord
  2
OpenSans-BoldItalic
 70
0
 40
0.0
 41
1.0
 50
0.0
 71
0
 42
2.5
  3
OpenSans-BoldItalic.ttf
  4

  0
STYLE
  5
49
330
5
100
AcDbSymbolTableRecord
100
AcDbTextStyleTableRecord
  2
OpenSans-ExtraBold
 70
0
 40
0.0
 41
1.0
 50
0.0
 71
0
 42
2.5
  3
OpenSans-ExtraBold.ttf
  4

  0
STYLE
  5
4A
330
5
100
AcDbSymbolTableRecord
100
AcDbTextStyleTableRecord
  2
OpenSans-ExtraBoldItalic
 70
0
 40
0.0
 41
1.0
 50
0.0
 71
0
 42
2.5
  3
OpenSans-ExtraBoldItalic.ttf
  4

  0
STYLE
  5
4B
330
5
100
AcDbSymbolTableRecord
100
AcDbTextStyleTableRecord
  2
OpenSansCondensed-Bold
 70
0
 40
0.0
 41
1.0
 50
0.0
 71
0
 42
2.5
  3
OpenSansCondensed-Bold.ttf
  4

  0
STYLE
  5
4C
330
5
100
AcDbSymbolTableRecord
100
AcDbTextStyleTableRecord
  2
OpenSansCondensed-Light
 70
0
 40
0.0
 41
1.0
 50
0.0
 71
0
 42
2.5
  3
OpenSansCondensed-Light.ttf
  4

  0
STYLE
  5
4D
330
5
100
AcDbSymbolTableRecord
100
AcDbTextStyleTableRecord
  2
OpenSansCondensed-Italic
 70
0
 40
0.0
 41
1.0
 50
0.0
 71
0
 42
2.5
  3
OpenSansCondensed-LightItalic.ttf
  4

  0
STYLE
  5
4E
330
5
100
AcDbSymbolTableRecord
100
AcDbTextStyleTableRecord
  2
LiberationSans
 70
0
 40
0.0
 41
1.0
 50
0.0
 71
0
 42
2.5
  3
LiberationSans-Regular.ttf
  4

  0
STYLE
  5
4F
330
5
100
AcDbSymbolTableRecord
100
AcDbTextStyleTableRecord
  2
LiberationSans-Bold
 70
0
 40
0.0
 41
1.0
 50
0.0
 71
0
 42
2.5
  3
LiberationSans-Bold.ttf
  4

  0
STYLE
  5
50
330
5
100
AcDbSymbolTableRecord
100
AcDbTextStyleTableRecord
  2
LiberationSans-BoldItalic
 70
0
 40
0.0
 41
1.0
 50
0.0
 71
0
 42
2.5
  3
LiberationSans-BoldItalic.ttf
  4

  0
STYLE
  5
51
330
5
100
AcDbSymbolTableRecord
100
AcDbTextStyleTableRecord
  2
LiberationSans-Italic
 70
0
 40
0.0
 41
1.0
 50
0.0
 71
0
 42
2.5
  3
LiberationSans-Italic.ttf
  4

  0
STYLE
  5
52
330
5
100
AcDbSymbolTableRecord
100
AcDbTextStyleTableRecord
  2
LiberationSerif
 70
0
 40
0.0
 41
1.0
 50
0.0
 71
0
 42
2.5
  3
LiberationSerif-Regular.ttf
  4

  0
STYLE
  5
53
330
5
100
AcDbSymbolTableRecord
100
AcDbTextStyleTableRecord
  2
LiberationSerif-Bold
 70
0
 40
0.0
 41
1.0
 50
0.0
 71
0
 42
2.5
  3
LiberationSerif-Bold.ttf
  4

  0
STYLE
  5
54
330
5
100
AcDbSymbolTableRecord
100
AcDbTextStyleTableRecord
  2
LiberationSerif-BoldItalic
 70
0
 40
0.0
 41
1.0
 50
0.0
 71
0
 42
2.5
  3
LiberationSerif-BoldItalic.ttf
  4

  0
STYLE
  5
55
330
5
100
AcDbSymbolTableRecord
100
AcDbTextStyleTableRecord
  2
LiberationSerif-Italic
 70
0
 40
0.0
 41
1.0
 50
0.0
 71
0
 42
2.5
  3
LiberationSerif-Italic.ttf
  4

  0
STYLE
  5
56
330
5
100
AcDbSymbolTableRecord
100
AcDbTextStyleTableRecord
  2
LiberationMono
 70
0
 40
0.0
 41
1.0
 50
0.0
 71
0
 42
2.5
  3
LiberationMono-Regular.ttf
  4

  0
STYLE
  5
57
330
5
100
AcDbSymbolTableRecord
100
AcDbTextStyleTableRecord
  2
LiberationMono-Bold
 70
0
 40
0.0
 41
1.0
 50
0.0
 71
0
 42
2.5
  3
LiberationMono-Bold.ttf
  4

  0
STYLE
  5
58
330
5
100
AcDbSymbolTableRecord
100
AcDbTextStyleTableRecord
  2
LiberationMono-BoldItalic
 70
0
 40
0.0
 41
1.0
 50
0.0
 71
0
 42
2.5
  3
LiberationMono-BoldItalic.ttf
  4

  0
STYLE
  5
59
330
5
100
AcDbSymbolTableRecord
100
AcDbTextStyleTableRecord
  2
LiberationMono-Italic
 70
0
 40
0.0
 41
1.0
 50
0.0
 71
0
 42
2.5
  3
LiberationMono-Italic.ttf
  4

  0
ENDTAB
  0
TABLE
  2
VIEW
  5
7
330
0
100
AcDbSymbolTable
 70
0
  0
ENDTAB
  0
TABLE
  2
UCS
  5
6
330
0
100
AcDbSymbolTable
 70
0
  0
ENDTAB
  0
TABLE
  2
APPID
  5
3
330
0
100
AcDbSymbolTable
 70
3
  0
APPID
  5
2A
330
3
100
AcDbSymbolTableRecord
100
AcDbRegAppTableRecord
  2
ACAD
 70
0
  0
APPID
  5
90
330
3
100
AcDbSymbolTableRecord
100
AcDbRegAppTableRecord
  2
HATCHBACKGROUNDCOLOR
 70
0
  0
APPID
  5
91
330
3
100
AcDbSymbolTableRecord
100
AcDbRegAppTableRecord
  2
EZDXF
 70
0
  0
ENDTAB
  0
TABLE
  2
DIMSTYLE
  5
4
330
0
100
AcDbSymbolTable
 70
12
100
AcDbDimStyleTable
  0
DIMSTYLE
105
2B
330
4
100
AcDbSymbolTableRecord
100
AcDbDimStyleTableRecord
  2
Standard
 70
0
 40
1.0
 41
2.5
 42
0.625
 43
3.75
 44
1.25
 45
0.0
 46
0.0
 47
0.0
 48
0.0
 49
2.5
140
2.5
141
2.5
142
0.0
143
0.03937007874
144
1.0
145
0.0
146
1.0
147
0.625
148
0.0
 69
0
 70
0
 71
0
 72
0
 73
0
 74
0
 75
0
 76
0
 77
1
 78
8
 79
3
170
0
171
3
172
1
173
0
174
0
175
0
176
0
177
0
178
0
179
2
271
2
272
2
273
2
274
3
275
0
276
0
277
2
278
44
279
0
280
0
281
0
282
0
283
0
284
8
285
0
286
0
288
0
289
3
290
0
371
-2
372
-2
  0
DIMSTYLE
105
73
330
4
100
AcDbSymbolTableRecord
100
AcDbDimStyleTableRecord
  2
EZDXF
 70
0
 40
1.0
 41
0.175
 42
0.125
 43
3.75
 44
0.375
 45
0.0
 46
0.0
 47
0.0
 48
0.0
 49
2.5
140
0.25
141
2.5
142
0.0
143
0.03937007874
144
100.0
145
0.0
146
0.5
147
0.1
148
0.0
 69
0
 70
0
 71
0
 72
0
 73
0
 74
0
 75
0
 76
0
 77
1
 78
12
 79
3
170
0
171
3
172
1
173
0
174
0
175
0
176
0
177
0
178
0
179
2
271
2
272
2
273
2
274
3
275
0
276
0
277
2
278
46
279
2
280
0
281
0
282
0
283
0
284
8
285
0
286
0
288
1
289
3
290
0
340
4C
342
74
371
-2
372
-2
  0
DIMSTYLE
105
7C
330
4
100
AcDbSymbolTableRecord
100
AcDbDimStyleTableRecord
  2
EZ_M_100_H25_CM
 70
0
 40
1.0
 41
0.25
 42
0.125
 43
3.75
 44
0.375
 45
0.0
 46
0.0
 47
0.0
 48
0.0
 49
2.5
140
0.25
141
2.5
142
0.125
143
0.03937007874
144
100.0
145
0.0
146
0.5
147
0.1
148
0.0
 69
0
 70
0
 71
0
 72
0
 73
0
 74
0
 75
0
 76
0
 77
1
 78
12
 79
3
170
0
171
3
172
1
173
0
174
0
175
0
176
0
177
0
178
0
179
2
271
2
272
2
273
2
274
3
275
0
276
0
277
2
278
46
279
2
280
0
281
0
282
0
283
0
284
8
285
0
286
0
288
1
289
3
290
0
340
4C
371
-2
372
-2
  0
DIMSTYLE
105
7D
330
4
100
AcDbSymbolTableRecord
100
AcDbDimStyleTableRecord
  2
EZ_M_50_H25_CM
 70
0
 40
1.0
 41
0.125
 42
0.0625
 43
3.75
 44
0.1875
 45
0.0
 46
0.0
 47
0.0
 48
0.0
 49
2.5
140
0.125
141
2.5
142
0.0625
143
0.03937007874
144
100.0
145
0.0
146
0.5
147
0.05
148
0.0
 69
0
 70
0
 71
0
 72
0
 73
0
 74
0
 75
0
 76
0
 77
1
 78
12
 79
3
170
0
171
3
172
1
173
0
174
0
175
0
176
0
177
0
178
0
179
2
271
2
272
2
273
2
274
3
275
0
276
0
277
2
278
46
279
2
280
0
281
0
282
0
283
0
284
8
285
0
286
0
288
1
289
3
290
0
340
4C
371
-2
372
-2
  0
DIMSTYLE
105
7E
330
4
100
AcDbSymbolTableRecord
100
AcDbDimStyleTableRecord
  2
EZ_M_25_H25_CM
 70
0
 40
1.0
 41
0.0625
 42
0.03125
 43
3.75
 44
0.09375
 45
0.0
 46
0.0
 47
0.0
 48
0.0
 49
2.5
140
0.0625
141
2.5
142
0.03125
143
0.03937007874
144
100.0
145
0.0
146
0.5
147
0.025
148
0.0
 69
0
 70
0
 71
0
 72
0
 73
0
 74
0
 75
0
 76
0
 77
1
 78
12
 79
3
170
0
171
3
172
1
173
0
174
0
175
0
176
0
177
0
178
0
179
2
271
2
272
2
273
2
274
3
275
0
276
0
277
2
278
46
279
2
280
0
281
0
282
0
283
0
284
8
285
0
286
0
288
1
289
3
290
0
340
4C
371
-2
372
-2
  0
DIMSTYLE
105
7F
330
4
100
AcDbSymbolTableRecord
100
AcDbDimStyleTableRecord
  2
EZ_M_20_H25_CM
 70
0
 40
1.0
 41
0.05
 42
0.025
 43
3.75
 44
0.07500000000000001
 45
0.0
 46
0.0
 47
0.0
 48
0.0
 49
2.5
140
0.05
141
2.5
142
0.025
143
0.03937007874
144
100.0
145
0.0
146
0.5
147
0.020000000000000004
148
0.0
 69
0
 70
0
 71
0
 72
0
 73
0
 74
0
 75
0
 76
0
 77
1
 78
12
 79
3
170
0
171
3
172
1
173
0
174
0
175
0
176
0
177
0
178
0
179
2
271
2
272
2
273
2
274
3
275
0
276
0
277
2
278
46
279
2
280
0
281
0
282
0
283
0
284
8
285
0
286
0
288
1
289
3
290
0
340
4C
371
-2
372
-2
  0
DIMSTYLE
105
80
330
4
100
AcDbSymbolTableRecord
100
AcDbDimStyleTableRecord
  2
EZ_M_10_H25_CM
 70
0
 40
1.0
 41
0.025
 42
0.0125
 43
3.75
 44
0.037500000000000006
 45
0.0
 46
0.0
 47
0.0
 48
0.0
 49
2.5
140
0.025
141
2.5
142
0.0125
143
0.03937007874
144
100.0
145
0.0
146
0.5
147
0.010000000000000002
148
0.0
 69
0
 70
0
 71
0
 72
0
 73
0
 74
0
 75
0
 76
0
 77
1
 78
12
 79
3
170
0
171
3
172
1
173
0
174
0
175
0
176
0
177
0
178
0
179
2
271
2
272
2
273
2
274
3
275
0
276
0
277
2
278
46
279
2
280
0
281
0
282
0
283
0
284
8
285
0
286
0
288
1
289
3
290
0
340
4C
371
-2
372
-2
  0
DIMSTYLE
105
81
330
4
100
AcDbSymbolTableRecord
100
AcDbDimStyleTableRecord
  2
EZ_M_5_H25_CM
 70
0
 40
1.0
 41
0.0125
 42
0.00625
 43
3.75
 44
0.018750000000000003
 45
0.0
 46
0.0
 47
0.0
 48
0.0
 49
2.5
140
0.0125
141
2.5
142
0.00625
143
0.03937007874
144
100.0
145
0.0
146
0.5
147
0.005000000000000001
148
0.0
 69
0
 70
0
 71
0
 72
0
 73
0
 74
0
 75
0
 76
0
 77
1
 78
12
 79
3
170
0
171
3
172
1
173
0
174
0
175
0
176
0
177
0
178
0
179
2
271
2
272
2
273
2
274
3
275
0
276
0
277
2
278
46
279
2
280
0
281
0
282
0
283
0
284
8
285
0
286
0
288
1
289
3
290
0
340
4C
371
-2
372
-2
  0
DIMSTYLE
105
82
330
4
100
AcDbSymbolTableRecord
100
AcDbDimStyleTableRecord
  2
EZ_M_1_H25_CM
 70
0
 40
1.0
 41
0.0025
 42
0.00125
 43
3.75
 44
0.00375
 45
0.0
 46
0.0
 47
0.0
 48
0.0
 49
2.5
140
0.0025
141
2.5
142
0.00125
143
0.03937007874
144
100.0
145
0.0
146
0.5
147
0.001
148
0.0
 69
0
 70
0
 71
0
 72
0
 73
0
 74
0
 75
0
 76
0
 77
1
 78
12
 79
3
170
0
171
3
172
1
173
0
174
0
175
0
176
0
177
0
178
0
179
2
271
2
272
2
273
2
274
3
275
0
276
0
277
2
278
46
279
2
280
0
281
0
282
0
283
0
284
8
285
0
286
0
288
1
289
3
290
0
340
4C
371
-2
372
-2
  0
DIMSTYLE
105
83
330
4
100
AcDbSymbolTableRecord
100
AcDbDimStyleTableRecord
  2
EZ_RADIUS
 70
0
 40
1.0
 41
0.25
 42
0.125
 43
3.75
 44
0.375
 45
0.0
 46
0.0
 47
0.0
 48
0.0
 49
2.5
140
0.25
141
0.0
142
0.0
143
0.03937007874
144
100.0
145
0.0
146
0.5
147
0.1
148
0.0
 69
0
 70
0
 71
0
 72
0
 73
0
 74
0
 75
0
 76
0
 77
1
 78
12
 79
3
170
0
171
3
172
0
173
0
174
0
175
0
176
0
177
0
178
0
179
2
271
2
272
2
273
2
274
3
275
0
276
0
277
2
278
46
279
1
280
0
281
0
282
0
283
0
284
8
285
0
286
0
288
1
289
3
290
0
340
4C
342
84
371
-2
372
-2
  0
DIMSTYLE
105
88
330
4
100
AcDbSymbolTableRecord
100
AcDbDimStyleTableRecord
  2
EZ_RADIUS_INSIDE
 70
0
 40
1.0
 41
0.25
 42
0.125
 43
3.75
 44
0.375
 45
0.0
 46
0.0
 47
0.0
 48
0.0
 49
2.5
140
0.25
141
0.0
142
0.0
143
0.03937007874
144
100.0
145
0.0
146
0.5
147
0.1
148
0.0
 69
0
 70
0
 71
0
 72
0
 73
0
 74
0
 75
0
 76
0
 77
0
 78
12
 79
3
170
0
171
3
172
0
173
0
174
1
175
0
176
0
177
0
178
0
179
2
271
2
272
2
273
2
274
3
275
0
276
0
277
2
278
46
279
0
280
0
281
0
282
0
283
0
284
8
285
0
286
0
288
1
289
0
290
0
340
4C
342
84
371
-2
372
-2
  0
DIMSTYLE
105
89
330
4
100
AcDbSymbolTableRecord
100
AcDbDimStyleTableRecord
  2
EZ_CURVED
 70
0
 40
1.0
 41
0.25
 42
0.125
 43
3.75
 44
0.375
 45
0.0
 46
0.0
 47
0.0
 48
0.0
 49
2.5
140
0.25
141
2.5
142
0.0
143
0.03937007874
144
100.0
145
0.0
146
0.5
147
0.1
148
0.0
 69
0
 70
0
 71
0
 72
0
 73
0
 74
0
 75
0
 76
0
 77
1
 78
12
 79
2
 90
2
170
0
171
3
172
1
173
0
174
0
175
0
176
0
177
0
178
0
179
2
271
2
272
2
273
2
274
3
275
0
276
0
277
2
278
46
279
2
280
0
281
0
282
0
283
0
284
8
285
0
286
0
288
1
289
3
290
0
340
4C
371
-2
372
-2
  0
ENDTAB
  0
TABLE
  2
BLOCK_RECORD
  5
9
330
0
100
AcDbSymbolTable
 70
5
  0
BLOCK_RECORD
  5
17
330
9
100
AcDbSymbolTableRecord
100
AcDbBlockTableRecord
  2
*Model_Space
340
1A
 70
0
280
1
281
0
  0
BLOCK_RECORD
  5
1B
330
9
100
AcDbSymbolTableRecord
100
AcDbBlockTableRecord
  2
*Paper_Space
340
1E
 70
0
280
1
281
0
  0
BLOCK_RECORD
  5
74
330
9
100
AcDbSymbolTableRecord
100
AcDbBlockTableRecord
  2
_ARCHTICK
340
0
 70
0
280
1
281
0
  0
BLOCK_RECORD
  5
78
330
9
100
AcDbSymbolTableRecord
100
AcDbBlockTableRecord
  2
_CLOSEDFILLED
340
0
 70
0
280
1
281
0
  0
BLOCK_RECORD
  5
84
330
9
100
AcDbSymbolTableRecord
100
AcDbBlockTableRecord
  2
_CLOSEDBLANK
340
0
 70
0
280
1
281
0
  0
ENDTAB
  0
ENDSEC
  0
SECTION
  2
BLOCKS
  0
BLOCK
  5
18
330
17
100
AcDbEntity
  8
0
100
AcDbBlockBegin
  2
*Model_Space
 70
0
 10
0.0
 20
0.0
 30
0.0
  3
*Model_Space
  1

  0
ENDBLK
  5
19
330
17
100
AcDbEntity
  8
0
100
AcDbBlockEnd
  0
BLOCK
  5
1C
330
1B
100
AcDbEntity
  8
0
100
AcDbBlockBegin
  2
*Paper_Space
 70
0
 10
0.0
 20
0.0
 30
0.0
  3
*Paper_Space
  1

  0
ENDBLK
  5
1D
330
1B
100
AcDbEntity
  8
0
100
AcDbBlockEnd
  0
BLOCK
  5
75
330
74
100
AcDbEntity
  8
0
100
AcDbBlockBegin
  2
_ARCHTICK
 70
0
 10
0.0
 20
0.0
 30
0.0
  3
_ARCHTICK
  1

  0
LWPOLYLINE
  5
77
330
74
100
AcDbEntity
  8
0
  6
BYBLOCK
 62
0
100
AcDbPolyline
 90
2
 70
0
 43
0.15
 10
-0.5
 20
-0.5
 10
0.5
 20
0.5
  0
ENDBLK
  5
76
330
74
100
AcDbEntity
  8
0
100
AcDbBlockEnd
  0
BLOCK
  5
79
330
78
100
AcDbEntity
  8
0
100
AcDbBlockBegin
  2
_CLOSEDFILLED
 70
0
 10
0.0
 20
0.0
 30
0.0
  3
_CLOSEDFILLED
  1

  0
SOLID
  5
7B
330
78
100
AcDbEntity
  8
0
  6
BYBLOCK
 62
0
100
AcDbTrace
 10
-1.0
 20
0.16439898372402537
 30
0.0
 11
0.0
 21
0.0
 31
0.0
 12
-1.0
 22
-0.16439898372402537
 32
0.0
 13
-1.0
 23
-0.16439898372402537
 33
0.0
  0
ENDBLK
  5
7A
330
78
100
AcDbEntity
  8
0
100
AcDbBlockEnd
  0
BLOCK
  5
85
330
84
100
AcDbEntity
  8
0
100
AcDbBlockBegin
  2
_CLOSEDBLANK
 70
0
 10
0.0
 20
0.0
 30
0.0
  3
_CLOSEDBLANK
  1

  0
LWPOLYLINE
  5
87
330
84
100
AcDbEntity
  8
0
  6
BYBLOCK
 62
0
100
AcDbPolyline
 90
3
 70
1
 10
-1.0
 20
0.16439898372402537
 10
0.0
 20
0.0
 10
-1.0
 20
-0.16439898372402537
  0
ENDBLK
  5
86
330
84
100
AcDbEntity
  8
0
100
AcDbBlockEnd
  0
ENDSEC
  0
SECTION
  2
ENTITIES
  0
LWPOLYLINE
  5
8C
330
17
100
AcDbEntity
  8
CUT
100
AcDbPolyline
 90
305
 70
1
 10
9.516296868181662
 20
0.0
 10
8.39528716726528
 20
1.9268974477575895
 10
7.3536302910274856
 20
3.83820021768803
 10
6.389513611493399
 20
5.736275562681037
 10
5.501124500688121
 20
7.623490735626348
 10
4.686650330636766
 20
9.502212989413692
 10
3.9442784733644345
 20
11.374809576932783
 10
3.2721963008962405
 20
13.24364775107335
 10
2.6685911852572843
 20
15.111094764725124
 10
2.1316504984726876
 20
16.979517870777833
 10
1.6595616125675505
 20
18.85128432212121
 10
1.2505118995669733
 20
20.728761371644964
 10
0.9026887314960916
 20
22.614316272238824
 10
0.6142794803799774
 20
24.510316276792537
 10
0.38347151824375914
 20
26.419128638195808
 10
0.20845221711255135
 20
28.343120609338364
 10
0.08740894901144003
 20
30.284659443109945
 10
0.01852908596556091
 20
32.24611239240026
 10
0.0
 20
34.22984671009907
 10
0.030009063139878833
 20
36.23822964909606
 10
0.10674364741028342
 20
38.273628462280975
 10
0.2283911248363495
 20
40.338410402543566
 10
0.3931388674431915
 20
42.43494272277349
 10
0.5991742472558812
 20
44.56559267586055
 10
0.8446846362995544
 20
46.73272751469442
 10
1.1278574065993183
 20
48.93871449216485
 10
1.4468799301802449
 20
51.18592086116158
 10
1.7999395790674981
 20
53.476713874574315
 10
2.185223725286164
 20
55.81346078529276
 10
2.600919740861322
 20
58.19852884620671
 10
3.045214997818121
 20
60.63428531020581
 10
3.516296868181662
 20
63.12309743017984
 10
3.0155080393407374
 20
63.68185678703259
 10
2.6691953945822533
 20
64.19671026627128
 10
2.4695042126816773
 20
64.6674564647876
 10
2.408579772414484
 20
65.09389397947325
 10
2.4785673525561407
 20
65.47582140721988
 10
2.671612231882108
 20
65.8130373449192
 10
2.979859689167867
 20
66.10534038946285
 10
3.3954550031888715
 20
66.35252913774252
 10
3.910543452720617
 20
66.55440218664991
 10
4.51727031653855
 20
66.71075813307668
 10
5.2077808734181374
 20
66.82139557391453
 10
5.9742204021348755
 20
66.88611310605509
 10
6.808734181464203
 20
66.9047093263901
 10
7.703467490181595
 20
66.87698283181119
 10
8.650565607062532
 20
66.80273221921009
 10
9.642173810882475
 20
66.68175608547841
 10
10.670437380416914
 20
66.51385302750788
 10
11.727501594441271
 20
66.29882164219018
 10
12.805511731731059
 20
66.03646052641696
 10
13.896613071061722
 20
65.7265682770799
 10
14.992950891208743
 20
65.36894349107072
 10
16.086670470947595
 20
64.96338476528103
 10
17.169917089053733
 20
64.50969069660259
 10
18.234836024302645
 20
64.007659881927
 10
19.273572555469773
 20
63.457090918145994
 10
20.278271961330592
 20
62.857782402151244
 10
21.2410795206606
 20
62.2095329308344
 10
22.154140512235237
 20
61.51214110108714
 10
23.009600214829973
 20
60.76540550980123
 10
23.799603907220295
 20
59.9691247538682
 10
24.516296868181662
 20
59.12309743017984
 10
24.147964150246715
 20
57.03997830473436
 10
23.81729381356785
 20
55.046570200978266
 10
23.524487261253395
 20
53.13970025358856
 10
23.269745896411663
 20
51.31619559724223
 10
23.05327112215098
 20
49.57288336661624
 10
22.875264341579665
 20
47.9065906963876
 10
22.735926957806047
 20
46.314144721233305
 10
22.635460373938436
 20
44.792372575830335
 10
22.574065993085156
 20
43.33810139485567
 10
22.551945218354533
 20
41.948158312986294
 10
22.569299452854885
 20
40.61937046489921
 10
22.626330099694535
 20
39.34856498527141
 10
22.723238561981805
 20
38.13256900877987
 10
22.860226242825014
 20
36.96820967010159
 10
23.03749454533248
 20
35.85231410391354
 10
23.255244872612533
 20
34.781709444892726
 10
23.513678627773487
 20
33.75322282771612
 10
23.812997213923666
 20
32.763681387060736
 10
24.153402034171393
 20
31.809912257603536
 10
24.535094491624985
 20
30.888742574021514
 10
24.958275989392764
 20
29.996999470991682
 10
25.423147930583063
 20
29.13151008319098
 10
25.929911718304187
 20
28.289101545296447
 10
26.47876875566446
 20
27.466600991985025
 10
27.069920445772212
 20
26.66083555793375
 10
27.703568191735755
 20
25.868632377819594
 10
28.379913396663422
 20
25.086818586319517
 10
29.09915746366352
 20
24.312221318110524
 10
29.86150179584438
 20
23.541667707869628
 10
30.667147796314318
 20
22.771984890273792
 10
31.516296868181662
 20
22.0
 10
31.860727055565683
 20
23.123829344432885
 10
32.3815573921737
 20
24.172736732570243
 10
33.066622350473025
 20
25.14672216441207
 10
33.90375640293096
 20
26.045785639958382
 10
34.880794022014825
 20
26.869927159209155
 10
35.98556968019193
 20
27.619146722164416
 10
37.20591784992959
 20
28.293444328824144
 10
38.5296730036951
 20
28.892819979188346
 10
39.94466961395578
 20
29.41727367325702
 10
41.43874215317895
 20
29.866805411030178
 10
42.999725093831906
 20
30.2414151925078
 10
44.61545290838197
 20
30.541103017689906
 10
46.27376006929644
 20
30.765868886576484
 10
47.96248104904263
 20
30.91571279916753
 10
49.66945032008786
 20
30.990634755463056
 10
51.38250235489943
 20
30.990634755463056
 10
53.08947162594466
 20
30.915712799167522
 10
54.778192605690855
 20
30.765868886576477
 10
56.43649976660532
 20
30.541103017689906
 10
58.052227581155385
 20
30.2414151925078
 10
59.61321052180834
 20
29.866805411030185
 10
61.10728306103151
 20
29.41727367325702
 10
62.52227967129219
 20
28.89281997918834
 10
63.8460348250577
 20
28.293444328824137
 10
65.06638299479536
 20
27.619146722164402
 10
66.17115865297247
 20
26.869927159209162
 10
67.14819627205632
 20
26.045785639958375
 10
67.98533032451427
 20
25.14672216441207
 10
68.67039528281359
 20
24.17273673257025
 10
69.19122561942162
 20
23.123829344432885
 10
69.53565580680564
 20
22.0
 10
70.38480487867298
 20
22.771984890273785
 10
71.19045087914292
 20
23.541667707869628
 10
71.95279521132377
 20
24.31222131811053
 10
72.67203927832387
 20
25.08681858631951
 10
73.34838448325154
 20
25.86863237781958
 10
73.98203222921508
 20
26.66083555793375
 10
74.57318391932283
 20
27.466600991985032
 10
75.12204095668311
 20
28.289101545296447
 10
75.62880474440423
 20
29.13151008319098
 10
76.09367668559452
 20
29.996999470991668
 10
76.5168581833623
 20
30.88874257402152
 10
76.8985506408159
 20
31.80991225760353
 10
77.23895546106363
 20
32.763681387060736
 10
77.5382740472138
 20
33.75322282771613
 10
77.79670780237475
 20
34.781709444892726
 10
78.01445812965481
 20
35.85231410391354
 10
78.19172643216228
 20
36.96820967010158
 10
78.32871411300549
 20
38.13256900877987
 10
78.42562257529276
 20
39.34856498527141
 10
78.4826532221324
 20
40.61937046489922
 10
78.50000745663276
 20
41.94815831298631
 10
78.47788668190213
 20
43.33810139485566
 10
78.41649230104886
 20
44.792372575830335
 10
78.31602571718125
 20
46.314144721233305
 10
78.17668833340761
 20
47.906590696387596
 10
77.9986815528363
 20
49.57288336661625
 10
77.78220677857563
 20
51.31619559724223
 10
77.52746541373389
 20
53.13970025358854
 10
77.23465886141945
 20
55.04657020097828
 10
76.90398852474058
 20
57.03997830473436
 10
76.53565580680564
 20
59.12309743017984
 10
77.25234876776699
 20
59.9691247538682
 10
78.04235246015732
 20
60.7654055098012
 10
78.89781216275206
 20
61.51214110108715
 10
79.81087315432669
 20
62.2095329308344
 10
80.77368071365669
 20
62.857782402151244
 10
81.77838011951752
 20
63.45709091814601
 10
82.81711665068465
 20
64.00765988192701
 10
83.88203558593355
 20
64.50969069660259
 10
84.9652822040397
 20
64.96338476528105
 10
86.05900178377854
 20
65.36894349107071
 10
87.15533960392557
 20
65.7265682770799
 10
88.24644094325623
 20
66.03646052641696
 10
89.32445108054603
 20
66.29882164219019
 10
90.38151529457039
 20
66.5138530275079
 10
91.40977886410482
 20
66.68175608547843
 10
92.40138706792476
 20
66.80273221921009
 10
93.3484851848057
 20
66.87698283181119
 10
94.2432184935231
 20
66.9047093263901
 10
95.07773227285242
 20
66.88611310605509
 10
95.84417180156915
 20
66.82139557391453
 10
96.53468235844875
 20
66.71075813307671
 10
97.14140922226667
 20
66.55440218664991
 10
97.6564976717984
 20
66.35252913774252
 10
98.07209298581941
 20
66.10534038946285
 10
98.38034044310518
 20
65.81303734491918
 10
98.57338532243116
 20
65.4758214072199
 10
98.64337290257282
 20
65.09389397947325
 10
98.5824484623056
 20
64.66745646478759
 10
98.38275728040504
 20
64.1967102662713
 10
98.03644463564656
 20
63.68185678703259
 10
97.53565580680564
 20
63.12309743017984
 10
98.00673767716916
 20
60.63428531020581
 10
98.45103293412596
 20
58.198528846206685
 10
98.86672894970113
 20
55.81346078529276
 10
99.25201309591979
 20
53.4767138745743
 10
99.60507274480705
 20
51.18592086116158
 10
99.92409526838799
 20
48.938714492164856
 10
100.20726803868774
 20
46.73272751469442
 10
100.45277842773142
 20
44.56559267586054
 10
100.6588138075441
 20
42.4349427227735
 10
100.82356155015094
 20
40.338410402543545
 10
100.945209027577
 20
38.27362846228098
 10
101.0219436118474
 20
36.238229649096056
 10
101.05195267498729
 20
34.229846710099054
 10
101.03342358902174
 20
32.24611239240026
 10
100.96454372597584
 20
30.284659443109945
 10
100.84350045787474
 20
28.343120609338364
 10
100.66848115674351
 20
26.419128638195794
 10
100.43767319460731
 20
24.51031627679253
 10
100.1492639434912
 20
22.614316272238824
 10
99.80144077542032
 20
20.728761371644964
 10
99.39239106241976
 20
18.851284322121206
 10
98.92030217651461
 20
16.979517870777833
 10
98.38336148973
 20
15.111094764725124
 10
97.77975637409105
 20
13.243647751073347
 10
97.10767420162284
 20
11.374809576932776
 10
96.36530234435052
 20
9.502212989413692
 10
95.55082817429917
 20
7.623490735626348
 10
94.66243906349388
 20
5.736275562681033
 10
93.6983223839598
 20
3.83820021768803
 10
92.65666550772201
 20
1.926897447757593
 10
91.53565580680564
 20
0.0
 10
71.52597633749365
 20
0.0
 10
71.51056300615929
 20
0.39229547863922853
 10
71.46441804046933
 20
0.7821723252011559
 10
71.38782593948203
 20
1.1672268192795254
 10
71.28125891896941
 20
1.5450849718747381
 10
71.14537400005008
 20
1.9134171618254516
 10
70.98100895843548
 20
2.2699524986977337
 10
70.78917715926411
 20
2.6124928235797427
 10
70.57106130936839
 20
2.938926261462367
 10
70.3280061654938
 20
3.247240241650921
 10
70.06151024342638
 20
3.5355339059327378
 10
69.77321657914456
 20
3.8020298280001548
 10
69.464902598956
 20
4.045084971874736
 10
69.13846916107339
 20
4.263200821770461
 10
68.79592883619138
 20
4.455032620941839
 10
68.4393934993191
 20
4.619397662556434
 10
68.07106130936839
 20
4.755282581475768
 10
67.69320315677317
 20
4.861849601988382
 10
67.3081486626948
 20
4.9384417029756875
 10
66.91827181613287
 20
4.984586668665639
 10
66.52597633749365
 20
5.0
 10
66.13368085885442
 20
4.984586668665639
 10
65.74380401229249
 20
4.9384417029756875
 10
65.35874951821413
 20
4.861849601988382
 10
64.9808913656189
 20
4.755282581475768
 10
64.6125591756682
 20
4.61939766255643
 10
64.25602383879591
 20
4.455032620941839
 10
63.9134835139139
 20
4.263200821770461
 10
63.587050076031275
 20
4.045084971874736
 10
63.278736095842724
 20
3.802029828000153
 10
62.99044243156091
 20
3.5355339059327378
 10
62.72394650949349
 20
3.2472402416509176
 10
62.48089136561891
 20
2.938926261462365
 10
62.262775515723185
 20
2.6124928235797427
 10
62.07094371655181
 20
2.2699524986977337
 10
61.90657867493721
 20
1.913417161825448
 10
61.77069375601788
 20
1.5450849718747364
 10
61.66412673550526
 20
1.1672268192795272
 10
61.58753463451796
 20
0.7821723252011541
 10
61.541389668828
 20
0.3922954786392232
 10
61.525976337493645
 20
0.0
 10
56.72597633749365
 20
0.0
 10
56.72597633749365
 20
18.0
 10
44.32597633749364
 20
18.0
 10
44.32597633749364
 20
0.0
 10
39.525976337493645
 20
0.0
 10
39.51056300615929
 20
0.39229547863922853
 10
39.46441804046933
 20
0.7821723252011559
 10
39.38782593948203
 20
1.1672268192795254
 10
39.281258918969414
 20
1.5450849718747381
 10
39.145374000050076
 20
1.9134171618254516
 10
38.98100895843548
 20
2.2699524986977337
 10
38.789177159264106
 20
2.6124928235797427
 10
38.57106130936838
 20
2.938926261462367
 10
38.3280061654938
 20
3.247240241650921
 10
38.06151024342638
 20
3.5355339059327378
 10
37.77321657914457
 20
3.8020298280001548
 10
37.46490259895601
 20
4.045084971874736
 10
37.13846916107339
 20
4.263200821770461
 10
36.79592883619138
 20
4.455032620941839
 10
36.439393499319095
 20
4.619397662556434
 10
36.07106130936838
 20
4.755282581475768
 10
35.693203156773166
 20
4.861849601988382
 10
35.3081486626948
 20
4.9384417029756875
 10
34.91827181613287
 20
4.984586668665639
 10
34.525976337493645
 20
5.0
 10
34.13368085885442
 20
4.984586668665639
 10
33.743804012292486
 20
4.9384417029756875
 10
33.35874951821412
 20
4.861849601988382
 10
32.98089136561891
 20
4.755282581475768
 10
32.612559175668196
 20
4.61939766255643
 10
32.25602383879591
 20
4.455032620941839
 10
31.913483513913903
 20
4.263200821770461
 10
31.58705007603128
 20
4.045084971874736
 10
31.278736095842724
 20
3.802029828000153
 10
30.990442431560908
 20
3.5355339059327378
 10
30.72394650949349
 20
3.2472402416509176
 10
30.48089136561891
 20
2.938926261462365
 10
30.262775515723185
 20
2.6124928235797427
 10
30.070943716551806
 20
2.2699524986977337
 10
29.90657867493721
 20
1.913417161825448
 10
29.770693756017877
 20
1.5450849718747364
 10
29.664126735505263
 20
1.1672268192795272
 10
29.587534634517958
 20
0.7821723252011541
 10
29.541389668828007
 20
0.3922954786392232
 10
29.525976337493645
 20
0.0
 10
9.516296868181662
 20
0.0
  0
LWPOLYLINE
  5
8D
330
17
100
AcDbEntity
  8
CUT
100
AcDbPolyline
 90
97
 70
1
 10
44.46464871900018
 20
18.148058994868084
 10
44.59334067071818
 20
18.304870591751264
 10
44.71150111395324
 20
18.46976329931753
 10
44.818624067547105
 20
18.642031021678296
 10
44.914250814566685
 20
18.820936081999392
 10
44.99797186660034
 20
19.00571238134652
 10
45.069428717250176
 20
19.195568679238495
 10
45.12831537731146
 20
19.389691981860484
 10
45.17437968506536
 20
19.587251023428298
 10
45.20742438607416
 20
19.787399825796136
 10
45.22730797785502
 20
19.989281321064855
 10
45.23394531581535
 20
20.192031021678297
 10
45.22730797785502
 20
20.394780722291742
 10
45.20742438607416
 20
20.596662217560457
 10
45.17437968506536
 20
20.7968110199283
 10
45.12831537731146
 20
20.994370061496113
 10
45.069428717250176
 20
21.188493364118095
 10
44.99797186660034
 20
21.378349662010073
 10
44.91425081456668
 20
21.5631259613572
 10
44.818624067547105
 20
21.7420310216783
 10
44.71150111395323
 20
21.914298744039066
 10
44.59334067071818
 20
22.079191451605332
 10
44.464648719000174
 20
22.236003048488513
 10
44.32597633749364
 20
22.384062043356593
 10
44.17791734262556
 20
22.52273442486313
 10
44.02110574574238
 20
22.651426376581128
 10
43.856213038176115
 20
22.76958681981619
 10
43.68394531581534
 20
22.876709773410056
 10
43.50504025549425
 20
22.97233652042963
 10
43.32026395614712
 20
23.05605757246329
 10
43.13040765825515
 20
23.127514423113126
 10
42.93628435563316
 20
23.18640108317441
 10
42.73872531406534
 20
23.23246539092831
 10
42.53857651169751
 20
23.26551009193711
 10
42.33669501642879
 20
23.28539368371797
 10
42.133945315815346
 20
23.292031021678298
 10
41.9311956152019
 20
23.28539368371797
 10
41.729314119933186
 20
23.26551009193711
 10
41.52916531756535
 20
23.23246539092831
 10
41.33160627599753
 20
23.18640108317441
 10
41.13748297337555
 20
23.127514423113126
 10
40.94762667548357
 20
23.05605757246329
 10
40.76285037613644
 20
22.97233652042963
 10
40.58394531581535
 20
22.876709773410056
 10
40.41167759345458
 20
22.769586819816183
 10
40.24678488588832
 20
22.651426376581128
 10
40.08997328900513
 20
22.522734424863124
 10
39.94191429413705
 20
22.384062043356593
 10
39.80324191263052
 20
22.236003048488506
 10
39.674549960912515
 20
22.079191451605332
 10
39.55638951767746
 20
21.914298744039066
 10
39.44926656408359
 20
21.742031021678294
 10
39.353639817064014
 20
21.5631259613572
 10
39.269918765030354
 20
21.378349662010073
 10
39.198461914380516
 20
21.188493364118095
 10
39.13957525431924
 20
20.994370061496113
 10
39.09351094656533
 20
20.796811019928292
 10
39.06046624555653
 20
20.596662217560457
 10
39.04058265377567
 20
20.394780722291742
 10
39.033945315815345
 20
20.192031021678297
 10
39.04058265377567
 20
19.98928132106485
 10
39.06046624555653
 20
19.787399825796136
 10
39.09351094656533
 20
19.587251023428298
 10
39.13957525431924
 20
19.38969198186048
 10
39.198461914380516
 20
19.195568679238495
 10
39.269918765030354
 20
19.00571238134652
 10
39.353639817064014
 20
18.820936081999392
 10
39.44926656408359
 20
18.642031021678296
 10
39.55638951767746
 20
18.469763299317528
 10
39.674549960912515
 20
18.30487059175126
 10
39.80324191263052
 20
18.148058994868084
 10
39.94191429413705
 20
18.0
 10
40.08997328900514
 20
17.861327618493466
 10
40.24678488588832
 20
17.732635666775465
 10
40.411677593454584
 20
17.614475223540406
 10
40.58394531581535
 20
17.507352269946537
 10
40.76285037613644
 20
17.411725522926965
 10
40.94762667548357
 20
17.32800447089331
 10
41.13748297337555
 20
17.25654762024347
 10
41.33160627599753
 20
17.197660960182183
 10
41.52916531756535
 20
17.15159665242828
 10
41.72931411993319
 20
17.118551951419484
 10
41.9311956152019
 20
17.098668359638626
 10
42.133945315815346
 20
17.092031021678295
 10
42.33669501642879
 20
17.098668359638626
 10
42.53857651169751
 20
17.118551951419484
 10
42.73872531406535
 20
17.15159665242828
 10
42.93628435563316
 20
17.197660960182183
 10
43.13040765825515
 20
17.25654762024347
 10
43.32026395614713
 20
17.32800447089331
 10
43.50504025549425
 20
17.411725522926965
 10
43.68394531581535
 20
17.507352269946537
 10
43.856213038176115
 20
17.614475223540406
 10
44.02110574574238
 20
17.73263566677547
 10
44.17791734262556
 20
17.861327618493466
 10
44.32597633749364
 20
18.0
 10
44.46464871900018
 20
18.148058994868084
  0
LWPOLYLINE
  5
8E
330
17
100
AcDbEntity
  8
CUT
100
AcDbPolyline
 90
97
 70
1
 10
61.91237742066805
 20
19.389691981860484
 10
61.95844172842196
 20
19.587251023428298
 10
61.99148642943076
 20
19.787399825796136
 10
62.01137002121162
 20
19.989281321064855
 10
62.018007359171946
 20
20.192031021678297
 10
62.01137002121162
 20
20.394780722291742
 10
61.99148642943075
 20
20.596662217560457
 10
61.95844172842196
 20
20.7968110199283
 10
61.91237742066805
 20
20.994370061496113
 10
61.853490760606775
 20
21.188493364118095
 10
61.78203390995693
 20
21.378349662010073
 10
61.69831285792328
 20
21.5631259613572
 10
61.602686110903704
 20
21.7420310216783
 10
61.49556315730983
 20
21.914298744039066
 10
61.37740271407477
 20
22.079191451605332
 10
61.24871076235677
 20
22.236003048488513
 10
61.11003838085024
 20
22.384062043356593
 10
60.961979385982154
 20
22.52273442486313
 10
60.805167789098974
 20
22.651426376581128
 10
60.64027508153271
 20
22.76958681981619
 10
60.46800735917194
 20
22.876709773410056
 10
60.28910229885085
 20
22.97233652042963
 10
60.10432599950372
 20
23.05605757246329
 10
59.91446970161174
 20
23.127514423113126
 10
59.720346398989754
 20
23.18640108317441
 10
59.52278735742194
 20
23.23246539092831
 10
59.3226385550541
 20
23.26551009193711
 10
59.12075705978538
 20
23.28539368371797
 10
58.918007359171945
 20
23.292031021678298
 10
58.7152576585585
 20
23.28539368371797
 10
58.51337616328978
 20
23.26551009193711
 10
58.31322736092194
 20
23.23246539092831
 10
58.11566831935413
 20
23.18640108317441
 10
57.92154501673214
 20
23.127514423113126
 10
57.73168871884016
 20
23.05605757246329
 10
57.54691241949304
 20
22.97233652042963
 10
57.36800735917194
 20
22.876709773410056
 10
57.195739636811176
 20
22.769586819816183
 10
57.03084692924491
 20
22.651426376581128
 10
56.87403533236173
 20
22.522734424863124
 10
56.72597633749365
 20
22.384062043356593
 10
56.58730395598711
 20
22.236003048488506
 10
56.45861200426911
 20
22.079191451605332
 10
56.34045156103405
 20
21.914298744039066
 10
56.233328607440185
 20
21.742031021678294
 10
56.137701860420606
 20
21.5631259613572
 10
56.05398080838695
 20
21.378349662010073
 10
55.982523957737115
 20
21.188493364118095
 10
55.92363729767583
 20
20.994370061496113
 10
55.87757298992193
 20
20.796811019928292
 10
55.84452828891313
 20
20.596662217560457
 10
55.82464469713227
 20
20.394780722291742
 10
55.81800735917194
 20
20.192031021678297
 10
55.82464469713227
 20
19.98928132106485
 10
55.84452828891313
 20
19.787399825796136
 10
55.87757298992193
 20
19.587251023428298
 10
55.92363729767583
 20
19.38969198186048
 10
55.982523957737115
 20
19.195568679238495
 10
56.05398080838695
 20
19.00571238134652
 10
56.137701860420606
 20
18.820936081999392
 10
56.233328607440185
 20
18.642031021678296
 10
56.34045156103405
 20
18.469763299317528
 10
56.45861200426911
 20
18.30487059175126
 10
56.58730395598711
 20
18.148058994868084
 10
56.72597633749365
 20
18.0
 10
56.87403533236173
 20
17.861327618493466
 10
57.03084692924491
 20
17.732635666775465
 10
57.195739636811176
 20
17.614475223540406
 10
57.36800735917194
 20
17.507352269946537
 10
57.54691241949304
 20
17.411725522926965
 10
57.73168871884017
 20
17.32800447089331
 10
57.92154501673214
 20
17.25654762024347
 10
58.11566831935413
 20
17.197660960182183
 10
58.31322736092194
 20
17.15159665242828
 10
58.513376163289784
 20
17.118551951419484
 10
58.7152576585585
 20
17.098668359638626
 10
58.918007359171945
 20
17.092031021678295
 10
59.12075705978539
 20
17.098668359638626
 10
59.322638555054105
 20
17.118551951419484
 10
59.52278735742194
 20
17.15159665242828
 10
59.72034639898976
 20
17.197660960182183
 10
59.91446970161174
 20
17.25654762024347
 10
60.10432599950372
 20
17.32800447089331
 10
60.28910229885085
 20
17.411725522926965
 10
60.46800735917194
 20
17.507352269946537
 10
60.64027508153271
 20
17.614475223540406
 10
60.805167789098974
 20
17.73263566677547
 10
60.96197938598216
 20
17.861327618493466
 10
61.11003838085024
 20
18.0
 10
61.24871076235677
 20
18.148058994868084
 10
61.377402714074776
 20
18.304870591751264
 10
61.49556315730983
 20
18.46976329931753
 10
61.602686110903704
 20
18.642031021678296
 10
61.69831285792328
 20
18.820936081999392
 10
61.78203390995694
 20
19.00571238134652
 10
61.853490760606775
 20
19.195568679238495
 10
61.91237742066805
 20
19.389691981860484
  0
TEXT
  5
8F
330
17
100
AcDbEntity
  8
LABEL
100
AcDbText
 10
2.0
 20
-14.0
 30
0.0
 40
8.0
  1
P3_rib_R1_end  qty 2  t12
 11
2.0
 21
-14.0
 31
0.0
100
AcDbText
  0
ENDSEC
  0
SECTION
  2
OBJECTS
  0
DICTIONARY
  5
A
330
0
100
AcDbDictionary
281
1
  3
ACAD_COLOR
350
B
  3
ACAD_GROUP
350
C
  3
ACAD_LAYOUT
350
D
  3
ACAD_MATERIAL
350
E
  3
ACAD_MLEADERSTYLE
350
F
  3
ACAD_MLINESTYLE
350
10
  3
ACAD_PLOTSETTINGS
350
11
  3
ACAD_PLOTSTYLENAME
350
12
  3
ACAD_SCALELIST
350
14
  3
ACAD_TABLESTYLE
350
15
  3
ACAD_VISUALSTYLE
350
16
  3
EZDXF_META
350
2D
  0
DICTIONARY
  5
B
330
A
100
AcDbDictionary
281
1
  0
DICTIONARY
  5
C
330
A
100
AcDbDictionary
281
1
  0
DICTIONARY
  5
D
330
A
100
AcDbDictionary
281
1
  3
Model
350
1A
  3
Layout1
350
1E
  0
DICTIONARY
  5
E
330
A
100
AcDbDictionary
281
1
  3
ByBlock
350
1F
  3
ByLayer
350
20
  3
Global
350
21
  0
DICTIONARY
  5
F
330
A
100
AcDbDictionary
281
1
  3
Standard
350
2C
  0
DICTIONARY
  5
10
330
A
100
AcDbDictionary
281
1
  3
Standard
350
22
  0
DICTIONARY
  5
11
330
A
100
AcDbDictionary
281
1
  0
ACDBDICTIONARYWDFLT
  5
12
330
A
100
AcDbDictionary
281
1
  3
Normal
350
13
100
AcDbDictionaryWithDefault
340
13
  0
ACDBPLACEHOLDER
  5
13
330
12
  0
DICTIONARY
  5
14
330
A
100
AcDbDictionary
281
1
  0
DICTIONARY
  5
15
330
A
100
AcDbDictionary
281
1
  0
DICTIONARY
  5
16
330
A
100
AcDbDictionary
281
1
  3
2dWireframe
350
5A
  3
Basic
350
5B
  3
Brighten
350
5C
  3
ColorChange
350
5D
  3
Conceptual
350
5E
  3
Dim
350
5F
  3
EdgeColorOff
350
60
  3
Facepattern
350
61
  3
Flat
350
62
  3
FlatWithEdges
350
63
  3
Gouraud
350
64
  3
GouraudWithEdges
350
65
  3
Hidden
350
66
  3
JitterOff
350
67
  3
Linepattern
350
68
  3
Modeling
350
69
  3
OverhangOff
350
6A
  3
Realistic
350
6B
  3
Shaded
350
6C
  3
Shaded with edges
350
6D
  3
Shades of Gray
350
6E
  3
Sketchy
350
6F
  3
Thicken
350
70
  3
Wireframe
350
71
  3
X-Ray
350
72
  0
LAYOUT
  5
1A
330
D
100
AcDbPlotSettings
  1

  4
A3
  6

 40
7.5
 41
20.0
 42
7.5
 43
20.0
 44
420.0
 45
297.0
 46
0.0
 47
0.0
 48
0.0
 49
0.0
140
0.0
141
0.0
142
1.0
143
1.0
 70
1024
 72
1
 73
0
 74
5
  7

 75
16
 76
0
 77
2
 78
300
147
1.0
148
0.0
149
0.0
100
AcDbLayout
  1
Model
 70
1
 71
0
 10
0.0
 20
0.0
 11
420.0
 21
297.0
 12
0.0
 22
0.0
 32
0.0
 14
1e+20
 24
1e+20
 34
1e+20
 15
-1e+20
 25
-1e+20
 35
-1e+20
146
0.0
 13
0.0
 23
0.0
 33
0.0
 16
1.0
 26
0.0
 36
0.0
 17
0.0
 27
1.0
 37
0.0
 76
1
330
17
  0
LAYOUT
  5
1E
330
D
100
AcDbPlotSettings
  1

  4
A3
  6

 40
7.5
 41
20.0
 42
7.5
 43
20.0
 44
420.0
 45
297.0
 46
0.0
 47
0.0
 48
0.0
 49
0.0
140
0.0
141
0.0
142
1.0
143
1.0
 70
0
 72
1
 73
0
 74
5
  7

 75
16
 76
0
 77
2
 78
300
147
1.0
148
0.0
149
0.0
100
AcDbLayout
  1
Layout1
 70
1
 71
1
 10
0.0
 20
0.0
 11
420.0
 21
297.0
 12
0.0
 22
0.0
 32
0.0
 14
1e+20
 24
1e+20
 34
1e+20
 15
-1e+20
 25
-1e+20
 35
-1e+20
146
0.0
 13
0.0
 23
0.0
 33
0.0
 16
1.0
 26
0.0
 36
0.0
 17
0.0
 27
1.0
 37
0.0
 76
1
330
1B
  0
MATERIAL
  5
1F
102
{ACAD_REACTORS
330
E
102
}
330
E
100
AcDbMaterial
  1
ByBlock
  2

 70
0
 40
1.0
 71
1
 41
1.0
 91
-1023410177
 42
1.0
 72
1
  3

 73
1
 74
1
 75
1
 44
0.5
 73
0
 45
1.0
 46
1.0
 77
1
  4

 78
1
 79
1
170
1
 48
1.0
171
1
  6

172
1
173
1
174
1
140
1.0
141
1.0
175
1
  7

176
1
177
1
178
1
143
1.0
179
1
  8

270
1
271
1
272
1
145
1.0
146
1.0
273
1
  9

274
1
275
1
276
1
 42
1.0
 72
1
  3

 73
1
 74
1
 75
1
 94
63
  0
MATERIAL
  5
20
102
{ACAD_REACTORS
330
E
102
}
330
E
100
AcDbMaterial
  1
ByLayer
  2

 70
0
 40
1.0
 71
1
 41
1.0
 91
-1023410177
 42
1.0
 72
1
  3

 73
1
 74
1
 75
1
 44
0.5
 73
0
 45
1.0
 46
1.0
 77
1
  4

 78
1
 79
1
170
1
 48
1.0
171
1
  6

172
1
173
1
174
1
140
1.0
141
1.0
175
1
  7

176
1
177
1
178
1
143
1.0
179
1
  8

270
1
271
1
272
1
145
1.0
146
1.0
273
1
  9

274
1
275
1
276
1
 42
1.0
 72
1
  3

 73
1
 74
1
 75
1
 94
63
  0
MATERIAL
  5
21
102
{ACAD_REACTORS
330
E
102
}
330
E
100
AcDbMaterial
  1
Global
  2

 70
0
 40
1.0
 71
1
 41
1.0
 91
-1023410177
 42
1.0
 72
1
  3

 73
1
 74
1
 75
1
 44
0.5
 73
0
 45
1.0
 46
1.0
 77
1
  4

 78
1
 79
1
170
1
 48
1.0
171
1
  6

172
1
173
1
174
1
140
1.0
141
1.0
175
1
  7

176
1
177
1
178
1
143
1.0
179
1
  8

270
1
271
1
272
1
145
1.0
146
1.0
273
1
  9

274
1
275
1
276
1
 42
1.0
 72
1
  3

 73
1
 74
1
 75
1
 94
63
  0
MLINESTYLE
  5
22
102
{ACAD_REACTORS
330
10
102
}
330
10
100
AcDbMlineStyle
  2
Standard
 70
0
  3

 62
256
 51
90.0
 52
90.0
 71
2
 49
0.5
 62
256
  6
BYLAYER
 49
-0.5
 62
256
  6
BYLAYER
  0
MLEADERSTYLE
  5
2C
102
{ACAD_REACTORS
330
F
102
}
330
F
100
AcDbMLeaderStyle
179
2
170
2
171
1
172
0
 90
2
 40
0.0
 41
0.0
173
1
 91
-1056964608
 92
-2
290
1
 42
2.0
291
1
 43
8.0
  3
Standard
 44
4.0
300

342
29
174
1
175
1
176
0
178
1
 93
-1056964608
 45
4.0
292
0
297
0
 46
4.0
 94
-1056964608
 47
1.0
 49
1.0
140
1.0
294
1
141
0.0
177
0
142
1.0
295
0
296
0
143
3.75
271
0
272
9
273
9
  0
DICTIONARY
  5
2D
330
A
100
AcDbDictionary
280
1
281
1
  3
CREATED_BY_EZDXF
350
2E
  3
WRITTEN_BY_EZDXF
350
92
  0
DICTIONARYVAR
  5
2E
330
2D
100
DictionaryVariables
280
0
  1
1.4.4 @ 2026-07-14T16:02:56.877588+00:00
  0
VISUALSTYLE
  5
5A
102
{ACAD_REACTORS
330
16
102
}
330
16
100
AcDbVisualStyle
  2
2dWireframe
 70
4
 90
0
 40
0.6
 62
7
290
0
291
0
  0
VISUALSTYLE
  5
5B
102
{ACAD_REACTORS
330
16
102
}
330
16
100
AcDbVisualStyle
  2
Basic
 70
7
 90
1
 40
0.6
 62
7
290
0
291
1
  0
VISUALSTYLE
  5
5C
102
{ACAD_REACTORS
330
16
102
}
330
16
100
AcDbVisualStyle
  2
Brighten
 70
12
 90
2
 40
0.6
 62
7
290
0
291
1
  0
VISUALSTYLE
  5
5D
102
{ACAD_REACTORS
330
16
102
}
330
16
100
AcDbVisualStyle
  2
ColorChange
 70
16
 90
2
 40
0.6
 62
8
290
0
291
1
  0
VISUALSTYLE
  5
5E
102
{ACAD_REACTORS
330
16
102
}
330
16
100
AcDbVisualStyle
  2
Conceptual
 70
9
 90
3
 40
0.6
 62
7
290
0
291
0
  0
VISUALSTYLE
  5
5F
102
{ACAD_REACTORS
330
16
102
}
330
16
100
AcDbVisualStyle
  2
Dim
 70
11
 90
2
 40
0.6
 62
7
290
0
291
1
  0
VISUALSTYLE
  5
60
102
{ACAD_REACTORS
330
16
102
}
330
16
100
AcDbVisualStyle
  2
EdgeColorOff
 70
22
 90
2
 40
0.6
 62
7
290
0
291
1
  0
VISUALSTYLE
  5
61
102
{ACAD_REACTORS
330
16
102
}
330
16
100
AcDbVisualStyle
  2
Facepattern
 70
15
 90
2
 40
0.6
 62
7
290
0
291
1
  0
VISUALSTYLE
  5
62
102
{ACAD_REACTORS
330
16
102
}
330
16
100
AcDbVisualStyle
  2
Flat
 70
0
 90
2
 40
0.6
 62
7
290
0
291
1
  0
VISUALSTYLE
  5
63
102
{ACAD_REACTORS
330
16
102
}
330
16
100
AcDbVisualStyle
  2
FlatWithEdges
 70
1
 90
2
 40
0.6
 62
7
290
0
291
1
  0
VISUALSTYLE
  5
64
102
{ACAD_REACTORS
330
16
102
}
330
16
100
AcDbVisualStyle
  2
Gouraud
 70
2
 90
2
 40
0.6
 62
7
290
0
291
1
  0
VISUALSTYLE
  5
65
102
{ACAD_REACTORS
330
16
102
}
330
16
100
AcDbVisualStyle
  2
GouraudWithEdges
 70
3
 90
2
 40
0.6
 62
7
290
0
291
1
  0
VISUALSTYLE
  5
66
102
{ACAD_REACTORS
330
16
102
}
330
16
100
AcDbVisualStyle
  2
Hidden
 70
6
 90
1
 40
0.6
 62
7
290
0
291
0
  0
VISUALSTYLE
  5
67
102
{ACAD_REACTORS
330
16
102
}
330
16
100
AcDbVisualStyle
  2
JitterOff
 70
20
 90
2
 40
0.6
 62
7
290
0
291
1
  0
VISUALSTYLE
  5
68
102
{ACAD_REACTORS
330
16
102
}
330
16
100
AcDbVisualStyle
  2
Linepattern
 70
14
 90
2
 40
0.6
 62
7
290
0
291
1
  0
VISUALSTYLE
  5
69
102
{ACAD_REACTORS
330
16
102
}
330
16
100
AcDbVisualStyle
  2
Modeling
 70
10
 90
2
 40
0.6
 62
7
290
0
291
0
  0
VISUALSTYLE
  5
6A
102
{ACAD_REACTORS
330
16
102
}
330
16
100
AcDbVisualStyle
  2
OverhangOff
 70
21
 90
2
 40
0.6
 62
7
290
0
291
1
  0
VISUALSTYLE
  5
6B
102
{ACAD_REACTORS
330
16
102
}
330
16
100
AcDbVisualStyle
  2
Realistic
 70
8
 90
2
 40
0.6
 62
7
290
0
291
0
  0
VISUALSTYLE
  5
6C
102
{ACAD_REACTORS
330
16
102
}
330
16
100
AcDbVisualStyle
  2
Shaded
 70
27
 90
2
 40
0.6
 62
7
290
0
291
0
  0
VISUALSTYLE
  5
6D
102
{ACAD_REACTORS
330
16
102
}
330
16
100
AcDbVisualStyle
  2
Shaded with edges
 70
26
 90
2
 40
0.6
 62
7
290
0
291
0
  0
VISUALSTYLE
  5
6E
102
{ACAD_REACTORS
330
16
102
}
330
16
100
AcDbVisualStyle
  2
Shades of Gray
 70
23
 90
2
 40
0.6
 62
7
290
0
291
0
  0
VISUALSTYLE
  5
6F
102
{ACAD_REACTORS
330
16
102
}
330
16
100
AcDbVisualStyle
  2
Sketchy
 70
24
 90
1
 40
0.6
 62
7
290
0
291
0
  0
VISUALSTYLE
  5
70
102
{ACAD_REACTORS
330
16
102
}
330
16
100
AcDbVisualStyle
  2
Thicken
 70
13
 90
2
 40
0.6
 62
7
290
0
291
1
  0
VISUALSTYLE
  5
71
102
{ACAD_REACTORS
330
16
102
}
330
16
100
AcDbVisualStyle
  2
Wireframe
 70
5
 90
0
 40
0.6
 62
7
290
0
291
0
  0
VISUALSTYLE
  5
72
102
{ACAD_REACTORS
330
16
102
}
330
16
100
AcDbVisualStyle
  2
X-Ray
 70
25
 90
2
 40
0.5
 62
7
290
0
291
0
  0
DICTIONARYVAR
  5
92
330
2D
100
DictionaryVariables
280
0
  1
1.4.4 @ 2026-07-14T16:02:56.885791+00:00
  0
ENDSEC
  0
EOF
