  0
SECTION
  2
HEADER
  9
$ACADVER
  1
AC1024
  9
$ACADMAINTVER
 70
6
  9
$DWGCODEPAGE
  3
ANSI_1252
  9
$LASTSAVEDBY
  1
ezdxf
  9
$INSBASE
 10
0.0
 20
0.0
 30
0.0
  9
$EXTMIN
 10
1e+20
 20
1e+20
 30
1e+20
  9
$EXTMAX
 10
-1e+20
 20
-1e+20
 30
-1e+20
  9
$LIMMIN
 10
0.0
 20
0.0
  9
$LIMMAX
 10
420.0
 20
297.0
  9
$ORTHOMODE
 70
0
  9
$REGENMODE
 70
1
  9
$FILLMODE
 70
1
  9
$QTEXTMODE
 70
0
  9
$MIRRTEXT
 70
1
  9
$LTSCALE
 40
1.0
  9
$ATTMODE
 70
1
  9
$TEXTSIZE
 40
2.5
  9
$TRACEWID
 40
1.0
  9
$TEXTSTYLE
  7
OpenSans
  9
$CLAYER
  8
0
  9
$CELTYPE
  6
ByLayer
  9
$CECOLOR
 62
256
  9
$CELTSCALE
 40
1.0
  9
$DISPSILH
 70
0
  9
$DIMSCALE
 40
1.0
  9
$DIMASZ
 40
0.175
  9
$DIMEXO
 40
0.125
  9
$DIMDLI
 40
3.75
  9
$DIMRND
 40
0.0
  9
$DIMDLE
 40
0.0
  9
$DIMEXE
 40
0.375
  9
$DIMTP
 40
0.0
  9
$DIMTM
 40
0.0
  9
$DIMTXT
 40
0.25
  9
$DIMCEN
 40
2.5
  9
$DIMTSZ
 40
0.0
  9
$DIMTOL
 70
0
  9
$DIMLIM
 70
0
  9
$DIMTIH
 70
0
  9
$DIMTOH
 70
0
  9
$DIMSE1
 70
0
  9
$DIMSE2
 70
0
  9
$DIMTAD
 70
1
  9
$DIMZIN
 70
12
  9
$DIMBLK
  1
ARCHTICK
  9
$DIMASO
 70
1
  9
$DIMSHO
 70
1
  9
$DIMPOST
  1

  9
$DIMAPOST
  1

  9
$DIMALT
 70
0
  9
$DIMALTD
 70
3
  9
$DIMALTF
 40
0.03937007874
  9
$DIMLFAC
 40
100.0
  9
$DIMTOFL
 70
1
  9
$DIMTVP
 40
0.0
  9
$DIMTIX
 70
0
  9
$DIMSOXD
 70
0
  9
$DIMSAH
 70
0
  9
$DIMBLK1
  1

  9
$DIMBLK2
  1

  9
$DIMSTYLE
  2
EZDXF
  9
$DIMCLRD
 70
0
  9
$DIMCLRE
 70
0
  9
$DIMCLRT
 70
0
  9
$DIMTFAC
 40
0.5
  9
$DIMGAP
 40
0.1
  9
$DIMJUST
 70
0
  9
$DIMSD1
 70
0
  9
$DIMSD2
 70
0
  9
$DIMTOLJ
 70
0
  9
$DIMTZIN
 70
8
  9
$DIMALTZ
 70
0
  9
$DIMALTTZ
 70
0
  9
$DIMUPT
 70
1
  9
$DIMDEC
 70
2
  9
$DIMTDEC
 70
2
  9
$DIMALTU
 70
2
  9
$DIMALTTD
 70
3
  9
$DIMTXSTY
  7
OpenSansCondensed-Light
  9
$DIMAUNIT
 70
0
  9
$DIMADEC
 70
2
  9
$DIMALTRND
 40
0.0
  9
$DIMAZIN
 70
3
  9
$DIMDSEP
 70
46
  9
$DIMATFIT
 70
3
  9
$DIMFRAC
 70
0
  9
$DIMLDRBLK
  1

  9
$DIMLUNIT
 70
2
  9
$DIMLWD
 70
-2
  9
$DIMLWE
 70
-2
  9
$DIMTMOVE
 70
2
  9
$DIMFXL
 40
1.0
  9
$DIMFXLON
 70
0
  9
$DIMJOGANG
 40
0.785398163397
  9
$DIMTFILL
 70
0
  9
$DIMTFILLCLR
 70
0
  9
$DIMARCSYM
 70
0
  9
$DIMLTYPE
  6

  9
$DIMLTEX1
  6

  9
$DIMLTEX2
  6

  9
$DIMTXTDIRECTION
 70
0
  9
$LUNITS
 70
2
  9
$LUPREC
 70
4
  9
$SKETCHINC
 40
1.0
  9
$FILLETRAD
 40
10.0
  9
$AUNITS
 70
0
  9
$AUPREC
 70
2
  9
$MENU
  1
.
  9
$ELEVATION
 40
0.0
  9
$PELEVATION
 40
0.0
  9
$THICKNESS
 40
0.0
  9
$LIMCHECK
 70
0
  9
$CHAMFERA
 40
0.0
  9
$CHAMFERB
 40
0.0
  9
$CHAMFERC
 40
0.0
  9
$CHAMFERD
 40
0.0
  9
$SKPOLY
 70
0
  9
$TDCREATE
 40
2461236.6687037037
  9
$TDUCREATE
 40
2458532.153996898
  9
$TDUPDATE
 40
2461236.6687037037
  9
$TDUUPDATE
 40
2458532.1544311
  9
$TDINDWG
 40
0.0
  9
$TDUSRTIMER
 40
0.0
  9
$USRTIMER
 70
1
  9
$ANGBASE
 50
0.0
  9
$ANGDIR
 70
0
  9
$PDMODE
 70
0
  9
$PDSIZE
 40
0.0
  9
$PLINEWID
 40
0.0
  9
$SPLFRAME
 70
0
  9
$SPLINETYPE
 70
6
  9
$SPLINESEGS
 70
8
  9
$HANDSEED
  5
93
  9
$SURFTAB1
 70
6
  9
$SURFTAB2
 70
6
  9
$SURFTYPE
 70
6
  9
$SURFU
 70
6
  9
$SURFV
 70
6
  9
$UCSBASE
  2

  9
$UCSNAME
  2

  9
$UCSORG
 10
0.0
 20
0.0
 30
0.0
  9
$UCSXDIR
 10
1.0
 20
0.0
 30
0.0
  9
$UCSYDIR
 10
0.0
 20
1.0
 30
0.0
  9
$UCSORTHOREF
  2

  9
$UCSORTHOVIEW
 70
0
  9
$UCSORGTOP
 10
0.0
 20
0.0
 30
0.0
  9
$UCSORGBOTTOM
 10
0.0
 20
0.0
 30
0.0
  9
$UCSORGLEFT
 10
0.0
 20
0.0
 30
0.0
  9
$UCSORGRIGHT
 10
0.0
 20
0.0
 30
0.0
  9
$UCSORGFRONT
 10
0.0
 20
0.0
 30
0.0
  9
$UCSORGBACK
 10
0.0
 20
0.0
 30
0.0
  9
$PUCSBASE
  2

  9
$PUCSNAME
  2

  9
$PUCSORG
 10
0.0
 20
0.0
 30
0.0
  9
$PUCSXDIR
 10
1.0
 20
0.0
 30
0.0
  9
$PUCSYDIR
 10
0.0
 20
1.0
 30
0.0
  9
$PUCSORTHOREF
  2

  9
$PUCSORTHOVIEW
 70
0
  9
$PUCSORGTOP
 10
0.0
 20
0.0
 30
0.0
  9
$PUCSORGBOTTOM
 10
0.0
 20
0.0
 30
0.0
  9
$PUCSORGLEFT
 10
0.0
 20
0.0
 30
0.0
  9
$PUCSORGRIGHT
 10
0.0
 20
0.0
 30
0.0
  9
$PUCSORGFRONT
 10
0.0
 20
0.0
 30
0.0
  9
$PUCSORGBACK
 10
0.0
 20
0.0
 30
0.0
  9
$USERI1
 70
0
  9
$USERI2
 70
0
  9
$USERI3
 70
0
  9
$USERI4
 70
0
  9
$USERI5
 70
0
  9
$USERR1
 40
0.0
  9
$USERR2
 40
0.0
  9
$USERR3
 40
0.0
  9
$USERR4
 40
0.0
  9
$USERR5
 40
0.0
  9
$WORLDVIEW
 70
1
  9
$SHADEDGE
 70
3
  9
$SHADEDIF
 70
70
  9
$TILEMODE
 70
1
  9
$MAXACTVP
 70
64
  9
$PINSBASE
 10
0.0
 20
0.0
 30
0.0
  9
$PLIMCHECK
 70
0
  9
$PEXTMIN
 10
1e+20
 20
1e+20
 30
1e+20
  9
$PEXTMAX
 10
-1e+20
 20
-1e+20
 30
-1e+20
  9
$PLIMMIN
 10
0.0
 20
0.0
  9
$PLIMMAX
 10
420.0
 20
297.0
  9
$UNITMODE
 70
0
  9
$VISRETAIN
 70
1
  9
$PLINEGEN
 70
0
  9
$PSLTSCALE
 70
1
  9
$TREEDEPTH
 70
3020
  9
$CMLSTYLE
  2
Standard
  9
$CMLJUST
 70
0
  9
$CMLSCALE
 40
20.0
  9
$PROXYGRAPHICS
 70
1
  9
$MEASUREMENT
 70
1
  9
$CELWEIGHT
370
-1
  9
$ENDCAPS
280
0
  9
$JOINSTYLE
280
0
  9
$LWDISPLAY
290
0
  9
$INSUNITS
 70
4
  9
$HYPERLINKBASE
  1

  9
$STYLESHEET
  1

  9
$XEDIT
290
1
  9
$CEPSNTYPE
380
0
  9
$PSTYLEMODE
290
1
  9
$FINGERPRINTGUID
  2
{49D837A8-01B5-405D-976A-36EAF53A0AD6}
  9
$VERSIONGUID
  2
{A2982E61-E963-464F-8A94-E4608AEE2256}
  9
$EXTNAMES
290
1
  9
$PSVPSCALE
 40
0.0
  9
$OLESTARTUP
290
0
  9
$SORTENTS
280
127
  9
$INDEXCTL
280
0
  9
$HIDETEXT
280
1
  9
$XCLIPFRAME
280
1
  9
$HALOGAP
280
0
  9
$OBSCOLOR
 70
257
  9
$OBSLTYPE
280
0
  9
$INTERSECTIONDISPLAY
280
0
  9
$INTERSECTIONCOLOR
 70
257
  9
$DIMASSOC
280
2
  9
$PROJECTNAME
  1

  9
$CAMERADISPLAY
290
0
  9
$LENSLENGTH
 40
50.0
  9
$CAMERAHEIGHT
 40
0.0
  9
$STEPSPERSEC
 40
24.0
  9
$STEPSIZE
 40
100.0
  9
$3DDWFPREC
 40
2.0
  9
$PSOLWIDTH
 40
0.005
  9
$PSOLHEIGHT
 40
0.08
  9
$LOFTANG1
 40
1.570796326795
  9
$LOFTANG2
 40
1.570796326795
  9
$LOFTMAG1
 40
0.0
  9
$LOFTMAG2
 40
0.0
  9
$LOFTPARAM
 70
7
  9
$LOFTNORMALS
280
1
  9
$LATITUDE
 40
37.795
  9
$LONGITUDE
 40
-122.394
  9
$NORTHDIRECTION
 40
0.0
  9
$TIMEZONE
 70
-8000
  9
$LIGHTGLYPHDISPLAY
280
1
  9
$TILEMODELIGHTSYNCH
280
1
  9
$CMATERIAL
347
20
  9
$SOLIDHIST
280
0
  9
$SHOWHIST
280
1
  9
$DWFFRAME
280
2
  9
$DGNFRAME
280
2
  9
$REALWORLDSCALE
290
1
  9
$INTERFERECOLOR
 62
256
  9
$CSHADOW
280
0
  9
$SHADOWPLANELOCATION
 40
0.0
  0
ENDSEC
  0
SECTION
  2
CLASSES
  0
CLASS
  1
ACDBDICTIONARYWDFLT
  2
AcDbDictionaryWithDefault
  3
ObjectDBX Classes
 90
0
 91
0
280
0
281
0
  0
CLASS
  1
SUN
  2
AcDbSun
  3
SCENEOE
 90
1153
 91
0
280
0
281
0
  0
CLASS
  1
VISUALSTYLE
  2
AcDbVisualStyle
  3
ObjectDBX Classes
 90
4095
 91
0
280
0
281
0
  0
CLASS
  1
MATERIAL
  2
AcDbMaterial
  3
ObjectDBX Classes
 90
1153
 91
0
280
0
281
0
  0
CLASS
  1
SCALE
  2
AcDbScale
  3
ObjectDBX Classes
 90
1153
 91
0
280
0
281
0
  0
CLASS
  1
TABLESTYLE
  2
AcDbTableStyle
  3
ObjectDBX Classes
 90
4095
 91
0
280
0
281
0
  0
CLASS
  1
MLEADERSTYLE
  2
AcDbMLeaderStyle
  3
ACDB_MLEADERSTYLE_CLASS
 90
4095
 91
0
280
0
281
0
  0
CLASS
  1
DICTIONARYVAR
  2
AcDbDictionaryVar
  3
ObjectDBX Classes
 90
0
 91
0
280
0
281
0
  0
CLASS
  1
CELLSTYLEMAP
  2
AcDbCellStyleMap
  3
ObjectDBX Classes
 90
1152
 91
0
280
0
281
0
  0
CLASS
  1
MENTALRAYRENDERSETTINGS
  2
AcDbMentalRayRenderSettings
  3
SCENEOE
 90
1024
 91
0
280
0
281
0
  0
CLASS
  1
ACDBDETAILVIEWSTYLE
  2
AcDbDetailViewStyle
  3
ObjectDBX Classes
 90
1025
 91
0
280
0
281
0
  0
CLASS
  1
ACDBSECTIONVIEWSTYLE
  2
AcDbSectionViewStyle
  3
ObjectDBX Classes
 90
1025
 91
0
280
0
281
0
  0
CLASS
  1
RASTERVARIABLES
  2
AcDbRasterVariables
  3
ISM
 90
0
 91
0
280
0
281
0
  0
CLASS
  1
ACDBPLACEHOLDER
  2
AcDbPlaceHolder
  3
ObjectDBX Classes
 90
0
 91
0
280
0
281
0
  0
CLASS
  1
LAYOUT
  2
AcDbLayout
  3
ObjectDBX Classes
 90
0
 91
0
280
0
281
0
  0
ENDSEC
  0
SECTION
  2
TABLES
  0
TABLE
  2
VPORT
  5
8
330
0
100
AcDbSymbolTable
 70
1
  0
VPORT
  5
23
330
8
100
AcDbSymbolTableRecord
100
AcDbViewportTableRecord
  2
*Active
 70
0
 10
0.0
 20
0.0
 11
1.0
 21
1.0
 12
0.0
 22
0.0
 13
0.0
 23
0.0
 14
0.5
 24
0.5
 15
0.5
 25
0.5
 16
0.0
 26
0.0
 36
1.0
 17
0.0
 27
0.0
 37
0.0
 40
1000.0
 41
1.34
 42
50.0
 43
0.0
 44
0.0
 50
0.0
 51
0.0
 71
0
 72
1000
 73
1
 74
3
 75
0
 76
0
 77
0
 78
0
281
0
 65
0
146
0.0
  0
ENDTAB
  0
TABLE
  2
LTYPE
  5
2
330
0
100
AcDbSymbolTable
 70
21
  0
LTYPE
  5
24
330
2
100
AcDbSymbolTableRecord
100
AcDbLinetypeTableRecord
  2
ByBlock
 70
0
  3

 72
65
 73
0
 40
0.0
  0
LTYPE
  5
25
330
2
100
AcDbSymbolTableRecord
100
AcDbLinetypeTableRecord
  2
ByLayer
 70
0
  3

 72
65
 73
0
 40
0.0
  0
LTYPE
  5
26
330
2
100
AcDbSymbolTableRecord
100
AcDbLinetypeTableRecord
  2
Continuous
 70
0
  3

 72
65
 73
0
 40
0.0
  0
LTYPE
  5
2F
330
2
100
AcDbSymbolTableRecord
100
AcDbLinetypeTableRecord
  2
CENTER
 70
0
  3
Center ____ _ ____ _ ____ _ ____ _ ____ _ ____
 72
65
 73
4
 40
5.08
 49
3.175
 74
0
 49
-0.635
 74
0
 49
0.635
 74
0
 49
-0.635
 74
0
  0
LTYPE
  5
30
330
2
100
AcDbSymbolTableRecord
100
AcDbLinetypeTableRecord
  2
CENTERX2
 70
0
  3
Center (2x) ________  __  ________  __  ________
 72
65
 73
4
 40
8.89
 49
6.35
 74
0
 49
-0.635
 74
0
 49
1.27
 74
0
 49
-0.635
 74
0
  0
LTYPE
  5
31
330
2
100
AcDbSymbolTableRecord
100
AcDbLinetypeTableRecord
  2
CENTER2
 70
0
  3
Center (.5x) ____ _ ____ _ ____ _ ____ _ ____
 72
65
 73
4
 40
2.54
 49
1.587
 74
0
 49
-0.318
 74
0
 49
0.318
 74
0
 49
-0.318
 74
0
  0
LTYPE
  5
32
330
2
100
AcDbSymbolTableRecord
100
AcDbLinetypeTableRecord
  2
DASHED
 70
0
  3
Dashed __ __ __ __ __ __ __ __ __ __ __ __ __ _
 72
65
 73
2
 40
1.524
 49
1.27
 74
0
 49
-0.254
 74
0
  0
LTYPE
  5
33
330
2
100
AcDbSymbolTableRecord
100
AcDbLinetypeTableRecord
  2
DASHEDX2
 70
0
  3
Dashed (2x) ____  ____  ____  ____  ____  ____
 72
65
 73
2
 40
3.048
 49
2.54
 74
0
 49
-0.508
 74
0
  0
LTYPE
  5
34
330
2
100
AcDbSymbolTableRecord
100
AcDbLinetypeTableRecord
  2
DASHED2
 70
0
  3
Dashed (.5x) _ _ _ _ _ _ _ _ _ _ _ _ _ _
 72
65
 73
2
 40
0.762
 49
0.635
 74
0
 49
-0.127
 74
0
  0
LTYPE
  5
35
330
2
100
AcDbSymbolTableRecord
100
AcDbLinetypeTableRecord
  2
PHANTOM
 70
0
  3
Phantom ______  __  __  ______  __  __  ______
 72
65
 73
6
 40
6.35
 49
3.175
 74
0
 49
-0.635
 74
0
 49
0.635
 74
0
 49
-0.635
 74
0
 49
0.635
 74
0
 49
-0.635
 74
0
  0
LTYPE
  5
36
330
2
100
AcDbSymbolTableRecord
100
AcDbLinetypeTableRecord
  2
PHANTOMX2
 70
0
  3
Phantom (2x)____________    ____    ____    ____________
 72
65
 73
6
 40
10.795
 49
6.35
 74
0
 49
-0.635
 74
0
 49
1.27
 74
0
 49
-0.635
 74
0
 49
1.27
 74
0
 49
-0.635
 74
0
  0
LTYPE
  5
37
330
2
100
AcDbSymbolTableRecord
100
AcDbLinetypeTableRecord
  2
PHANTOM2
 70
0
  3
Phantom (.5x) ___ _ _ ___ _ _ ___ _ _ ___ _ _ ___
 72
65
 73
6
 40
3.175
 49
1.587
 74
0
 49
-0.318
 74
0
 49
0.318
 74
0
 49
-0.318
 74
0
 49
0.318
 74
0
 49
-0.318
 74
0
  0
LTYPE
  5
38
330
2
100
AcDbSymbolTableRecord
100
AcDbLinetypeTableRecord
  2
DASHDOT
 70
0
  3
Dash dot __ . __ . __ . __ . __ . __ . __ . __
 72
65
 73
4
 40
3.556
 49
2.54
 74
0
 49
-0.508
 74
0
 49
0.0
 74
0
 49
-0.508
 74
0
  0
LTYPE
  5
39
330
2
100
AcDbSymbolTableRecord
100
AcDbLinetypeTableRecord
  2
DASHDOTX2
 70
0
  3
Dash dot (2x) ____  .  ____  .  ____  .  ____
 72
65
 73
4
 40
6.096
 49
5.08
 74
0
 49
-0.508
 74
0
 49
0.0
 74
0
 49
-0.508
 74
0
  0
LTYPE
  5
3A
330
2
100
AcDbSymbolTableRecord
100
AcDbLinetypeTableRecord
  2
DASHDOT2
 70
0
  3
Dash dot (.5x) _ . _ . _ . _ . _ . _ . _ . _
 72
65
 73
4
 40
1.778
 49
1.27
 74
0
 49
-0.254
 74
0
 49
0.0
 74
0
 49
-0.254
 74
0
  0
LTYPE
  5
3B
330
2
100
AcDbSymbolTableRecord
100
AcDbLinetypeTableRecord
  2
DOT
 70
0
  3
Dot .  .  .  .  .  .  .  .  .  .  .  .  .  .  .  .
 72
65
 73
2
 40
0.508
 49
0.0
 74
0
 49
-0.508
 74
0
  0
LTYPE
  5
3C
330
2
100
AcDbSymbolTableRecord
100
AcDbLinetypeTableRecord
  2
DOTX2
 70
0
  3
Dot (2x) .    .    .    .    .    .    .    . 
 72
65
 73
2
 40
1.016
 49
0.0
 74
0
 49
-1.016
 74
0
  0
LTYPE
  5
3D
330
2
100
AcDbSymbolTableRecord
100
AcDbLinetypeTableRecord
  2
DOT2
 70
0
  3
Dot (.5) . . . . . . . . . . . . . . . . . . . 
 72
65
 73
2
 40
0.254
 49
0.0
 74
0
 49
-0.254
 74
0
  0
LTYPE
  5
3E
330
2
100
AcDbSymbolTableRecord
100
AcDbLinetypeTableRecord
  2
DIVIDE
 70
0
  3
Divide __ . . __ . . __ . . __ . . __ . . __
 72
65
 73
6
 40
4.064
 49
2.54
 74
0
 49
-0.508
 74
0
 49
0.0
 74
0
 49
-0.508
 74
0
 49
0.0
 74
0
 49
-0.508
 74
0
  0
LTYPE
  5
3F
330
2
100
AcDbSymbolTableRecord
100
AcDbLinetypeTableRecord
  2
DIVIDEX2
 70
0
  3
Divide (2x) ____  . .  ____  . .  ____  . .  ____
 72
65
 73
6
 40
6.604
 49
5.08
 74
0
 49
-0.508
 74
0
 49
0.0
 74
0
 49
-0.508
 74
0
 49
0.0
 74
0
 49
-0.508
 74
0
  0
LTYPE
  5
40
330
2
100
AcDbSymbolTableRecord
100
AcDbLinetypeTableRecord
  2
DIVIDE2
 70
0
  3
Divide(.5x) _ . _ . _ . _ . _ . _ . _ . _
 72
65
 73
6
 40
2.032
 49
1.27
 74
0
 49
-0.254
 74
0
 49
0.0
 74
0
 49
-0.254
 74
0
 49
0.0
 74
0
 49
-0.254
 74
0
  0
ENDTAB
  0
TABLE
  2
LAYER
  5
1
330
0
100
AcDbSymbolTable
 70
4
  0
LAYER
  5
27
330
1
100
AcDbSymbolTableRecord
100
AcDbLayerTableRecord
  2
0
 70
0
 62
7
  6
Continuous
370
-3
390
13
347
21
  0
LAYER
  5
28
330
1
100
AcDbSymbolTableRecord
100
AcDbLayerTableRecord
  2
Defpoints
 70
0
 62
7
  6
Continuous
290
0
370
-3
390
13
347
21
  0
LAYER
  5
8A
330
1
100
AcDbSymbolTableRecord
100
AcDbLayerTableRecord
  2
CUT
 70
0
 62
2
  6
Continuous
370
-3
390
13
347
21
  0
LAYER
  5
8B
330
1
100
AcDbSymbolTableRecord
100
AcDbLayerTableRecord
  2
LABEL
 70
0
 62
3
  6
Continuous
370
-3
390
13
347
21
  0
ENDTAB
  0
TABLE
  2
STYLE
  5
5
330
0
100
AcDbSymbolTable
 70
26
  0
STYLE
  5
29
330
5
100
AcDbSymbolTableRecord
100
AcDbTextStyleTableRecord
  2
Standard
 70
0
 40
0.0
 41
1.0
 50
0.0
 71
0
 42
2.5
  3
txt
  4

  0
STYLE
  5
41
330
5
100
AcDbSymbolTableRecord
100
AcDbTextStyleTableRecord
  2
OpenSans-Light
 70
0
 40
0.0
 41
1.0
 50
0.0
 71
0
 42
2.5
  3
OpenSans-Light.ttf
  4

  0
STYLE
  5
42
330
5
100
AcDbSymbolTableRecord
100
AcDbTextStyleTableRecord
  2
OpenSans-Light-Italic
 70
0
 40
0.0
 41
1.0
 50
0.0
 71
0
 42
2.5
  3
OpenSans-LightItalic.ttf
  4

  0
STYLE
  5
43
330
5
100
AcDbSymbolTableRecord
100
AcDbTextStyleTableRecord
  2
OpenSans
 70
0
 40
0.0
 41
1.0
 50
0.0
 71
0
 42
2.5
  3
OpenSans-Regular.ttf
  4

  0
STYLE
  5
44
330
5
100
AcDbSymbolTableRecord
100
AcDbTextStyleTableRecord
  2
OpenSans-Italic
 70
0
 40
0.0
 41
1.0
 50
0.0
 71
0
 42
2.5
  3
OpenSans-Italic.ttf
  4

  0
STYLE
  5
45
330
5
100
AcDbSymbolTableRecord
100
AcDbTextStyleTableRecord
  2
OpenSans-SemiBold
 70
0
 40
0.0
 41
1.0
 50
0.0
 71
0
 42
2.5
  3
OpenSans-SemiBold.ttf
  4

  0
STYLE
  5
46
330
5
100
AcDbSymbolTableRecord
100
AcDbTextStyleTableRecord
  2
OpenSans-SemiBoldItalic
 70
0
 40
0.0
 41
1.0
 50
0.0
 71
0
 42
2.5
  3
OpenSans-SemiBoldItalic.ttf
  4

  0
STYLE
  5
47
330
5
100
AcDbSymbolTableRecord
100
AcDbTextStyleTableRecord
  2
OpenSans-Bold
 70
0
 40
0.0
 41
1.0
 50
0.0
 71
0
 42
2.5
  3
OpenSans-Bold.ttf
  4

  0
STYLE
  5
48
330
5
100
AcDbSymbolTableRecord
100
AcDbTextStyleTableRecord
  2
OpenSans-BoldItalic
 70
0
 40
0.0
 41
1.0
 50
0.0
 71
0
 42
2.5
  3
OpenSans-BoldItalic.ttf
  4

  0
STYLE
  5
49
330
5
100
AcDbSymbolTableRecord
100
AcDbTextStyleTableRecord
  2
OpenSans-ExtraBold
 70
0
 40
0.0
 41
1.0
 50
0.0
 71
0
 42
2.5
  3
OpenSans-ExtraBold.ttf
  4

  0
STYLE
  5
4A
330
5
100
AcDbSymbolTableRecord
100
AcDbTextStyleTableRecord
  2
OpenSans-ExtraBoldItalic
 70
0
 40
0.0
 41
1.0
 50
0.0
 71
0
 42
2.5
  3
OpenSans-ExtraBoldItalic.ttf
  4

  0
STYLE
  5
4B
330
5
100
AcDbSymbolTableRecord
100
AcDbTextStyleTableRecord
  2
OpenSansCondensed-Bold
 70
0
 40
0.0
 41
1.0
 50
0.0
 71
0
 42
2.5
  3
OpenSansCondensed-Bold.ttf
  4

  0
STYLE
  5
4C
330
5
100
AcDbSymbolTableRecord
100
AcDbTextStyleTableRecord
  2
OpenSansCondensed-Light
 70
0
 40
0.0
 41
1.0
 50
0.0
 71
0
 42
2.5
  3
OpenSansCondensed-Light.ttf
  4

  0
STYLE
  5
4D
330
5
100
AcDbSymbolTableRecord
100
AcDbTextStyleTableRecord
  2
OpenSansCondensed-Italic
 70
0
 40
0.0
 41
1.0
 50
0.0
 71
0
 42
2.5
  3
OpenSansCondensed-LightItalic.ttf
  4

  0
STYLE
  5
4E
330
5
100
AcDbSymbolTableRecord
100
AcDbTextStyleTableRecord
  2
LiberationSans
 70
0
 40
0.0
 41
1.0
 50
0.0
 71
0
 42
2.5
  3
LiberationSans-Regular.ttf
  4

  0
STYLE
  5
4F
330
5
100
AcDbSymbolTableRecord
100
AcDbTextStyleTableRecord
  2
LiberationSans-Bold
 70
0
 40
0.0
 41
1.0
 50
0.0
 71
0
 42
2.5
  3
LiberationSans-Bold.ttf
  4

  0
STYLE
  5
50
330
5
100
AcDbSymbolTableRecord
100
AcDbTextStyleTableRecord
  2
LiberationSans-BoldItalic
 70
0
 40
0.0
 41
1.0
 50
0.0
 71
0
 42
2.5
  3
LiberationSans-BoldItalic.ttf
  4

  0
STYLE
  5
51
330
5
100
AcDbSymbolTableRecord
100
AcDbTextStyleTableRecord
  2
LiberationSans-Italic
 70
0
 40
0.0
 41
1.0
 50
0.0
 71
0
 42
2.5
  3
LiberationSans-Italic.ttf
  4

  0
STYLE
  5
52
330
5
100
AcDbSymbolTableRecord
100
AcDbTextStyleTableRecord
  2
LiberationSerif
 70
0
 40
0.0
 41
1.0
 50
0.0
 71
0
 42
2.5
  3
LiberationSerif-Regular.ttf
  4

  0
STYLE
  5
53
330
5
100
AcDbSymbolTableRecord
100
AcDbTextStyleTableRecord
  2
LiberationSerif-Bold
 70
0
 40
0.0
 41
1.0
 50
0.0
 71
0
 42
2.5
  3
LiberationSerif-Bold.ttf
  4

  0
STYLE
  5
54
330
5
100
AcDbSymbolTableRecord
100
AcDbTextStyleTableRecord
  2
LiberationSerif-BoldItalic
 70
0
 40
0.0
 41
1.0
 50
0.0
 71
0
 42
2.5
  3
LiberationSerif-BoldItalic.ttf
  4

  0
STYLE
  5
55
330
5
100
AcDbSymbolTableRecord
100
AcDbTextStyleTableRecord
  2
LiberationSerif-Italic
 70
0
 40
0.0
 41
1.0
 50
0.0
 71
0
 42
2.5
  3
LiberationSerif-Italic.ttf
  4

  0
STYLE
  5
56
330
5
100
AcDbSymbolTableRecord
100
AcDbTextStyleTableRecord
  2
LiberationMono
 70
0
 40
0.0
 41
1.0
 50
0.0
 71
0
 42
2.5
  3
LiberationMono-Regular.ttf
  4

  0
STYLE
  5
57
330
5
100
AcDbSymbolTableRecord
100
AcDbTextStyleTableRecord
  2
LiberationMono-Bold
 70
0
 40
0.0
 41
1.0
 50
0.0
 71
0
 42
2.5
  3
LiberationMono-Bold.ttf
  4

  0
STYLE
  5
58
330
5
100
AcDbSymbolTableRecord
100
AcDbTextStyleTableRecord
  2
LiberationMono-BoldItalic
 70
0
 40
0.0
 41
1.0
 50
0.0
 71
0
 42
2.5
  3
LiberationMono-BoldItalic.ttf
  4

  0
STYLE
  5
59
330
5
100
AcDbSymbolTableRecord
100
AcDbTextStyleTableRecord
  2
LiberationMono-Italic
 70
0
 40
0.0
 41
1.0
 50
0.0
 71
0
 42
2.5
  3
LiberationMono-Italic.ttf
  4

  0
ENDTAB
  0
TABLE
  2
VIEW
  5
7
330
0
100
AcDbSymbolTable
 70
0
  0
ENDTAB
  0
TABLE
  2
UCS
  5
6
330
0
100
AcDbSymbolTable
 70
0
  0
ENDTAB
  0
TABLE
  2
APPID
  5
3
330
0
100
AcDbSymbolTable
 70
3
  0
APPID
  5
2A
330
3
100
AcDbSymbolTableRecord
100
AcDbRegAppTableRecord
  2
ACAD
 70
0
  0
APPID
  5
90
330
3
100
AcDbSymbolTableRecord
100
AcDbRegAppTableRecord
  2
HATCHBACKGROUNDCOLOR
 70
0
  0
APPID
  5
91
330
3
100
AcDbSymbolTableRecord
100
AcDbRegAppTableRecord
  2
EZDXF
 70
0
  0
ENDTAB
  0
TABLE
  2
DIMSTYLE
  5
4
330
0
100
AcDbSymbolTable
 70
12
100
AcDbDimStyleTable
  0
DIMSTYLE
105
2B
330
4
100
AcDbSymbolTableRecord
100
AcDbDimStyleTableRecord
  2
Standard
 70
0
 40
1.0
 41
2.5
 42
0.625
 43
3.75
 44
1.25
 45
0.0
 46
0.0
 47
0.0
 48
0.0
 49
2.5
140
2.5
141
2.5
142
0.0
143
0.03937007874
144
1.0
145
0.0
146
1.0
147
0.625
148
0.0
 69
0
 70
0
 71
0
 72
0
 73
0
 74
0
 75
0
 76
0
 77
1
 78
8
 79
3
170
0
171
3
172
1
173
0
174
0
175
0
176
0
177
0
178
0
179
2
271
2
272
2
273
2
274
3
275
0
276
0
277
2
278
44
279
0
280
0
281
0
282
0
283
0
284
8
285
0
286
0
288
0
289
3
290
0
371
-2
372
-2
  0
DIMSTYLE
105
73
330
4
100
AcDbSymbolTableRecord
100
AcDbDimStyleTableRecord
  2
EZDXF
 70
0
 40
1.0
 41
0.175
 42
0.125
 43
3.75
 44
0.375
 45
0.0
 46
0.0
 47
0.0
 48
0.0
 49
2.5
140
0.25
141
2.5
142
0.0
143
0.03937007874
144
100.0
145
0.0
146
0.5
147
0.1
148
0.0
 69
0
 70
0
 71
0
 72
0
 73
0
 74
0
 75
0
 76
0
 77
1
 78
12
 79
3
170
0
171
3
172
1
173
0
174
0
175
0
176
0
177
0
178
0
179
2
271
2
272
2
273
2
274
3
275
0
276
0
277
2
278
46
279
2
280
0
281
0
282
0
283
0
284
8
285
0
286
0
288
1
289
3
290
0
340
4C
342
74
371
-2
372
-2
  0
DIMSTYLE
105
7C
330
4
100
AcDbSymbolTableRecord
100
AcDbDimStyleTableRecord
  2
EZ_M_100_H25_CM
 70
0
 40
1.0
 41
0.25
 42
0.125
 43
3.75
 44
0.375
 45
0.0
 46
0.0
 47
0.0
 48
0.0
 49
2.5
140
0.25
141
2.5
142
0.125
143
0.03937007874
144
100.0
145
0.0
146
0.5
147
0.1
148
0.0
 69
0
 70
0
 71
0
 72
0
 73
0
 74
0
 75
0
 76
0
 77
1
 78
12
 79
3
170
0
171
3
172
1
173
0
174
0
175
0
176
0
177
0
178
0
179
2
271
2
272
2
273
2
274
3
275
0
276
0
277
2
278
46
279
2
280
0
281
0
282
0
283
0
284
8
285
0
286
0
288
1
289
3
290
0
340
4C
371
-2
372
-2
  0
DIMSTYLE
105
7D
330
4
100
AcDbSymbolTableRecord
100
AcDbDimStyleTableRecord
  2
EZ_M_50_H25_CM
 70
0
 40
1.0
 41
0.125
 42
0.0625
 43
3.75
 44
0.1875
 45
0.0
 46
0.0
 47
0.0
 48
0.0
 49
2.5
140
0.125
141
2.5
142
0.0625
143
0.03937007874
144
100.0
145
0.0
146
0.5
147
0.05
148
0.0
 69
0
 70
0
 71
0
 72
0
 73
0
 74
0
 75
0
 76
0
 77
1
 78
12
 79
3
170
0
171
3
172
1
173
0
174
0
175
0
176
0
177
0
178
0
179
2
271
2
272
2
273
2
274
3
275
0
276
0
277
2
278
46
279
2
280
0
281
0
282
0
283
0
284
8
285
0
286
0
288
1
289
3
290
0
340
4C
371
-2
372
-2
  0
DIMSTYLE
105
7E
330
4
100
AcDbSymbolTableRecord
100
AcDbDimStyleTableRecord
  2
EZ_M_25_H25_CM
 70
0
 40
1.0
 41
0.0625
 42
0.03125
 43
3.75
 44
0.09375
 45
0.0
 46
0.0
 47
0.0
 48
0.0
 49
2.5
140
0.0625
141
2.5
142
0.03125
143
0.03937007874
144
100.0
145
0.0
146
0.5
147
0.025
148
0.0
 69
0
 70
0
 71
0
 72
0
 73
0
 74
0
 75
0
 76
0
 77
1
 78
12
 79
3
170
0
171
3
172
1
173
0
174
0
175
0
176
0
177
0
178
0
179
2
271
2
272
2
273
2
274
3
275
0
276
0
277
2
278
46
279
2
280
0
281
0
282
0
283
0
284
8
285
0
286
0
288
1
289
3
290
0
340
4C
371
-2
372
-2
  0
DIMSTYLE
105
7F
330
4
100
AcDbSymbolTableRecord
100
AcDbDimStyleTableRecord
  2
EZ_M_20_H25_CM
 70
0
 40
1.0
 41
0.05
 42
0.025
 43
3.75
 44
0.07500000000000001
 45
0.0
 46
0.0
 47
0.0
 48
0.0
 49
2.5
140
0.05
141
2.5
142
0.025
143
0.03937007874
144
100.0
145
0.0
146
0.5
147
0.020000000000000004
148
0.0
 69
0
 70
0
 71
0
 72
0
 73
0
 74
0
 75
0
 76
0
 77
1
 78
12
 79
3
170
0
171
3
172
1
173
0
174
0
175
0
176
0
177
0
178
0
179
2
271
2
272
2
273
2
274
3
275
0
276
0
277
2
278
46
279
2
280
0
281
0
282
0
283
0
284
8
285
0
286
0
288
1
289
3
290
0
340
4C
371
-2
372
-2
  0
DIMSTYLE
105
80
330
4
100
AcDbSymbolTableRecord
100
AcDbDimStyleTableRecord
  2
EZ_M_10_H25_CM
 70
0
 40
1.0
 41
0.025
 42
0.0125
 43
3.75
 44
0.037500000000000006
 45
0.0
 46
0.0
 47
0.0
 48
0.0
 49
2.5
140
0.025
141
2.5
142
0.0125
143
0.03937007874
144
100.0
145
0.0
146
0.5
147
0.010000000000000002
148
0.0
 69
0
 70
0
 71
0
 72
0
 73
0
 74
0
 75
0
 76
0
 77
1
 78
12
 79
3
170
0
171
3
172
1
173
0
174
0
175
0
176
0
177
0
178
0
179
2
271
2
272
2
273
2
274
3
275
0
276
0
277
2
278
46
279
2
280
0
281
0
282
0
283
0
284
8
285
0
286
0
288
1
289
3
290
0
340
4C
371
-2
372
-2
  0
DIMSTYLE
105
81
330
4
100
AcDbSymbolTableRecord
100
AcDbDimStyleTableRecord
  2
EZ_M_5_H25_CM
 70
0
 40
1.0
 41
0.0125
 42
0.00625
 43
3.75
 44
0.018750000000000003
 45
0.0
 46
0.0
 47
0.0
 48
0.0
 49
2.5
140
0.0125
141
2.5
142
0.00625
143
0.03937007874
144
100.0
145
0.0
146
0.5
147
0.005000000000000001
148
0.0
 69
0
 70
0
 71
0
 72
0
 73
0
 74
0
 75
0
 76
0
 77
1
 78
12
 79
3
170
0
171
3
172
1
173
0
174
0
175
0
176
0
177
0
178
0
179
2
271
2
272
2
273
2
274
3
275
0
276
0
277
2
278
46
279
2
280
0
281
0
282
0
283
0
284
8
285
0
286
0
288
1
289
3
290
0
340
4C
371
-2
372
-2
  0
DIMSTYLE
105
82
330
4
100
AcDbSymbolTableRecord
100
AcDbDimStyleTableRecord
  2
EZ_M_1_H25_CM
 70
0
 40
1.0
 41
0.0025
 42
0.00125
 43
3.75
 44
0.00375
 45
0.0
 46
0.0
 47
0.0
 48
0.0
 49
2.5
140
0.0025
141
2.5
142
0.00125
143
0.03937007874
144
100.0
145
0.0
146
0.5
147
0.001
148
0.0
 69
0
 70
0
 71
0
 72
0
 73
0
 74
0
 75
0
 76
0
 77
1
 78
12
 79
3
170
0
171
3
172
1
173
0
174
0
175
0
176
0
177
0
178
0
179
2
271
2
272
2
273
2
274
3
275
0
276
0
277
2
278
46
279
2
280
0
281
0
282
0
283
0
284
8
285
0
286
0
288
1
289
3
290
0
340
4C
371
-2
372
-2
  0
DIMSTYLE
105
83
330
4
100
AcDbSymbolTableRecord
100
AcDbDimStyleTableRecord
  2
EZ_RADIUS
 70
0
 40
1.0
 41
0.25
 42
0.125
 43
3.75
 44
0.375
 45
0.0
 46
0.0
 47
0.0
 48
0.0
 49
2.5
140
0.25
141
0.0
142
0.0
143
0.03937007874
144
100.0
145
0.0
146
0.5
147
0.1
148
0.0
 69
0
 70
0
 71
0
 72
0
 73
0
 74
0
 75
0
 76
0
 77
1
 78
12
 79
3
170
0
171
3
172
0
173
0
174
0
175
0
176
0
177
0
178
0
179
2
271
2
272
2
273
2
274
3
275
0
276
0
277
2
278
46
279
1
280
0
281
0
282
0
283
0
284
8
285
0
286
0
288
1
289
3
290
0
340
4C
342
84
371
-2
372
-2
  0
DIMSTYLE
105
88
330
4
100
AcDbSymbolTableRecord
100
AcDbDimStyleTableRecord
  2
EZ_RADIUS_INSIDE
 70
0
 40
1.0
 41
0.25
 42
0.125
 43
3.75
 44
0.375
 45
0.0
 46
0.0
 47
0.0
 48
0.0
 49
2.5
140
0.25
141
0.0
142
0.0
143
0.03937007874
144
100.0
145
0.0
146
0.5
147
0.1
148
0.0
 69
0
 70
0
 71
0
 72
0
 73
0
 74
0
 75
0
 76
0
 77
0
 78
12
 79
3
170
0
171
3
172
0
173
0
174
1
175
0
176
0
177
0
178
0
179
2
271
2
272
2
273
2
274
3
275
0
276
0
277
2
278
46
279
0
280
0
281
0
282
0
283
0
284
8
285
0
286
0
288
1
289
0
290
0
340
4C
342
84
371
-2
372
-2
  0
DIMSTYLE
105
89
330
4
100
AcDbSymbolTableRecord
100
AcDbDimStyleTableRecord
  2
EZ_CURVED
 70
0
 40
1.0
 41
0.25
 42
0.125
 43
3.75
 44
0.375
 45
0.0
 46
0.0
 47
0.0
 48
0.0
 49
2.5
140
0.25
141
2.5
142
0.0
143
0.03937007874
144
100.0
145
0.0
146
0.5
147
0.1
148
0.0
 69
0
 70
0
 71
0
 72
0
 73
0
 74
0
 75
0
 76
0
 77
1
 78
12
 79
2
 90
2
170
0
171
3
172
1
173
0
174
0
175
0
176
0
177
0
178
0
179
2
271
2
272
2
273
2
274
3
275
0
276
0
277
2
278
46
279
2
280
0
281
0
282
0
283
0
284
8
285
0
286
0
288
1
289
3
290
0
340
4C
371
-2
372
-2
  0
ENDTAB
  0
TABLE
  2
BLOCK_RECORD
  5
9
330
0
100
AcDbSymbolTable
 70
5
  0
BLOCK_RECORD
  5
17
330
9
100
AcDbSymbolTableRecord
100
AcDbBlockTableRecord
  2
*Model_Space
340
1A
 70
0
280
1
281
0
  0
BLOCK_RECORD
  5
1B
330
9
100
AcDbSymbolTableRecord
100
AcDbBlockTableRecord
  2
*Paper_Space
340
1E
 70
0
280
1
281
0
  0
BLOCK_RECORD
  5
74
330
9
100
AcDbSymbolTableRecord
100
AcDbBlockTableRecord
  2
_ARCHTICK
340
0
 70
0
280
1
281
0
  0
BLOCK_RECORD
  5
78
330
9
100
AcDbSymbolTableRecord
100
AcDbBlockTableRecord
  2
_CLOSEDFILLED
340
0
 70
0
280
1
281
0
  0
BLOCK_RECORD
  5
84
330
9
100
AcDbSymbolTableRecord
100
AcDbBlockTableRecord
  2
_CLOSEDBLANK
340
0
 70
0
280
1
281
0
  0
ENDTAB
  0
ENDSEC
  0
SECTION
  2
BLOCKS
  0
BLOCK
  5
18
330
17
100
AcDbEntity
  8
0
100
AcDbBlockBegin
  2
*Model_Space
 70
0
 10
0.0
 20
0.0
 30
0.0
  3
*Model_Space
  1

  0
ENDBLK
  5
19
330
17
100
AcDbEntity
  8
0
100
AcDbBlockEnd
  0
BLOCK
  5
1C
330
1B
100
AcDbEntity
  8
0
100
AcDbBlockBegin
  2
*Paper_Space
 70
0
 10
0.0
 20
0.0
 30
0.0
  3
*Paper_Space
  1

  0
ENDBLK
  5
1D
330
1B
100
AcDbEntity
  8
0
100
AcDbBlockEnd
  0
BLOCK
  5
75
330
74
100
AcDbEntity
  8
0
100
AcDbBlockBegin
  2
_ARCHTICK
 70
0
 10
0.0
 20
0.0
 30
0.0
  3
_ARCHTICK
  1

  0
LWPOLYLINE
  5
77
330
74
100
AcDbEntity
  8
0
  6
BYBLOCK
 62
0
100
AcDbPolyline
 90
2
 70
0
 43
0.15
 10
-0.5
 20
-0.5
 10
0.5
 20
0.5
  0
ENDBLK
  5
76
330
74
100
AcDbEntity
  8
0
100
AcDbBlockEnd
  0
BLOCK
  5
79
330
78
100
AcDbEntity
  8
0
100
AcDbBlockBegin
  2
_CLOSEDFILLED
 70
0
 10
0.0
 20
0.0
 30
0.0
  3
_CLOSEDFILLED
  1

  0
SOLID
  5
7B
330
78
100
AcDbEntity
  8
0
  6
BYBLOCK
 62
0
100
AcDbTrace
 10
-1.0
 20
0.16439898372402537
 30
0.0
 11
0.0
 21
0.0
 31
0.0
 12
-1.0
 22
-0.16439898372402537
 32
0.0
 13
-1.0
 23
-0.16439898372402537
 33
0.0
  0
ENDBLK
  5
7A
330
78
100
AcDbEntity
  8
0
100
AcDbBlockEnd
  0
BLOCK
  5
85
330
84
100
AcDbEntity
  8
0
100
AcDbBlockBegin
  2
_CLOSEDBLANK
 70
0
 10
0.0
 20
0.0
 30
0.0
  3
_CLOSEDBLANK
  1

  0
LWPOLYLINE
  5
87
330
84
100
AcDbEntity
  8
0
  6
BYBLOCK
 62
0
100
AcDbPolyline
 90
3
 70
1
 10
-1.0
 20
0.16439898372402537
 10
0.0
 20
0.0
 10
-1.0
 20
-0.16439898372402537
  0
ENDBLK
  5
86
330
84
100
AcDbEntity
  8
0
100
AcDbBlockEnd
  0
ENDSEC
  0
SECTION
  2
ENTITIES
  0
LWPOLYLINE
  5
8C
330
17
100
AcDbEntity
  8
CUT
100
AcDbPolyline
 90
305
 70
1
 10
9.51629686818167
 20
0.0
 10
8.39528716726528
 20
1.9669645194857495
 10
7.3536302910275
 20
3.9949461246685267
 10
6.389513611493413
 20
6.08102849853983
 10
5.501124500688135
 20
8.22229532409117
 10
4.686650330636766
 20
10.415830284314062
 10
3.9442784733644345
 20
12.658717062199997
 10
3.2721963008962405
 20
14.948039340740493
 10
2.6685911852572985
 20
17.280880802927058
 10
2.1316504984726947
 20
19.6543251317512
 10
1.6595616125675576
 20
22.06545601020443
 10
1.2505118995669875
 20
24.511357121278245
 10
0.9026887314960987
 20
26.98911214796415
 10
0.6142794803799916
 20
29.495804773253674
 10
0.38347151824378045
 20
32.02851868013831
 10
0.20845221711255135
 20
34.58433755160955
 10
0.08740894901144713
 20
37.160345070658934
 10
0.018529085965582226
 20
39.75362492027793
 10
0.0
 20
42.3612607834581
 10
0.03000906313988594
 20
44.9803363431909
 10
0.10674364741029763
 20
47.607935282467864
 10
0.2283911248363495
 20
50.24114128428051
 10
0.3931388674431844
 20
52.87703803162029
 10
0.5991742472558883
 20
55.51270920747878
 10
0.8446846362995615
 20
58.14523849484743
 10
1.1278574065993183
 20
60.7717095767178
 10
1.4468799301802449
 20
63.389206136081384
 10
1.7999395790674981
 20
65.99481185592965
 10
2.185223725286164
 20
68.58561041925415
 10
2.600919740861329
 20
71.15868550904639
 10
3.0452149978181353
 20
73.71112080829782
 10
3.5162968681816693
 20
76.24000000000001
 10
3.0155080393407445
 20
76.79875935685276
 10
2.6691953945822604
 20
77.31361283609145
 10
2.4695042126816844
 20
77.78435903460777
 10
2.408579772414484
 20
78.21079654929342
 10
2.4785673525561407
 20
78.59272397704007
 10
2.671612231882122
 20
78.92993991473936
 10
2.979859689167867
 20
79.22224295928302
 10
3.3954550031888857
 20
79.4694317075627
 10
3.910543452720617
 20
79.6713047564701
 10
4.517270316538557
 20
79.82766070289686
 10
5.2077808734181446
 20
79.9382981437347
 10
5.97422040213489
 20
80.00301567587526
 10
6.808734181464203
 20
80.02161189621027
 10
7.703467490181595
 20
79.99388540163137
 10
8.650565607062546
 20
79.91963478903025
 10
9.642173810882497
 20
79.7986586552986
 10
10.670437380416928
 20
79.63075559732805
 10
11.727501594441279
 20
79.41572421201033
 10
12.805511731731059
 20
79.15336309623711
 10
13.896613071061736
 20
78.84347084690008
 10
14.99295089120875
 20
78.48584606089089
 10
16.08667047094761
 20
78.0802873351012
 10
17.16991708905374
 20
77.62659326642276
 10
18.234836024302652
 20
77.12456245174717
 10
19.273572555469784
 20
76.57399348796616
 10
20.278271961330603
 20
75.97468497197141
 10
21.241079520660605
 20
75.32643550065458
 10
22.154140512235244
 20
74.62904367090734
 10
23.009600214829987
 20
73.88230807962137
 10
23.799603907220302
 20
73.08602732368837
 10
24.51629686818167
 20
72.24000000000001
 10
24.14796415024672
 20
70.11681380282637
 10
23.817293813567858
 20
68.00672686381795
 10
23.524487261253398
 20
65.91184988754993
 10
23.269745896411678
 20
63.83429357859757
 10
23.05327112215099
 20
61.77616864153603
 10
22.875264341579665
 20
59.73958578094056
 10
22.735926957806043
 20
57.726655701386335
 10
22.635460373938443
 20
55.73948910744856
 10
22.574065993085156
 20
53.78019670370247
 10
22.551945218354533
 20
51.85088919472324
 10
22.569299452854906
 20
49.95367728508611
 10
22.626330099694556
 20
48.09067167936625
 10
22.723238561981816
 20
46.26398308213891
 10
22.86022624282502
 20
44.47572219797926
 10
23.03749454533248
 20
42.72799973146253
 10
23.255244872612536
 20
41.02292638716391
 10
23.5136786277735
 20
39.36261286965862
 10
23.81299721392368
 20
37.74916988352187
 10
24.153402034171393
 20
36.18470813332887
 10
24.53509449162499
 20
34.6713383236548
 10
24.958275989392774
 20
33.211171159074894
 10
25.42314793058307
 20
31.80631734416434
 10
25.929911718304183
 20
30.458887583498374
 10
26.478768755664476
 20
29.170992581652172
 10
27.069920445772226
 20
27.94474304320096
 10
27.703568191735755
 20
26.782249672719956
 10
28.379913396663426
 20
25.685623174784332
 10
29.099157463663524
 20
24.656974253969317
 10
29.861501795844376
 20
23.698413614850132
 10
30.667147796314318
 20
22.812051962001952
 10
31.51629686818167
 20
22.0
 10
34.26585210298413
 20
23.123829344432885
 10
37.23968983921319
 20
24.172736732570243
 10
40.42234231814978
 20
25.14672216441207
 10
43.798341781074825
 20
26.045785639958382
 10
47.35222046926925
 20
26.869927159209155
 10
51.06851062401397
 20
27.619146722164416
 10
54.93174448658991
 20
28.293444328824144
 10
58.926454298278
 20
28.892819979188346
 10
63.03717230035917
 20
29.41727367325702
 10
67.24843073411434
 20
29.866805411030178
 10
71.54476184082442
 20
30.2414151925078
 10
75.91069786177033
 20
30.541103017689906
 10
80.33077103823304
 20
30.765868886576484
 10
84.78951361149342
 20
30.91571279916753
 10
89.2714578228324
 20
30.990634755463056
 10
93.76113591353094
 20
30.990634755463056
 10
98.24308012486992
 20
30.915712799167522
 10
102.70182269813031
 20
30.765868886576477
 10
107.121895874593
 20
30.541103017689906
 10
111.48783189553892
 20
30.2414151925078
 10
115.78416300224902
 20
29.866805411030185
 10
119.99542143600418
 20
29.41727367325702
 10
124.10613943808534
 20
28.89281997918834
 10
128.10084924977343
 20
28.293444328824137
 10
131.96408311234936
 20
27.619146722164402
 10
135.6803732670941
 20
26.869927159209162
 10
139.23425195528853
 20
26.045785639958375
 10
142.61025141821355
 20
25.14672216441207
 10
145.79290389715015
 20
24.17273673257025
 10
148.7667416333792
 20
23.123829344432885
 10
151.51629686818166
 20
22.0
 10
152.365445940049
 20
22.812051962001945
 10
153.17109194051895
 20
23.698413614850125
 10
153.93343627269982
 20
24.656974253969317
 10
154.6526803396999
 20
25.685623174784332
 10
155.3290255446276
 20
26.782249672719956
 10
155.9626732905911
 20
27.944743043200972
 10
156.5538249806989
 20
29.170992581652172
 10
157.10268201805917
 20
30.45888758349838
 10
157.6094458057803
 20
31.80631734416435
 10
158.07431774697056
 20
33.211171159074894
 10
158.49749924473832
 20
34.671338323654794
 10
158.87919170219192
 20
36.18470813332886
 10
159.21959652243967
 20
37.74916988352187
 10
159.51891510858985
 20
39.362612869658626
 10
159.7773488637508
 20
41.02292638716391
 10
159.99509919103085
 20
42.72799973146252
 10
160.17236749353833
 20
44.47572219797925
 10
160.30935517438152
 20
46.2639830821389
 10
160.4062636366688
 20
48.09067167936625
 10
160.46329428350845
 20
49.9536772850861
 10
160.48064851800882
 20
51.85088919472326
 10
160.45852774327818
 20
53.78019670370246
 10
160.39713336242488
 20
55.73948910744856
 10
160.29666677855727
 20
57.72665570138632
 10
160.15732939478363
 20
59.739585780940544
 10
159.97932261421235
 20
61.77616864153606
 10
159.76284783995166
 20
63.83429357859758
 10
159.50810647510994
 20
65.91184988754992
 10
159.21529992279548
 20
68.00672686381796
 10
158.8846295861166
 20
70.11681380282637
 10
158.51629686818166
 20
72.24000000000001
 10
159.23298982914304
 20
73.08602732368837
 10
160.02299352153335
 20
73.88230807962138
 10
160.8784532241281
 20
74.62904367090732
 10
161.79151421570273
 20
75.32643550065457
 10
162.75432177503274
 20
75.97468497197141
 10
163.75902118089357
 20
76.57399348796616
 10
164.79775771206067
 20
77.12456245174718
 10
165.8626766473096
 20
77.62659326642276
 10
166.94592326541573
 20
78.08028733510122
 10
168.03964284515456
 20
78.48584606089089
 10
169.1359806653016
 20
78.84347084690009
 10
170.22708200463228
 20
79.15336309623713
 10
171.30509214192205
 20
79.41572421201035
 10
172.36215635594644
 20
79.63075559732806
 10
173.39041992548084
 20
79.79865865529858
 10
174.3820281293008
 20
79.91963478903024
 10
175.32912624618172
 20
79.99388540163136
 10
176.22385955489915
 20
80.02161189621026
 10
177.05837333422846
 20
80.00301567587528
 10
177.82481286294518
 20
79.93829814373471
 10
178.51532341982477
 20
79.82766070289688
 10
179.1220502836427
 20
79.6713047564701
 10
179.63713873317448
 20
79.4694317075627
 10
180.05273404719546
 20
79.22224295928301
 10
180.3609815044812
 20
78.92993991473934
 10
180.55402638380718
 20
78.59272397704007
 10
180.62401396394887
 20
78.21079654929342
 10
180.56308952368164
 20
77.78435903460777
 10
180.36339834178108
 20
77.31361283609147
 10
180.0170856970226
 20
76.79875935685276
 10
179.51629686818166
 20
76.24000000000001
 10
179.9873787385452
 20
73.71112080829782
 10
180.43167399550202
 20
71.15868550904636
 10
180.84737001107717
 20
68.58561041925414
 10
181.23265415729583
 20
65.99481185592965
 10
181.5857138061831
 20
63.38920613608137
 10
181.90473632976403
 20
60.77170957671781
 10
182.1879091000638
 20
58.14523849484745
 10
182.43341948910745
 20
55.51270920747878
 10
182.63945486892015
 20
52.8770380316203
 10
182.804202611527
 20
50.24114128428049
 10
182.92585008895304
 20
47.607935282467864
 10
183.00258467322345
 20
44.9803363431909
 10
183.0325937363633
 20
42.36126078345809
 10
183.01406465039778
 20
39.753624920277936
 10
182.94518478735188
 20
37.16034507065893
 10
182.8241415192508
 20
34.58433755160955
 10
182.64912221811954
 20
32.02851868013829
 10
182.41831425598338
 20
29.495804773253667
 10
182.12990500486723
 20
26.989112147964157
 10
181.78208183679635
 20
24.511357121278245
 10
181.3730321237958
 20
22.06545601020443
 10
180.90094323789063
 20
19.6543251317512
 10
180.36400255110604
 20
17.280880802927058
 10
179.76039743546707
 20
14.948039340740493
 10
179.0883152629989
 20
12.658717062199994
 10
178.3459434057266
 20
10.415830284314062
 10
177.53146923567522
 20
8.22229532409117
 10
176.64308012486993
 20
6.081028498539826
 10
175.67896344533585
 20
3.9949461246685267
 10
174.63730656909806
 20
1.9669645194857512
 10
173.51629686818166
 20
0.0
 10
112.51629686818167
 20
0.0
 10
112.50088353684731
 20
0.39229547863922853
 10
112.45473857115735
 20
0.7821723252011559
 10
112.37814647017005
 20
1.1672268192795254
 10
112.27157944965744
 20
1.5450849718747381
 10
112.1356945307381
 20
1.9134171618254516
 10
111.9713294891235
 20
2.2699524986977337
 10
111.77949768995214
 20
2.6124928235797427
 10
111.56138184005641
 20
2.938926261462367
 10
111.31832669618183
 20
3.247240241650921
 10
111.0518307741144
 20
3.5355339059327378
 10
110.76353710983258
 20
3.8020298280001548
 10
110.45522312964403
 20
4.045084971874736
 10
110.12878969176141
 20
4.263200821770461
 10
109.7862493668794
 20
4.455032620941839
 10
109.42971403000712
 20
4.619397662556434
 10
109.06138184005641
 20
4.755282581475768
 10
108.68352368746119
 20
4.861849601988382
 10
108.29846919338283
 20
4.9384417029756875
 10
107.9085923468209
 20
4.984586668665639
 10
107.51629686818167
 20
5.0
 10
107.12400138954244
 20
4.984586668665639
 10
106.73412454298051
 20
4.9384417029756875
 10
106.34907004890215
 20
4.861849601988382
 10
105.97121189630693
 20
4.755282581475768
 10
105.60287970635622
 20
4.61939766255643
 10
105.24634436948394
 20
4.455032620941839
 10
104.90380404460193
 20
4.263200821770461
 10
104.5773706067193
 20
4.045084971874736
 10
104.26905662653076
 20
3.802029828000153
 10
103.98076296224893
 20
3.5355339059327378
 10
103.71426704018151
 20
3.2472402416509176
 10
103.47121189630693
 20
2.938926261462365
 10
103.2530960464112
 20
2.6124928235797427
 10
103.06126424723983
 20
2.2699524986977337
 10
102.89689920562523
 20
1.913417161825448
 10
102.7610142867059
 20
1.5450849718747364
 10
102.65444726619329
 20
1.1672268192795272
 10
102.57785516520597
 20
0.7821723252011541
 10
102.53171019951603
 20
0.3922954786392232
 10
102.51629686818167
 20
0.0
 10
97.71629686818167
 20
0.0
 10
97.71629686818167
 20
18.0
 10
85.31629686818167
 20
18.0
 10
85.31629686818167
 20
0.0
 10
80.51629686818167
 20
0.0
 10
80.50088353684731
 20
0.39229547863922853
 10
80.45473857115735
 20
0.7821723252011559
 10
80.37814647017005
 20
1.1672268192795254
 10
80.27157944965744
 20
1.5450849718747381
 10
80.1356945307381
 20
1.9134171618254516
 10
79.9713294891235
 20
2.2699524986977337
 10
79.77949768995214
 20
2.6124928235797427
 10
79.56138184005641
 20
2.938926261462367
 10
79.31832669618183
 20
3.247240241650921
 10
79.0518307741144
 20
3.5355339059327378
 10
78.76353710983258
 20
3.8020298280001548
 10
78.45522312964404
 20
4.045084971874736
 10
78.12878969176141
 20
4.263200821770461
 10
77.7862493668794
 20
4.455032620941839
 10
77.42971403000712
 20
4.619397662556434
 10
77.06138184005641
 20
4.755282581475768
 10
76.68352368746119
 20
4.861849601988382
 10
76.29846919338283
 20
4.9384417029756875
 10
75.9085923468209
 20
4.984586668665639
 10
75.51629686818167
 20
5.0
 10
75.12400138954244
 20
4.984586668665639
 10
74.73412454298051
 20
4.9384417029756875
 10
74.34907004890215
 20
4.861849601988382
 10
73.97121189630693
 20
4.755282581475768
 10
73.60287970635622
 20
4.61939766255643
 10
73.24634436948394
 20
4.455032620941839
 10
72.90380404460193
 20
4.263200821770461
 10
72.5773706067193
 20
4.045084971874736
 10
72.26905662653076
 20
3.802029828000153
 10
71.98076296224893
 20
3.5355339059327378
 10
71.71426704018151
 20
3.2472402416509176
 10
71.47121189630693
 20
2.938926261462365
 10
71.2530960464112
 20
2.6124928235797427
 10
71.06126424723983
 20
2.2699524986977337
 10
70.89689920562523
 20
1.913417161825448
 10
70.7610142867059
 20
1.5450849718747364
 10
70.65444726619329
 20
1.1672268192795272
 10
70.57785516520599
 20
0.7821723252011541
 10
70.53171019951603
 20
0.3922954786392232
 10
70.51629686818167
 20
0.0
 10
9.51629686818167
 20
0.0
  0
LWPOLYLINE
  5
8D
330
17
100
AcDbEntity
  8
CUT
100
AcDbPolyline
 90
97
 70
1
 10
85.4549692496882
 20
18.148058994868084
 10
85.5836612014062
 20
18.304870591751264
 10
85.70182164464126
 20
18.46976329931753
 10
85.80894459823513
 20
18.642031021678296
 10
85.90457134525471
 20
18.820936081999392
 10
85.98829239728836
 20
19.00571238134652
 10
86.0597492479382
 20
19.195568679238495
 10
86.11863590799948
 20
19.389691981860484
 10
86.16470021575338
 20
19.587251023428298
 10
86.19774491676219
 20
19.787399825796136
 10
86.21762850854304
 20
19.989281321064855
 10
86.22426584650337
 20
20.192031021678297
 10
86.21762850854304
 20
20.394780722291742
 10
86.19774491676219
 20
20.596662217560457
 10
86.16470021575338
 20
20.7968110199283
 10
86.11863590799948
 20
20.994370061496113
 10
86.0597492479382
 20
21.188493364118095
 10
85.98829239728836
 20
21.378349662010073
 10
85.90457134525471
 20
21.5631259613572
 10
85.80894459823513
 20
21.7420310216783
 10
85.70182164464126
 20
21.914298744039066
 10
85.5836612014062
 20
22.079191451605332
 10
85.4549692496882
 20
22.236003048488513
 10
85.31629686818167
 20
22.384062043356593
 10
85.16823787331359
 20
22.52273442486313
 10
85.0114262764304
 20
22.651426376581128
 10
84.84653356886413
 20
22.76958681981619
 10
84.67426584650337
 20
22.876709773410056
 10
84.49536078618227
 20
22.97233652042963
 10
84.31058448683515
 20
23.05605757246329
 10
84.12072818894318
 20
23.127514423113126
 10
83.92660488632119
 20
23.18640108317441
 10
83.72904584475337
 20
23.23246539092831
 10
83.52889704238552
 20
23.26551009193711
 10
83.32701554711682
 20
23.28539368371797
 10
83.12426584650338
 20
23.292031021678298
 10
82.92151614588992
 20
23.28539368371797
 10
82.7196346506212
 20
23.26551009193711
 10
82.51948584825337
 20
23.23246539092831
 10
82.32192680668555
 20
23.18640108317441
 10
82.12780350406356
 20
23.127514423113126
 10
81.93794720617159
 20
23.05605757246329
 10
81.75317090682447
 20
22.97233652042963
 10
81.57426584650337
 20
22.876709773410056
 10
81.40199812414261
 20
22.769586819816183
 10
81.23710541657634
 20
22.651426376581128
 10
81.08029381969315
 20
22.522734424863124
 10
80.93223482482507
 20
22.384062043356593
 10
80.79356244331854
 20
22.236003048488506
 10
80.66487049160054
 20
22.079191451605332
 10
80.54671004836548
 20
21.914298744039066
 10
80.43958709477161
 20
21.742031021678294
 10
80.34396034775204
 20
21.5631259613572
 10
80.26023929571838
 20
21.378349662010073
 10
80.18878244506854
 20
21.188493364118095
 10
80.12989578500726
 20
20.994370061496113
 10
80.08383147725336
 20
20.796811019928292
 10
80.05078677624456
 20
20.596662217560457
 10
80.0309031844637
 20
20.394780722291742
 10
80.02426584650337
 20
20.192031021678297
 10
80.0309031844637
 20
19.98928132106485
 10
80.05078677624456
 20
19.787399825796136
 10
80.08383147725336
 20
19.587251023428298
 10
80.12989578500726
 20
19.38969198186048
 10
80.18878244506854
 20
19.195568679238495
 10
80.26023929571838
 20
19.00571238134652
 10
80.34396034775204
 20
18.820936081999392
 10
80.43958709477161
 20
18.642031021678296
 10
80.54671004836548
 20
18.469763299317528
 10
80.66487049160054
 20
18.30487059175126
 10
80.79356244331854
 20
18.148058994868084
 10
80.93223482482507
 20
18.0
 10
81.08029381969315
 20
17.861327618493466
 10
81.23710541657634
 20
17.732635666775465
 10
81.40199812414261
 20
17.614475223540406
 10
81.57426584650338
 20
17.507352269946537
 10
81.75317090682447
 20
17.411725522926965
 10
81.9379472061716
 20
17.32800447089331
 10
82.12780350406356
 20
17.25654762024347
 10
82.32192680668555
 20
17.197660960182183
 10
82.51948584825337
 20
17.15159665242828
 10
82.71963465062122
 20
17.118551951419484
 10
82.92151614588992
 20
17.098668359638626
 10
83.12426584650338
 20
17.092031021678295
 10
83.32701554711682
 20
17.098668359638626
 10
83.52889704238554
 20
17.118551951419484
 10
83.72904584475337
 20
17.15159665242828
 10
83.92660488632119
 20
17.197660960182183
 10
84.12072818894318
 20
17.25654762024347
 10
84.31058448683515
 20
17.32800447089331
 10
84.49536078618227
 20
17.411725522926965
 10
84.67426584650337
 20
17.507352269946537
 10
84.84653356886415
 20
17.614475223540406
 10
85.0114262764304
 20
17.73263566677547
 10
85.16823787331359
 20
17.861327618493466
 10
85.31629686818167
 20
18.0
 10
85.4549692496882
 20
18.148058994868084
  0
LWPOLYLINE
  5
8E
330
17
100
AcDbEntity
  8
CUT
100
AcDbPolyline
 90
97
 70
1
 10
102.90269795135607
 20
19.389691981860484
 10
102.94876225910998
 20
19.587251023428298
 10
102.98180696011877
 20
19.787399825796136
 10
103.00169055189964
 20
19.989281321064855
 10
103.00832788985997
 20
20.192031021678297
 10
103.00169055189964
 20
20.394780722291742
 10
102.98180696011877
 20
20.596662217560457
 10
102.94876225910998
 20
20.7968110199283
 10
102.90269795135607
 20
20.994370061496113
 10
102.8438112912948
 20
21.188493364118095
 10
102.77235444064496
 20
21.378349662010073
 10
102.6886333886113
 20
21.5631259613572
 10
102.59300664159173
 20
21.7420310216783
 10
102.48588368799786
 20
21.914298744039066
 10
102.3677232447628
 20
22.079191451605332
 10
102.2390312930448
 20
22.236003048488513
 10
102.10035891153827
 20
22.384062043356593
 10
101.95229991667017
 20
22.52273442486313
 10
101.795488319787
 20
22.651426376581128
 10
101.63059561222073
 20
22.76958681981619
 10
101.45832788985996
 20
22.876709773410056
 10
101.27942282953887
 20
22.97233652042963
 10
101.09464653019174
 20
23.05605757246329
 10
100.90479023229977
 20
23.127514423113126
 10
100.71066692967779
 20
23.18640108317441
 10
100.51310788810996
 20
23.23246539092831
 10
100.31295908574212
 20
23.26551009193711
 10
100.11107759047341
 20
23.28539368371797
 10
99.90832788985996
 20
23.292031021678298
 10
99.70557818924652
 20
23.28539368371797
 10
99.5036966939778
 20
23.26551009193711
 10
99.30354789160997
 20
23.23246539092831
 10
99.10598885004215
 20
23.18640108317441
 10
98.91186554742016
 20
23.127514423113126
 10
98.72200924952818
 20
23.05605757246329
 10
98.53723295018106
 20
22.97233652042963
 10
98.35832788985996
 20
22.876709773410056
 10
98.18606016749919
 20
22.769586819816183
 10
98.02116745993293
 20
22.651426376581128
 10
97.86435586304975
 20
22.522734424863124
 10
97.71629686818167
 20
22.384062043356593
 10
97.57762448667513
 20
22.236003048488506
 10
97.44893253495714
 20
22.079191451605332
 10
97.33077209172208
 20
21.914298744039066
 10
97.22364913812821
 20
21.742031021678294
 10
97.12802239110863
 20
21.5631259613572
 10
97.04430133907498
 20
21.378349662010073
 10
96.97284448842514
 20
21.188493364118095
 10
96.91395782836385
 20
20.994370061496113
 10
96.86789352060995
 20
20.796811019928292
 10
96.83484881960115
 20
20.596662217560457
 10
96.8149652278203
 20
20.394780722291742
 10
96.80832788985997
 20
20.192031021678297
 10
96.8149652278203
 20
19.98928132106485
 10
96.83484881960115
 20
19.787399825796136
 10
96.86789352060995
 20
19.587251023428298
 10
96.91395782836386
 20
19.38969198186048
 10
96.97284448842514
 20
19.195568679238495
 10
97.04430133907498
 20
19.00571238134652
 10
97.12802239110863
 20
18.820936081999392
 10
97.22364913812821
 20
18.642031021678296
 10
97.33077209172208
 20
18.469763299317528
 10
97.44893253495714
 20
18.30487059175126
 10
97.57762448667513
 20
18.148058994868084
 10
97.71629686818167
 20
18.0
 10
97.86435586304975
 20
17.861327618493466
 10
98.02116745993294
 20
17.732635666775465
 10
98.1860601674992
 20
17.614475223540406
 10
98.35832788985996
 20
17.507352269946537
 10
98.53723295018106
 20
17.411725522926965
 10
98.72200924952818
 20
17.32800447089331
 10
98.91186554742016
 20
17.25654762024347
 10
99.10598885004215
 20
17.197660960182183
 10
99.30354789160997
 20
17.15159665242828
 10
99.5036966939778
 20
17.118551951419484
 10
99.70557818924652
 20
17.098668359638626
 10
99.90832788985996
 20
17.092031021678295
 10
100.11107759047341
 20
17.098668359638626
 10
100.31295908574212
 20
17.118551951419484
 10
100.51310788810997
 20
17.15159665242828
 10
100.71066692967779
 20
17.197660960182183
 10
100.90479023229977
 20
17.25654762024347
 10
101.09464653019174
 20
17.32800447089331
 10
101.27942282953887
 20
17.411725522926965
 10
101.45832788985997
 20
17.507352269946537
 10
101.63059561222073
 20
17.614475223540406
 10
101.795488319787
 20
17.73263566677547
 10
101.95229991667019
 20
17.861327618493466
 10
102.10035891153827
 20
18.0
 10
102.2390312930448
 20
18.148058994868084
 10
102.3677232447628
 20
18.304870591751264
 10
102.48588368799786
 20
18.46976329931753
 10
102.59300664159173
 20
18.642031021678296
 10
102.6886333886113
 20
18.820936081999392
 10
102.77235444064496
 20
19.00571238134652
 10
102.8438112912948
 20
19.195568679238495
 10
102.90269795135607
 20
19.389691981860484
  0
TEXT
  5
8F
330
17
100
AcDbEntity
  8
LABEL
100
AcDbText
 10
2.0
 20
-14.0
 30
0.0
 40
8.0
  1
P3_rib_R3_centre  qty 1  t12
 11
2.0
 21
-14.0
 31
0.0
100
AcDbText
  0
ENDSEC
  0
SECTION
  2
OBJECTS
  0
DICTIONARY
  5
A
330
0
100
AcDbDictionary
281
1
  3
ACAD_COLOR
350
B
  3
ACAD_GROUP
350
C
  3
ACAD_LAYOUT
350
D
  3
ACAD_MATERIAL
350
E
  3
ACAD_MLEADERSTYLE
350
F
  3
ACAD_MLINESTYLE
350
10
  3
ACAD_PLOTSETTINGS
350
11
  3
ACAD_PLOTSTYLENAME
350
12
  3
ACAD_SCALELIST
350
14
  3
ACAD_TABLESTYLE
350
15
  3
ACAD_VISUALSTYLE
350
16
  3
EZDXF_META
350
2D
  0
DICTIONARY
  5
B
330
A
100
AcDbDictionary
281
1
  0
DICTIONARY
  5
C
330
A
100
AcDbDictionary
281
1
  0
DICTIONARY
  5
D
330
A
100
AcDbDictionary
281
1
  3
Model
350
1A
  3
Layout1
350
1E
  0
DICTIONARY
  5
E
330
A
100
AcDbDictionary
281
1
  3
ByBlock
350
1F
  3
ByLayer
350
20
  3
Global
350
21
  0
DICTIONARY
  5
F
330
A
100
AcDbDictionary
281
1
  3
Standard
350
2C
  0
DICTIONARY
  5
10
330
A
100
AcDbDictionary
281
1
  3
Standard
350
22
  0
DICTIONARY
  5
11
330
A
100
AcDbDictionary
281
1
  0
ACDBDICTIONARYWDFLT
  5
12
330
A
100
AcDbDictionary
281
1
  3
Normal
350
13
100
AcDbDictionaryWithDefault
340
13
  0
ACDBPLACEHOLDER
  5
13
330
12
  0
DICTIONARY
  5
14
330
A
100
AcDbDictionary
281
1
  0
DICTIONARY
  5
15
330
A
100
AcDbDictionary
281
1
  0
DICTIONARY
  5
16
330
A
100
AcDbDictionary
281
1
  3
2dWireframe
350
5A
  3
Basic
350
5B
  3
Brighten
350
5C
  3
ColorChange
350
5D
  3
Conceptual
350
5E
  3
Dim
350
5F
  3
EdgeColorOff
350
60
  3
Facepattern
350
61
  3
Flat
350
62
  3
FlatWithEdges
350
63
  3
Gouraud
350
64
  3
GouraudWithEdges
350
65
  3
Hidden
350
66
  3
JitterOff
350
67
  3
Linepattern
350
68
  3
Modeling
350
69
  3
OverhangOff
350
6A
  3
Realistic
350
6B
  3
Shaded
350
6C
  3
Shaded with edges
350
6D
  3
Shades of Gray
350
6E
  3
Sketchy
350
6F
  3
Thicken
350
70
  3
Wireframe
350
71
  3
X-Ray
350
72
  0
LAYOUT
  5
1A
330
D
100
AcDbPlotSettings
  1

  4
A3
  6

 40
7.5
 41
20.0
 42
7.5
 43
20.0
 44
420.0
 45
297.0
 46
0.0
 47
0.0
 48
0.0
 49
0.0
140
0.0
141
0.0
142
1.0
143
1.0
 70
1024
 72
1
 73
0
 74
5
  7

 75
16
 76
0
 77
2
 78
300
147
1.0
148
0.0
149
0.0
100
AcDbLayout
  1
Model
 70
1
 71
0
 10
0.0
 20
0.0
 11
420.0
 21
297.0
 12
0.0
 22
0.0
 32
0.0
 14
1e+20
 24
1e+20
 34
1e+20
 15
-1e+20
 25
-1e+20
 35
-1e+20
146
0.0
 13
0.0
 23
0.0
 33
0.0
 16
1.0
 26
0.0
 36
0.0
 17
0.0
 27
1.0
 37
0.0
 76
1
330
17
  0
LAYOUT
  5
1E
330
D
100
AcDbPlotSettings
  1

  4
A3
  6

 40
7.5
 41
20.0
 42
7.5
 43
20.0
 44
420.0
 45
297.0
 46
0.0
 47
0.0
 48
0.0
 49
0.0
140
0.0
141
0.0
142
1.0
143
1.0
 70
0
 72
1
 73
0
 74
5
  7

 75
16
 76
0
 77
2
 78
300
147
1.0
148
0.0
149
0.0
100
AcDbLayout
  1
Layout1
 70
1
 71
1
 10
0.0
 20
0.0
 11
420.0
 21
297.0
 12
0.0
 22
0.0
 32
0.0
 14
1e+20
 24
1e+20
 34
1e+20
 15
-1e+20
 25
-1e+20
 35
-1e+20
146
0.0
 13
0.0
 23
0.0
 33
0.0
 16
1.0
 26
0.0
 36
0.0
 17
0.0
 27
1.0
 37
0.0
 76
1
330
1B
  0
MATERIAL
  5
1F
102
{ACAD_REACTORS
330
E
102
}
330
E
100
AcDbMaterial
  1
ByBlock
  2

 70
0
 40
1.0
 71
1
 41
1.0
 91
-1023410177
 42
1.0
 72
1
  3

 73
1
 74
1
 75
1
 44
0.5
 73
0
 45
1.0
 46
1.0
 77
1
  4

 78
1
 79
1
170
1
 48
1.0
171
1
  6

172
1
173
1
174
1
140
1.0
141
1.0
175
1
  7

176
1
177
1
178
1
143
1.0
179
1
  8

270
1
271
1
272
1
145
1.0
146
1.0
273
1
  9

274
1
275
1
276
1
 42
1.0
 72
1
  3

 73
1
 74
1
 75
1
 94
63
  0
MATERIAL
  5
20
102
{ACAD_REACTORS
330
E
102
}
330
E
100
AcDbMaterial
  1
ByLayer
  2

 70
0
 40
1.0
 71
1
 41
1.0
 91
-1023410177
 42
1.0
 72
1
  3

 73
1
 74
1
 75
1
 44
0.5
 73
0
 45
1.0
 46
1.0
 77
1
  4

 78
1
 79
1
170
1
 48
1.0
171
1
  6

172
1
173
1
174
1
140
1.0
141
1.0
175
1
  7

176
1
177
1
178
1
143
1.0
179
1
  8

270
1
271
1
272
1
145
1.0
146
1.0
273
1
  9

274
1
275
1
276
1
 42
1.0
 72
1
  3

 73
1
 74
1
 75
1
 94
63
  0
MATERIAL
  5
21
102
{ACAD_REACTORS
330
E
102
}
330
E
100
AcDbMaterial
  1
Global
  2

 70
0
 40
1.0
 71
1
 41
1.0
 91
-1023410177
 42
1.0
 72
1
  3

 73
1
 74
1
 75
1
 44
0.5
 73
0
 45
1.0
 46
1.0
 77
1
  4

 78
1
 79
1
170
1
 48
1.0
171
1
  6

172
1
173
1
174
1
140
1.0
141
1.0
175
1
  7

176
1
177
1
178
1
143
1.0
179
1
  8

270
1
271
1
272
1
145
1.0
146
1.0
273
1
  9

274
1
275
1
276
1
 42
1.0
 72
1
  3

 73
1
 74
1
 75
1
 94
63
  0
MLINESTYLE
  5
22
102
{ACAD_REACTORS
330
10
102
}
330
10
100
AcDbMlineStyle
  2
Standard
 70
0
  3

 62
256
 51
90.0
 52
90.0
 71
2
 49
0.5
 62
256
  6
BYLAYER
 49
-0.5
 62
256
  6
BYLAYER
  0
MLEADERSTYLE
  5
2C
102
{ACAD_REACTORS
330
F
102
}
330
F
100
AcDbMLeaderStyle
179
2
170
2
171
1
172
0
 90
2
 40
0.0
 41
0.0
173
1
 91
-1056964608
 92
-2
290
1
 42
2.0
291
1
 43
8.0
  3
Standard
 44
4.0
300

342
29
174
1
175
1
176
0
178
1
 93
-1056964608
 45
4.0
292
0
297
0
 46
4.0
 94
-1056964608
 47
1.0
 49
1.0
140
1.0
294
1
141
0.0
177
0
142
1.0
295
0
296
0
143
3.75
271
0
272
9
273
9
  0
DICTIONARY
  5
2D
330
A
100
AcDbDictionary
280
1
281
1
  3
CREATED_BY_EZDXF
350
2E
  3
WRITTEN_BY_EZDXF
350
92
  0
DICTIONARYVAR
  5
2E
330
2D
100
DictionaryVariables
280
0
  1
1.4.4 @ 2026-07-14T16:02:56.833752+00:00
  0
VISUALSTYLE
  5
5A
102
{ACAD_REACTORS
330
16
102
}
330
16
100
AcDbVisualStyle
  2
2dWireframe
 70
4
 90
0
 40
0.6
 62
7
290
0
291
0
  0
VISUALSTYLE
  5
5B
102
{ACAD_REACTORS
330
16
102
}
330
16
100
AcDbVisualStyle
  2
Basic
 70
7
 90
1
 40
0.6
 62
7
290
0
291
1
  0
VISUALSTYLE
  5
5C
102
{ACAD_REACTORS
330
16
102
}
330
16
100
AcDbVisualStyle
  2
Brighten
 70
12
 90
2
 40
0.6
 62
7
290
0
291
1
  0
VISUALSTYLE
  5
5D
102
{ACAD_REACTORS
330
16
102
}
330
16
100
AcDbVisualStyle
  2
ColorChange
 70
16
 90
2
 40
0.6
 62
8
290
0
291
1
  0
VISUALSTYLE
  5
5E
102
{ACAD_REACTORS
330
16
102
}
330
16
100
AcDbVisualStyle
  2
Conceptual
 70
9
 90
3
 40
0.6
 62
7
290
0
291
0
  0
VISUALSTYLE
  5
5F
102
{ACAD_REACTORS
330
16
102
}
330
16
100
AcDbVisualStyle
  2
Dim
 70
11
 90
2
 40
0.6
 62
7
290
0
291
1
  0
VISUALSTYLE
  5
60
102
{ACAD_REACTORS
330
16
102
}
330
16
100
AcDbVisualStyle
  2
EdgeColorOff
 70
22
 90
2
 40
0.6
 62
7
290
0
291
1
  0
VISUALSTYLE
  5
61
102
{ACAD_REACTORS
330
16
102
}
330
16
100
AcDbVisualStyle
  2
Facepattern
 70
15
 90
2
 40
0.6
 62
7
290
0
291
1
  0
VISUALSTYLE
  5
62
102
{ACAD_REACTORS
330
16
102
}
330
16
100
AcDbVisualStyle
  2
Flat
 70
0
 90
2
 40
0.6
 62
7
290
0
291
1
  0
VISUALSTYLE
  5
63
102
{ACAD_REACTORS
330
16
102
}
330
16
100
AcDbVisualStyle
  2
FlatWithEdges
 70
1
 90
2
 40
0.6
 62
7
290
0
291
1
  0
VISUALSTYLE
  5
64
102
{ACAD_REACTORS
330
16
102
}
330
16
100
AcDbVisualStyle
  2
Gouraud
 70
2
 90
2
 40
0.6
 62
7
290
0
291
1
  0
VISUALSTYLE
  5
65
102
{ACAD_REACTORS
330
16
102
}
330
16
100
AcDbVisualStyle
  2
GouraudWithEdges
 70
3
 90
2
 40
0.6
 62
7
290
0
291
1
  0
VISUALSTYLE
  5
66
102
{ACAD_REACTORS
330
16
102
}
330
16
100
AcDbVisualStyle
  2
Hidden
 70
6
 90
1
 40
0.6
 62
7
290
0
291
0
  0
VISUALSTYLE
  5
67
102
{ACAD_REACTORS
330
16
102
}
330
16
100
AcDbVisualStyle
  2
JitterOff
 70
20
 90
2
 40
0.6
 62
7
290
0
291
1
  0
VISUALSTYLE
  5
68
102
{ACAD_REACTORS
330
16
102
}
330
16
100
AcDbVisualStyle
  2
Linepattern
 70
14
 90
2
 40
0.6
 62
7
290
0
291
1
  0
VISUALSTYLE
  5
69
102
{ACAD_REACTORS
330
16
102
}
330
16
100
AcDbVisualStyle
  2
Modeling
 70
10
 90
2
 40
0.6
 62
7
290
0
291
0
  0
VISUALSTYLE
  5
6A
102
{ACAD_REACTORS
330
16
102
}
330
16
100
AcDbVisualStyle
  2
OverhangOff
 70
21
 90
2
 40
0.6
 62
7
290
0
291
1
  0
VISUALSTYLE
  5
6B
102
{ACAD_REACTORS
330
16
102
}
330
16
100
AcDbVisualStyle
  2
Realistic
 70
8
 90
2
 40
0.6
 62
7
290
0
291
0
  0
VISUALSTYLE
  5
6C
102
{ACAD_REACTORS
330
16
102
}
330
16
100
AcDbVisualStyle
  2
Shaded
 70
27
 90
2
 40
0.6
 62
7
290
0
291
0
  0
VISUALSTYLE
  5
6D
102
{ACAD_REACTORS
330
16
102
}
330
16
100
AcDbVisualStyle
  2
Shaded with edges
 70
26
 90
2
 40
0.6
 62
7
290
0
291
0
  0
VISUALSTYLE
  5
6E
102
{ACAD_REACTORS
330
16
102
}
330
16
100
AcDbVisualStyle
  2
Shades of Gray
 70
23
 90
2
 40
0.6
 62
7
290
0
291
0
  0
VISUALSTYLE
  5
6F
102
{ACAD_REACTORS
330
16
102
}
330
16
100
AcDbVisualStyle
  2
Sketchy
 70
24
 90
1
 40
0.6
 62
7
290
0
291
0
  0
VISUALSTYLE
  5
70
102
{ACAD_REACTORS
330
16
102
}
330
16
100
AcDbVisualStyle
  2
Thicken
 70
13
 90
2
 40
0.6
 62
7
290
0
291
1
  0
VISUALSTYLE
  5
71
102
{ACAD_REACTORS
330
16
102
}
330
16
100
AcDbVisualStyle
  2
Wireframe
 70
5
 90
0
 40
0.6
 62
7
290
0
291
0
  0
VISUALSTYLE
  5
72
102
{ACAD_REACTORS
330
16
102
}
330
16
100
AcDbVisualStyle
  2
X-Ray
 70
25
 90
2
 40
0.5
 62
7
290
0
291
0
  0
DICTIONARYVAR
  5
92
330
2D
100
DictionaryVariables
280
0
  1
1.4.4 @ 2026-07-14T16:02:56.841641+00:00
  0
ENDSEC
  0
EOF
